<?xml version="1.0" encoding="utf-8"?>
<!DOCTYPE svg PUBLIC "-//W3C//DTD SVG 1.1//EN" "http://www.w3.org/Graphics/SVG/1.1/DTD/svg11.dtd">
<svg version="1.1" id="Layer_1" xmlns="http://www.w3.org/2000/svg" xmlns:xlink="http://www.w3.org/1999/xlink" x="0px" y="0px"
	 width="512px" height="512px" viewBox="0 0 512 512" enable-background="new 0 0 512 512" xml:space="preserve">
<g>
	<path d="M256.266,68.798v193.298c11.837,1.688,27.83,2.992,49.14,2.992c38.814,0,70.466-10.24,90.344-30.4
		c18.989-19.15,31.106-48.838,31.106-88.431c0-37.975-11.878-64.427-31.106-81.897c-18.347-17.181-44.111-25.79-81.433-25.79
		l-58.052,0.554v31.677l61.266-0.504c45.635,0,71.11,28.057,70.787,77.243c0,56.473-28.137,85.504-75.485,85.179
		c-7.425,0-15.087,0-20.155-0.975V68.784h-36.412V68.798L256.266,68.798z"/>
	<path d="M140.333,232.954c-25.72,0-50.94-8.538-61.305-13.699l-11.597,31.787c14.525,7.862,42.682,15.339,75.39,15.339
		c66.646,0,104.736-29.663,104.736-67.267c0-30.042-26.479-50.536-59.197-55.293v-0.697c33.091-9.604,49.648-28.679,49.648-51.929
		c0-29.051-28.54-54.298-84.027-54.298c-32.303,0-62.149,8.213-77.438,17.102l11.599,30.376
		c11.169-6.161,33.096-14.038,55.011-14.038c29.437,0,43.172,12.654,43.172,27.703c0,22.213-29.791,31.081-53.463,31.081h-22.737
		v30.761h23.617c30.983,0,60.764,11.264,60.764,37.528C195.023,214.86,179.237,232.954,140.333,232.954z"/>
	<path d="M508.583,404.898l-266.78-101.175c-0.685-0.266-1.415-0.266-2.1,0L-27.082,404.898c-1.395,0.521-2.335,2.046-2.335,3.739
		c0,1.717,0.968,3.225,2.355,3.739L56.63,443.58c0.256,0.146,0.512,0.237,0.787,0.265l182.299,67.964
		c0.324,0.137,0.683,0.191,1.017,0.191c0.352,0,0.698-0.056,1.035-0.191l266.779-99.432c1.387-0.515,2.332-2.022,2.348-3.74
		C510.896,406.922,509.961,405.419,508.583,404.898z M320.516,341.852l82.261,31.194l-73.244,28.871l-81.425-31.734l71.959-28.028
		C320.226,342.083,320.356,341.942,320.516,341.852z M318.955,406.063l-80.021,31.515l-82.185-31.837l80.709-31.421L318.955,406.063
		z M240.733,311.603l69.166,26.239l-72.447,28.21l-69.229-26.974L240.733,311.603z M157.51,343.167
		c0.042,0.02,0.083,0.057,0.131,0.08l69.184,26.936l-80.738,31.435L75.44,374.265L157.51,343.167z M-15.061,408.599l79.867-30.282
		c0.151,0.094,0.248,0.224,0.4,0.272l70.225,27.199l-77.295,30.089L-15.061,408.599z M68.977,439.936l77.117-30.022l82.262,31.86
		l-75.113,29.592L68.977,439.936z M240.733,503.948l-76.683-28.58l74.899-29.52l77.304,29.964L240.733,503.948z M326.559,471.974
		c-0.357-0.409-0.753-0.775-1.272-0.952l-75.736-29.319l79.999-31.522l79.579,31L326.559,471.974z M420.015,437.146l-79.922-31.138
		l72.4-28.534c0.247-0.093,0.484-0.299,0.696-0.49l83.34,31.589L420.015,437.146z"/>
</g>
</svg>
