<?xml version="1.0" encoding="utf-8"?>
<!DOCTYPE svg PUBLIC "-//W3C//DTD SVG 1.1//EN" "http://www.w3.org/Graphics/SVG/1.1/DTD/svg11.dtd">
<svg version="1.1" id="Layer_1" xmlns="http://www.w3.org/2000/svg" xmlns:xlink="http://www.w3.org/1999/xlink" x="0px" y="0px"
	 width="512px" height="512px" viewBox="0 0 512 512" enable-background="new 0 0 512 512" xml:space="preserve">
<path d="M441.453,228.275V53.458H70.547v174.818H441.453z M394.043,101.434v78.865H117.956v-78.865H394.043L394.043,101.434z"/>
<g>
	<path d="M102.675,396.169c0-24.127,16.232-40.799,39.484-40.799c22.811,0,38.605,16.233,39.042,40.799
		c0,23.253-15.792,40.362-39.92,40.362C118.907,436.531,102.675,419.422,102.675,396.169z"/>
	<path d="M216.736,396.169c0-24.127,16.232-40.799,39.484-40.799c22.812,0,38.605,16.233,39.043,40.799
		c0,23.253-15.792,40.362-39.922,40.362C232.969,436.531,216.736,419.422,216.736,396.169z"/>
	<path d="M330.8,396.169c0-24.127,16.23-40.799,39.483-40.799c22.812,0,38.606,16.233,39.042,40.799
		c0,23.253-15.791,40.362-39.92,40.362C347.03,436.531,330.8,419.422,330.8,396.169z"/>
</g>
</svg>
