<?xml version="1.0" encoding="utf-8"?>
<!DOCTYPE svg PUBLIC "-//W3C//DTD SVG 1.1//EN" "http://www.w3.org/Graphics/SVG/1.1/DTD/svg11.dtd">
<svg version="1.1" id="Layer_1" xmlns="http://www.w3.org/2000/svg" xmlns:xlink="http://www.w3.org/1999/xlink" x="0px" y="0px"
	 width="512px" height="512px" viewBox="0 0 512 512" enable-background="new 0 0 512 512" xml:space="preserve">
<path d="M236.681,38.35c-27.028,0-48.94,21.911-48.94,48.94s21.912,48.94,48.94,48.94c27.028,0,48.94-21.911,48.94-48.94
	S263.709,38.35,236.681,38.35z M236.681,115.648c-15.663,0-28.358-12.697-28.358-28.358c0-15.662,12.695-28.358,28.358-28.358
	c15.661,0,28.358,12.697,28.358,28.358C265.039,102.952,252.342,115.648,236.681,115.648z"/>
<path d="M430.845,365.736c-27.029,0-48.941,21.911-48.941,48.94c0,27.028,21.912,48.94,48.941,48.94
	c27.027,0,48.939-21.912,48.939-48.94C479.784,387.647,457.872,365.736,430.845,365.736z M430.845,443.035
	c-15.663,0-28.359-12.697-28.359-28.358c0-15.662,12.696-28.358,28.359-28.358c15.661,0,28.357,12.696,28.357,28.358
	C459.202,430.338,446.506,443.035,430.845,443.035z"/>
<path d="M388.714,418.877c0-6.73,1.352-14.067,3.79-19.912H133.939l111.852-269.654l11.742-0.477
	c-0.51,0.019-1.016,0.039-1.529,0.039c-16.88,0-42.492-10.054-49.024-24.494L68.199,440.812h325.658
	C390.57,434.202,388.714,426.759,388.714,418.877z"/>
</svg>
