<svg xmlns="http://www.w3.org/2000/svg" viewBox="0 0 16 16">
    <path style="line-height:normal;text-indent:0;text-align:start;text-decoration-line:none;text-decoration-style:solid;text-decoration-color:#000;text-transform:none;block-progression:tb;isolation:auto;mix-blend-mode:normal" d="M 10 0 C 7.5596223 0 5.5418073 1.7650992 5.1074219 4.0839844 C 2.7766666 4.5071284 1 6.5497905 1 9 C 1 11.755288 3.2447116 14 6 14 C 8.4495471 14 10.492109 12.224356 10.916016 9.8945312 C 13.235504 9.4611318 15 7.4408563 15 5 C 15 2.2447116 12.755288 0 10 0 z M 10 1 C 12.214712 1 14 2.7852884 14 5 C 14 6.8720503 12.716145 8.4233342 10.986328 8.8632812 C 10.968137 8.2731006 10.848162 7.7114241 10.638672 7.1914062 L 9.8515625 7.9785156 C 9.9385625 8.3065156 10 8.644 10 9 C 10 11.214712 8.2147116 13 6 13 C 3.7852884 13 2 11.214712 2 9 C 2 6.7852884 3.7852884 5 6 5 C 6.356 5 6.6934844 5.0614375 7.0214844 5.1484375 L 7.8085938 4.3613281 C 7.2868373 4.1511375 6.7232244 4.0311587 6.1308594 4.0136719 C 6.5699185 2.2812254 8.1266368 1 10 1 z M 8.4648438 3 L 9.8789062 4.4140625 L 6.4140625 7.8789062 L 5 6.4648438 L 5 10 L 8.5351562 10 L 7.1210938 8.5859375 L 10.585938 5.1210938 L 12 6.5351562 L 12 3 L 8.4648438 3 z" color="#000" font-weight="400" font-family="sans-serif" white-space="normal" overflow="visible"/>
</svg>