<?xml version="1.0" encoding="UTF-8"?>
<svg width="463px" height="463px" viewBox="0 0 463 463" version="1.1" xmlns="http://www.w3.org/2000/svg" xmlns:xlink="http://www.w3.org/1999/xlink">
    <title>Page 1</title>
    <g id="Page-1" stroke="none" stroke-width="1" fill="none" fill-rule="evenodd">
        <rect id="Rectangle-Copy-79" fill="none" x="0" y="0" width="463" height="463"></rect>
        <path d="M172,30.5 C179.870058,30.5 186.995058,33.6899712 192.152543,38.8474567 C197.200295,43.8952086 200.363366,50.8276415 200.49568,58.4986795 L200.5,59 L200.5,172 C200.5,179.870058 197.310029,186.995058 192.152543,192.152543 C187.104791,197.200295 180.172358,200.363366 172.50132,200.49568 L172,200.5 L59,200.5 C51.1299423,200.5 44.0049423,197.310029 38.8474567,192.152543 C33.7997049,187.104791 30.6366341,180.172358 30.5043205,172.50132 L30.5,172 L30.5,59 C30.5,51.1299423 33.6899712,44.0049423 38.8474567,38.8474567 C43.8952086,33.7997049 50.8276415,30.6366341 58.4986795,30.5043205 L59,30.5 L172,30.5 Z M151,63.5 L80,63.5 L79.5778478,63.5052957 C75.2288735,63.6145363 71.297839,65.4074981 68.4106377,68.2946994 C65.4511963,71.2541408 63.587826,75.3641639 63.5000899,79.9905195 L63.5000899,79.9905195 L63.5,151 L63.5052957,151.422152 C63.6145363,155.771126 65.4074981,159.702161 68.2946994,162.589362 C71.2541408,165.548804 75.3641639,167.412174 79.9905195,167.49991 L79.9905195,167.49991 L151,167.5 L151.422152,167.494704 C155.771126,167.385464 159.702161,165.592502 162.589362,162.705301 C165.548804,159.745859 167.412174,155.635836 167.49991,151.00948 L167.49991,151.00948 L167.5,80 L167.494611,79.5741276 C167.383461,75.1869507 165.559865,71.225341 162.667262,68.3327381 C159.681349,65.3468254 155.556349,63.5 151,63.5 L151,63.5 Z" id="Combined-Shape" stroke="#979797" fill="#000000"></path>
        <path d="M407,30.5 C414.870058,30.5 421.995058,33.6899712 427.152543,38.8474567 C432.200295,43.8952086 435.363366,50.8276415 435.49568,58.4986795 L435.5,59 L435.5,172 C435.5,179.870058 432.310029,186.995058 427.152543,192.152543 C422.104791,197.200295 415.172358,200.363366 407.50132,200.49568 L407,200.5 L294,200.5 C286.129942,200.5 279.004942,197.310029 273.847457,192.152543 C268.799705,187.104791 265.636634,180.172358 265.50432,172.50132 L265.5,172 L265.5,59 C265.5,51.1299423 268.689971,44.0049423 273.847457,38.8474567 C278.895209,33.7997049 285.827642,30.6366341 293.49868,30.5043205 L294,30.5 L407,30.5 Z M386,63.5 L315,63.5 L314.577848,63.5052957 C310.228874,63.6145363 306.297839,65.4074981 303.410638,68.2946994 C300.451196,71.2541408 298.587826,75.3641639 298.50009,79.9905195 L298.50009,79.9905195 L298.5,151 L298.505296,151.422152 C298.614536,155.771126 300.407498,159.702161 303.294699,162.589362 C306.254141,165.548804 310.364164,167.412174 314.99052,167.49991 L314.99052,167.49991 L386,167.5 L386.422152,167.494704 C390.771126,167.385464 394.702161,165.592502 397.589362,162.705301 C400.548804,159.745859 402.412174,155.635836 402.49991,151.00948 L402.49991,151.00948 L402.5,80 L402.494611,79.5741276 C402.383461,75.1869507 400.559865,71.225341 397.667262,68.3327381 C394.681349,65.3468254 390.556349,63.5 386,63.5 L386,63.5 Z" id="Combined-Shape-Copy-5" stroke="#979797" fill="#000000"></path>
        <path d="M407,261.5 C414.870058,261.5 421.995058,264.689971 427.152543,269.847457 C432.200295,274.895209 435.363366,281.827642 435.49568,289.49868 L435.5,290 L435.5,403 C435.5,410.870058 432.310029,417.995058 427.152543,423.152543 C422.104791,428.200295 415.172358,431.363366 407.50132,431.49568 L407,431.5 L294,431.5 C286.129942,431.5 279.004942,428.310029 273.847457,423.152543 C268.799705,418.104791 265.636634,411.172358 265.50432,403.50132 L265.5,403 L265.5,290 C265.5,282.129942 268.689971,275.004942 273.847457,269.847457 C278.895209,264.799705 285.827642,261.636634 293.49868,261.50432 L294,261.5 L407,261.5 Z M386,294.5 L315,294.5 L314.577848,294.505296 C310.228874,294.614536 306.297839,296.407498 303.410638,299.294699 C300.451196,302.254141 298.587826,306.364164 298.50009,310.99052 L298.50009,310.99052 L298.5,382 L298.505296,382.422152 C298.614536,386.771126 300.407498,390.702161 303.294699,393.589362 C306.254141,396.548804 310.364164,398.412174 314.99052,398.49991 L314.99052,398.49991 L386,398.5 L386.422152,398.494704 C390.771126,398.385464 394.702161,396.592502 397.589362,393.705301 C400.548804,390.745859 402.412174,386.635836 402.49991,382.00948 L402.49991,382.00948 L402.5,311 L402.494611,310.574128 C402.383461,306.186951 400.559865,302.225341 397.667262,299.332738 C394.681349,296.346825 390.556349,294.5 386,294.5 L386,294.5 Z" id="Combined-Shape-Copy-6" stroke="#979797" fill="#000000"></path>
        <path d="M172,261.5 C179.870058,261.5 186.995058,264.689971 192.152543,269.847457 C197.200295,274.895209 200.363366,281.827642 200.49568,289.49868 L200.5,290 L200.5,403 C200.5,410.870058 197.310029,417.995058 192.152543,423.152543 C187.104791,428.200295 180.172358,431.363366 172.50132,431.49568 L172,431.5 L59,431.5 C51.1299423,431.5 44.0049423,428.310029 38.8474567,423.152543 C33.7997049,418.104791 30.6366341,411.172358 30.5043205,403.50132 L30.5,403 L30.5,290 C30.5,282.129942 33.6899712,275.004942 38.8474567,269.847457 C43.8952086,264.799705 50.8276415,261.636634 58.4986795,261.50432 L59,261.5 L172,261.5 Z M151,294.5 L80,294.5 L79.5778478,294.505296 C75.2288735,294.614536 71.297839,296.407498 68.4106377,299.294699 C65.4511963,302.254141 63.587826,306.364164 63.5000899,310.99052 L63.5000899,310.99052 L63.5,382 L63.5052957,382.422152 C63.6145363,386.771126 65.4074981,390.702161 68.2946994,393.589362 C71.2541408,396.548804 75.3641639,398.412174 79.9905195,398.49991 L79.9905195,398.49991 L151,398.5 L151.422152,398.494704 C155.771126,398.385464 159.702161,396.592502 162.589362,393.705301 C165.548804,390.745859 167.412174,386.635836 167.49991,382.00948 L167.49991,382.00948 L167.5,311 L167.494611,310.574128 C167.383461,306.186951 165.559865,302.225341 162.667262,299.332738 C159.681349,296.346825 155.556349,294.5 151,294.5 L151,294.5 Z" id="Combined-Shape-Copy-7" stroke="#979797" fill="#000000"></path>
    </g>
</svg>