<?xml version="1.0" encoding="utf-8"?>
<!-- Generator: Adobe Illustrator 21.0.2, SVG Export Plug-In . SVG Version: 6.00 Build 0)  -->
<svg version="1.1" id="Layer_1" xmlns="http://www.w3.org/2000/svg" xmlns:xlink="http://www.w3.org/1999/xlink" x="0px" y="0px"
	 viewBox="0 0 512 512" style="enable-background:new 0 0 512 512;" xml:space="preserve">
<style type="text/css">
	.st0{fill:none;stroke:#000000;stroke-width:6;stroke-miterlimit:10;}
</style>
<path class="st0" d="M359.7,328.7v-11.5c0-14.4-2.7-27.9-8.1-40.5c-5.5-12.6-13-23.5-22.3-32.8c-9.5-9.4-20.5-16.9-33.1-22.3
	c-12.6-5.4-26-8.1-40.3-8.1s-27.7,2.7-40.3,8.1c-12.6,5.4-23.6,12.8-32.9,22.3c-9.4,9.3-16.9,20.2-22.3,32.8
	c-5.6,12.6-8.3,26.1-8.3,40.5v11.5h-92v-11.5c0-18,2.3-35.3,7-52c4.6-16.6,11.3-32.2,19.8-46.8s18.7-27.8,30.6-39.6
	c11.9-12,25-22.3,39.6-30.8c14.6-8.5,30.1-15.1,46.8-19.8c16.7-4.7,34-7,52-7s35.3,2.3,52,7c16.6,4.6,32.3,11.3,46.8,19.8
	c14.6,8.6,27.8,18.8,39.6,30.8c11.9,11.8,22,25,30.6,39.6c8.5,14.5,15.3,30.5,19.8,46.8c4.7,16.7,7,34,7,52v11.5H359.7z"/>
</svg>
