<?xml version="1.0" encoding="UTF-8"?>
<svg width="598px" height="611px" viewBox="0 0 598 611" version="1.1" xmlns="http://www.w3.org/2000/svg" xmlns:xlink="http://www.w3.org/1999/xlink">
	<g id="arc" transform="translate(298.656250, 283.252319) rotate(36.000000) translate(-298.656250, -283.252319) translate(55.156250, 110.752319)" fill="#000000" fill-rule="nonzero">
		<path d="M469.574,225.928 C483.476,214.949 490.295,196.389 485.417,178.2 C480.378,159.411 464.326,146.517 446.06,144.566 C404.5,61.215 316.773,10.719 225.165,18.023 C225.166,18.023 225.167,18.024 225.167,18.025 C214.189,4.06 195.557,-2.8 177.303,2.087 C158.78,7.045 145.98,22.674 143.731,40.577 C61.569,81.374 12.09,169.771 19.487,262.945 C4.808,273.791 -2.53,292.865 2.482,311.552 C7.093,328.742 20.922,340.99 37.232,344.445 L77.203,333.745 C76.739,332.931 81.541,330.706 81.09,329.885 C90.822,318.788 95.014,303.203 90.905,287.881 C86.806,272.603 75.429,261.216 61.5,256.445 C60.116,187.349 100.542,115.112 159.442,81.04 C170.515,90.462 185.884,94.472 200.996,90.427 C216.424,86.297 227.878,74.765 232.579,60.682 C300.324,59.51 371.755,100.7 406.374,160.373 C396.953,171.434 392.944,186.78 396.993,201.871 C401.236,217.695 413.292,229.338 427.9,233.786 M435.575,167.618 C447.848,164.333 460.466,171.61 463.754,183.871 C467.043,196.136 459.76,208.74 447.485,212.025 C435.21,215.31 422.593,208.035 419.304,195.771 C416.015,183.508 423.3,170.904 435.575,167.618 Z M183.609,25.596 C195.029,22.54 206.769,29.311 209.829,40.721 C212.889,52.131 206.111,63.86 194.69,66.916 C183.27,69.974 171.529,63.202 168.47,51.792 C165.41,40.383 172.188,28.654 183.609,25.596 Z M40.381,277.607 C52.654,274.322 65.273,281.599 68.561,293.863 C71.851,306.125 64.565,318.729 52.291,322.015 C40.018,325.3 27.4,318.023 24.112,305.761 C20.823,293.498 28.107,280.894 40.381,277.607 Z" id="Shape"></path>
	</g>
</svg>