<?xml version="1.0" encoding="utf-8"?>
<!DOCTYPE svg PUBLIC "-//W3C//DTD SVG 1.1//EN" "http://www.w3.org/Graphics/SVG/1.1/DTD/svg11.dtd">
<svg version="1.1" id="Layer_1" xmlns="http://www.w3.org/2000/svg" xmlns:xlink="http://www.w3.org/1999/xlink" x="0px" y="0px"
	 width="512px" height="512px" viewBox="0 0 512 512" enable-background="new 0 0 512 512" xml:space="preserve">
<g>
	<path d="M475.024,57.517l-96.082,168.386c-3.569,6.229-10.546,7.258-15.526,2.256l-46.453-46.802
		c-4.98-5.001-12.122-4.108-15.9,2.01l-65.237,105.841c-3.756,6.097-10.96,7.056-16.003,2.144l-30.368-29.832
		c-5.044-4.936-12.64-4.287-16.896,1.406L76.89,391.273c-4.276,5.737-2.18,10.404,4.608,10.404H481.5V59.482
		C481.521,52.136,478.594,51.242,475.024,57.517L475.024,57.517z"/>
	<path d="M481.5,449.463 59.292,449.463 59.292,34.496 30.5,34.496 30.5,476.504 481.5,476.504z"/>
</g>
</svg>
