<?xml version="1.0" encoding="UTF-8"?>
<svg width="463px" height="463px" viewBox="0 0 463 463" version="1.1" xmlns="http://www.w3.org/2000/svg" xmlns:xlink="http://www.w3.org/1999/xlink">
    <title>Page 1</title>
    <g id="Page-1" stroke="none" stroke-width="1" fill="none" fill-rule="evenodd">
        <rect id="Rectangle-Copy-77" fill="none" x="0" y="0" width="463" height="463"></rect>
        <g id="at" transform="translate(0.000000, 4.000000)" fill-rule="nonzero">
            <path d="M45.2820358,179.309325 C69.1285989,88.8544844 155.544793,28.9427515 249.276994,37.8810712 C348.450516,49.5437322 422.880997,133.470764 421.992122,232.632843 L421.992122,232.632843 L421.992122,245.590887 C422.265374,265.079859 414.335732,283.797911 400.114873,297.232502 C385.313356,311.714219 364.733662,318.811311 344.07876,316.557058 C323.423858,314.302805 304.887793,302.936663 293.607211,285.608374 C266.491469,322.511111 217.119814,335.624564 175.071382,317.092312 C133.022949,298.56006 109.696109,253.405772 119.066243,208.68191 C128.436377,163.958049 167.963457,131.78823 213.966346,131.445768 C238.498832,131.386822 262.122276,140.660805 279.981906,157.361855 C281.24211,147.814978 289.476262,140.701519 299.172476,140.783182 C309.771135,140.783182 318.363046,149.31482 318.363046,159.839128 L318.363046,159.839128 L318.363046,242.160817 C317.64904,260.35455 331.225112,275.998976 349.451768,277.985996 C358.352196,278.3482 367.018492,275.10192 373.460426,268.99267 C379.902361,262.88342 383.566361,254.436185 383.610983,245.590887 L383.610983,245.590887 L383.610983,232.632843 C384.635955,152.822192 324.711138,85.1698421 244.863163,75.992964 C176.555127,69.7616815 112.372889,109.282672 87.6295434,172.811471 C62.8861977,236.34027 83.5866034,308.459338 138.341389,349.488734 C193.096174,390.518131 268.617129,390.500603 323.352594,349.445795 C327.413015,346.332687 332.559618,344.963443 337.643569,345.643709 C342.72752,346.323975 347.325556,348.997114 350.411297,353.066425 C356.812683,361.436076 355.181369,373.371961 346.765089,379.74475 C313.273718,405.207183 272.266992,419 230.086425,419 C203.590517,418.527814 177.470285,412.69199 153.324146,401.849648 C67.204192,364.036533 21.4354728,269.764165 45.2820358,179.309325 Z M214.350158,169.557661 C181.600301,169.557661 155.051297,195.920422 155.051297,228.440535 C155.051297,260.960649 181.600301,287.32341 214.350158,287.32341 C247.056284,287.218814 273.543683,260.917225 273.649018,228.440535 C273.649018,195.920422 247.100014,169.557661 214.350158,169.557661 Z" id="Shape" fill="#231F20"></path>
        </g>
    </g>
</svg>