<?xml version="1.0" encoding="UTF-8"?>
<svg version="1.1" id="Layer_1" xmlns="http://www.w3.org/2000/svg" xmlns:xlink="http://www.w3.org/1999/xlink" x="0px" y="0px"
	 viewBox="0 0 400.494 400.494" style="enable-background:new 0 0 400.494 400.494;" xml:space="preserve">
<g>
	<g>
		<path d="M191.598,77.998c-5.985-4.654-11.863-8.755-17.567-12.191c-28.523,25.851-51.702,57.764-70.001,91.505
			c2.437,9.365,5.432,18.898,9.032,28.488c10.972-23.634,24.622-46.039,40.515-66.678
			C164.897,104.263,177.574,90.352,191.598,77.998z"/>
		<path d="M310.208,253.578c6.927-2.77,13.414-5.821,19.451-9.144c-2.053-9.313-4.71-18.898-7.926-28.657
			c-3.989,9.59-8.535,19.123-13.578,28.544C308.984,247.48,309.65,250.526,310.208,253.578z"/>
		<path d="M90.278,146.498c-6.927,2.77-13.414,5.821-19.451,9.144c8.248,37.458,23.931,74.01,44.396,106.414
			c9.257,2.55,18.954,4.71,29.041,6.318c-11.924-17.085-22.385-35.205-31.201-54.093c-8.786-18.642-16.271-38.374-20.731-58.527
			C91.502,152.596,90.836,149.55,90.278,146.498z"/>
		<path d="M308.155,155.755c-8.899,40.264-28.462,78.971-51.932,112.619c10.143-1.72,19.896-3.881,29.21-6.482
			c19.912-32.788,35.799-68.362,44.175-105.912c-5.873-3.272-12.36-6.374-19.456-9.257
			C309.599,149.657,308.989,152.709,308.155,155.755z"/>
		<path d="M289.923,44.687c14.797,8.535,23.444,29.153,24.387,57.252c7.316,2.493,14.357,5.263,21.059,8.259
			c0.568-28.334-5.228-61.752-29.373-79.877c-28.616-21.484-68.27-9.4-95.718,7.936c5.929,4.157,11.807,8.812,17.623,13.911
			C243.976,43.525,270.246,33.326,289.923,44.687z"/>
		<path d="M168.988,117.463c10.25-0.947,20.674-1.388,31.258-1.388c10.808,0,21.228,0.445,31.314,1.331
			c-6.651-8.09-13.414-15.406-20.173-22.057c-7.368-0.225-14.746-0.225-22.113,0C182.346,102.113,175.583,109.48,168.988,117.463z"
			/>
		<path d="M86.182,102.108c0.625-19.825,5.059-45.348,23.388-56.817c20.818-13.025,49.106-1.198,67.994,9.789
			c49.388,28.739,86.088,79.713,109.865,130.662c3.604-9.59,6.595-19.067,9.032-28.431c-15.882-29.281-35.395-56.904-58.752-80.717
			c-22.533-22.968-49.69-44.216-80.896-53.642c-24.95-7.537-52.9-5.069-70.994,15.386c-17.091,19.318-21.228,47.186-20.695,72.079
			C71.831,107.427,78.866,104.601,86.182,102.108z"/>
		<path d="M182.413,247.91c5.627,2.14,11.643,3.231,17.669,3.231c25.354,0,47.237-19.886,49.562-45.153
			c2.324-25.277-15.447-48.932-40.448-53.555c-24.991-4.623-50.171,10.972-57.037,35.466
			C145.288,212.398,158.625,238.873,182.413,247.91z"/>
		<path d="M226.46,334.274C223.634,336.936,233.556,327.848,226.46,334.274L226.46,334.274z"/>
		<path d="M191.598,322.083c-2.33-2.053-4.71-4.214-7.096-6.431c-10.752-0.389-21.228-1.219-31.37-2.493
			c6.815,7.649,13.798,14.74,20.895,21.115C179.904,330.782,185.782,326.681,191.598,322.083z"/>
		<path d="M314.309,297.973c-0.609,19.267-4.721,43.31-21.448,55.506c-19.123,13.937-46.362,4.234-64.906-5.678
			c-5.821,5.043-11.75,9.754-17.679,14.024c27.843,16.881,66.693,29.629,95.647,7.997c24.284-18.14,30.049-51.738,29.445-80.159
			C328.66,292.654,321.626,295.423,314.309,297.973z"/>
		<path d="M247.355,313.103c-10.307,1.275-20.782,2.161-31.427,2.493c-12.846,12.544-27.52,23.793-43.341,32.312
			c-14.254,7.67-31.083,14.182-47.549,12.186c-34.319-4.152-40.12-45.937-38.968-73.651v-0.276
			c0.558-14.054,2.627-28.349,6.205-41.953c-4.987-9.421-9.533-18.898-13.522-28.431c-8.991,27.279-14.766,56.315-13.512,85.146
			c0.963,22.17,6.415,46.1,22.231,62.602c40.341,42.081,105.841,1.946,138.988-29.256
			C233.556,327.843,240.54,320.752,247.355,313.103z"/>
		<path d="M345.626,127.894c3.818,2.105,30.116,16.569-0.223-0.125c-0.271-0.148-0.287-0.156-0.104-0.055
			c-21.968-12.026-46.194-19.967-70.67-24.997c6.262,8.202,12.247,16.85,17.9,25.938c28.493,8.141,61.158,22.431,78.7,47.503
			c6.815,9.743,10.307,21.33,7.224,33.085c-3.292,12.575-12.534,22.815-22.364,30.868c-23.03,18.872-52.731,29.604-81.49,35.953
			c-33.234,7.337-67.63,9.472-101.555,6.943c-24.986-1.864-50.473-6.072-74.168-14.408c-0.998,7.055-1.772,14.208-1.772,21.34
			c40.591,12.795,84.04,16.835,126.418,14.239c41.59-2.55,85.258-11.295,121.882-31.974c26.967-13.481,55.091-39.864,55.091-72.161
			C400.494,167.024,372.241,142.592,345.626,127.894z"/>
		<path d="M24.041,185.052c10.737-25.032,40.228-40.412,64.251-49.638c6.385-2.632,13.015-4.89,19.676-6.707
			c5.596-9.032,11.638-17.736,17.956-25.994c-24.443,5.023-49.029,12.856-70.83,25.16c-1.111,0.553-2.161,1.111-3.215,1.772h-0.056
			c-25.861,14.915-52.613,39.424-51.804,71.788c0.809,32.492,28.764,56.397,55.076,70.876c0.666-7.316,1.771-14.797,3.215-22.333
			C36.682,236.636,12.157,212.746,24.041,185.052z"/>
	</g>
</g>
</svg>
