<?xml version="1.0" encoding="utf-8"?>
<!DOCTYPE svg PUBLIC "-//W3C//DTD SVG 1.1//EN" "http://www.w3.org/Graphics/SVG/1.1/DTD/svg11.dtd">
<svg version="1.1" id="Layer_1" xmlns="http://www.w3.org/2000/svg" xmlns:xlink="http://www.w3.org/1999/xlink" x="0px" y="0px"
	 width="512px" height="512px" viewBox="0 0 512 512" enable-background="new 0 0 512 512" xml:space="preserve">
<path d="M329.864,167.415l-28.021-28.021L161.686,279.518c-23.227,23.207-23.227,60.869,0,84.076
	c23.227,23.222,60.87,23.222,84.09,0l168.179-168.152c38.728-38.688,38.728-101.438,0-140.125
	c-38.674-38.708-101.444-38.708-140.131,0L97.243,231.883c-0.121,0.122-0.263,0.25-0.37,0.357
	c-53.979,53.979-53.979,141.466,0,195.432c53.958,53.965,141.479,53.965,195.463,0c0.123-0.135,0.23-0.258,0.366-0.378l0.012,0.014
	l120.539-120.512l-28.048-28.021L264.667,399.274c-0.121,0.107-0.257,0.242-0.364,0.363c-38.438,38.418-100.958,38.418-139.403,0
	c-38.424-38.43-38.424-100.932,0-139.362c0.141-0.135,0.263-0.256,0.391-0.364l-0.014-0.027L301.871,83.331
	c23.179-23.18,60.923-23.18,84.104,0c23.18,23.187,23.166,60.91,0,84.083L217.788,335.572c-7.733,7.728-20.294,7.728-28.028,0
	c-7.72-7.726-7.72-20.308,0-28.021l140.158-140.137H329.864z"/>
</svg>
