<?xml version="1.0" encoding="UTF-8"?>
<svg version="1.1" id="Capa_1" xmlns="http://www.w3.org/2000/svg" xmlns:xlink="http://www.w3.org/1999/xlink" x="0px" y="0px"
	 viewBox="0 0 460 460" style="enable-background:new 0 0 460 460;" xml:space="preserve">
<g>
	<path d="M127.5,415h40c4.142,0,7.5-3.358,7.5-7.5s-3.358-7.5-7.5-7.5H135v-45h32.5c4.142,0,7.5-3.358,7.5-7.5s-3.358-7.5-7.5-7.5
		H135v-45h32.5c4.142,0,7.5-3.358,7.5-7.5s-3.358-7.5-7.5-7.5H135v-45h32.5c4.142,0,7.5-3.358,7.5-7.5s-3.358-7.5-7.5-7.5H135v-45
		h32.5c4.142,0,7.5-3.358,7.5-7.5s-3.358-7.5-7.5-7.5H135v-45h32.5c4.142,0,7.5-3.358,7.5-7.5s-3.358-7.5-7.5-7.5H135V55h32.5
		c4.142,0,7.5-3.358,7.5-7.5s-3.358-7.5-7.5-7.5h-40c-4.142,0-7.5,3.358-7.5,7.5v360C120,411.642,123.358,415,127.5,415z"/>
	<path d="M397.5,0h-340c-2.521,0-4.874,1.267-6.261,3.371c-1.388,2.105-1.625,4.766-0.632,7.083L80,79.04V407.5
		c0,26.191,21.309,47.5,47.5,47.5h230c26.191,0,47.5-21.309,47.5-47.5V7.5C405,3.358,401.643,0,397.5,0z M390,407.5
		c0,17.92-14.579,32.5-32.5,32.5h-230c-17.92,0-32.5-14.58-32.5-32.5v-330c0-1.016-0.206-2.021-0.606-2.955L68.874,15H390V407.5z"/>
</g>
</svg>