<?xml version="1.0" encoding="utf-8"?>
<!DOCTYPE svg PUBLIC "-//W3C//DTD SVG 1.1//EN" "http://www.w3.org/Graphics/SVG/1.1/DTD/svg11.dtd">
<svg version="1.1" id="Layer_1" xmlns="http://www.w3.org/2000/svg" xmlns:xlink="http://www.w3.org/1999/xlink" x="0px" y="0px"
	 width="403px" height="512px" viewBox="0 0 403 512" enable-background="new 0 0 403 512" xml:space="preserve">
<path d="M164.736,398.369c12.38,4.859,23.782,7.289,34.207,7.289c21.339,0,38.932-3.113,52.778-9.339
	c13.845-6.226,23.781-14.806,29.807-25.741c6.189-10.629,9.285-24.372,9.285-41.229c0-17.312-3.338-30.979-10.018-41.001
	c-9.448-14.274-20.932-23.842-34.451-28.701c-13.031-4.859-33.149-7.289-60.352-7.289c-12.054,0-20.279,0.759-24.678,2.277v32.801
	l-0.244,39.408l0.733,61.503c0,2.278,0.978,5.62,2.932,10.024L164.736,398.369L164.736,398.369z M161.315,228.438
	c7.005,1.063,15.882,1.595,26.632,1.595c28.505,0,50.007-4.935,64.504-14.806c14.495-9.87,21.745-26.878,21.745-51.025
	c0-17.008-6.924-31.208-20.769-42.596c-13.683-11.389-34.45-17.084-62.304-17.084c-8.47,0-19.059,0.987-31.763,2.961
	c0,6.683,0.162,12.53,0.488,17.54c1.14,18.527,1.629,39.712,1.465,63.554L161.07,210.9c0,6.53,0.081,12.376,0.244,17.54
	L161.315,228.438z M29.131,430.941l0.489-21.411c7.331-1.367,12.868-2.278,16.615-2.735c12.542-1.821,22.56-4.174,30.053-7.061
	c2.769-4.1,4.479-7.973,5.131-11.617c1.465-10.022,2.199-24.754,2.199-44.191l-0.489-113.21c-0.814-38.876-1.548-69.552-2.2-92.026
	c-0.163-13.211-1.058-21.488-2.688-24.83c-0.163-0.607-1.14-1.518-2.932-2.733c-2.932-1.822-8.551-2.96-16.859-3.416
	c-4.888-0.304-14.172-1.292-27.854-2.961l-0.978-18.908l63.526-1.367l92.847-2.961l10.995-0.228c0.815,0,1.955-0.037,3.421-0.114
	c1.465-0.075,2.606-0.113,3.421-0.113c0.162,0,1.913,0.038,5.253,0.113c3.34,0.076,6.639,0.114,9.896,0.114h18.08
	c14.335,0,29.889,2.05,46.668,6.151c7.004,1.975,14.822,4.937,23.455,8.884c9.284,4.403,17.592,10.174,24.922,17.313
	c7.168,7.136,12.463,15.033,15.884,23.69c3.421,8.656,5.13,17.919,5.13,27.79c0,10.63-2.607,20.35-7.819,29.158
	c-5.212,8.808-12.95,16.78-23.212,23.918c-4.234,3.037-16.452,8.883-36.649,17.54c28.831,6.226,50.578,17.311,65.237,33.257
	c14.986,16.098,22.479,34.016,22.479,53.757c0,11.542-2.361,23.767-7.085,36.675c-3.421,9.415-9.203,18.298-17.349,26.65
	c-10.751,10.935-22.152,19.135-34.206,24.602c-11.892,5.468-28.426,10.021-49.601,13.667c-13.356,2.278-29.482,3.113-48.379,2.507
	l-48.133-0.912c-13.683-0.305-37.953,0.531-72.812,2.506c-5.375,0.456-27.528,1.291-66.459,2.506L29.131,430.941z"/>
</svg>
