<?xml version="1.0" encoding="UTF-8"?>
<svg width="290px" height="290px" viewBox="0 0 290 290" version="1.1" xmlns="http://www.w3.org/2000/svg" xmlns:xlink="http://www.w3.org/1999/xlink">
    <title>Page 1</title>
    <g id="Page-1" stroke="none" stroke-width="1" fill="none" fill-rule="evenodd">
        <rect id="Rectangle-Copy-31" fill="none" transform="translate(145.000000, 145.000000) rotate(180.000000) translate(-145.000000, -145.000000) " x="0" y="0" width="290" height="290"></rect>
        <path d="M43.369,204 L43.3693694,249.630631 L85.5,249.63 L85.5,275 L35.2972973,275 C25.7442638,275 18,267.255736 18,257.702703 L18,204 L43.369,204 Z M274,204 L274,257.702703 C274,267.255736 266.255736,275 256.702703,275 L212.5,275 L212.5,249.63 L248.630631,249.630631 L248.63,204 L274,204 Z M115.5,249.63 L182.5,249.63 L182.5,275 L115.5,275 L115.5,249.63 Z M43.369,115 L43.369,174 L18,174 L18,115 L43.369,115 Z M274,115 L274,174 L248.63,174 L248.63,115 L274,115 Z M256.702703,19 C266.255736,19 274,26.7442638 274,36.2972973 L274,85 L248.63,85 L248.630631,44.3693694 L212.499,44.369 L212.499,19 L256.702703,19 Z M85.499,19 L85.499,44.369 L43.3693694,44.3693694 L43.369,85 L18,85 L18,36.2972973 C18,26.7442638 25.7442638,19 35.2972973,19 L85.499,19 Z M182.499,19 L182.499,44.369 L115.499,44.369 L115.499,19 L182.499,19 Z" id="Combined-Shape" fill="#000000" fill-rule="nonzero"></path>
    </g>
</svg>