<?xml version="1.0" encoding="UTF-8"?>
<svg width="290px" height="290px" viewBox="0 0 290 290" version="1.1" xmlns="http://www.w3.org/2000/svg" xmlns:xlink="http://www.w3.org/1999/xlink">
    <g id="Page-1" stroke="none" stroke-width="1" fill="none" fill-rule="evenodd">
        <rect id="Rectangle-Copy-35" fill="none" transform="translate(145.000000, 145.000000) rotate(180.000000) translate(-145.000000, -145.000000) " x="0" y="0" width="290" height="290"></rect>
        <g id="box-shadow" transform="translate(7.000000, 19.000000)" fill="#020202" fill-rule="nonzero" stroke="#000000">
            <polygon id="Path" points="255.652947 44 255.652947 249.013854 50 249.013854 50 265 271 265 271 44"></polygon>
            <path d="M216.86747,0 L8.13253012,0 C3.64134036,0 0,3.6575241 0,8.1686747 L0,217.831325 C0,222.342476 3.64134036,226 8.13253012,226 L216.86747,226 C221.35866,226 225,222.342476 225,217.831325 L225,8.1686747 C225,3.6575241 221.35866,0 216.86747,0 Z M190.625828,189.509849 C190.625828,192.671127 188.073569,195.234048 184.926958,195.234048 L38.648494,195.234048 C35.5005271,195.234048 32.9489458,192.670446 32.9489458,189.509849 L32.9489458,42.5805783 C32.9489458,39.4186205 35.5005271,36.8563795 38.648494,36.8563795 L184.926958,36.8563795 C188.074247,36.8563795 190.625828,39.4193012 190.625828,42.5805783 L190.625828,189.509849 Z" id="Shape"></path>
        </g>
    </g>
</svg>