<?xml version="1.0" encoding="UTF-8"?>
<svg width="403px" height="404px" viewBox="0 0 403 404" version="1.1" xmlns="http://www.w3.org/2000/svg" xmlns:xlink="http://www.w3.org/1999/xlink">
    <g id="plus2" fill="#000000" fill-rule="nonzero">
        <path d="M394.714,155 C389.381,149.666 382.904,147 375.286,147 L256.429,147 L256.429,28.143 C256.429,20.525 253.762,14.048 248.429,8.715 C243.096,3.382 236.619,0.715 229,0.715 L174.143,0.715 C166.525,0.715 160.048,3.382 154.715,8.715 C149.382,14.048 146.715,20.525 146.715,28.143 L146.715,147 L27.858,147 C20.239,147 13.763,149.666 8.429,155 C3.096,160.333 0.429,166.81 0.429,174.429 L0.429,229.285 C0.429,236.904 3.096,243.381 8.429,248.713 C13.763,254.047 20.239,256.713 27.858,256.713 L146.714,256.713 L146.714,375.57 C146.714,383.189 149.381,389.665 154.714,394.999 C160.047,400.332 166.524,402.999 174.143,402.999 L229,402.999 C236.618,402.999 243.095,400.332 248.428,394.999 C253.761,389.665 256.428,383.189 256.428,375.57 L256.428,256.713 L375.285,256.713 C382.903,256.713 389.38,254.047 394.713,248.713 C400.046,243.381 402.713,236.904 402.713,229.285 L402.713,174.429 L402.713,174.428 C402.713,166.81 400.047,160.333 394.714,155 Z M371.072,228.357 L228.072,228.357 L228.072,371.357 L175.072,371.357 L175.072,228.357 L32.072,228.357 L32.072,175.357 L175.072,175.357 L175.072,33.357 L228.072,33.357 L228.072,175.357 L371.072,175.357 L371.072,228.357 Z" id="Shape"></path>
    </g>
</svg>