<?xml version="1.0" encoding="utf-8"?>
<!DOCTYPE svg PUBLIC "-//W3C//DTD SVG 1.1//EN" "http://www.w3.org/Graphics/SVG/1.1/DTD/svg11.dtd">
<svg version="1.1" xmlns="http://www.w3.org/2000/svg" xmlns:xlink="http://www.w3.org/1999/xlink" width="512" height="512" viewBox="0 0 512 512">
<path d="M461.428 0q20 0 35 13.286t15 33.285q0 18-12.857 43.143-94.857 179.714-132.857 214.857-27.714 26-62.286 26-36 0-61.857-26.428t-25.857-62.714q0-36.572 26.286-60.572l182.286-165.429q16.857-15.428 37.143-15.428zM201.714 295.428q11.143 21.714 30.428 37.143t43 21.714l0.286 20.286q1.143 60.857-37 99.143t-99.572 38.285q-35.143 0-62.285-13.286t-43.572-36.428-24.715-52.286-8.286-62.857q2 1.428 11.714 8.572t17.715 12.714 16.857 10.428 13.143 4.857q11.715 0 15.715-10.572 7.143-18.857 16.428-32.143t19.857-21.714 25.143-13.572 29.429-7.286 35.714-3z" fill="#444444"></path>
</svg>
