<?xml version="1.0" encoding="utf-8"?>
<!DOCTYPE svg PUBLIC "-//W3C//DTD SVG 1.1//EN" "http://www.w3.org/Graphics/SVG/1.1/DTD/svg11.dtd">
<svg version="1.1" id="Capa_1" xmlns="http://www.w3.org/2000/svg" xmlns:xlink="http://www.w3.org/1999/xlink" x="0px" y="0px"
	 width="777.891px" height="777.891px" viewBox="0 0 777.891 777.891" enable-background="new 0 0 777.891 777.891"
	 xml:space="preserve">
<path d="M558.904,615.125v-27.881c57.51-1.375,114.652,5.75,170.025-16.351l15.939-6.361c5.879-2.346,9.828-8.951,9.828-16.443
	c0.002-7.491-3.947-14.104-9.822-16.448l-15.936-6.369c-55.369-22.125-112.51-13.024-170.016-14.431l0.002-29.882l-209.885-1.271
	v-47.512H69.714L69.684,663.66l277.102,0.086l0.09-48.645L558.904,615.125z M536.418,588.287l-187.123-0.016l0.014-80.501
	l187.123,0.016L536.418,588.287z M715.156,548.08c-50.992,19.497-103.461,9.008-156.248,10.323l0.01-20.719
	C611.705,539.02,664.17,528.56,715.156,548.08z M121.878,519.014l165.44,0.079l-0.021,57.816l-165.442-0.08L121.878,519.014z"/>
<path d="M480.295,261.125v-27.881c48.803-1.375,97.294,5.75,144.284-16.351l13.526-6.361c4.988-2.346,8.34-8.951,8.34-16.443
	c0.002-7.491-3.35-14.104-8.335-16.448l-13.523-6.369c-46.986-22.125-95.476-13.024-144.275-14.431l0.002-29.882l-178.109-1.271
	V78.176H69.709L69.684,309.66l230.607,0.086l0.076-48.645L480.295,261.125z M461.213,234.287l-158.792-0.016l0.011-80.501
	l158.793,0.016L461.213,234.287z M612.891,194.08c-43.271,19.497-87.797,9.008-132.592,10.323l0.008-20.719
	C525.102,185.02,569.624,174.56,612.891,194.08z M118.518,165.014l128.281,0.079l-0.018,57.816l-128.283-0.08L118.518,165.014z"/>
</svg>
