<?xml version="1.0" encoding="utf-8"?>
<!DOCTYPE svg PUBLIC "-//W3C//DTD SVG 1.1//EN" "http://www.w3.org/Graphics/SVG/1.1/DTD/svg11.dtd">
<svg version="1.1" id="Layer_1" xmlns="http://www.w3.org/2000/svg" xmlns:xlink="http://www.w3.org/1999/xlink" x="0px" y="0px"
    width="512px" height="512px" viewBox="0 0 512 512" enable-background="new 0 0 512 512" xml:space="preserve">
<path d="M 25 125 L 75 125 L 75 475 L 25 475 ZM 125 125 L 175 125 L 175 475 L 125 475 ZM 550 125 L 250 125 C 236.25 125 225 136.25 225 150 L 225 450 C 225 463.75 236.25 475 250 475 L 550 475 C 563.75 475 575 463.75 575 450 L 575 150 C 575 136.25 563.75 125 550 125 ZM 275 425 L 337.5 346.25 L 382.125 400 L 444.625 319.5 L 525 425 Z"/>
</svg>