<?xml version="1.0" encoding="UTF-8"?>
<svg width="410px" height="410px" viewBox="0 0 410 410" version="1.1" xmlns="http://www.w3.org/2000/svg" xmlns:xlink="http://www.w3.org/1999/xlink">
    <g stroke="none" stroke-width="1" fill="none" fill-rule="evenodd">
        <rect id="Rectangle-Copy-42" fill="none" transform="translate(205.000000, 205.000000) rotate(180.000000) translate(-205.000000, -205.000000) " x="0" y="0" width="410" height="410"></rect>
        <path d="M364,43 C376.150264,43 386,52.8497355 386,65 L386,154 C386,166.150264 376.150264,176 364,176 L46,176 C33.8497355,176 24,166.150264 24,154 L24,65 C24,52.8497355 33.8497355,43 46,43 L364,43 Z M351,78 L59,78 L59,141 L351,141 L351,78 Z" id="Rectangle-Copy-44" fill="#000000" fill-rule="nonzero"></path>
        <path d="M364,225 C376.150264,225 386,234.849736 386,247 L386,336 C386,348.150264 376.150264,358 364,358 L46,358 C33.8497355,358 24,348.150264 24,336 L24,247 C24,234.849736 33.8497355,225 46,225 L364,225 Z M351,260 L59,260 L59,323 L351,323 L351,260 Z" id="Rectangle-Copy-43" fill="#000000" fill-rule="nonzero"></path>
    </g>
</svg>