<?xml version="1.0" encoding="utf-8"?>
<!DOCTYPE svg PUBLIC "-//W3C//DTD SVG 1.1//EN" "http://www.w3.org/Graphics/SVG/1.1/DTD/svg11.dtd">
<svg version="1.1" id="Layer_1" xmlns="http://www.w3.org/2000/svg" xmlns:xlink="http://www.w3.org/1999/xlink" x="0px" y="0px"
	 width="476px" height="512px" viewBox="0 0 476 512" enable-background="new 0 0 476 512" xml:space="preserve">
<path d="M462.286,34.25c-8.953-8.952-19.715-13.428-32.286-13.428H46c-12.571,0-23.333,4.476-32.284,13.428
	C4.764,43.202,0.287,53.964,0.287,66.535v347.428c0,12.572,4.477,23.334,13.429,32.286c8.951,8.952,19.713,13.428,32.284,13.428h384
	c12.572,0.001,23.334-4.475,32.286-13.428s13.428-19.715,13.428-32.286V66.535C475.715,53.964,471.239,43.202,462.286,34.25z
	 M430.501,413.25h-385v-346h385V413.25z"/>
<g>
	<path d="M146.896,131.704h87.224c17.266,0,30.141,0.721,38.625,2.159c8.484,1.439,16.076,4.442,22.773,9.005
		c6.697,4.565,12.28,10.643,16.745,18.234c4.466,7.591,6.698,16.101,6.698,25.527c0,10.222-2.753,19.599-8.261,28.132
		c-5.507,8.536-12.975,14.936-22.4,19.201c13.296,3.87,23.518,10.47,30.661,19.796c7.144,9.329,10.717,20.294,10.717,32.895
		c0,9.925-2.307,19.573-6.921,28.951c-4.614,9.376-10.918,16.871-18.904,22.476c-7.988,5.607-17.837,9.057-29.546,10.345
		c-7.344,0.795-25.057,1.29-53.137,1.488h-74.274V131.704z M190.955,168.022v50.459h28.876c17.166,0,27.834-0.247,32.001-0.744
		c7.54-0.893,13.471-3.498,17.788-7.814c4.315-4.316,6.474-9.996,6.474-17.043c0-6.747-1.86-12.228-5.581-16.447
		c-3.722-4.217-9.255-6.772-16.596-7.666c-4.368-0.495-16.92-0.744-37.659-0.744H190.955z M190.955,254.8v58.348h40.784
		c15.875,0,25.949-0.446,30.216-1.341c6.549-1.189,11.882-4.093,16-8.706c4.116-4.615,6.177-10.792,6.177-18.532
		c0-6.549-1.588-12.104-4.764-16.67c-3.177-4.563-7.766-7.889-13.767-9.972c-6.006-2.086-19.03-3.127-39.074-3.127H190.955z"/>
</g>
</svg>
