<?xml version="1.0" encoding="utf-8"?>
<!DOCTYPE svg PUBLIC "-//W3C//DTD SVG 1.1//EN" "http://www.w3.org/Graphics/SVG/1.1/DTD/svg11.dtd">
<svg version="1.1" xmlns="http://www.w3.org/2000/svg" xmlns:xlink="http://www.w3.org/1999/xlink" width="512" height="512" viewBox="0 0 512 512">
<g>
</g>
	<path d="M 478.125 540 L 61.875 540 C 27.743 540 0 512.2574999999999 0 478.125 L 0 61.875 C 0 27.7425 27.743 0 61.875 0 L 478.125 0 C 512.257 0 540 27.7425 540 61.875 L 540 478.125 C 540 512.2574999999999 512.257 540 478.125 540 ZM 61.875 33.75 C 46.373 33.75 33.75 46.3725 33.75 61.875 L 33.75 478.125 C 33.75 493.62750000000005 46.373 506.25 61.875 506.25 L 478.125 506.25 C 493.628 506.25 506.25 493.62750000000005 506.25 478.125 L 506.25 61.875 C 506.25 46.3725 493.628 33.75 478.125 33.75 L 61.875 33.75 ZM 270 540 C 260.685 540 253.125 532.44 253.125 523.125 L 253.125 16.875 C 253.125 7.5600000000000005 260.685 0 270 0 C 279.315 0 286.875 7.5600000000000005 286.875 16.875 L 286.875 523.125 C 286.875 532.44 279.315 540 270 540 ZM 523.125 286.875 L 16.875 286.875 C 7.56 286.875 0 279.31500000000005 0 270 C 0 260.685 7.56 253.125 16.875 253.125 L 523.125 253.125 C 532.44 253.125 540 260.685 540 270 C 540 279.31500000000005 532.44 286.875 523.125 286.875 ZM 135 202.5 C 125.685 202.5 118.125 194.94 118.125 185.625 L 118.125 106.875 C 118.125 97.56 125.685 90 135 90 C 144.315 90 151.875 97.56 151.875 106.875 L 151.875 185.625 C 151.875 194.94 144.315 202.5 135 202.5 ZM 174.375 163.125 L 95.625 163.125 C 86.31 163.125 78.75 155.565 78.75 146.25 C 78.75 136.935 86.31 129.375 95.625 129.375 L 174.375 129.375 C 183.69 129.375 191.25 136.935 191.25 146.25 C 191.25 155.565 183.69 163.125 174.375 163.125 ZM 106.875 450 C 102.555 450 98.235 448.3575 94.95 445.05 C 88.358 438.45750000000004 88.358 427.77000000000004 94.95 421.1775 L 151.2 364.9275 C 157.793 358.335 168.48 358.335 175.073 364.9275 C 181.665 371.52000000000004 181.665 382.20750000000004 175.073 388.8 L 118.823 445.05 C 115.515 448.3575 111.195 450 106.875 450 ZM 163.125 450 C 158.805 450 154.485 448.3575 151.2 445.05 L 94.95 388.8 C 88.358 382.20750000000004 88.358 371.52000000000004 94.95 364.9275 C 101.543 358.335 112.23 358.335 118.823 364.9275 L 175.073 421.1775 C 181.665 427.77000000000004 181.665 438.45750000000004 175.073 445.05 C 171.765 448.3575 167.445 450 163.125 450 ZM 455.625 157.5 L 354.375 157.5 C 345.06 157.5 337.5 149.94 337.5 140.625 C 337.5 131.31 345.06 123.75 354.375 123.75 L 455.625 123.75 C 464.94 123.75 472.5 131.31 472.5 140.625 C 472.5 149.94 464.94 157.5 455.625 157.5 ZM 455.625 450 L 354.375 450 C 345.06 450 337.5 442.44000000000005 337.5 433.125 C 337.5 423.81 345.06 416.25 354.375 416.25 L 455.625 416.25 C 464.94 416.25 472.5 423.81 472.5 433.125 C 472.5 442.44000000000005 464.94 450 455.625 450 ZM 455.625 382.5 L 354.375 382.5 C 345.06 382.5 337.5 374.94000000000005 337.5 365.625 C 337.5 356.31 345.06 348.75 354.375 348.75 L 455.625 348.75 C 464.94 348.75 472.5 356.31 472.5 365.625 C 472.5 374.94000000000005 464.94 382.5 455.625 382.5 Z" fill="#000000"></path>
</svg>
