<?xml version="1.0" encoding="UTF-8"?>
<!-- Generator: Adobe Illustrator 16.0.0, SVG Export Plug-In . SVG Version: 6.00 Build 0)  -->
<!DOCTYPE svg PUBLIC "-//W3C//DTD SVG 1.1//EN" "http://www.w3.org/Graphics/SVG/1.1/DTD/svg11.dtd">
<svg version="1.1" id="Capa_1" xmlns="http://www.w3.org/2000/svg" xmlns:xlink="http://www.w3.org/1999/xlink" x="0px" y="0px"
	 width="47px" height="47.001px" viewBox="0 0 47 47.001" style="enable-background:new 0 0 47 47.001;" xml:space="preserve">
<g>
	<g id="Layer_1_66_">
		<g>
			<path d="M39.524,0H7.478c-1.18,0-2.136,0.957-2.136,2.137v42.727c0,1.18,0.957,2.137,2.136,2.137h32.046
				c1.18,0,2.136-0.957,2.136-2.137V2.137C41.66,0.957,40.704,0,39.524,0z M37.387,4.272v6.409H9.614V4.272H37.387z M9.614,42.729
				V14.954h27.773v27.772H9.614V42.729z"/>
			<path d="M17.253,16.844h-4.435c-0.59,0-1.068,0.479-1.068,1.068v4.438c0,0.59,0.479,1.068,1.068,1.068h4.435
				c0.59,0,1.068-0.479,1.068-1.068v-4.438C18.322,17.321,17.845,16.844,17.253,16.844z"/>
			<path d="M25.717,16.844h-4.434c-0.59,0-1.068,0.479-1.068,1.068v4.438c0,0.59,0.478,1.068,1.068,1.068h4.434
				c0.59,0,1.068-0.479,1.068-1.068v-4.438C26.786,17.321,26.307,16.844,25.717,16.844z"/>
			<path d="M34.182,16.844h-4.435c-0.59,0-1.067,0.479-1.067,1.068v4.438c0,0.59,0.478,1.068,1.067,1.068h4.435
				c0.59,0,1.068-0.479,1.068-1.068v-4.438C35.25,17.321,34.772,16.844,34.182,16.844z"/>
			<path d="M17.253,25.555h-4.435c-0.59,0-1.068,0.478-1.068,1.067v4.438c0,0.59,0.479,1.067,1.068,1.067h4.435
				c0.59,0,1.068-0.478,1.068-1.067v-4.438C18.322,26.031,17.845,25.555,17.253,25.555z"/>
			<path d="M25.717,25.555h-4.434c-0.59,0-1.068,0.478-1.068,1.067v4.438c0,0.59,0.478,1.067,1.068,1.067h4.434
				c0.59,0,1.068-0.478,1.068-1.067v-4.438C26.786,26.031,26.307,25.555,25.717,25.555z"/>
			<path d="M17.253,34.266h-4.435c-0.59,0-1.068,0.478-1.068,1.066v4.438c0,0.592,0.479,1.068,1.068,1.068h4.435
				c0.59,0,1.068-0.479,1.068-1.068v-4.438C18.322,34.742,17.845,34.266,17.253,34.266z"/>
			<path d="M25.717,34.266h-4.434c-0.59,0-1.068,0.478-1.068,1.066v4.438c0,0.592,0.478,1.068,1.068,1.068h4.434
				c0.59,0,1.068-0.479,1.068-1.068v-4.438C26.786,34.742,26.307,34.266,25.717,34.266z"/>
			<path d="M34.182,25.555h-4.435c-0.59,0-1.067,0.478-1.067,1.067V39.77c0,0.592,0.478,1.068,1.067,1.068h4.435
				c0.59,0,1.068-0.479,1.068-1.068V26.622C35.25,26.031,34.772,25.555,34.182,25.555z"/>
		</g>
	</g>
</g>
<g>
</g>
<g>
</g>
<g>
</g>
<g>
</g>
<g>
</g>
<g>
</g>
<g>
</g>
<g>
</g>
<g>
</g>
<g>
</g>
<g>
</g>
<g>
</g>
<g>
</g>
<g>
</g>
<g>
</g>
</svg>
