<!-- Generated by IcoMoon.io -->
<svg version="1.1" xmlns="http://www.w3.org/2000/svg" width="288" height="256" viewBox="0 0 288 256">
<title>bubbles4</title>
<path d="M120 32c-12.666 0-24.895 1.987-36.346 5.907-10.731 3.673-20.279 8.859-28.376 15.412-15.011 12.148-23.278 27.701-23.278 43.793 0 8.998 2.517 17.737 7.48 25.975 5.172 8.585 12.974 16.448 22.565 22.739 7.61 4.992 12.734 12.988 14.091 21.988 0.225 1.498 0.407 3.001 0.545 4.508 0.68-0.63 1.356-1.279 2.028-1.948 6.034-6.010 14.172-9.328 22.581-9.328 1.337 0 2.68 0.084 4.023 0.255 4.84 0.613 9.781 0.924 14.687 0.924 12.666 0 24.895-1.987 36.346-5.907 10.732-3.673 20.279-8.858 28.376-15.411 15.012-12.148 23.278-27.701 23.278-43.793s-8.267-31.645-23.278-43.794c-8.097-6.553-17.644-11.738-28.376-15.411-11.451-3.919-23.679-5.907-36.346-5.907zM120 0v0c66.274 0 120 43.478 120 97.112s-53.726 97.112-120 97.112c-6.364 0-12.612-0.405-18.709-1.178-25.776 25.673-55.543 30.277-85.291 30.953v-6.284c16.063-7.839 29-22.117 29-38.434 0-2.276-0.178-4.512-0.508-6.698-27.14-17.804-44.492-44.997-44.492-75.472 0-53.633 53.726-97.112 120-97.112zM249 217.672c0 13.986 9.079 26.225 23 32.943v5.385c-25.781-0.579-49.447-4.525-71.786-26.531-5.285 0.662-10.698 1.010-16.214 1.010-23.868 0-45.852-6.44-63.404-17.26 36.168-0.126 70.315-11.714 96.209-32.668 13.052-10.563 23.349-22.957 30.603-36.837 7.691-14.716 11.591-30.395 11.591-46.602 0-2.612-0.113-5.209-0.315-7.792 18.142 14.984 29.315 35.406 29.315 57.919 0 26.122-15.039 49.43-38.56 64.691-0.286 1.874-0.44 3.79-0.44 5.742z"></path>
</svg>
