<?xml version="1.0" encoding="UTF-8"?>
<svg width="224px" height="186px" viewBox="0 0 224 186" version="1.1" xmlns="http://www.w3.org/2000/svg" xmlns:xlink="http://www.w3.org/1999/xlink">
    <title>video-camera</title>
    <g id="Page-1" stroke="none" stroke-width="1" fill="none" fill-rule="evenodd">
        <g id="video-camera">
            <path d="M223.5,150.516897 L223.5,39.4831028 L157.5,74.8515239 L157.5,115.148476 L223.5,150.516897 Z M214.5,54.516 L214.5,135.483 L166.5,109.761 L166.5,80.238 L214.5,54.516 Z" id="Path" fill="#000000" fill-rule="nonzero"></path>
            <path d="M143.4,23.5 L24.6,23.5 C11.3015676,23.5 0.5,34.2197376 0.5,47.4666667 L0.5,143.533333 C0.5,156.780262 11.3015676,167.5 24.6,167.5 L143.4,167.5 C156.698432,167.5 167.5,156.780262 167.5,143.533333 L167.5,47.4666667 C167.5,34.2197376 156.698432,23.5 143.4,23.5 Z M24.6,36.5 L143.4,36.5 C149.540768,36.5 154.5,41.4216624 154.5,47.4666667 L154.5,143.533333 C154.5,149.578338 149.540768,154.5 143.4,154.5 L24.6,154.5 C18.4592324,154.5 13.5,149.578338 13.5,143.533333 L13.5,47.4666667 C13.5,41.4216624 18.4592324,36.5 24.6,36.5 Z" id="Path" fill="#000000" fill-rule="nonzero"></path>
        </g>
    </g>
</svg>