<?xml version="1.0" encoding="UTF-8"?>
<svg width="228px" height="189px" viewBox="0 0 228 189" version="1.1" xmlns="http://www.w3.org/2000/svg" xmlns:xlink="http://www.w3.org/1999/xlink">
    <title>camera</title>
    <g id="Page-1" stroke="none" stroke-width="1" fill="none" fill-rule="evenodd">
        <g id="camera" transform="translate(7.000000, 7.000000)" fill="#000000" fill-rule="nonzero">
            <path d="M77.8181818,-7 L77.5489242,-6.99483389 C75.3115276,-6.90891777 73.2432197,-5.75601365 71.9947607,-3.88429749 L54.618,22.166 L19.4545455,22.1666667 C4.84491702,22.1666667 -7,34.0054337 -7,48.6111111 L-7,155.555556 C-7,170.161233 4.84491702,182 19.4545455,182 L194.545455,182 C209.155083,182 221,170.161233 221,155.555556 L221,48.6111111 L220.996456,48.1737799 C220.762825,33.7698422 209.008987,22.1666667 194.545455,22.1666667 L159.381,22.166 L142.005239,-3.88429749 C140.706842,-5.8308823 138.521696,-7 136.181818,-7 L77.8181818,-7 Z M81.563,7 L132.436,7 L149.812943,33.0509642 C151.11134,34.997549 153.296486,36.1666667 155.636364,36.1666667 L194.545455,36.1666667 C201.424724,36.1666667 207,41.7390483 207,48.6111111 L207,155.555556 C207,162.427618 201.424724,168 194.545455,168 L19.4545455,168 C12.5752764,168 7,162.427618 7,155.555556 L7,48.6111111 C7,41.7390483 12.5752764,36.1666667 19.4545455,36.1666667 L58.3636364,36.1666667 L58.6328939,36.1615006 C60.8702906,36.0755844 62.9385984,34.9226803 64.1870574,33.0509642 L81.563,7 Z" id="Path"></path>
            <path d="M107,51.5 C81.8710439,51.5 61.5,71.8710439 61.5,97 C61.5,122.128956 81.8710439,142.5 107,142.5 C132.128956,142.5 152.5,122.128956 152.5,97 C152.5,71.8710439 132.128956,51.5 107,51.5 Z M107,64.5 C124.949254,64.5 139.5,79.0507456 139.5,97 C139.5,114.949254 124.949254,129.5 107,129.5 C89.0507456,129.5 74.5,114.949254 74.5,97 C74.5,79.0507456 89.0507456,64.5 107,64.5 Z" id="Oval"></path>
        </g>
    </g>
</svg>