<?xml version="1.0" encoding="utf-8"?>
<!DOCTYPE svg PUBLIC "-//W3C//DTD SVG 1.1//EN" "http://www.w3.org/Graphics/SVG/1.1/DTD/svg11.dtd">
<svg version="1.1" id="Layer_1" xmlns="http://www.w3.org/2000/svg" xmlns:xlink="http://www.w3.org/1999/xlink" x="0px" y="0px"
	 width="512px" height="512px" viewBox="0 0 512 512" enable-background="new 0 0 512 512" xml:space="preserve">
<g>
	<path d="M3.562,355.844h36.317v66.062H3.562V355.844z"/>
	<path d="M3.562,256.75h36.317v66.062H3.562V256.75z"/>
	<path d="M475.683,190.688H512v66.062h-36.317V190.688z"/>
	<path d="M475.683,388.875H512v66.062h-36.317V388.875z"/>
	<path d="M475.683,289.781H512v66.062h-36.317V289.781z"/>
	<path d="M3.562,157.656h36.317v66.062H3.562V157.656z"/>
	<path d="M3.562,58.562h36.317v66.062H3.562V58.562z"/>
	<path d="M76.196,25.531h72.634v33.031H76.196V25.531z"/>
	<path d="M257.781,454.938h72.634v33.031h-72.634V454.938z"/>
	<path d="M366.732,454.938h72.634v33.031h-72.634V454.938z"/>
	<path d="M148.831,454.938h72.634v33.031h-72.634V454.938z"/>
	<path d="M39.879,454.938h72.634v33.031H39.879V454.938z"/>
	<path d="M185.839,25.531h72.633v33.031h-72.633V25.531z"/>
	<path d="M294.222,25.531h72.634v33.031h-72.634V25.531z"/>
	<path d="M475.133,92.036h36.315v66.062h-36.315V92.036z"/>
	<path d="M404.54,25.531h72.634v33.031H404.54V25.531z"/>
</g>
<g>
	<path d="M161.912,317.188l-15.096,59.5H97.441l64.471-231.811h62.897l66.043,231.811h-51.891l-16.354-59.5H161.912z
		 M215.689,277.979l-13.208-49.182c-3.774-13.757-7.548-30.954-10.692-44.711h-0.629c-3.145,13.757-6.291,31.298-9.75,44.711
		l-12.58,49.182H215.689z"/>
	<path d="M339.538,199.562h-0.629l-38.996,20.292l-7.862-39.208l54.406-27.515h39.312v223.556h-46.23V199.562z"/>
</g>
</svg>
