<?xml version="1.0" encoding="UTF-8"?>
<svg width="723px" height="721px" viewBox="0 0 723 721" version="1.1" xmlns="http://www.w3.org/2000/svg" xmlns:xlink="http://www.w3.org/1999/xlink">
    <title>Page 1</title>
    <g id="Page-1" stroke="none" stroke-width="1" fill="none" fill-rule="evenodd">
        <path d="M352.842586,0.845960856 L368.798828,1.00103897 C485.108131,2.13144473 593.833331,58.6413239 661.602407,153.001534 L663.643445,155.872502 L671.138285,166.523093 L665.405852,178.216978 C660.181939,188.873506 655.568863,199.818134 651.588811,210.997723 L650.893024,212.97302 L635.525401,257.071243 L611.307804,217.142242 C607.467575,210.810628 603.38825,204.632749 599.079697,198.621592 L597.898961,196.98633 L597.479,196.413 L596.610812,198.951962 C564.343636,294.843409 572.937384,399.884552 620.261964,489.210608 L621.707895,491.912623 L623.003,494.279 L623.359227,493.561026 C626.111452,487.971257 628.680472,482.294376 631.060944,476.541082 L631.847444,474.620501 L632.49216,473.015757 L650.005939,428.666167 L673.692503,470.418117 C679.197769,480.057209 685.206931,489.399203 691.694902,498.40531 L692.917001,500.09001 L700.649991,510.676635 L695.019047,522.515901 C650.873393,615.333748 569.806311,685.304644 471.644763,715.450026 L468.664959,716.351315 L453.156606,720.970386 L444.127919,707.541773 C438.246609,698.79434 431.933984,690.345291 425.213555,682.225878 L423.864038,680.606399 L401.265624,653.669483 L435.372729,645.125994 C442.672523,643.297469 449.893004,641.181692 457.017538,638.784567 L458.958202,638.123834 L460.33,637.646 L458.707994,635.783526 C375.758465,541.69839 250.310544,496.489613 126.557239,515.855778 L122.807703,516.462414 L120.446,516.871 L121.202507,518.091414 C124.877295,523.975535 128.764968,529.727379 132.858428,535.335348 L134.092633,537.013411 L135.146572,538.426516 L156.331354,566.650106 L121.663438,573.245679 C111.286756,575.219844 101.017285,577.718767 90.8945392,580.732692 L88.8719581,581.342341 L73.502874,586.031633 L64.3600715,572.817725 C-1.1446283,478.145103 -17.7135412,358.038454 19.5631267,249.261357 L20.7092094,245.968587 L25.8938103,231.3 L41.4516872,231.3 C42.4867399,231.3 43.4697663,231.331379 44.5471099,231.390113 L45.7230452,231.461824 L47.9646362,231.610131 L48.5179379,231.632125 L49.2616166,231.632421 L50.4844742,231.625103 L51.7137152,231.610403 L52.9522016,231.588258 L54.2027952,231.558603 L55.468358,231.521373 L56.7517519,231.476505 C56.9672958,231.468387 57.1837019,231.459948 57.4010298,231.451186 L59.3834806,231.363594 L60.7375394,231.295422 L62.1208769,231.219353 L63.5363551,231.135322 L65.7260967,230.994207 L68.0042532,230.834815 L69.5769135,230.718293 L71.1960241,230.593487 L73.7180448,230.390603 L75.4658021,230.244804 L110.928199,227.247982 L97.7559773,260.309366 C94.8249502,267.666045 92.2037842,275.137587 89.8982347,282.704184 L89.278,284.766 L90.9624044,284.582163 C214.707655,270.314833 323.149062,194.78553 379.487345,83.8717848 L381.17858,80.4999581 L382.032,78.749 L380.961174,78.6791851 C377.073714,78.4375186 373.180861,78.2748306 369.285022,78.1913297 L366.947179,78.1507332 L365.217598,78.1336441 L364.485917,78.1466811 L363.628073,78.182621 L362.53505,78.2465872 L358.826928,78.5002459 L357.722756,78.5675811 L357.032973,78.6043746 L356.01377,78.6497696 L320.068838,80.0593747 L335.18965,47.4191217 C339.641378,37.8094839 343.601896,27.980327 347.056023,17.9696962 L347.740092,15.9651617 L352.842586,0.845960856 Z M459.877,94.443 L459.401278,95.549931 C392.428081,248.714686 245.624848,352.05454 78.8456237,363.436168 L77.401,363.526 L77.3855839,364.19474 L77.352,366.281 L77.3587755,367.564923 C77.5490338,393.228004 81.1935291,418.719156 88.1713507,443.355835 L88.464,444.379 L89.5707339,444.133664 C254.10315,408.58363 424.837372,469.198436 530.119492,600.539199 L530.778,601.372 L531.635715,600.770066 C546.959021,589.935109 561.196777,577.637086 574.147423,564.048313 L574.841,563.316 L573.770872,561.717368 C490.513987,435.858605 476.805144,276.195223 537.388927,137.986169 L538.193,136.177 L537.943337,135.989207 C514.666505,118.527162 488.876472,104.707768 461.461907,94.999141 L459.877,94.443 Z" id="Path-2" fill="#000000" fill-rule="nonzero"></path>
        <path d="M379.673077,685.381136 C390.220152,695.47913 400.021345,706.324425 409,717.832201 C295.782369,733.063946 182.16486,692.777412 104,609.685198 C118.235849,606.405368 132.693682,604.170978 147.257212,603 C206.601335,656.511755 283.748011,686.153069 363.752747,686.181967 C369.12935,686.181967 374.3663,685.624867 379.673077,685.381136 L379.673077,685.381136 Z M289.636944,46.318923 C297.385013,33.733338 304.191297,20.5911179 310,7 C198.707507,23.9462293 101.756457,92.0339898 48,191 C62.7513171,190.358175 77.4355376,188.632378 91.9339899,185.836557 C137.437881,115.572038 208.28159,65.5832445 289.706681,46.2840349 L289.636944,46.318923 Z M690.077821,212 C683.223868,231.999441 678.504618,252.677819 676,273.684908 C684.152561,302.310579 688.331431,331.935849 688.417537,361.71659 C688.391818,373.266221 687.756786,384.806311 686.515129,396.288018 C692.522181,416.323307 700.602811,435.666912 710.623829,454 C732.488623,373.43523 725.218736,287.662871 690.11241,212 L690.077821,212 Z" id="Shape" fill="#000000" fill-rule="nonzero"></path>
    </g>
</svg>