<?xml version="1.0" encoding="UTF-8"?>
<svg width="290px" height="290px" viewBox="0 0 290 290" version="1.1" xmlns="http://www.w3.org/2000/svg" xmlns:xlink="http://www.w3.org/1999/xlink">
    <g stroke="none" stroke-width="1" fill="none" fill-rule="evenodd">
        <rect fill="none" transform="translate(145.000000, 145.000000) rotate(180.000000) translate(-145.000000, -145.000000) " x="0" y="0" width="290" height="290"></rect>
        <g id="diod" transform="translate(5.000000, 59.000000)" fill="#000000" fill-rule="nonzero">
            <path d="M198.597,29.551 L98.57,89.566 L198.597,140.394 L198.597,29.551 Z M224,172 L198.597443,172 L198.597,171.606 L80.402,106.602 L80.402557,164.298507 L55,164.298507 L55,103 L0,103 L0,76 L55,76 L55,8.98507463 L80.402557,8.98507463 L80.402,73.945 L198.597443,0 L224,0 L224,76 L280,76 L280,103 L224,103 L224,172 Z" id="shape"></path>
        </g>
    </g>
</svg>