<?xml version="1.0" encoding="utf-8"?>
<!DOCTYPE svg PUBLIC "-//W3C//DTD SVG 1.1//EN" "http://www.w3.org/Graphics/SVG/1.1/DTD/svg11.dtd">
<svg version="1.1" id="Layer_1" xmlns="http://www.w3.org/2000/svg" xmlns:xlink="http://www.w3.org/1999/xlink" x="0px" y="0px"
	 width="512px" height="512px" viewBox="0 0 512 512" enable-background="new 0 0 512 512" xml:space="preserve">
<path d="M462.108,212.255c-17.023-83.828-82.782-149.469-165.724-164.747c0.001,0,0.001,0.002,0.001,0.003
	C289.975,32.512,275.09,22,257.747,22c-17.599,0-32.66,10.827-38.911,26.178C136.305,64.86,71.429,131.543,55.834,215.972
	c-15.591,6.137-26.63,21.318-26.63,39.089c0,17.734,10.996,32.891,26.538,39.052c15.554,85.314,81.414,152.599,165.02,168.657
	c6.448,14.912,21.286,25.351,38.567,25.351c17.277,0,32.113-10.436,38.562-25.344c84.934-16.313,151.55-85.498,165.719-172.745
	C478.543,283.592,489,268.743,489,251.446C489,233.578,477.837,218.325,462.108,212.255z M257.747,44.357
	c10.85,0,19.646,8.796,19.646,19.647c0,10.851-8.797,19.647-19.646,19.647c-10.851,0-19.648-8.797-19.648-19.647
	C238.099,53.154,246.896,44.357,257.747,44.357z M70.87,276.176c-11.662,0-21.115-9.454-21.115-21.115
	c0-11.663,9.454-21.116,21.115-21.116c11.661,0,21.115,9.453,21.115,21.116C91.985,266.722,82.531,276.176,70.87,276.176z
	 M259.102,467.569c-11.662,0-21.115-9.454-21.115-21.115c0-11.662,9.453-21.116,21.115-21.116c11.661,0,21.115,9.454,21.115,21.116
	C280.217,458.115,270.763,467.569,259.102,467.569z M294.429,423.051c-7.51-11.407-20.424-18.94-35.101-18.94
	s-27.587,7.531-35.098,18.936c-60.888-15.912-114.541-70.882-129.703-133.048c11.265-7.534,18.686-20.367,18.686-34.938
	c0-14.531-7.378-27.336-18.591-34.878c15.2-61.636,68.21-116.129,128.521-132.372c7.576,10.991,20.246,18.199,34.604,18.199
	c14.657,0,27.553-7.511,35.068-18.89c60.33,15.051,113.856,68.563,130.357,129.734c-10.98,7.577-18.183,20.241-18.183,34.592
	c0,15.049,7.919,28.242,19.81,35.659C410.621,350.452,356.257,406.892,294.429,423.051z M447.334,272.449
	c-11.662,0-21.116-9.453-21.116-21.116c0-11.662,9.454-21.115,21.116-21.115c11.661,0,21.115,9.453,21.115,21.115
	C468.449,262.996,458.995,272.449,447.334,272.449z"/>
</svg>
