<?xml version="1.0" encoding="UTF-8"?>
<svg width="650px" height="650px" viewBox="0 0 650 650" version="1.1" xmlns="http://www.w3.org/2000/svg" xmlns:xlink="http://www.w3.org/1999/xlink">
    <g stroke="none" stroke-width="1" fill="none" fill-rule="evenodd">
        <g fill="#000000" fill-rule="nonzero">
            <path d="M438.233288,243.798847 C463.57066,288.57643 476.607945,339.700689 475.930423,391.623959 C475.930423,470.76041 449.585266,525 411.673943,525 C373.762619,525 347.417462,469.648943 347.417462,391.623959 C346.283475,339.408969 359.029802,287.878711 384.257844,242.68738 C373.831049,230.875247 339.827747,224.149256 324.392224,224.149256 C308.9567,224.149256 274.953398,230.875247 264.526603,242.68738 C289.754646,287.878711 302.500973,339.408969 301.366985,391.623959 C301.366985,470.76041 275.021828,525 237.110505,525 C199.199181,525 172.854025,469.648943 172.854025,391.623959 C171.754015,339.441691 184.419194,287.940064 209.480218,242.68738 C199.017581,230.887116 184.440038,223.922893 168.998636,223.347854 C139.654843,223.347854 109.454297,256.914158 94.675307,308.04164 L89.7489768,323.602178 L30.4188267,323.602178 C18.5895354,323.602178 9,313.649763 9,301.372838 C9,289.095912 18.5895354,279.143498 30.4188267,279.143498 L58.0491132,279.143498 C81.6098226,216.234465 123.590723,178 170.283765,178 C195.611135,178.532931 219.800273,189.019614 237.967258,207.342729 C256.020021,188.976673 299.437962,178.477636 324.713506,178 C350.168982,178.726654 393.666325,189.545078 411.673943,208.231903 C429.506146,189.455933 453.847877,178.884796 479.250341,178.884796 C504.652805,178.884796 450.388865,179.422105 475.716235,178.889174 C522.409277,178.889174 564.390177,217.123639 587.950887,280.032671 L615.581173,280.032671 C627.410465,280.032671 637,289.985086 637,302.262012 C637,314.538937 627.410465,324.491352 615.581173,324.491352 L557.321965,324.491352 L552.395634,308.930814 C536.545703,256.914158 506.345157,223.347854 475.716235,223.347854 C460.274833,223.922893 448.660083,231.986714 438.233288,243.798847 Z M390.008138,391.211778 C390.008138,447.592299 404.192767,474.450736 411.5,480 C418.377396,474.006795 432.991862,447.148358 432.991862,391.211778 C433.279241,354.303881 425.952782,317.755967 411.5,284 C397.047218,317.755967 389.720759,354.303881 390.008138,391.211778 Z M217.008138,391.211778 C217.008138,447.592299 231.192767,474.450736 238.5,480 C245.377396,474.006795 259.991862,447.148358 259.991862,391.211778 C260.279241,354.303881 252.952782,317.755967 238.5,284 C224.047218,317.755967 216.720759,354.303881 217.008138,391.211778 Z" id="Shape"></path>
            <rect id="Rectangle" fill="none" x="0" y="0" width="650" height="650"></rect>
        </g>
    </g>
</svg>