<?xml version="1.0" encoding="UTF-8"?>
<svg width="290px" height="290px" viewBox="0 0 290 290" version="1.1" xmlns="http://www.w3.org/2000/svg" xmlns:xlink="http://www.w3.org/1999/xlink">
    <g id="Page-1" stroke="none" stroke-width="1" fill="none" fill-rule="evenodd">
        <rect id="Rectangle-Copy-19" fill="none" transform="translate(145.000000, 145.000000) rotate(180.000000) translate(-145.000000, -145.000000) " x="0" y="0" width="290" height="290"></rect>
        <g id="resistor" transform="translate(22.000000, 49.000000)" fill="#000000" fill-rule="nonzero">
            <path d="M205.699412,166 L205.699412,166 C200.794665,166.009501 196.520734,161.405234 195.352941,154.852907 L172.634118,34.733158 L150.06,154.852907 C148.833115,161.436109 144.509672,166.029472 139.568824,166 L139.568824,166 C134.601089,166.075409 130.23866,161.472372 129.005294,154.852907 L106.431176,34.733158 L83.9294118,154.852907 C82.6166821,161.35863 78.3106691,165.861474 73.4020588,165.861474 C68.4934485,165.861474 64.1874355,161.35863 62.8747059,154.852907 L40.3005882,34.733158 L30.5329412,86.6822127 L7.23529412,86.6822127 C3.23935152,86.6822127 0,82.2265836 0,76.7302865 C0,71.2339894 3.23935152,66.7783603 7.23529412,66.7783603 L19.3182353,66.7783603 L29.8094118,11.147093 C31.0132082,4.54305284 35.3509148,-0.0654636562 40.3005882,0 L40.3005882,0 C45.2053351,-0.00950102706 49.4792664,4.59476575 50.6470588,11.147093 L73.2211765,131.266842 L95.7952941,11.147093 C97.022179,4.56389106 101.345622,-0.0294718915 106.286471,0 L106.286471,0 C111.254205,-0.0754088869 115.616634,4.52762849 116.85,11.147093 L139.424118,131.266842 L161.998235,11.147093 C163.258895,4.60041883 167.565695,0.0413134507 172.489412,0.0413134507 C177.413128,0.0413134507 181.719929,4.60041883 182.980588,11.147093 L205.554706,131.266842 L215.322353,79.3177873 L238.764706,79.3177873 C242.760648,79.3177873 246,83.7734164 246,89.2697135 C246,94.7660106 242.760648,99.2216397 238.764706,99.2216397 L226.681765,99.2216397 L216.190588,154.852907 C214.986792,161.456947 210.649085,166.065464 205.699412,166 Z" id="Path"></path>
        </g>
    </g>
</svg>