<?xml version="1.0" encoding="utf-8"?>
<!DOCTYPE svg PUBLIC "-//W3C//DTD SVG 1.1//EN" "http://www.w3.org/Graphics/SVG/1.1/DTD/svg11.dtd">
<svg version="1.1" id="Layer_1" xmlns="http://www.w3.org/2000/svg" xmlns:xlink="http://www.w3.org/1999/xlink" x="0px" y="0px"
	 width="32px" height="32px" viewBox="0 0 32 32" enable-background="new 0 0 32 32" xml:space="preserve">
<path d="M8.291,31.116c-4.847,0-8.791-3.053-8.791-6.806c0-1.176,0.395-2.328,1.145-3.353C-0.115,19.54-0.5,18.044-0.5,16.505
	c0-2.278,0.862-4.49,2.499-6.419c-0.27-0.559-0.407-1.135-0.407-1.718c0-2.517,2.383-4.564,5.312-4.564
	c1.368,0,2.65,0.444,3.643,1.256c0.912-0.234,1.858-0.41,2.82-0.523c1.529-2.233,4.474-3.611,7.757-3.611
	c4.847,0,8.789,3.053,8.789,6.806c0,0.633-0.115,1.263-0.344,1.877c1.92,2.039,2.932,4.417,2.932,6.896
	c0,2.072-0.729,4.118-2.112,5.932c0.076,0.416,0.114,0.834,0.114,1.246c0,3.753-2.951,6.806-6.579,6.806
	c-1.779,0-3.487-0.755-4.728-2.08c-1.375,0.198-2.763,0.27-4.097,0.203C13.42,30.206,10.954,31.116,8.291,31.116z M6.903,4.804
	c-2.377,0-4.312,1.599-4.312,3.564c0,0.516,0.148,1.032,0.442,1.536l0.183,0.314l-0.243,0.271C1.355,12.292,0.5,14.373,0.5,16.505
	c0,1.468,0.396,2.897,1.175,4.248l0.172,0.298L1.63,21.318c-0.739,0.909-1.13,1.944-1.13,2.992c0,3.201,3.495,5.806,7.791,5.806
	c2.485,0,4.766-0.863,6.259-2.368l0.157-0.157l0.417,0.021c1.36,0.068,2.781-0.012,4.187-0.231l0.274-0.043l0.182,0.211
	c1.062,1.233,2.577,1.94,4.156,1.94c3.076,0,5.579-2.604,5.579-5.806c0-0.417-0.047-0.844-0.138-1.268l-0.051-0.231l0.147-0.185
	c1.334-1.68,2.039-3.579,2.039-5.494c0-2.308-0.993-4.531-2.872-6.431L28.39,9.833l0.136-0.311c0.257-0.586,0.387-1.188,0.387-1.791
	c0-3.201-3.494-5.806-7.789-5.806c-2.995,0-5.761,1.314-7.046,3.349l-0.129,0.204l-0.24,0.026c-1.081,0.116-2.144,0.314-3.158,0.588
	l-0.265,0.072L10.083,5.98C9.249,5.222,8.12,4.804,6.903,4.804z"/>
<g>
	<path d="M14.479,10.872v11.714c0,0.859,0.041,1.842,0.08,2.502h-1.561l-0.081-1.682h-0.06c-0.521,1.082-1.682,1.902-3.264,1.902
		c-2.344,0-4.166-1.982-4.166-4.926c-0.02-3.225,2.002-5.186,4.345-5.186c1.502,0,2.484,0.7,2.924,1.461h0.041v-5.787H14.479z
		 M12.738,19.342c0-0.221-0.021-0.521-0.08-0.742c-0.261-1.102-1.222-2.021-2.544-2.021c-1.822,0-2.904,1.602-2.904,3.725
		c0,1.963,0.981,3.584,2.864,3.584c1.181,0,2.263-0.801,2.583-2.104c0.059-0.24,0.08-0.48,0.08-0.76V19.342z"/>
	<path d="M24.235,22.766c0,0.842,0.041,1.662,0.143,2.322h-1.582l-0.141-1.221h-0.059c-0.543,0.76-1.584,1.441-2.965,1.441
		c-1.963,0-2.965-1.381-2.965-2.783c0-2.344,2.082-3.625,5.828-3.605v-0.199c0-0.781-0.221-2.242-2.203-2.225
		c-0.92,0-1.861,0.262-2.543,0.723l-0.4-1.182c0.803-0.5,1.982-0.84,3.205-0.84c2.963,0,3.682,2.022,3.682,3.944V22.766z
		 M22.534,20.143c-1.922-0.041-4.104,0.299-4.104,2.182c0,1.162,0.76,1.684,1.641,1.684c1.283,0,2.104-0.801,2.383-1.623
		c0.062-0.199,0.08-0.4,0.08-0.561V20.143z"/>
</g>
<g>
	<path d="M19.424,3.232h1.17v4.029h0.026c0.188-0.332,0.479-0.639,0.839-0.838c0.346-0.199,0.757-0.318,1.196-0.318
		c0.863,0,2.247,0.531,2.247,2.738v3.83h-1.171V8.975c0-1.036-0.386-1.901-1.488-1.901c-0.758,0-1.343,0.533-1.568,1.157
		c-0.066,0.173-0.081,0.346-0.081,0.559v3.882h-1.17V3.232z"/>
</g>
<g>
	<path d="M26.692,20.52v-3.86h-0.62v-0.62h0.62v-0.213c0-0.629,0.148-1.204,0.521-1.565c0.305-0.296,0.712-0.417,1.091-0.417
		c0.298,0,0.538,0.065,0.694,0.129l-0.109,0.63c-0.121-0.056-0.28-0.102-0.521-0.102c-0.694,0-0.87,0.602-0.87,1.296v0.241h1.083
		v0.62h-1.083v3.86H26.692z"/>
</g>
<g>
	<path d="M5.73,7.773l0.39,1.475c0.078,0.324,0.156,0.624,0.209,0.923h0.018C6.414,9.878,6.51,9.566,6.606,9.254L7.08,7.773h0.443
		l0.45,1.451c0.108,0.348,0.192,0.654,0.258,0.947h0.018c0.048-0.293,0.126-0.6,0.222-0.941l0.414-1.457h0.522l-0.936,2.902h-0.48
		L7.548,9.291C7.446,8.967,7.362,8.679,7.29,8.337H7.278C7.206,8.685,7.116,8.985,7.014,9.296l-0.468,1.379h-0.48L5.191,7.773H5.73z
		"/>
	<path d="M12.503,9.201c0,1.073-0.75,1.541-1.445,1.541c-0.78,0-1.391-0.576-1.391-1.493c0-0.965,0.642-1.535,1.439-1.535
		C11.939,7.713,12.503,8.319,12.503,9.201z M10.207,9.23c0,0.636,0.36,1.116,0.875,1.116c0.504,0,0.881-0.474,0.881-1.127
		c0-0.492-0.246-1.109-0.869-1.109C10.477,8.109,10.207,8.685,10.207,9.23z"/>
</g>
</svg>
