<?xml version="1.0" encoding="utf-8"?>
<!DOCTYPE svg PUBLIC "-//W3C//DTD SVG 1.1//EN" "http://www.w3.org/Graphics/SVG/1.1/DTD/svg11.dtd">
<svg version="1.1" id="Layer_1" xmlns="http://www.w3.org/2000/svg" xmlns:xlink="http://www.w3.org/1999/xlink" x="0px" y="0px"
	 width="512px" height="512px" viewBox="0 0 512 512" enable-background="new 0 0 512 512" xml:space="preserve">
<g id="icomoon-ignore">
</g>
<path fill="#444444" d="M499.777,325.467c0-22.549-7.016-42.612-21.085-60.211c-14.07-17.592-32.036-28.997-53.921-34.216
	c6.903-10.439,10.355-22.052,10.355-34.846c0-17.84-6.31-33.07-18.93-45.698c-12.622-12.621-27.852-18.931-45.692-18.931
	c-15.989,0-29.964,5.22-41.922,15.651c-9.942-24.233-25.793-43.675-47.583-58.326c-21.803-14.65-45.829-21.969-72.092-21.969
	c-35.68,0.007-66.142,12.634-91.396,37.876c-25.257,25.249-37.884,55.709-37.884,91.396c0,2.189,0.173,5.813,0.511,10.86
	c-19.862,9.252-35.68,23.136-47.465,41.659C20.89,267.238,15,287.438,15,309.312c0,31.15,11.066,57.787,33.202,79.922
	c22.134,22.134,48.771,33.194,79.914,33.194h274.728c26.76,0,49.6-9.473,68.544-28.403c18.931-18.931,28.403-41.784,28.403-68.558
	H499.777z M297.25,270.75V372h-106.5V270.75H102L244,128.5l142,142.25H297.25z"/>
</svg>
