<?xml version="1.0" encoding="utf-8"?>
<!DOCTYPE svg PUBLIC "-//W3C//DTD SVG 1.1//EN" "http://www.w3.org/Graphics/SVG/1.1/DTD/svg11.dtd">
<svg version="1.1" id="Layer_1" xmlns="http://www.w3.org/2000/svg" xmlns:xlink="http://www.w3.org/1999/xlink" x="0px" y="0px"
	 width="512px" height="512px" viewBox="0 0 512 512" enable-background="new 0 0 512 512" xml:space="preserve">
<path fill="#444444" d="M486.256,202.88l-49.023-9.824c-2.465-7.088-5.376-13.968-8.593-20.624l27.776-41.664
	c8.464-12.688,6.784-29.6-4-40.368l-30.784-30.784c-6.191-6.192-14.368-9.376-22.656-9.376c-6.128,0-12.319,1.76-17.712,5.376
	L339.6,83.376c-6.688-3.232-13.567-6.112-20.655-8.576l-9.824-49.04c-2.977-14.976-16.128-25.728-31.376-25.728h-43.52
	c-15.248,0-28.384,10.768-31.376,25.728l-9.824,49.04c-7.088,2.464-13.968,5.36-20.624,8.576l-41.648-27.76
	c-5.424-3.616-11.6-5.376-17.744-5.376c-8.272,0-16.448,3.184-22.64,9.376L59.6,90.4c-10.784,10.784-12.464,27.68-4,40.368
	l27.76,41.664c-3.232,6.672-6.112,13.552-8.576,20.64l-49.056,9.808C10.768,205.872,0,219.008,0,234.256v43.52
	c0,15.248,10.768,28.4,25.728,31.377l49.04,9.84c2.464,7.088,5.36,13.968,8.576,20.624L55.6,381.279
	c-8.464,12.688-6.784,29.601,4,40.369l30.784,30.783c6.192,6.192,14.368,9.376,22.64,9.376c6.144,0,12.336-1.775,17.728-5.376
	l41.664-27.775c6.672,3.248,13.552,6.128,20.64,8.592l9.808,49.024c2.992,14.976,16.128,25.743,31.376,25.743h43.52
	c15.248,0,28.4-10.783,31.376-25.743l9.84-49.024c7.089-2.464,13.969-5.376,20.624-8.592l41.664,27.775
	c5.408,3.601,11.601,5.376,17.712,5.376c8.288,0,16.465-3.184,22.656-9.376l30.784-30.783c10.784-10.784,12.464-27.681,4-40.369
	l-27.776-41.663c3.248-6.688,6.128-13.568,8.593-20.656l49.023-9.808c14.96-2.961,25.744-16.129,25.744-31.377v-43.52
	C512,219.008,501.216,205.872,486.256,202.88L486.256,202.88z M430.944,287.6c-11.12,2.225-20.225,10.16-23.937,20.881
	c-2.063,5.903-4.464,11.631-7.151,17.184c-4.977,10.225-4.129,22.288,2.159,31.712l27.776,41.664l-30.784,30.784l-41.664-27.776
	c-5.344-3.567-11.536-5.376-17.744-5.376c-4.752,0-9.535,1.056-13.936,3.185c-5.568,2.688-11.28,5.119-17.216,7.184
	c-10.688,3.712-18.624,12.816-20.849,23.936l-9.84,49.057h-43.52l-9.808-49.057c-2.224-11.119-10.16-20.224-20.864-23.936
	c-5.904-2.064-11.648-4.464-17.2-7.152c-4.416-2.16-9.184-3.216-13.952-3.216c-6.224,0-12.4,1.809-17.744,5.376l-41.664,27.776
	L82.224,399.04l27.76-41.664c6.288-9.44,7.104-21.504,2.192-31.681c-2.688-5.567-5.104-11.279-7.168-17.215
	c-3.712-10.688-12.832-18.625-23.936-20.849l-49.04-9.84L32,234.256l49.056-9.808c11.104-2.224,20.224-10.16,23.936-20.864
	c2.064-5.904,4.448-11.648,7.152-17.2c4.96-10.208,4.128-22.272-2.176-31.696l-27.744-41.664l30.768-30.784L154.656,110
	c5.344,3.568,11.536,5.376,17.744,5.376c4.752,0,9.52-1.056,13.936-3.184c5.552-2.688,11.28-5.104,17.2-7.168
	c10.704-3.712,18.64-12.832,20.864-23.936l9.824-49.04l43.52-0.016l9.809,49.056c2.223,11.104,10.159,20.224,20.879,23.936
	c5.904,2.064,11.633,4.448,17.185,7.152c4.432,2.144,9.184,3.2,13.968,3.2c6.224,0,12.4-1.808,17.744-5.376l41.664-27.76
	l30.784,30.784L402,154.688c-6.288,9.44-7.088,21.488-2.192,31.68c2.688,5.552,5.12,11.28,7.185,17.2
	c3.712,10.704,12.815,18.64,23.936,20.864l49.024,9.824l0.048,43.52L430.944,287.6z M256,192.016c-35.36,0-64,28.64-64,64
	c0,35.343,28.64,64,64,64c35.344,0,64-28.656,64-64C320,220.672,291.344,192.016,256,192.016z M256,304.032
	c-26.496,0-48-21.505-48-48c0-26.496,21.504-48,48-48s48,21.504,48,48C304,282.527,282.496,304.032,256,304.032z"/>
</svg>
