<?xml version="1.0" encoding="UTF-8"?>
<svg width="260px" height="239px" viewBox="0 0 260 239" version="1.1" xmlns="http://www.w3.org/2000/svg" xmlns:xlink="http://www.w3.org/1999/xlink">
    <rect id="Rectangle" fill="#000000" x="64" y="59" width="132" height="120"></rect>
    <g id="panel" fill="#000000" fill-rule="nonzero">
        <path d="M252.656538,7.31287555 C247.76035,2.43762518 241.874862,0 235.000074,0 L24.9993795,0 C18.1245912,0 12.2391029,2.43762518 7.34400865,7.31287555 C2.44836747,12.1881259 0,18.0491005 0,24.8952547 L0,214.104201 C0,220.950899 2.44836747,226.811874 7.34400865,231.687124 C12.2391029,236.562375 18.1245912,239 24.9993795,239 L235.000074,239 C241.875409,239 247.760897,236.562919 252.656538,231.687124 C257.552179,226.811329 260,220.950355 260,214.104201 L260,24.8952547 C260,18.0491005 257.552726,12.1881259 252.656538,7.31287555 Z M235.274059,213.715902 L24.726488,213.715902 L24.726488,25.284643 L235.274059,25.284643 L235.274059,213.715902 Z" id="Shape"></path>
    </g>
</svg>