<?xml version="1.0" encoding="utf-8"?>
<!DOCTYPE svg PUBLIC "-//W3C//DTD SVG 1.1//EN" "http://www.w3.org/Graphics/SVG/1.1/DTD/svg11.dtd">
<svg version="1.1" xmlns="http://www.w3.org/2000/svg" xmlns:xlink="http://www.w3.org/1999/xlink" width="512" height="512" viewBox="0 0 512 512">
<path d="M256 64c-106.026 0-192 85.974-192 192s85.974 192 192 192c17.707 0 32-14.293 32-32 0-8.32-3.094-15.786-8.32-21.44-5.014-5.654-8-13.014-8-21.226 0-17.707 14.293-32 32-32h37.654c58.88 0 106.666-47.786 106.666-106.666 0-94.293-85.974-170.667-192-170.667zM138.667 256c-17.707 0-32-14.293-32-32s14.293-32 32-32 32 14.293 32 32-14.293 32-32 32zM202.667 170.667c-17.707 0-32-14.293-32-32s14.293-32 32-32 32 14.293 32 32-14.293 32-32 32zM309.334 170.667c-17.707 0-32-14.293-32-32s14.293-32 32-32 32 14.293 32 32-14.293 32-32 32zM373.334 256c-17.707 0-32-14.293-32-32s14.293-32 32-32 32 14.293 32 32-14.293 32-32 32z" fill="#444444"></path>
</svg>
