<?xml version="1.0" encoding="utf-8"?>
<!DOCTYPE svg PUBLIC "-//W3C//DTD SVG 1.1//EN" "http://www.w3.org/Graphics/SVG/1.1/DTD/svg11.dtd">
<svg version="1.1" id="Layer_1" xmlns="http://www.w3.org/2000/svg" xmlns:xlink="http://www.w3.org/1999/xlink" x="0px" y="0px"
	 width="512px" height="512px" viewBox="0 0 512 512" enable-background="new 0 0 512 512" xml:space="preserve">
<g>
	<path d="M232.444,168.211h-34.488l-13.709-34.277h-62.763l-12.96,34.277H74.893L136.05,17.31h33.523L232.444,168.211z
		 M174.072,108.509l-21.635-55.996l-21.207,55.996H174.072z"/>
</g>
<g>
	<path d="M301.763,17.31h62.764c12.424,0,21.689,0.499,27.795,1.493c6.104,0.996,11.567,3.072,16.387,6.228
		c4.819,3.157,8.836,7.36,12.049,12.609c3.213,5.25,4.819,11.134,4.819,17.653c0,7.068-1.981,13.553-5.944,19.454
		c-3.963,5.903-9.336,10.329-16.118,13.279c9.566,2.676,16.921,7.24,22.062,13.69c5.142,6.451,7.712,14.034,7.712,22.748
		c0,6.863-1.661,13.536-4.98,20.021s-7.854,11.667-13.602,15.543c-5.75,3.877-12.837,6.263-21.261,7.154
		c-5.285,0.55-18.03,0.893-38.236,1.029h-53.446V17.31z M333.466,42.426V77.32h20.778c12.353,0,20.029-0.17,23.028-0.515
		c5.425-0.618,9.692-2.419,12.799-5.404s4.659-6.913,4.659-11.786c0-4.666-1.339-8.457-4.016-11.375
		c-2.679-2.916-6.659-4.683-11.942-5.301c-3.145-0.343-12.176-0.515-27.098-0.515H333.466z M333.466,102.437v40.35h29.348
		c11.423,0,18.67-0.309,21.741-0.926c4.713-0.823,8.551-2.831,11.514-6.021c2.963-3.191,4.445-7.463,4.445-12.815
		c0-4.529-1.143-8.372-3.427-11.529c-2.286-3.156-5.588-5.456-9.907-6.897c-4.321-1.44-13.693-2.161-28.116-2.161H333.466z"/>
</g>
<g>
	<rect x="327.8" y="386.5" width="72.8" height="104.5"/>
	<rect x="109.4" y="386.5" width="72.8" height="104.5"/>
	<rect x="109.4" y="224" width="72.8" height="96.5"/>
	<rect x="327.8" y="224" width="72.8" height="96.5"/>
</g>
</svg>
