<?xml version="1.0" encoding="utf-8"?>
<!DOCTYPE svg PUBLIC "-//W3C//DTD SVG 1.1//EN" "http://www.w3.org/Graphics/SVG/1.1/DTD/svg11.dtd">
<svg version="1.1" id="Layer_1" xmlns="http://www.w3.org/2000/svg" xmlns:xlink="http://www.w3.org/1999/xlink" x="0px" y="0px"
	 width="549px" height="512px" viewBox="0 0 549 512" enable-background="new 0 0 549 512" xml:space="preserve">
<g>
	<path d="M299.087,401.365c1.952,6.077,3.175,10.891,3.66,14.436c0.489,3.548-0.163,6.205-1.951,7.979
		c-1.794,1.771-4.967,2.87-9.521,3.293c-4.559,0.418-10.823,0.634-18.795,0.634c-8.299,0-14.768-0.128-19.405-0.38
		c-4.638-0.253-8.177-0.759-10.618-1.521c-2.441-0.761-4.149-1.812-5.126-3.166c-0.977-1.349-1.792-3.124-2.441-5.317
		l-21.236-65.857H95.024l-20.016,64.082c-0.652,2.366-1.507,4.35-2.563,5.953c-1.061,1.605-2.769,2.873-5.126,3.799
		c-2.361,0.926-5.698,1.56-10.008,1.898c-4.313,0.338-9.969,0.508-16.964,0.508c-7.487,0-13.345-0.253-17.575-0.76
		c-4.234-0.507-7.163-1.729-8.788-3.673c-1.628-1.939-2.197-4.686-1.709-8.231c0.489-3.545,1.709-8.271,3.662-14.184l97.394-290.769
		c0.977-2.869,2.113-5.192,3.417-6.965c1.3-1.773,3.375-3.123,6.224-4.052c2.845-0.927,6.793-1.52,11.838-1.773
		c5.042-0.253,11.717-0.38,20.016-0.38c9.6,0,17.247,0.127,22.945,0.38c5.694,0.253,10.129,0.846,13.303,1.773
		c3.173,0.93,5.45,2.323,6.834,4.18c1.381,1.859,2.563,4.392,3.54,7.597L299.087,401.365z M154.095,160.999h-0.244l-44.669,139.305
		h89.583L154.095,160.999z"/>
	<path d="M536.836,228.879c0,8.952-0.939,15.284-2.807,18.996c-1.873,3.716-4.519,5.573-7.935,5.573H339.852
		c-3.418,0-6.063-1.856-7.934-5.573c-1.873-3.711-2.808-10.044-2.808-18.996c0-8.612,0.854-14.773,2.562-18.491
		c1.709-3.711,4.433-5.572,8.178-5.572h186.244c3.741,0,6.468,1.86,8.177,5.572C535.98,214.104,536.836,220.267,536.836,228.879z
		 M536.836,331.206c0,9.116-0.939,15.448-2.807,18.993c-1.873,3.548-4.519,5.32-7.935,5.32H339.852c-3.418,0-6.063-1.772-7.934-5.32
		c-1.873-3.545-2.808-9.877-2.808-18.993c0-8.613,0.854-14.819,2.562-18.619c1.709-3.799,4.433-5.697,8.178-5.697h186.244
		c3.741,0,6.468,1.898,8.177,5.697C535.98,316.389,536.836,322.593,536.836,331.206z"/>
</g>
</svg>
