<?xml version="1.0" encoding="utf-8"?>
<!DOCTYPE svg PUBLIC "-//W3C//DTD SVG 1.1//EN" "http://www.w3.org/Graphics/SVG/1.1/DTD/svg11.dtd">
<svg version="1.1" id="Layer_1" xmlns="http://www.w3.org/2000/svg" xmlns:xlink="http://www.w3.org/1999/xlink" x="0px" y="0px"
	 width="512px" height="512px" viewBox="0 0 512 512" enable-background="new 0 0 512 512" xml:space="preserve">
<path d="M0,418h512v64H0V418z M72,271.898h64V391H72V271.898z M168,236.855h64V391h-64V236.855z M264,207.088h64V391h-64V207.088z
	 M360,138.5h64V391h-64V138.5z"/>
<g>
	<path d="M118.609,161.291l57.304-13.526c5.209,7.963,14.79,12.483,24.708,10.726c13.325-2.363,22.213-15.138,19.866-28.524
		c-2.348-13.387-15.046-22.335-28.371-19.973c-9.918,1.759-17.38,9.312-19.569,18.575l-57.304,13.527
		c-5.21-7.963-14.79-12.484-24.718-10.725c-13.315,2.361-22.213,15.137-19.865,28.523s15.056,22.334,28.37,19.973
		C108.958,178.107,116.422,170.565,118.609,161.291z M193.914,120.248c7.688-1.363,15.017,3.797,16.373,11.525
		c1.355,7.729-3.776,15.098-11.464,16.461c-7.688,1.362-15.017-3.797-16.373-11.525
		C181.094,128.979,186.227,121.611,193.914,120.248z M80.859,158.087c-1.355-7.729,3.776-15.099,11.465-16.462
		c7.687-1.361,15.016,3.798,16.372,11.527c1.355,7.728-3.776,15.098-11.464,16.46C89.544,170.975,82.215,165.815,80.859,158.087z"/>
	<path d="M218.755,123.374l58.943-58.694c9.026,2.91,19.306,0.381,25.927-7.248c8.897-10.25,7.837-25.804-2.35-34.741
		s-25.658-7.887-34.555,2.364c-6.622,7.629-7.714,18.219-3.631,26.81l-58.943,58.694c-9.028-2.908-19.307-0.381-25.936,7.256
		c-8.89,10.242-7.836,25.804,2.351,34.74c10.188,8.938,25.665,7.88,34.555-2.363C221.745,142.555,222.845,131.973,218.755,123.374z
		 M274.524,31.901c5.133-5.914,14.061-6.524,19.941-1.364s6.488,14.134,1.356,20.048c-5.133,5.913-14.059,6.524-19.939,1.364
		C269.999,46.789,269.394,37.814,274.524,31.901z M187.373,144.709c-5.882-5.16-6.489-14.135-1.357-20.049
		c5.132-5.913,14.059-6.523,19.941-1.363c5.881,5.159,6.489,14.135,1.357,20.048C202.18,149.259,193.254,149.869,187.373,144.709z"
		/>
	<path d="M308.903,46.677l57.303-2.527c5.21,7.963,14.79,12.484,24.708,10.725c13.326-2.362,22.213-15.137,19.865-28.524
		c-2.348-13.387-15.045-22.334-28.371-19.972c-9.918,1.758-17.38,9.311-19.568,18.575l-57.305,2.527
		c-5.209-7.962-14.788-12.484-24.716-10.724c-13.316,2.361-22.215,15.137-19.866,28.524c2.347,13.387,15.054,22.333,28.371,19.972
		C299.253,63.493,306.718,55.95,308.903,46.677z M384.208,16.634c7.687-1.363,15.017,3.796,16.371,11.525
		c1.356,7.729-3.776,15.098-11.464,16.46c-7.688,1.362-15.016-3.796-16.371-11.525S376.52,17.996,384.208,16.634z M271.152,43.473
		c-1.355-7.729,3.776-15.098,11.466-16.462c7.687-1.362,15.016,3.797,16.37,11.526c1.357,7.729-3.775,15.098-11.462,16.46
		C279.838,56.36,272.511,51.201,271.152,43.473z"/>
</g>
</svg>
