<?xml version="1.0" encoding="UTF-8"?>
<svg width="447px" height="379px" viewBox="0 0 447 379" version="1.1" xmlns="http://www.w3.org/2000/svg" xmlns:xlink="http://www.w3.org/1999/xlink">
    <title>Combined Shape</title>
    <g id="Page-1" stroke="none" stroke-width="1" fill="none" fill-rule="evenodd">
        <rect id="Rectangle-Copy-16" fill="none" x="-9" y="-42" width="463" height="463"></rect>
        <path d="M59,0 C84.0435272,0 105.442723,15.4710086 114.006392,37.299723 L221.032753,36.7999952 C232.32794,36.7475079 241.556506,45.752689 241.823436,57.0021558 L241.828827,57.3507856 L243.553,296.394 L332.201377,296.802676 C340.173375,272.477181 362.144439,255 388,255 C420.5848,255 447,282.758345 447,317 C447,351.241654 420.5848,379 388,379 C362.502929,379 340.783384,362.004104 332.541022,338.205173 L222.904616,337.69978 C211.684722,337.648079 202.571881,328.673742 202.30596,317.49913 L202.300538,317.149214 L200.579,78.295 L114.388603,78.6987997 C106.093523,101.054283 84.4248382,117 59,117 C26.4152001,117 0,90.8086575 0,58.5 C0,26.1913421 26.4152001,0 59,0 Z M387.5,280.435897 C367.893892,280.435897 352,297.043455 352,317.529915 C352,338.016374 367.893892,354.623932 387.5,354.623932 C407.106108,354.623932 423,338.016374 423,317.529915 C423,297.043455 407.106108,280.435897 387.5,280.435897 Z M58.5,24 C38.8938916,24 23,39.6700337 23,59 C23,78.329966 38.8938916,94 58.5,94 C78.1061084,94 94,78.329966 94,59 C94,39.6700337 78.1061084,24 58.5,24 Z" id="Combined-Shape" fill="#373737" fill-rule="nonzero"></path>
    </g>
</svg>