<?xml version="1.0" encoding="UTF-8"?>
<svg width="463px" height="463px" viewBox="0 0 463 463" version="1.1" xmlns="http://www.w3.org/2000/svg" xmlns:xlink="http://www.w3.org/1999/xlink">
    <g id="Page-1" stroke="none" stroke-width="1" fill="none" fill-rule="evenodd">
        <rect id="Rectangle-Copy-19" fill="none" x="0" y="0" width="463" height="463"></rect>
        <path d="M88.5,23 C116.726749,23 140.845985,39.3963025 150.498446,62.5306488 L362.675981,62.0002342 C375.37742,61.9454399 385.754942,71.5107142 386.055105,83.4598615 L386.061167,83.8301749 L387.829015,315.17547 C413.048478,324.553533 431,348.696127 431,377 C431,413.450793 401.226935,443 364.5,443 C327.773065,443 298,413.450793 298,377 C298,348.57887 316.100569,324.353569 341.484795,315.059677 L339.675735,106.077052 L150.890519,106.505865 C141.512201,130.147134 117.117045,147 88.5,147 C51.7730645,147 22,119.241654 22,85 C22,50.7583455 51.7730645,23 88.5,23 Z M357.147491,338.644493 L356.814123,338.700636 C338.113647,342.016269 323.923729,358.154834 323.923729,377.564103 C323.923729,399.372269 341.83803,417.051282 363.936441,417.051282 C386.034851,417.051282 403.949153,399.372269 403.949153,377.564103 C403.949153,358.482131 390.233766,342.561485 372.000898,338.879263 C366.226,339.097379 361.275349,339.018439 357.147491,338.644493 Z M87.9364407,48.4358974 C65.8380303,48.4358974 47.9237288,65.0434546 47.9237288,85.5299145 C47.9237288,106.016374 65.8380303,122.623932 87.9364407,122.623932 C110.034851,122.623932 127.949153,106.016374 127.949153,85.5299145 C127.949153,65.0434546 110.034851,48.4358974 87.9364407,48.4358974 Z" id="Combined-Shape-Copy-3" fill="#373737" fill-rule="nonzero"></path>
    </g>
</svg>