<?xml version="1.0" encoding="utf-8"?>
<!DOCTYPE svg PUBLIC "-//W3C//DTD SVG 1.1//EN" "http://www.w3.org/Graphics/SVG/1.1/DTD/svg11.dtd">
<svg version="1.1" id="Capa_1" xmlns="http://www.w3.org/2000/svg" xmlns:xlink="http://www.w3.org/1999/xlink" x="0px" y="0px"
	 width="777.891px" height="777.891px" viewBox="0 0 777.891 777.891" enable-background="new 0 0 777.891 777.891"
	 xml:space="preserve">
<path d="M39.688,417.258C17.77,417.258,0,401.392,0,381.822v-0.319c0-41.619,8.612-82.343,24.731-121.038
	c7.644-18.344,30.714-27.674,51.253-20.861c20.546,6.825,30.676,27.221,23.035,45.564c-12.813,30.764-19.643,63.178-19.643,96.335
	v0.319C79.376,401.392,61.606,417.258,39.688,417.258z M142.571,196.706c10.173,0,20.342-3.47,28.097-10.405
	c26.231-23.477,56.569-42.364,90.171-56.136c19.919-8.165,28.655-29.201,19.509-46.989c-9.145-17.784-32.695-25.582-52.629-17.417
	c-42.215,17.306-80.316,41.02-113.244,70.486c-15.481,13.855-15.452,36.29,0.063,50.115
	C122.288,193.257,132.43,196.706,142.571,196.706z M389.289,106.294h0.537c37.085,0,73.339,5.191,107.754,16.602
	c4.553,1.509,9.218,1.632,13.81,1.632c16.117,0,31.271-8.535,37.21-22.815c7.629-18.346-2.843-38.444-23.394-45.258
	c-43.284-14.346-88.833-21.031-135.38-21.031h-0.537c-21.918,0-39.688,15.866-39.688,35.435
	C349.601,90.428,367.371,106.294,389.289,106.294z M671.267,266.208c6.687,12.987,21.059,20.642,36.088,20.642
	c5.546,0,11.183-1.044,16.552-3.248c19.913-8.173,28.637-29.215,19.481-46.999c-19.405-37.684-45.984-71.689-79.003-101.069
	c-15.526-13.817-40.656-13.779-56.127,0.082c-15.476,13.863-15.432,36.298,0.093,50.112
	C634.655,209.139,655.822,236.216,671.267,266.208z M608.763,576.907c-26.261,23.454-56.616,42.31-90.232,56.05
	c-19.929,8.146-28.689,29.179-19.566,46.972c6.673,13.014,21.063,20.693,36.108,20.693c5.527,0,11.146-1.037,16.496-3.225
	c42.234-17.265,80.362-40.943,113.327-70.381c15.494-13.837,15.492-36.275-0.008-50.114
	C649.391,563.067,624.266,563.063,608.763,576.907z M108.253,496.539c-9.136-17.793-32.698-25.592-52.618-17.446
	c-19.924,8.155-28.674,29.187-19.54,46.98c19.357,37.7,45.901,71.731,78.889,101.146c7.75,6.908,17.897,10.362,28.047,10.362
	c10.166,0,20.334-3.465,28.081-10.395c15.489-13.845,15.473-36.282-0.037-50.111C144.799,553.641,123.658,526.546,108.253,496.539z
	 M738.202,345.429c-21.918,0-39.688,15.865-39.688,35.435v0.64c0,33.257-6.094,65.759-18.979,96.602
	c-7.662,18.34,2.996,38.746,23.533,45.587c4.575,1.523,9.369,2.245,13.979,2.245c16.091,0,30.847-8.809,36.803-23.06
	c16.206-38.794,24.041-79.628,24.041-121.374v-0.64C777.891,361.292,760.12,345.429,738.202,345.429z M389.826,657.967
	c-37.198,0-73.55-5.745-108.05-17.219c-20.542-6.824-43.393,2.646-51.047,20.985c-7.652,18.339,2.799,39.038,23.337,45.873
	c43.393,14.429,89.068,22.339,135.76,22.339h0.178c21.918,0,39.601-16.418,39.601-35.988
	C429.604,674.389,411.745,657.967,389.826,657.967z"/>
<path d="M199.276,404.827c-11.903,0-21.553-7.288-21.553-16.278v-0.147c0-19.117,4.677-37.825,13.43-55.601
	c4.151-8.427,16.68-12.713,27.834-9.584c11.158,3.136,16.659,12.505,12.509,20.932c-6.958,14.133-10.667,29.022-10.667,44.253v0.147
	C220.83,397.539,211.179,404.827,199.276,404.827z M255.148,303.51c5.524,0,11.047-1.594,15.259-4.78
	c14.245-10.785,30.72-19.461,48.969-25.788c10.817-3.75,15.562-13.415,10.594-21.586c-4.966-8.169-17.755-11.751-28.581-8.001
	c-22.926,7.949-43.617,18.844-61.499,32.38c-8.408,6.365-8.392,16.671,0.034,23.021C244.133,301.926,249.641,303.51,255.148,303.51z
	 M389.132,261.977h0.291c20.141,0,39.828,2.385,58.519,7.626c2.472,0.693,5.005,0.75,7.5,0.75c8.752,0,16.982-3.921,20.207-10.481
	c4.144-8.427-1.544-17.66-12.705-20.791c-23.506-6.59-48.242-9.661-73.521-9.661h-0.291c-11.903,0-21.553,7.289-21.553,16.278
	C367.579,254.688,377.229,261.977,389.132,261.977z M542.265,335.438c3.631,5.967,11.436,9.483,19.598,9.483
	c3.012,0,6.073-0.479,8.988-1.492c10.814-3.755,15.552-13.42,10.58-21.59c-10.538-17.312-24.973-32.933-42.903-46.429
	c-8.432-6.348-22.079-6.331-30.48,0.038c-8.404,6.368-8.381,16.674,0.05,23.021C522.382,309.222,533.876,321.661,542.265,335.438z
	 M508.32,478.167c-14.262,10.775-30.746,19.438-49.001,25.749c-10.823,3.742-15.582,13.404-10.627,21.578
	c3.624,5.979,11.439,9.507,19.609,9.507c3.002,0,6.053-0.477,8.958-1.482c22.937-7.931,43.643-18.809,61.544-32.33
	c8.414-6.356,8.414-16.665-0.004-23.022C530.384,471.812,516.739,471.808,508.32,478.167z M236.512,441.248
	c-4.962-8.174-17.757-11.756-28.576-8.014c-10.82,3.747-15.571,13.406-10.611,21.582c10.512,17.318,24.927,32.952,42.842,46.464
	c4.208,3.173,9.719,4.761,15.231,4.761c5.521,0,11.042-1.593,15.25-4.776c8.412-6.359,8.403-16.668-0.02-23.019
	C256.358,467.48,244.877,455.033,236.512,441.248z M578.614,371.831c-11.903,0-21.553,7.289-21.553,16.277v0.293
	c0,15.279-3.31,30.211-10.307,44.378c-4.161,8.426,1.627,17.8,12.779,20.943c2.485,0.699,5.088,1.031,7.592,1.031
	c8.738,0,16.751-4.047,19.986-10.594c8.801-17.821,13.056-36.58,13.056-55.759v-0.293
	C600.168,379.118,590.519,371.831,578.614,371.831z M389.423,515.405c-20.2,0-39.942-2.64-58.678-7.909
	c-11.155-3.136-23.564,1.214-27.722,9.639c-4.155,8.426,1.521,17.935,12.674,21.074c23.565,6.628,48.37,10.262,73.726,10.262h0.097
	c11.903,0,21.507-7.542,21.507-16.531S401.327,515.405,389.423,515.405z"/>
</svg>
