<?xml version="1.0" encoding="UTF-8"?>
<svg width="313px" height="288px" viewBox="0 0 313 288" version="1.1" xmlns="http://www.w3.org/2000/svg" xmlns:xlink="http://www.w3.org/1999/xlink">
    <title>Page 1</title>
    <g id="Page-1" stroke="none" stroke-width="1" fill="none" fill-rule="evenodd">
        <rect id="Rectangle" stroke="#979797" fill="none" x="0.5" y="0.5" width="311" height="287"></rect>
        <path d="M229.948319,121.210671 L294.291711,162.914949 L229.948319,208.066671 L229.947861,180.717975 L-25.3656985,182.348725 L-48.5708694,156.576772 L-48.2715065,154.224671 L48.4632431,154.225204 L48.4624935,153.672671 L229.947861,153.672975 L229.948319,121.210671 Z" id="Combined-Shape" fill="#000000" fill-rule="nonzero" transform="translate(121.802102, 164.638671) rotate(-48.000000) translate(-121.802102, -164.638671) "></path>
        <path d="M192,241 C192,255.492498 189.197345,269.330401 184.104465,282.001279 L164.684826,282.00204 C170.651712,269.769856 174,256.025945 174,241.5 C174,211.299907 159.527265,184.480103 137.139183,167.597974 L149.130857,153.852801 C175.204473,173.967436 192,205.522315 192,241 Z" id="Combined-Shape" fill="#000000"></path>
        <path d="M68,270 L68,287 L0,287 L15.6012461,270 L68,270 Z M313,270 L313,287 L280,287 L280,270 L313,270 Z M254,270 L254,287 L218,287 L218,270 L254,270 Z M192,270 L192,287 L156,287 L156,270 L192,270 Z M130,270 L130,287 L94,287 L94,270 L130,270 Z" id="Combined-Shape" fill="#000000"></path>
    </g>
</svg>