<?xml version="1.0" encoding="UTF-8"?>
<svg version="1.1" id="Layer_1" xmlns="http://www.w3.org/2000/svg" xmlns:xlink="http://www.w3.org/1999/xlink" x="0px" y="0px"
	 viewBox="0 0 512 512" style="enable-background:new 0 0 512 512;" xml:space="preserve">
<g>
	<g>
		<path d="M371.2,0H140.8c-14.14,0-25.6,11.46-25.6,25.6v204.8c0,14.14,11.46,25.6,25.6,25.6h104.388l17.988,150.4
			c-14.029,13.747-21.308,33.937-17.647,54.707C250.726,490.598,276.215,512,306.133,512c3.575,0,7.194-0.316,10.735-0.939
			c33.442-5.897,55.851-37.897,49.954-71.339c-3.362-19.063-15.266-34.637-31.3-43.349L302.643,256H371.2
			c14.14,0,25.6-11.46,25.6-25.6V25.6C396.8,11.46,385.34,0,371.2,0z M341.606,444.16c3.456,19.576-9.609,38.238-29.184,41.685
			c-2.108,0.375-4.215,0.555-6.289,0.555c-17.135,0-32.316-12.279-35.396-29.739c-3.447-19.576,9.617-38.238,29.184-41.685
			c2.116-0.375,4.216-0.555,6.289-0.555C323.345,414.421,338.526,426.701,341.606,444.16z M307.482,388.932
			c-0.427-0.008-0.828-0.111-1.263-0.111c-3.584,0-7.202,0.316-10.743,0.939c-2.867,0.503-5.538,1.451-8.235,2.321L270.976,256
			h5.367L307.482,388.932z M371.2,230.4H140.8V128h230.4V230.4z M371.2,102.4H140.8V76.8h230.4V102.4z M371.2,51.2H140.8V25.6h230.4
			V51.2z"/>
	</g>
</g>
<g>
	<g>
		<path d="M256,140.8c-21.171,0-38.4,17.229-38.4,38.4s17.229,38.4,38.4,38.4s38.4-17.229,38.4-38.4S277.171,140.8,256,140.8z
			 M256,192c-7.066,0-12.8-5.734-12.8-12.8s5.734-12.8,12.8-12.8c7.066,0,12.8,5.734,12.8,12.8S263.066,192,256,192z"/>
	</g>
</g>
</svg>
