<?xml version="1.0" encoding="UTF-8"?>
<svg width="525px" height="525px" viewBox="0 0 525 525" version="1.1" xmlns="http://www.w3.org/2000/svg" xmlns:xlink="http://www.w3.org/1999/xlink">
	<g id="diamond" transform="translate(262.424837, 262.378999) rotate(45.000000) translate(-262.424837, -262.378999) translate(76.424837, 78.378999)" fill="#000000" fill-rule="nonzero">
		<path d="M357.713625,306.462489 L357.713625,59.0555561 C364.236702,52.8858784 368.313625,44.1545406 368.313625,34.4665561 C368.313625,15.7740228 353.163779,0.621000582 334.475163,0.621000582 C323.442194,0.621000582 313.645348,5.90498503 307.467994,14.0776672 L63.866948,14.0776672 C57.6895942,5.90498503 47.892748,0.621000582 36.8597788,0.621000582 C18.1711634,0.621000582 3.02131724,15.7740228 3.02131724,34.4665561 C3.02131724,45.6837072 8.48113263,55.6212517 16.8828557,61.7795117 L16.8828557,304.820776 C7.10720955,310.754758 0.575163399,321.502149 0.575163399,333.775445 C0.575163399,352.467978 15.7250096,367.621001 34.4136249,367.621001 C45.0739634,367.621001 54.5772711,362.685258 60.7799019,354.979889 L311.370425,354.979889 C317.57224,362.685258 327.076363,367.621001 337.736702,367.621001 C356.425317,367.621001 371.575163,352.467978 371.575163,333.775445 C371.575163,322.558294 366.116163,312.620749 357.713625,306.462489 Z M335.108717,17.3855606 C344.440794,17.3855606 352.005933,24.952285 352.005933,34.2855028 C352.005933,43.6195361 344.44161,51.185445 335.108717,51.185445 C325.778271,51.185445 318.212317,43.6195361 318.212317,34.2855028 C318.213133,24.9514695 325.778271,17.3855606 335.108717,17.3855606 Z M35.8633788,17.3855606 C45.1954557,17.3855606 52.7597788,24.952285 52.7597788,34.2855028 C52.7597788,43.6195361 45.1954557,51.185445 35.8633788,51.185445 C26.5321172,51.185445 18.9669788,43.6195361 18.9669788,34.2855028 C18.9669788,24.9514695 26.5313019,17.3855606 35.8633788,17.3855606 Z M33.4172249,351.309889 C24.0859634,351.309889 16.5208249,343.743981 16.5208249,334.409132 C16.5208249,325.076729 24.0859634,317.509189 33.4172249,317.509189 C42.7493019,317.509189 50.3136249,325.075914 50.3136249,334.409132 C50.3136249,343.743981 42.7493019,351.309889 33.4172249,351.309889 Z M304.993302,325.212112 L67.1570249,325.212112 C64.4417942,314.799098 56.8929634,306.345865 47.0520865,302.379818 L47.0520865,66.7470606 C57.8119019,63.3510872 66.2405326,54.7216939 69.3716096,43.845445 L301.963333,43.845445 C305.404256,55.7990428 315.245948,65.0376561 327.544394,67.5985006 L327.544394,301.495756 C316.516317,304.975732 307.928686,313.950921 304.993302,325.212112 Z M337.554871,351.309889 C328.224425,351.309889 320.658471,343.743981 320.658471,334.409132 C320.658471,325.076729 328.22361,317.509189 337.554871,317.509189 C346.886948,317.509189 354.452086,325.075914 354.452086,334.409132 C354.452086,343.743981 346.887763,351.309889 337.554871,351.309889 Z" id="Shape"></path>
	</g>
</svg>