<?xml version="1.0" encoding="utf-8"?>
<!DOCTYPE svg PUBLIC "-//W3C//DTD SVG 1.1//EN" "http://www.w3.org/Graphics/SVG/1.1/DTD/svg11.dtd">
<svg version="1.1" id="Layer_1" xmlns="http://www.w3.org/2000/svg" xmlns:xlink="http://www.w3.org/1999/xlink" x="0px" y="0px"
	 width="549px" height="512px" viewBox="0 0 549 512" enable-background="new 0 0 549 512" xml:space="preserve">
<polygon points="385.906,85.702 43.889,85.702 43.889,137.223 385.906,137.223 385.906,214.502 510.275,111.462 385.906,8.423 "/>
<g>
	<path d="M34.671,457.364c0-21.709,13.79-36.709,33.543-36.709c19.38,0,32.797,14.604,33.17,36.709
		c0,20.919-13.417,36.312-33.916,36.312C48.461,493.677,34.671,478.283,34.671,457.364z"/>
	<path d="M307.482,359.869c0,78.943-30.188,133.808-91.683,133.808c-62.612,0-90.191-59.601-90.563-132.229
		c0-74.603,29.442-133.021,92.055-133.021C281.768,228.429,307.482,289.609,307.482,359.869z M181.885,361.448
		c0,58.812,13.417,86.838,35.034,86.838c21.988,0,33.915-29.21,33.915-87.628c0-56.84-11.554-86.838-34.288-86.838
		C196.048,273.82,181.885,301.451,181.885,361.448z"/>
	<path d="M514.33,359.869c0,78.943-30.188,133.808-91.685,133.808c-62.61,0-90.19-59.601-90.563-132.229
		c0-74.603,29.443-133.021,92.057-133.021C488.613,228.429,514.33,289.609,514.33,359.869z M388.732,361.448
		c0,58.812,13.416,86.838,35.032,86.838c21.988,0,33.916-29.21,33.916-87.628c0-56.84-11.555-86.838-34.289-86.838
		C402.895,273.82,388.732,301.451,388.732,361.448z"/>
</g>
</svg>
