<?xml version="1.0" encoding="utf-8"?>
<!DOCTYPE svg PUBLIC "-//W3C//DTD SVG 1.1//EN" "http://www.w3.org/Graphics/SVG/1.1/DTD/svg11.dtd">
<svg version="1.1" id="Layer_1" xmlns="http://www.w3.org/2000/svg" xmlns:xlink="http://www.w3.org/1999/xlink" x="0px" y="0px"
	 width="549px" height="512px" viewBox="0 0 549 512" enable-background="new 0 0 549 512" xml:space="preserve">
<polygon points="169.258,436.224 511.275,436.224 511.275,384.703 169.258,384.703 169.258,307.424 44.889,410.464 169.258,513.503
	"/>
<g>
	<path d="M34.669,272.364c0-21.709,13.79-36.709,33.543-36.709c19.38,0,32.797,14.604,33.17,36.709
		c0,20.919-13.417,36.312-33.916,36.312C48.459,308.677,34.669,293.283,34.669,272.364z"/>
	<path d="M307.48,174.869c0,78.943-30.188,133.808-91.682,133.808c-62.612,0-90.191-59.601-90.563-132.229
		c0-74.602,29.442-133.02,92.055-133.02C281.766,43.429,307.48,104.61,307.48,174.869z M181.883,176.448
		c0,58.812,13.417,86.838,35.034,86.838c21.988,0,33.915-29.21,33.915-87.628c0-56.839-11.554-86.837-34.288-86.837
		C196.046,88.821,181.883,116.451,181.883,176.448z"/>
	<path d="M514.328,174.869c0,78.943-30.188,133.808-91.684,133.808c-62.611,0-90.191-59.601-90.564-132.229
		c0-74.602,29.443-133.02,92.057-133.02C488.611,43.429,514.328,104.61,514.328,174.869z M388.73,176.448
		c0,58.812,13.416,86.838,35.033,86.838c21.988,0,33.916-29.21,33.916-87.628c0-56.839-11.555-86.837-34.289-86.837
		C402.893,88.821,388.73,116.451,388.73,176.448z"/>
</g>
</svg>
