<?xml version="1.0" encoding="UTF-8"?>
<svg width="277px" height="257px" viewBox="0 0 277 257" version="1.1" xmlns="http://www.w3.org/2000/svg" xmlns:xlink="http://www.w3.org/1999/xlink">
    <title>Page 1</title>
    <g id="Page-1" stroke="none" stroke-width="1" fill="none" fill-rule="evenodd">
        <path d="M277,82 L277,103.687 L102.206417,103.687664 L102.206,257 L81,257 L81,103.35367 C81,97.481446 83.0998171,92.4542503 87.2985132,88.2725502 C91.3832747,84.203869 96.2721441,82.1145462 101.964258,82.0045818 L102.44046,82 L277,82 Z" id="Combined-Shape-Copy-3" fill="#000000" fill-rule="nonzero" transform="translate(179.000000, 169.500000) scale(-1, -1) translate(-179.000000, -169.500000) "></path>
        <g id="panel-copy-6" transform="translate(-0.000000, 0.000000)" fill="#000000" fill-rule="nonzero">
            <path d="M216.701569,6.27255016 C212.502146,2.09085005 207.454208,0 201.557755,0 L21.4417755,0 C15.5453224,0 10.4973845,2.09085005 6.29889972,6.27255016 C2.09994594,10.4542503 0,15.481446 0,21.3536703 L0,183.645862 C0,189.518554 2.09994594,194.54575 6.29889972,198.72745 C10.4973845,202.90915 15.5453224,205 21.4417755,205 L201.557755,205 C207.454678,205 212.502615,202.909617 216.701569,198.72745 C220.900523,194.545283 223,189.518087 223,183.645862 L223,21.3536703 C223,15.481446 220.900992,10.4542503 216.701569,6.27255016 Z M201.79275,183.312803 L21.2077185,183.312803 L21.2077185,21.6876645 L201.79275,21.6876645 L201.79275,183.312803 Z" id="Shape"></path>
        </g>
    </g>
</svg>