<?xml version="1.0" encoding="UTF-8"?>
<svg width="223px" height="256px" viewBox="0 0 223 256" version="1.1" xmlns="http://www.w3.org/2000/svg" xmlns:xlink="http://www.w3.org/1999/xlink">
    <g id="panel-copy-2" fill="#000000" fill-rule="nonzero">
        <path d="M216.701569,5.4158116 C212.502146,1.80527053 207.454208,0 201.557755,0 L21.4417755,0 C15.5453224,0 10.4973845,1.80527053 6.29889972,5.4158116 C2.09994594,9.02635266 0,13.3669071 0,18.4370715 L0,158.562525 C0,163.633093 2.09994594,167.973647 6.29889972,171.584188 C10.4973845,175.194729 15.5453224,177 21.4417755,177 L201.557755,177 C207.454678,177 212.502615,175.195133 216.701569,171.584188 C220.900523,167.973244 223,163.63269 223,158.562525 L223,18.4370715 C223,13.3669071 220.900992,9.02635266 216.701569,5.4158116 Z M201.79275,158.274956 L21.2077185,158.274956 L21.2077185,18.7254469 L201.79275,18.7254469 L201.79275,158.274956 Z" id="Shape"></path>
    </g>
    <path d="M201.557755,197 C207.454208,197 212.502146,199.09085 216.701569,203.27255 C220.900992,207.45425 223,212.481446 223,218.35367 L223,218.35367 L223,256 L201.792,256 L201.79275,218.687664 L21.2077185,218.687664 L21.207,256 L0,256 L0,218.35367 C0,212.640155 1.98796928,207.726608 5.96304376,203.61346 L6.29889972,203.27255 C10.4973845,199.09085 15.5453224,197 21.4417755,197 L21.4417755,197 Z" id="Combined-Shape" fill="#000000" fill-rule="nonzero"></path>
</svg>