<?xml version="1.0" encoding="UTF-8"?>
<svg width="290px" height="290px" viewBox="0 0 290 290" version="1.1" xmlns="http://www.w3.org/2000/svg" xmlns:xlink="http://www.w3.org/1999/xlink">
    <g stroke="none" stroke-width="1" fill="none" fill-rule="evenodd">
        <rect id="Rectangle-Copy-25" fill="none" transform="translate(145.000000, 145.000000) rotate(180.000000) translate(-145.000000, -145.000000) " x="0" y="0" width="290" height="290"></rect>
        <g transform="translate(10.000000, 20.000000)" fill="#000000" fill-rule="nonzero">
            <path d="M262.374097,7.6188536 C257.289594,2.53961787 251.177741,0 244.038538,0 L25.9608941,0 C18.8216908,0 12.7098377,2.53961787 7.62647052,7.6188536 C2.54253545,12.6980893 0,18.804293 0,25.9368971 L0,223.062535 C0,230.195707 2.54253545,236.301911 7.62647052,241.381146 C12.7098377,246.460382 18.8216908,249 25.9608941,249 L244.038538,249 C251.178309,249 257.290162,246.460949 262.374097,241.381146 C267.458032,236.301343 270,230.19514 270,223.062535 L270,25.9368971 C270,18.804293 267.4586,12.6980893 262.374097,7.6188536 Z M249.16611,228.285108 L20.8344574,228.285108 L20.8344574,20.7154592 L249.16611,20.7154592 L249.16611,228.285108 Z" id="Shape"></path>
        </g>
        <path d="M103,190 L103,159 L72,159 L72,190 L103,190 Z M164,190 L164,159 L133,159 L133,190 L164,190 Z M223,190 L223,159 L192,159 L192,190 L223,190 Z" id="1..." fill="#000000" fill-rule="nonzero"></path>
    </g>
</svg>