<?xml version="1.0" encoding="utf-8"?>
<!DOCTYPE svg PUBLIC "-//W3C//DTD SVG 1.1//EN" "http://www.w3.org/Graphics/SVG/1.1/DTD/svg11.dtd">
<svg version="1.1" id="Layer_1" xmlns="http://www.w3.org/2000/svg" xmlns:xlink="http://www.w3.org/1999/xlink" x="0px" y="0px"
	 width="293px" height="512px" viewBox="0 0 293 512" enable-background="new 0 0 293 512" xml:space="preserve">
<path fill="#444444" d="M272.764,334.443c0,27.686-9.002,51.527-27.007,71.521c-18.005,19.996-41.392,32.346-70.165,37.051v47.5
	c0,2.533-0.812,4.613-2.441,6.242s-3.709,2.444-6.243,2.443h-36.644c-2.353,0-4.389-0.859-6.106-2.578
	c-1.718-1.719-2.578-3.755-2.579-6.106v-47.5c-11.943-1.63-23.479-4.434-34.607-8.415c-11.128-3.98-20.312-8.006-27.55-12.078
	c-7.238-4.071-13.934-8.414-20.085-13.027c-6.152-4.614-10.359-8.007-12.621-10.179c-2.262-2.172-3.845-3.801-4.75-4.886
	c-3.077-3.801-3.257-7.51-0.544-11.129l27.957-36.643c1.267-1.811,3.348-2.896,6.243-3.258c2.714-0.362,4.885,0.452,6.514,2.444
	l0.543,0.542c20.447,17.915,42.433,29.225,65.957,33.93c6.696,1.447,13.391,2.171,20.086,2.171c14.656,0,27.55-3.89,38.677-11.671
	c11.129-7.781,16.693-18.82,16.693-33.115c0-5.066-1.355-9.861-4.07-14.385s-5.746-8.324-9.094-11.4s-8.641-6.469-15.879-10.179
	c-7.237-3.709-13.209-6.604-17.914-8.686c-4.704-2.081-11.942-5.022-21.714-8.821c-7.057-2.896-12.622-5.158-16.693-6.786
	c-4.072-1.628-9.636-4.026-16.694-7.193c-7.057-3.167-12.712-5.972-16.964-8.413c-4.252-2.443-9.364-5.655-15.336-9.637
	c-5.972-3.982-10.812-7.827-14.521-11.536c-3.709-3.708-7.645-8.142-11.807-13.3c-4.163-5.158-7.375-10.406-9.636-15.743
	c-2.261-5.338-4.161-11.355-5.7-18.05s-2.308-13.752-2.307-21.172c0-24.971,8.867-46.866,26.6-65.686
	c17.733-18.819,40.805-30.943,69.214-36.37V21.489c0-2.353,0.859-4.388,2.579-6.107c1.719-1.718,3.755-2.578,6.107-2.579h36.643
	c2.533,0,4.615,0.814,6.244,2.443s2.443,3.709,2.441,6.243V69.26c10.314,1.086,20.312,3.167,29.993,6.243s17.553,6.107,23.614,9.094
	c6.062,2.986,11.808,6.379,17.236,10.179c5.429,3.8,8.957,6.423,10.586,7.871c1.628,1.447,2.985,2.714,4.07,3.8
	c3.077,3.257,3.529,6.695,1.357,10.314l-21.986,39.629c-1.447,2.715-3.527,4.162-6.241,4.342c-2.534,0.543-4.977-0.09-7.329-1.9
	c-0.542-0.543-1.854-1.628-3.936-3.257c-2.081-1.629-5.609-4.026-10.586-7.193c-4.977-3.166-10.269-6.061-15.879-8.685
	c-5.609-2.625-12.35-4.977-20.221-7.057c-7.872-2.08-15.608-3.12-23.207-3.121c-17.191,0-31.214,3.891-42.071,11.671
	c-10.856,7.782-16.285,17.824-16.286,30.129c0,4.705,0.769,9.047,2.307,13.029c1.538,3.98,4.207,7.735,8.006,11.264
	s7.374,6.514,10.721,8.958c3.348,2.443,8.414,5.248,15.2,8.414c6.786,3.167,12.26,5.609,16.421,7.329
	c4.162,1.72,10.496,4.207,19,7.464c9.591,3.619,16.92,6.469,21.986,8.55c5.066,2.081,11.943,5.248,20.629,9.5
	c8.687,4.252,15.518,8.097,20.493,11.535c4.976,3.439,10.586,7.963,16.829,13.572c6.242,5.61,11.038,11.355,14.385,17.236
	c3.349,5.881,6.199,12.803,8.551,20.764c2.353,7.962,3.529,16.467,3.529,25.515L272.764,334.443z"/>
</svg>
