<?xml version="1.0" encoding="UTF-8"?>
<svg width="463px" height="463px" viewBox="0 0 463 463" version="1.1" xmlns="http://www.w3.org/2000/svg" xmlns:xlink="http://www.w3.org/1999/xlink">
    <title>Page 1</title>
    <g id="Page-1" stroke="none" stroke-width="1" fill="none" fill-rule="evenodd">
        <rect id="Rectangle-Copy-78" fill="none" x="0" y="0" width="463" height="463"></rect>
        <path d="M110,43 L74,43 C60.1928813,43 49,54.1928813 49,68 L49,104 C49,117.807119 60.1928813,129 74,129 L110,129 C123.807119,129 135,117.807119 135,104 L135,68 C135,54.1928813 123.807119,43 110,43 Z" id="Path" fill="#292929" fill-rule="nonzero"></path>
        <path d="M110,335 L74,335 C60.1928813,335 49,346.192881 49,360 L49,396 C49,409.807119 60.1928813,421 74,421 L110,421 C123.807119,421 135,409.807119 135,396 L135,360 C135,346.192881 123.807119,335 110,335 Z" id="Path" fill="#292929" fill-rule="nonzero"></path>
        <path d="M389,43 L353,43 C339.192881,43 328,54.1928813 328,68 L328,104 C328,117.807119 339.192881,129 353,129 L389,129 C402.807119,129 414,117.807119 414,104 L414,68 C414,54.1928813 402.807119,43 389,43 Z" id="Path" fill="#292929" fill-rule="nonzero"></path>
        <path d="M389,189 L353,189 C339.192881,189 328,200.192881 328,214 L328,250 C328,263.807119 339.192881,275 353,275 L389,275 C402.807119,275 414,263.807119 414,250 L414,214 C414,200.192881 402.807119,189 389,189 Z" id="Path" fill="#292929" fill-rule="nonzero"></path>
        <path d="M250,189 L214,189 C200.192881,189 189,200.192881 189,214 L189,250 C189,263.807119 200.192881,275 214,275 L250,275 C263.807119,275 275,263.807119 275,250 L275,214 C275,200.192881 263.807119,189 250,189 Z" id="Path" fill="#292929" fill-rule="nonzero"></path>
        <path d="M110,189 L74,189 C60.1928813,189 49,200.192881 49,214 L49,250 C49,263.807119 60.1928813,275 74,275 L110,275 C123.807119,275 135,263.807119 135,250 L135,214 C135,200.192881 123.807119,189 110,189 Z" id="Path" fill="#292929" fill-rule="nonzero"></path>
        <path d="M250,43 L214,43 C200.192881,43 189,54.1928813 189,68 L189,104 C189,117.807119 200.192881,129 214,129 L250,129 C263.807119,129 275,117.807119 275,104 L275,68 C275,54.1928813 263.807119,43 250,43 Z" id="Path" fill="#292929" fill-rule="nonzero"></path>
        <path d="M250,335 L214,335 C200.192881,335 189,346.192881 189,360 L189,396 C189,409.807119 200.192881,421 214,421 L250,421 C263.807119,421 275,409.807119 275,396 L275,360 C275,346.192881 263.807119,335 250,335 Z" id="Path" fill="#292929" fill-rule="nonzero"></path>
        <path d="M389,335 L353,335 C339.192881,335 328,346.192881 328,360 L328,396 C328,409.807119 339.192881,421 353,421 L389,421 C402.807119,421 414,409.807119 414,396 L414,360 C414,346.192881 402.807119,335 389,335 Z" id="Path" fill="#292929" fill-rule="nonzero"></path>
    </g>
</svg>