<?xml version="1.0" encoding="UTF-8"?>
<svg width="726px" height="618px" viewBox="0 0 726 618" version="1.1" xmlns="http://www.w3.org/2000/svg" xmlns:xlink="http://www.w3.org/1999/xlink">
    <path d="M457.297899,106.631579 C489.059025,106.631579 514.846486,132.118177 515.359059,163.776039 L515.366835,164.737237 L515.366,243.634 L457.295,229.155 L457.295532,164.737237 L166.947303,164.737237 L166.947303,455.263158 L368.981,455.263 L383.162,513.366 L166.948486,513.366447 C135.188532,513.366447 109.401083,487.884492 108.88851,456.223276 L108.880734,455.261974 L108.880734,164.736053 C108.880734,132.956662 134.347104,107.15227 165.987807,106.63936 L166.948486,106.631579 L457.297899,106.631579 Z M58.0677523,348.631579 L58.0677523,406.736053 L-1.25055521e-12,406.736053 L-1.25055521e-12,348.631579 L58.0677523,348.631579 Z M58.0677523,232.422632 L58.0677523,290.525921 L-1.25055521e-12,290.525921 L-1.25055521e-12,232.422632 L58.0677523,232.422632 Z M-1.02318154e-12,116.210132 L58.0677523,116.211316 L58.0677523,174.315789 L-1.02318154e-12,174.315789 L-1.02318154e-12,116.210132 Z M290.345862,-1.00064401e-11 L290.345862,58.1044737 L232.27811,58.1044737 L232.27811,-1.00028874e-11 L290.345862,-1.00064401e-11 Z M174.207991,-1.00561504e-11 L174.207991,58.1044737 L116.140239,58.1044737 L116.140239,-1.00525976e-11 L174.207991,-1.00561504e-11 Z M58.0677523,-9.70798442e-12 L58.0677523,58.1044737 L-1.02318154e-12,58.1044737 C-1.02318154e-12,26.0028947 25.9834404,-9.70601377e-12 58.0677523,-9.70798442e-12 Z M406.487284,-1.11504139e-11 L406.487284,58.1044737 L348.418349,58.1044737 L348.418349,-1.11468612e-11 L406.487284,-1.11504139e-11 Z" id="Combined-Shape" fill="#444444" fill-rule="nonzero"></path>
    <g transform="translate(388.000000, 280.000000)" fill="#000000">
        <path d="M12.0203097,1.576199 C5.03324863,4.73577094 0.621804417,10.8824962 0.00133412294,18.3194877 C-0.316220029,22.1572397 56.1562992,257.648082 61.5143868,274.818107 C64.1388441,283.230701 71.4677886,288.485159 80.5880293,288.48947 C89.0690344,288.495217 90.8272916,287.269608 107.807976,269.527728 C115.974391,260.994441 127.397317,249.078875 133.190659,243.048532 L143.724401,232.085579 L195.663374,283.729278 C253.394254,341.130324 250.106141,338.367314 260.012139,337.805517 C268.395463,337.329929 268.753148,337.028196 303.231651,301.377765 C350.124254,252.893638 350.519288,260.965704 298.708161,208.801876 C279.034068,188.992409 256.986902,166.746091 249.713981,159.365136 L236.49114,145.945216 L252.707614,128.329777 C285.356037,92.8646953 285.347418,92.874753 286.727879,88.7151528 C289.925494,79.0884443 284.611938,66.9128133 275.718661,63.4888661 C268.957128,60.8853443 23.285222,-0.0143631385 19.6049485,2.54114471e-06 C17.1169571,0.0100628383 14.093157,0.637954124 12.0203097,1.576199 M137.602103,70.4991214 C186.304677,82.7293517 226.800615,93.0055038 227.593554,93.3330993 C228.820312,93.8402975 226.369669,96.8188299 211.121385,113.35809 C187.761273,138.696449 188.233876,137.99959 188.241058,147.113353 C188.246804,155.426806 187.683702,154.770178 240.577938,208.123696 L289.287695,257.254393 L273.908691,273.092484 L258.529687,288.929137 L207.089173,237.719359 C150.846491,181.727836 152.372038,183.038218 143.425612,182.986492 C134.717642,182.936203 132.980932,184.232217 111.318744,206.926823 C100.83097,217.914202 91.99659,226.624218 91.6834364,226.282254 C91.3717192,225.940291 81.547601,186.378829 69.8517434,138.368853 C58.1558857,90.3588774 48.4193931,50.4439577 48.2168488,49.6695105 C47.7212616,47.7700316 39.0779337,45.7556069 137.602103,70.4991214" id="path0"></path>
    </g>
</svg>