<?xml version="1.0" encoding="UTF-8"?>
<svg width="721px" height="721px" viewBox="0 0 721 721" version="1.1" xmlns="http://www.w3.org/2000/svg" xmlns:xlink="http://www.w3.org/1999/xlink">
    <g stroke="none" stroke-width="1" fill="none" fill-rule="evenodd">
        <g transform="translate(360.333333, 360.333333) rotate(-90.000000) translate(-360.333333, -360.333333) translate(0.333333, 0.333333)" fill="#000000">
            <path d="M9.763,9.763 C18.4343333,1.092 30.6943333,-1.80326667 41.7623333,1.07766667 L524.49,117.598 C535.14,120.168667 543.846667,127.809 547.78,138.034667 L628.573333,348.1 L699.99999,419.526667 C726.036667,445.563333 726.036667,487.773333 699.99999,513.806667 L513.806667,699.99999 C487.773333,726.036667 445.563333,726.036667 419.526667,699.99999 L348.1,628.573333 L138.034667,547.78 C127.809,543.846667 120.168667,535.14 117.598,524.49 L1.07766667,41.7623333 C-1.80326667,30.6943333 1.092,18.4343333 9.763,9.763 Z M262.629667,309.77 L93.5346667,140.675 L178.297667,491.836667 L378.633333,568.89 C382.986667,570.563333 386.94,573.133333 390.236667,576.43 L466.666667,652.86 L652.86,466.666667 L576.43,390.236667 C573.133333,386.94 570.563333,382.986667 568.89,378.633333 L491.836667,178.297667 L140.675,93.5346667 L309.77,262.629667 C311.8,264.659 313.513333,266.884667 314.91,269.245333 C320.76,267.566 326.943333,266.666667 333.333333,266.666667 C370.153333,266.666667 400,296.514333 400,333.333333 C400,370.153333 370.153333,400 333.333333,400 C296.514333,400 266.666667,370.153333 266.666667,333.333333 C266.666667,326.943333 267.566,320.76 269.245333,314.91 C266.884667,313.513333 264.659,311.8 262.629667,309.77 Z" id="Shape"></path>
        </g>
    </g>
</svg>