<?xml version="1.0" encoding="UTF-8"?>
<svg width="800px" height="800px" viewBox="0 0 800 800" version="1.1" xmlns="http://www.w3.org/2000/svg" xmlns:xlink="http://www.w3.org/1999/xlink">
    <title>pencil-3-svgrepo-com</title>
    <g id="Page-1" stroke="none" stroke-width="1" fill="none" fill-rule="evenodd">
        <g id="pencil-3-svgrepo-com" fill="#000000" fill-rule="nonzero">
            <path d="M776.889063,138.114063 L661.848438,23.1140625 C631.034375,-7.6859375 581.135937,-7.7125 550.323437,23.0875 L475.739063,97.671875 L111.278125,462.2125 C96.1671875,477.309375 84.6125,495.557813 77.3796875,515.639062 L3.496875,721.25 C-4.20625,742.703125 1.165625,766.6625 17.275,782.76875 C33.396875,798.889063 57.3671875,804.235938 78.821875,796.520313 L284.392187,722.635938 C304.471875,715.404688 322.734375,703.835938 337.83125,688.739063 L682.832813,343.7125 L682.859375,343.739063 L702.360938,324.210938 L776.890625,249.640625 L776.93125,249.6125 C807.595312,218.810938 807.717187,168.96875 776.889063,138.114063 Z M265.725,670.71875 L134.753125,717.801563 L82.24375,665.290625 L129.3,534.304688 C129.65,533.360937 130.107812,532.445312 130.484375,531.504688 L268.514062,669.534375 C267.570312,669.925 266.68125,670.36875 265.725,670.71875 Z M298.815625,649.735938 C296.95625,651.595313 294.976562,653.304688 292.970312,654.989063 L145.042187,507.060938 C146.7125,505.067188 148.421875,503.073438 150.279687,501.215625 L512.007812,139.40625 L660.56875,287.96875 L298.815625,649.735938 Z M737.885937,210.6375 L682.83125,265.70625 L680.070312,268.467187 L531.507812,119.90625 L589.325,62.0890625 C598.576562,52.8765625 613.553125,52.8625 622.846875,62.115625 L737.885937,177.129687 C747.1375,186.354687 747.151562,201.33125 737.845313,210.676562 L737.885937,210.6375 Z" id="Shape"></path>
        </g>
    </g>
</svg>