<?xml version="1.0" encoding="UTF-8"?>
<svg width="512px" height="451px" viewBox="0 0 512 451" version="1.1" xmlns="http://www.w3.org/2000/svg" xmlns:xlink="http://www.w3.org/1999/xlink">
    <g id="curve" transform="translate(112.000000, 59.000000)"></g>
    <g id="Curve" fill="#000000" fill-rule="nonzero">
        <path d="M456,0 C486.927946,0 512,25.5197693 512,57 C512,85.3300734 491.694696,108.8329 465.089504,113.252968 C452.677054,204.994143 433.636873,270.733617 406.736754,310.4278 C406.910359,312.256643 407,314.117666 407,316 C407,347.480231 381.927946,373 351,373 C328.281357,373 308.722485,359.229828 299.939975,339.442084 C292.973623,333.244861 286.515406,325.31652 280.324014,315.707655 L279.546913,314.492651 L278.777099,313.270895 C278.649375,313.066652 278.521935,312.862087 278.394766,312.657179 L277.634934,311.423459 L276.881128,310.18054 L276.132842,308.927443 L275.389571,307.663189 L274.650812,306.386801 C274.528034,306.173004 274.405422,305.95866 274.282967,305.74375 L273.550029,304.447324 L273.184811,303.793704 L273.184811,303.793704 L272.456559,302.475038 L271.730801,301.140322 L271.007032,299.788579 L270.645735,299.106015 L270.645735,299.106015 L269.924004,297.726894 C269.80379,297.495445 269.683606,297.263184 269.563442,297.030092 L268.842613,295.621391 L268.121755,294.191748 L267.400364,292.740183 L266.677935,291.265718 L265.953963,289.767374 L265.227944,288.244172 L264.499375,286.695135 L263.767749,285.119283 L263.032563,283.515638 L262.293312,281.88322 L261.549492,280.221052 L260.800598,278.528155 L259.66664,275.929051 L258.902855,274.155049 L258.13223,272.346892 L257.354261,270.503602 L256.568444,268.624201 L255.373898,265.735248 L254.158856,262.759539 L252.921615,259.693771 L252.083614,257.598262 L250.80559,254.375055 L249.500827,251.052981 L248.167621,247.628737 L246.342827,242.898439 L244.936635,239.222954 L243.008345,234.14568 L241.519897,230.200971 L234.65121,211.892439 L233.388073,208.546691 L232.153356,205.294871 L230.946007,202.134939 L228.991727,197.067045 L227.852228,194.142181 L226.736248,191.301729 L225.283042,187.642244 L223.86729,184.124366 L222.828558,181.575981 L221.808443,179.102492 L221.13819,177.494102 L220.475434,175.917489 L219.494675,173.610829 L218.529032,171.37227 L217.893149,169.916723 L217.263207,168.489933 L216.328752,166.402344 L215.7123,165.044801 L215.100699,163.7139 L214.493638,162.409036 L213.890806,161.129605 L213.277717,159.848744 C203.974146,166.856342 192.462485,171 180,171 C166.400063,171 153.932434,166.06544 144.231008,157.859393 C136.612699,170.505907 129.069233,186.514793 121.750711,205.945417 C111.25793,233.803679 101.414429,268.136931 92.2449008,308.908942 L91.2288391,313.465661 C89.7089106,320.340479 88.207729,327.394113 86.7254085,334.626398 L85.7399903,339.474385 C85.3705864,341.306872 85.0023689,343.150578 84.6353394,345.005501 C101.023089,354.950176 112,373.170299 112,394 C112,425.480231 86.927946,451 56,451 C25.072054,451 0,425.480231 0,394 C0,364.425317 22.1286186,340.111343 50.4522806,337.276181 C70.7956964,234.434177 95.0935756,163.613299 124.885172,124.150826 C124.30405,120.861106 124,117.466694 124,114 C124,82.5197693 149.072054,57 180,57 C210.927946,57 236,82.5197693 236,114 C236,118.090663 235.576648,122.080682 234.772107,125.92714 L234.930355,126.186339 L235.60757,127.315854 L236.281702,128.458981 L236.953138,129.616444 L237.622266,130.788968 L238.289475,131.977278 L238.955154,133.182098 C239.065994,133.384317 239.176787,133.587255 239.287541,133.790926 L239.951651,135.021869 L240.615202,136.271134 L241.278582,137.539446 L241.942178,138.827528 L242.60638,140.136105 L243.271575,141.465902 L243.938152,142.817644 L244.27208,143.50197 L244.27208,143.50197 L244.941458,144.887987 L245.613189,146.297759 C245.725361,146.534741 245.837648,146.772743 245.950058,147.01178 L246.626046,148.458545 L247.305358,149.930878 L247.988381,151.429502 L248.675505,152.955142 L249.367118,154.508524 L250.063608,156.090371 L250.765363,157.701408 L251.472772,159.34236 L252.186223,161.013952 L252.906104,162.716907 L253.998833,165.331732 L255.108214,168.021202 L256.235559,170.787761 L257.382178,173.633856 L258.549381,176.561931 L259.738481,179.574433 L260.544025,181.630879 L261.77253,184.789525 L263.450259,189.14295 L265.176233,193.663856 L266.504245,197.167931 L267.40628,199.559338 L274.225327,217.735834 L275.605649,221.394563 L277.393914,226.105265 L278.697753,229.516108 L279.549944,231.733328 L280.803685,234.976154 L282.431639,239.149202 L283.621591,242.169466 L284.400881,244.132328 L285.549803,247.002663 L286.302999,248.868085 L287.414669,251.596026 L288.505803,254.24215 L289.577759,256.809169 L290.631897,259.299797 L291.32543,260.919115 L292.352895,263.288453 L293.029905,264.829423 L294.034475,267.085007 L294.697481,268.552654 L295.35559,269.992379 C295.464889,270.230051 295.574001,270.466593 295.682935,270.702021 L296.334455,272.10137 C296.442706,272.332413 296.550796,272.562376 296.658732,272.791276 L297.30457,274.152057 L297.947124,275.48813 L298.586796,276.800301 L299.223991,278.089372 L299.85911,279.356148 L300.492556,280.601433 L301.124733,281.826031 L301.756044,283.030745 L302.386892,284.216379 L303.017679,285.383738 L303.364642,286.016585 C313.237491,269.800639 330.879562,259 351,259 C365.176263,259 378.122217,264.361646 387.987319,273.201351 C391.876971,265.499638 395.629518,256.825101 399.228884,247.156201 C412.196879,212.32056 422.650818,165.814953 430.497913,107.758489 C412.391655,98.31676 400,79.1313343 400,57 C400,25.5197693 425.072054,0 456,0 Z" id="Combined-Shape"></path>
    </g>
</svg>