<?xml version="1.0" standalone="no"?>
<!DOCTYPE svg PUBLIC "-//W3C//DTD SVG 20010904//EN"
 "http://www.w3.org/TR/2001/REC-SVG-20010904/DTD/svg10.dtd">
<svg version="1.0" xmlns="http://www.w3.org/2000/svg"
 width="512.000000pt" height="512.000000pt" viewBox="0 0 512.000000 512.000000"
 preserveAspectRatio="xMidYMid meet">

<g transform="translate(0.000000,512.000000) scale(0.100000,-0.100000)"
fill="#000000" stroke="none">
<path d="M3810 5109 c-28 -11 -2381 -2358 -2410 -2404 -12 -20 -58 -229 -139
-640 -67 -336 -121 -616 -121 -624 0 -28 35 -84 64 -102 17 -10 49 -19 70 -19
53 0 1203 228 1241 246 17 8 568 553 1226 1211 1326 1327 1234 1225 1190 1316
-25 52 -972 1000 -1014 1016 -34 13 -73 13 -107 0z m-1821 -2953 c318 -319
352 -355 330 -360 -13 -3 -152 -31 -308 -62 l-284 -55 -111 110 -110 110 59
306 c33 168 62 305 65 305 3 0 165 -159 359 -354z"/>
<path d="M800 1241 c-122 -48 -166 -71 -272 -142 -312 -210 -431 -514 -303
-775 78 -160 236 -256 445 -271 274 -19 589 96 975 356 110 74 242 163 293
197 189 128 405 223 605 266 137 30 476 33 634 5 413 -71 654 -183 861 -401
91 -96 153 -191 210 -321 48 -112 73 -140 131 -150 85 -14 161 41 161 116 0
44 -56 181 -120 292 -184 322 -495 551 -925 682 -528 160 -1050 103 -1555
-168 -94 -51 -318 -198 -475 -313 -83 -60 -166 -109 -270 -159 -368 -178 -570
-198 -685 -68 -73 83 -87 181 -39 276 54 107 259 262 436 329 98 37 131 67
139 128 11 85 -47 161 -121 159 -16 0 -73 -17 -125 -38z"/>
</g>
</svg>
