<?xml version="1.0" encoding="utf-8"?>
<!DOCTYPE svg PUBLIC "-//W3C//DTD SVG 1.1//EN" "http://www.w3.org/Graphics/SVG/1.1/DTD/svg11.dtd">
<svg version="1.1" id="Layer_1" xmlns="http://www.w3.org/2000/svg" xmlns:xlink="http://www.w3.org/1999/xlink" x="0px" y="0px"
	 width="512px" height="512px" viewBox="0 0 512 512" enable-background="new 0 0 512 512" xml:space="preserve">
<path d="M292.312,219.688l43.938-21.969L490.031,43.938l-21.969-21.969L314.281,175.75L292.312,219.688z M259.806,297.642
	c-10.858-22.905-22.541-34.588-45.447-45.446l34.016-93.639l43.938-26.744L424.125,0h-65.906L226.406,131.812L160.5,351.5
	l219.688-65.906L512,153.781V87.875L380.188,219.688l-26.744,43.938L259.806,297.642z"/>
<path d="M414.551,474.495c-6.737-3.572-18.606-5.888-21.185-6.288c-26.474-4.118-53.011-7.265-79.413-11.92
	c-52.029-9.177-104.271-17.416-156.429-25.833c-29.089-4.694-58.203-9.237-87.362-13.47c-6.379-0.926-9.117,16.865-2.733,17.791
	c102.246,14.842,204.163,31.936,305.978,49.459c9.645,1.66,29.999,8.424,39.422,3.965
	C421.627,484.035,419.984,477.374,414.551,474.495z"/>
</svg>
