<?xml version="1.0" encoding="UTF-8"?>
<svg width="695px" height="600px" viewBox="0 0 695 600" version="1.1" xmlns="http://www.w3.org/2000/svg" xmlns:xlink="http://www.w3.org/1999/xlink">
    <g stroke="none" stroke-width="1" fill="none" fill-rule="evenodd">
        <g transform="translate(-0.142857, 0.000000)" fill="#000000" fill-rule="nonzero">
            <path d="M664.368571,554.5 C695.505714,516.665714 704.88,469.79 680.777143,446.017143 C650.64,416.218571 612.137143,445.348571 560.575714,492.892857 C511.691429,537.09 493.275714,552.491429 487.584286,546.464286 C481.892857,541.441429 492.607143,525.705714 550.865714,459.745714 C624.528571,375.371429 658.34,324.812857 619.165714,285.302857 C577.651429,244.121429 519.057143,293.34 432.338571,373.027143 C371.401429,428.942857 311.132857,489.88 285.687143,464.432857 C267.941429,446.687143 290.04,418.228571 379.771429,315.102857 C503.655714,172.804286 570.285714,71.6871429 519.057143,20.46 C469.838571,-28.7585714 418.945714,14.0985714 259.905714,145.012857 C136.355714,246.464286 68.3871429,287.981429 16.8257143,313.762857 C2.76285714,321.464286 -2.59428571,334.522857 2.76285714,347.915714 C8.79,360.972857 23.8571429,365.325714 39.2585714,357.29 C93.8342857,330.17 168.498571,282.96 290.708571,182.848571 C425.641429,71.6871429 462.137143,37.2014286 483.565714,58.9642857 C510.351429,85.4157143 449.08,163.428571 343.611429,282.29 C228.432857,412.535714 200.977143,463.762857 246.178571,508.964286 C298.41,561.197143 372.405714,493.897143 463.142857,410.861429 C534.124286,345.905714 570.954286,311.42 583.678571,324.477143 C596.735714,337.87 563.922857,373.695714 496.29,452.044286 C434.682857,523.695714 421.624286,560.191429 448.745714,587.312857 C474.191429,612.758571 513.7,596.018571 568.945714,546.798571 C614.147143,506.955714 637.584286,482.514286 642.274286,487.535714 C646.957143,492.222857 639.257143,510.638571 623.184286,527.044286 C612.807143,537.424286 614.147143,552.825714 624.528571,563.54 C635.238571,573.25 651.648571,570.905714 664.368571,554.5 Z" id="Path"></path>
        </g>
    </g>
</svg>