<?xml version="1.0" encoding="utf-8"?>
<!DOCTYPE svg PUBLIC "-//W3C//DTD SVG 1.1//EN" "http://www.w3.org/Graphics/SVG/1.1/DTD/svg11.dtd">
<svg version="1.1" id="Layer_1" xmlns="http://www.w3.org/2000/svg" xmlns:xlink="http://www.w3.org/1999/xlink" x="0px" y="0px"
	 width="512px" height="512px" viewBox="0 0 512 512" enable-background="new 0 0 512 512" xml:space="preserve">
<path d="M336.894,119.112l-51.138-62.566c-11.138-13.624-33.135-24.773-48.882-24.773H65.061c-15.75,0-28.635,15.766-28.635,35.036
	v378.381c0,19.27,12.886,35.035,28.635,35.035h263.446c15.747,0,28.635-15.766,28.635-35.035V178.921
	C357.142,159.652,348.031,132.738,336.894,119.112z M320.694,138.931c1.122,1.371,2.237,3.054,3.322,4.955h-58.509V72.302
	c1.553,1.328,2.93,2.694,4.05,4.065L320.694,138.931L320.694,138.931z M334.23,445.189c0,3.799-2.622,7.008-5.724,7.008H65.061
	c-3.104,0-5.727-3.209-5.727-7.008V66.809c0-3.798,2.623-7.007,5.727-7.007h171.813c1.727,0,3.669,0.268,5.725,0.747v111.367h91.023
	c0.392,2.516,0.608,4.889,0.608,7.007V445.189z"/>
<polygon points="191.197,245.06 104.801,245.033 104.799,317.117 191.185,317.104 191.172,385.387 288.766,280.387 191.174,175.004
	191.197,245.06 "/>
<path d="M481.777,114.339l-47.474-62.566C423.964,38.148,403.544,27,388.924,27h-60.146c5.115,9.005,9.739,18.303,13.292,28.028
	h46.854c1.605,0,3.406,0.268,5.316,0.747v70.479c1.143,1.457,2.146,3.071,2.977,4.844c4.202,8.977,9.969,16.789,14.714,25.393
	c0.082,0.147,0.157,0.3,0.237,0.448c1.275,1.726,2.427,3.606,3.396,5.709c0.731,1.584,1.352,3.062,1.889,4.494h61.287
	c0.363,2.516,0.565,4.889,0.565,7.007v266.269c0,3.797-2.435,7.006-5.314,7.006h-63.162c-0.081,1.297-0.163,2.594-0.286,3.896
	c-0.556,5.896-1.297,11.77-2.118,17.633c0.045,0.679,0.075,1.361,0.075,2.05v4.449h65.491c14.62,0,26.583-15.764,26.583-35.033
	V174.148C500.574,154.879,492.117,127.965,481.777,114.339z M415.507,139.113V67.528c1.44,1.328,2.719,2.694,3.759,4.065
	l47.474,62.564c1.041,1.372,2.077,3.054,3.085,4.955H415.507z"/>
</svg>
