<?xml version="1.0" encoding="utf-8"?>
<!DOCTYPE svg PUBLIC "-//W3C//DTD SVG 1.1//EN" "http://www.w3.org/Graphics/SVG/1.1/DTD/svg11.dtd">
<svg version="1.1" id="Layer_1" xmlns="http://www.w3.org/2000/svg" xmlns:xlink="http://www.w3.org/1999/xlink" x="0px" y="0px"
	 width="512px" height="512px" viewBox="0 0 512 512" enable-background="new 0 0 512 512" xml:space="preserve">
<path fill="#444444" d="M249,22.25C119.903,22.25,15.25,126.903,15.25,256S119.903,489.75,249,489.75S482.75,385.097,482.75,256
	S378.097,22.25,249,22.25z M249,460.532c-28.743,0-56.096-5.94-80.913-16.642l106.442-119.747c2.377-2.674,3.689-6.128,3.689-9.706
	v-43.828c0-8.068-6.541-14.609-14.609-14.609c-51.585,0-106.011-53.626-106.545-54.158c-2.739-2.74-6.455-4.28-10.33-4.28H88.297
	c-8.068,0-14.609,6.542-14.609,14.609v87.656c0,5.534,3.126,10.593,8.077,13.066l50.361,25.182v85.778
	C79.143,386.895,44.469,325.501,44.469,256c0-31.371,7.072-61.088,19.694-87.656h53.353c3.875,0,7.59-1.54,10.331-4.279
	l58.438-58.438c2.739-2.74,4.279-6.456,4.279-10.331V59.955c18.519-5.513,38.129-8.486,58.438-8.486
	c32.144,0,62.548,7.423,89.611,20.636c-1.892,1.599-3.733,3.271-5.5,5.039c-16.557,16.556-25.674,38.568-25.674,61.982
	c0,23.415,9.117,45.426,25.674,61.982c16.634,16.633,38.905,25.687,61.923,25.686c1.445,0,2.896-0.037,4.346-0.108
	c6.307,23.649,17.692,85.217-3.837,169.986c-0.203,0.796-0.318,1.592-0.384,2.385C358.031,436.985,306.27,460.532,249,460.532
	L249,460.532z"/>
</svg>
