<?xml version="1.0" encoding="utf-8"?>
<!DOCTYPE svg PUBLIC "-//W3C//DTD SVG 1.1//EN" "http://www.w3.org/Graphics/SVG/1.1/DTD/svg11.dtd">
<svg version="1.1" id="Layer_1" xmlns="http://www.w3.org/2000/svg" xmlns:xlink="http://www.w3.org/1999/xlink" x="0px" y="0px"
	 width="512px" height="512px" viewBox="0 0 512 512" enable-background="new 0 0 512 512" xml:space="preserve">
<path d="M466.348,216.413c-17.504-66.574-85.122-118.706-170.409-130.839c0.001,0,0.001,0.001,0.001,0.003
	c-6.592-11.912-21.897-20.261-39.73-20.261c-18.096,0-33.583,8.598-40.011,20.791C131.333,99.355,64.623,152.313,48.587,219.365
	c-16.032,4.874-27.383,16.931-27.383,31.043c0,14.084,11.307,26.121,27.288,31.015c15.994,67.756,83.716,121.19,169.685,133.943
	c6.63,11.844,21.888,20.134,39.658,20.134c17.766,0,33.021-8.287,39.652-20.128c87.335-12.956,155.835-67.9,170.404-137.19
	C483.247,273.067,494,261.274,494,247.538C494,233.347,482.521,221.233,466.348,216.413z M256.209,83.072
	c11.156,0,20.202,6.986,20.202,15.604c0,8.617-9.046,15.603-20.202,15.603c-11.158,0-20.204-6.986-20.204-15.603
	C236.005,90.058,245.051,83.072,256.209,83.072z M64.048,267.178c-11.992,0-21.712-7.509-21.712-16.77
	c0-9.262,9.721-16.77,21.712-16.77c11.991,0,21.712,7.508,21.712,16.77C85.76,259.669,76.039,267.178,64.048,267.178z
	 M257.602,419.179c-11.992,0-21.712-7.509-21.712-16.769c0-9.262,9.721-16.771,21.712-16.771c11.991,0,21.712,7.509,21.712,16.771
	C279.313,411.67,269.593,419.179,257.602,419.179z M293.928,383.823c-7.723-9.06-21.002-15.042-36.093-15.042
	c-15.092,0-28.368,5.98-36.091,15.038c-62.609-12.637-117.78-56.293-133.37-105.664c11.583-5.983,19.214-16.175,19.214-27.747
	c0-11.54-7.587-21.709-19.117-27.699c15.629-48.951,70.139-92.227,132.155-105.127c7.791,8.729,20.818,14.454,35.583,14.454
	c15.071,0,28.331-5.965,36.06-15.002c62.036,11.953,117.075,54.451,134.043,103.032c-11.291,6.018-18.696,16.075-18.696,27.473
	c0,11.952,8.143,22.429,20.369,28.319C413.405,326.167,357.504,370.99,293.928,383.823z M451.156,264.218
	c-11.992,0-21.714-7.507-21.714-16.77c0-9.262,9.722-16.769,21.714-16.769c11.99,0,21.712,7.507,21.712,16.769
	C472.868,256.711,463.146,264.218,451.156,264.218z"/>
</svg>
