<?xml version="1.0" encoding="UTF-8"?>
<svg width="150px" height="150px" viewBox="0 0 150 150" version="1.1" xmlns="http://www.w3.org/2000/svg" xmlns:xlink="http://www.w3.org/1999/xlink">
    <g stroke="none" stroke-width="1" fill="none" fill-rule="evenodd">
        <rect id="Rectangle-Copy-4" x="0" y="0" width="150" height="150" fill="none"></rect>
        <path d="M83,65.5 C85.924917,65.5 88.6152482,66.5045175 90.7446472,68.1875729 C93.0178645,69.9843008 94.6522236,72.5539771 95.2500848,75.5001508 L95.2500848,75.5001508 L116.5,75.5000035 L116.5,80.50002 L95.2498773,80.5008716 C94.6518112,83.4467863 93.017414,86.0162018 90.744256,87.8127363 C88.6149188,89.4956055 85.9247379,90.5 83,90.5 C79.5482203,90.5 76.4232203,89.1008898 74.1611652,86.8388348 C71.8991102,84.5767797 70.5,81.4517797 70.5,78 C70.5,74.5482203 71.8991102,71.4232203 74.1611652,69.1611652 C76.4232203,66.8991102 79.5482203,65.5 83,65.5 Z" id="Combined-Shape-Copy-4" stroke="#979797" fill="#D8D8D8"></path>
        <path d="M91.7747752,38.0780025 C67.3326358,38.0811858 50.4000257,42.3687778 40.9769449,50.9407787 C26.8423235,63.79878 23.6943485,86.1317325 37.6823161,103.517207 C47.0076278,115.107524 65.3264785,120.719524 92.6388681,120.353208 L92.6388681,131.809163 C62.0100747,133.176734 40.9446761,127.190357 29.4426724,113.850034 C12.1896667,93.8395487 10.4104778,68.7348641 25.4204997,47.692915 C32.266593,38.0956509 44.805801,29.8589835 62.9897311,26.3125368 C68.5862964,25.2210279 78.1813111,24.7835157 91.7747752,25 L91.7747752,38.0780025 Z" id="Path-2-Copy-2" fill="#000000"></path>
        <path d="M68,120.354 L111.638868,120.354208 L111.638868,131.810163 L68,131.81 L68,120.354 Z M110.774775,25.001 L110.774775,38.0790025 L68,38.079 L68,25 L110.774775,25.001 Z" id="Combined-Shape" fill="#000000"></path>
    </g>
</svg>