<?xml version="1.0" encoding="UTF-8"?>
<svg width="150px" height="150px" viewBox="0 0 150 150" version="1.1" xmlns="http://www.w3.org/2000/svg" xmlns:xlink="http://www.w3.org/1999/xlink">
    <g stroke="none" stroke-width="1" fill="none" fill-rule="evenodd">
        <rect id="Rectangle-Copy-5" x="0" y="0" width="150" height="150" fill="none"></rect>
        <path d="M88,62.5 C90.924917,62.5 93.6152482,63.5045175 95.7446472,65.1875729 C98.0178645,66.9843008 99.6522236,69.5539771 100.250085,72.5001508 L100.250085,72.5001508 L121.5,72.5000035 L121.5,77.50002 L100.249877,77.5008716 C99.6518112,80.4467863 98.017414,83.0162018 95.744256,84.8127363 C93.6149188,86.4956055 90.9247379,87.5 88,87.5 C84.5482203,87.5 81.4232203,86.1008898 79.1611652,83.8388348 C76.8991102,81.5767797 75.5,78.4517797 75.5,75 C75.5,71.5482203 76.8991102,68.4232203 79.1611652,66.1611652 C81.4232203,63.8991102 84.5482203,62.5 88,62.5 Z" id="Combined-Shape" stroke="#979797" fill="#D8D8D8"></path>
        <polygon id="Path-2" fill="#000000" points="120.135907 34.6677739 36.7680072 34.6677739 36.7680072 116.94298 121 116.94298 121 128.398934 24.3611319 128.398934 24.3611319 21.5897714 120.135907 21.5897714"></polygon>
    </g>
</svg>