<?xml version="1.0" encoding="utf-8"?>
<!DOCTYPE svg PUBLIC "-//W3C//DTD SVG 1.1//EN" "http://www.w3.org/Graphics/SVG/1.1/DTD/svg11.dtd">
<svg version="1.1" id="Layer_1" xmlns="http://www.w3.org/2000/svg" xmlns:xlink="http://www.w3.org/1999/xlink" x="0px" y="0px"
	 width="512px" height="512px" viewBox="0 0 512 512" enable-background="new 0 0 512 512" xml:space="preserve">
<path d="M461.58,47.766H50.611c-26.087,0-47.42,21.333-47.42,47.42v316.129c0,26.087,21.333,47.42,47.42,47.42H461.58
	c26.087,0,47.42-21.333,47.42-47.42V95.186C509,69.099,487.667,47.766,461.58,47.766z M200.139,256.398L58.417,368.562V104.797
	L200.139,256.398z M82.312,102.991h347.565L256.096,235.483L82.312,102.991z M205.357,262.018l50.738,54.459l50.753-54.459
	l111.978,141.49H93.349L205.357,262.018z M312.036,256.398l141.737-151.601v263.764L312.036,256.398z"/>
</svg>
