<?xml version="1.0" encoding="utf-8"?>

<svg xmlns="http://www.w3.org/2000/svg" version="1.1" xmlns:xlink="http://www.w3.org/1999/xlink" width="512" height="512" x="0" y="0" viewBox="0 0 24 24" style="enable-background:new 0 0 512 512" xml:space="preserve" class="">
    <g>
        <path fill="#000000" d="m21.76 12.22-1.42-1.63c.38-.5.6-.86.63-.92.28-.47.12-1.09-.35-1.37s-1.09-.13-1.37.35c-.03.05-2.89 4.75-7.25 4.75-4.36 0-7.01-4.5-7.19-4.81-.14-.31-.43-.54-.8-.59-.56-.06-1.04.33-1.11.88-.05.4.36 1.07.81 1.68l-1.45 1.66a.998.998 0 0 0 .1 1.41.996.996 0 0 0 1.41-.09l1.26-1.44c.52.53 1.12 1.07 1.81 1.56L5.6 15.93c-.26.48-.09 1.09.4 1.36a1.009 1.009 0 0 0 1.36-.4l1.22-2.23c.74.33 1.56.56 2.44.67v2.05c0 .55.45 1 1 1s1-.45 1-1v-2.04c.88-.11 1.69-.36 2.43-.69l1.23 2.25c.18.33.52.52.88.52.16 0 .33-.04.48-.12.48-.26.66-.87.4-1.36l-1.24-2.27c.71-.49 1.32-1.03 1.84-1.56l1.23 1.41c.2.23.47.34.75.34.23 0 .47-.08.66-.25.42-.36.46-.99.1-1.41z" opacity="1" data-original="#000000" class=""></path>
    </g>
</svg>
