<?xml version="1.0" encoding="utf-8"?>
<!-- Generator: Adobe Illustrator 21.0.2, SVG Export Plug-In . SVG Version: 6.00 Build 0)  -->
<svg version="1.1" id="Layer_1" xmlns="http://www.w3.org/2000/svg" xmlns:xlink="http://www.w3.org/1999/xlink" x="0px" y="0px"
	 viewBox="0 0 512 512" style="enable-background:new 0 0 512 512;" xml:space="preserve">
<path d="M420.6,148.9l70.9-71.8L429.5,16l-91.1,92.3c-26.1-8-53.8-12.3-82.4-12.3C144.3,96,47.6,161,0,256
	c21,41.9,51.5,77.9,88.7,105.1l-72.5,73.4l61.9,61.1l91.9-93c27.2,8.7,56.1,13.4,86,13.4c111.7,0,208.4-65,256-160
	C490.5,213.1,459,176.3,420.6,148.9z M208,157c22.4,0,41.3,15.4,46.5,36.2l-57.8,58.5c-21.1-5.1-36.8-24-36.8-46.7
	C160,178.5,181.5,157,208,157z M55.1,256c19.1-30.3,44.6-56,74.7-75.1c2-1.3,3.9-2.5,5.9-3.7c-5,13.7-7.7,28.4-7.7,43.8
	c0,28.2,9.1,54.3,24.6,75.4l-29.7,30.1C95.8,307.9,72.7,283.9,55.1,256z M382.2,331.1C344.4,355.3,300.8,368,256,368
	c-15.9,0-31.7-1.6-47.1-4.8l17.5-17.7c9.5,2.3,19.5,3.5,29.7,3.5c70.7,0,128-57.3,128-128c0-10.8-1.3-21.2-3.8-31.2l6.2-6.2
	c28.3,18.9,52.4,43.6,70.6,72.5C437.8,286.3,412.3,312,382.2,331.1z"/>
</svg>
