<?xml version="1.0" encoding="UTF-8"?>
<svg xmlns="http://www.w3.org/2000/svg" version="1.1" xmlns:xlink="http://www.w3.org/1999/xlink" width="512" height="512" x="0" y="0" viewBox="0 0 24 24" style="enable-background:new 0 0 512 512" xml:space="preserve" class="">
    <g>
        <path d="M18 3h-5V2a1 1 0 0 0-2 0v1H6a3 3 0 0 0-3 3v8a3 3 0 0 0 3 3h1.61l-1.56 4.68A1 1 0 0 0 6.68 23 1.25 1.25 0 0 0 7 23a1 1 0 0 0 1-.68L9.72 17h4.56l1.77 5.32A1 1 0 0 0 17 23a1.25 1.25 0 0 0 .32-.05 1 1 0 0 0 .68-1.27L16.39 17H18a3 3 0 0 0 3-3V6a3 3 0 0 0-3-3zM8 7h4a1 1 0 0 1 0 2H8a1 1 0 0 1 0-2zm8 6H8a1 1 0 0 1 0-2h8a1 1 0 0 1 0 2z" fill="#000000" opacity="1" data-original="#000000" class=""></path>
    </g>
</svg>