<?xml version="1.0" encoding="UTF-8"?>
<svg width="358px" height="652px" viewBox="0 0 358 652" version="1.1" xmlns="http://www.w3.org/2000/svg" xmlns:xlink="http://www.w3.org/1999/xlink">
    <title>Shape</title>
    <g id="Page-1" stroke="none" stroke-width="1" fill="none" fill-rule="evenodd">
        <path d="M305.311852,52.3707241 C375.139787,122.198659 375.125635,235.42582 305.280243,305.271211 C277.89596,332.655495 243.845615,349.140971 208.359669,355.034661 L208.359,468 L286,468 C297.045695,468 306,476.954305 306,488 L306,508 C306,519.045695 297.045695,528 286,528 L208.359,528 L208.359351,635.749788 C208.359351,644.586344 201.195907,651.749788 192.359351,651.749788 L164.359351,651.749788 C155.522795,651.749788 148.359351,644.586344 148.359351,635.749788 L148.359,528 L71,528 C59.954305,528 51,519.045695 51,508 L51,488 C51,476.954305 59.954305,468 71,468 L148.359,468 L148.359656,354.860115 C113.581271,348.875604 80.201544,332.76075 53.2156581,306.133037 L52.3616944,305.284758 C-17.4662402,235.456823 -17.4520885,122.229662 52.393303,52.3842706 C122.238695,-17.4611209 235.483918,-17.4572105 305.311852,52.3707241 Z M88.5174285,88.5083961 C38.7078722,138.317952 38.6977439,219.354494 88.4948509,269.151601 C138.291958,318.948708 219.3285,318.93858 269.138056,269.129024 C318.947612,219.319467 318.95774,138.282926 269.160634,88.4858185 C219.363527,38.6887116 138.326985,38.6988399 88.5174285,88.5083961 Z" id="Shape" fill="#000000" fill-rule="nonzero"></path>
    </g>
</svg>