<?xml version="1.0" encoding="utf-8"?>
<!DOCTYPE svg PUBLIC "-//W3C//DTD SVG 1.1//EN" "http://www.w3.org/Graphics/SVG/1.1/DTD/svg11.dtd">
<svg version="1.1" id="Layer_1" xmlns="http://www.w3.org/2000/svg" xmlns:xlink="http://www.w3.org/1999/xlink" x="0px" y="0px"
	 width="512px" height="512px" viewBox="0 0 512 512" enable-background="new 0 0 512 512" xml:space="preserve">
<path d="M451.716,99.715l-71.432-71.431C364.728,12.728,334,0,312,0H72C50,0,32,18,32,40v432c0,22,18,40,40,40h368c22,0,40-18,40-40
	V168C480,146,467.272,115.271,451.716,99.715z M429.089,122.343c1.565,1.565,3.125,3.487,4.64,5.657H352V46.272
	c2.17,1.515,4.092,3.075,5.657,4.64L429.089,122.343L429.089,122.343z M448,472c0,4.336-3.664,8-8,8H72c-4.336,0-8-3.664-8-8V40
	c0-4.336,3.664-8,8-8h240c2.416,0,5.127,0.305,8,0.852V160h127.148c0.547,2.873,0.852,5.583,0.852,8V472z"/>
<rect x="307.021" y="309.659" width="57.728" height="109.714"/>
<rect x="220.432" y="163.373" width="57.727" height="256"/>
<rect x="133.842" y="236.516" width="57.727" height="182.857"/>
</svg>
