<!-- Generated by IcoMoon.io -->
<svg version="1.1" xmlns="http://www.w3.org/2000/svg" width="256" height="256" viewBox="0 0 256 256">
<title>file-picture</title>
<path d="M208 224h-160v-32l48-80 65.75 80 46.25-32v64z"></path>
<path d="M208 120c0 13.255-10.745 24-24 24s-24-10.745-24-24 10.744-24 24-24c13.255 0 24 10.745 24 24z"></path>
<path d="M229.452 57.269c-5.553-7.573-13.293-16.425-21.794-24.926s-17.353-16.241-24.926-21.794c-12.893-9.455-19.148-10.549-22.731-10.549h-124c-11.028 0-20 8.972-20 20v216c0 11.028 8.972 20 20 20h184c11.028 0 20-8.972 20-20v-156c0-3.583-1.093-9.838-10.548-22.731zM196.344 43.657c7.675 7.675 13.7 14.599 18.145 20.343h-38.489v-38.486c5.746 4.445 12.669 10.47 20.344 18.143zM224 236c0 2.168-1.832 4-4 4h-184c-2.168 0-4-1.832-4-4v-216c0-2.168 1.832-4 4-4 0 0 123.989-0.001 124 0v56c0 4.418 3.582 8 8 8h56v156z"></path>
</svg>
