<?xml version="1.0" encoding="utf-8"?>
<svg version="1.1" id="Layer_1"
	 xmlns="http://www.w3.org/2000/svg" xmlns:xlink="http://www.w3.org/1999/xlink" x="0px" y="0px" width="128px" height="128px"
	 viewBox="0 0 128 128" enable-background="new 0 0 128 128" xml:space="preserve">
<g>
	<polygon points="8,7.999 71.999,7.999 71.999,39.856 103.999,39.855 103.999,55.999 112,55.999 112,31.999 79.999,0 0,0 0,112
		55.999,112 55.999,103.999 8,103.999 	"/>
	<path d="M125.143,72.857c-2.5-2.5-9.063-9.063-11.25-11.25s-5.567-0.282-5.567-0.282l-3.435,3.434l16.972,16.972l3.56-3.56
		C125.422,78.172,127.643,75.357,125.143,72.857z"/>
	<path d="M61.567,108.083l-2.829,19.799l19.799-2.828l40.32-40.317l-16.972-16.972L61.567,108.083z M67.662,122.481l-3.376-3.472
		l1.099-7.226l9.84,9.84L67.662,122.481z"/>
</g>
</svg>
