<?xml version="1.0" encoding="UTF-8"?>
<svg width="448px" height="512px" viewBox="0 0 448 512" version="1.1" xmlns="http://www.w3.org/2000/svg" xmlns:xlink="http://www.w3.org/1999/xlink">
    <title>Page 1</title>
    <g id="Page-1" stroke="none" stroke-width="1" fill="none" fill-rule="evenodd">
        <g id="file-css" fill="#000000" fill-rule="nonzero">
            <path d="M419.716,99.715 L348.284,28.284 C332.728,12.728 302,7.10542736e-15 280,7.10542736e-15 L40,7.10542736e-15 C18,7.10542736e-15 0,18 0,40 L0,472 C0,494 18,512 40,512 L408,512 C430,512 448,494 448,472 L448,168 C448,146 435.272,115.271 419.716,99.715 Z M397.089,122.343 C398.654,123.908 400.214,125.83 401.729,128 L320,128 L320,46.272 C322.17,47.787 324.092,49.347 325.657,50.912 L397.089,122.343 Z M416,472 C416,476.336 412.336,480 408,480 L40,480 C35.664,480 32,476.336 32,472 L32,40 C32,35.664 35.664,32 40,32 L280,32 C282.416,32 285.127,32.305 288,32.852 L288,160 L415.148,160 C415.695,162.873 416,165.583 416,168 L416,472 Z" id="Shape"></path>
        </g>
        <path d="M107.2,457 C155.5,457 182.2,426.4 182.2,382.9 L182.2,226.3 C182.2,208 184.6,207.1 194.5,204.7 L205.3,202.3 L205.3,190.6 L105.1,190.6 L105.1,202.3 L116.5,204.7 C117.268,204.868 117.98992,205.03024 118.668218,205.195936 L119.1688,205.321 C126.47392,207.19 128.456128,209.77189 128.499275,225.756112 L128.5,420.1 C128.5,438.1 124.6,442.9 115.6,442.9 C111.7,442.9 110.2,441.1 109,434.8 C105.1,412.6 99.1,405.7 82.9,405.7 C69.1,405.7 61,413.8 61,426.4 C61,443.2 76.3,457 107.2,457 Z M288.1,402.1 C340,402.1 368.5,370.9 368.5,332.5 C368.5,302.8 350.8,284.8 303.1,266.8 C267.7,253.3 261.1,245.5 261.1,231.4 C261.1,215.2 275.2,202.9 295.6,202.9 C309.4,202.9 316.9,206.5 322.9,213.1 C331.6,222.7 335.2,229.6 343.3,245.2 L356.2,245.2 L352.6,193 C340.6,189.1 324.4,187 298.9,187 C253.6,187 223.3,212.8 223.3,249.1 C223.3,279.4 236.8,298.3 280.6,314.8 C317.2,328.9 327.1,339.7 327.1,356.2 C327.1,372.1 311.8,386.2 289.9,386.2 C273.1,386.2 264.4,380.5 256.6,370.9 C248.5,360.7 242.8,350.8 234.4,334.9 L221.5,334.9 L225.1,393.1 C238.6,397.3 259.6,402.1 288.1,402.1 Z" id="JS" fill="#000000" fill-rule="nonzero"></path>
    </g>
</svg>