<svg version="1.1"
	 xmlns="http://www.w3.org/2000/svg" x="0px" y="0px" width="128px" height="128px"
	 viewBox="0 0 128 128" enable-background="new 0 0 128 128" xml:space="preserve">
<g>
	<polygon points="8,7.999 71.999,7.999 71.999,39.856 103.999,39.855 103.999,55.999 112,55.999 112,31.999 79.999,0 0,0 0,112 
		55.999,112 55.999,103.999 8,103.999 	"/>
</g>
<path d="M96,63.999c-17.674,0-32.001,14.327-32.001,32.001c0,17.673,14.327,32,32.001,32c17.673,0,32-14.327,32-32
	C128,78.326,113.673,63.999,96,63.999z M101.094,111.173c-0.144,0.241-0.309,0.472-0.516,0.679l-2.96,2.961
	c-1.361,1.362-3.57,1.362-4.934,0l-0.081-0.081l-2.879-2.88L73.938,96.065c-1.362-1.363-1.362-3.572,0.001-4.934l2.96-2.96
	c1.361-1.362,3.57-1.362,4.933,0l13.321,13.32l17.184-17.186c1.363-1.362,3.571-1.362,4.934,0l2.88,2.879
	c1.361,1.362,1.361,3.571,0,4.934L101.094,111.173z"/>
</svg>
