<?xml version="1.0" encoding="utf-8"?>
<!DOCTYPE svg PUBLIC "-//W3C//DTD SVG 1.1//EN" "http://www.w3.org/Graphics/SVG/1.1/DTD/svg11.dtd">
<svg version="1.1" xmlns="http://www.w3.org/2000/svg" xmlns:xlink="http://www.w3.org/1999/xlink" width="512" height="512" viewBox="0 0 512 512">
<g id="icomoon-ignore">
</g>
<path d="M319.889 237.946h22.106l-25.506 113.089-33.163-159.005h-53.275l-38.557 159.005-28.908-159.005h-55.697l56.546 255.941h54.419l38.147-151.354 34.128 151.354h50.168l64.815-255.941h-85.223zM451.716 99.715l-71.432-71.431c-15.556-15.556-46.284-28.284-68.284-28.284h-240c-22 0-40 18-40 40v432c0 22 18 40 40 40h368c22 0 40-18 40-40v-304c0-22-12.728-52.729-28.284-68.285zM429.089 122.343c1.565 1.565 3.125 3.487 4.64 5.657h-81.729v-81.728c2.17 1.515 4.092 3.075 5.657 4.64l71.432 71.431zM448 472c0 4.336-3.664 8-8 8h-368c-4.336 0-8-3.664-8-8v-432c0-4.336 3.664-8 8-8h240c2.416 0 5.127 0.305 8 0.852v127.148h127.148c0.547 2.873 0.852 5.583 0.852 8v304z" fill="#000000"></path>
</svg>
