<?xml version="1.0" encoding="utf-8"?>
<!DOCTYPE svg PUBLIC "-//W3C//DTD SVG 1.1//EN" "http://www.w3.org/Graphics/SVG/1.1/DTD/svg11.dtd">
<svg version="1.1" id="Layer_1" xmlns="http://www.w3.org/2000/svg" xmlns:xlink="http://www.w3.org/1999/xlink" x="0px" y="0px"
	 width="512px" height="512px" viewBox="0 0 512 512" enable-background="new 0 0 512 512" xml:space="preserve">
<g id="icomoon-ignore">
</g>
<path fill="#444444" d="M387.602,416.974c0-5.022-1.85-9.374-5.513-13.056c-3.68-3.661-8.033-5.511-13.055-5.511
	c-5.022,0-9.373,1.85-13.056,5.511c-3.66,3.682-5.511,8.033-5.511,13.056c0,5.021,1.851,9.373,5.511,13.054
	c3.683,3.662,8.033,5.512,13.056,5.512c5.021,0,9.375-1.85,13.055-5.512C385.752,426.347,387.602,421.995,387.602,416.974z
	 M461.866,416.974c0-5.022-1.85-9.374-5.511-13.056c-3.682-3.661-8.032-5.511-13.055-5.511s-9.375,1.85-13.055,5.511
	c-3.663,3.682-5.513,8.033-5.513,13.056c0,5.021,1.85,9.373,5.513,13.054c3.68,3.662,8.032,5.512,13.055,5.512
	s9.373-1.85,13.055-5.512C460.017,426.347,461.866,421.995,461.866,416.974z M499,351.99v92.833c0,7.723-2.721,14.306-8.122,19.728
	c-5.44,5.401-12.005,8.122-19.728,8.122H44.121c-7.733,0-14.306-2.721-19.718-8.122c-5.412-5.441-8.122-12.005-8.132-19.728V351.99
	c0-7.723,2.71-14.306,8.132-19.727c5.421-5.402,11.994-8.123,19.718-8.123h134.907l39.154,39.455
	c11.215,10.843,24.369,16.244,39.455,16.244c15.085,0,28.249-5.401,39.454-16.244l39.452-39.455H471.15
	c7.723,0,14.306,2.721,19.728,8.123C496.279,337.703,499,344.268,499,351.99z M404.717,186.913
	c3.301,7.933,1.939,14.706-4.062,20.317L270.69,337.196c-3.482,3.661-7.833,5.511-13.055,5.511c-5.222,0-9.573-1.85-13.056-5.511
	L114.614,207.23c-5.992-5.611-7.341-12.384-4.061-20.317c3.291-7.533,8.993-11.304,17.116-11.304h74.267V45.643
	c0-5.022,1.84-9.374,5.513-13.054c3.68-3.671,8.031-5.512,13.053-5.512h74.267c5.022,0,9.373,1.84,13.054,5.512
	c3.663,3.681,5.513,8.032,5.513,13.054v129.966h74.267C395.724,175.609,401.417,179.38,404.717,186.913z"/>
</svg>
