<?xml version="1.0" encoding="utf-8"?>
<!-- Generator: Adobe Illustrator 23.1.1, SVG Export Plug-In . SVG Version: 6.00 Build 0)  -->
<svg version="1.1" id="Layer_1" xmlns="http://www.w3.org/2000/svg" xmlns:xlink="http://www.w3.org/1999/xlink" x="0px" y="0px"
	viewBox="0 0 512 512" style="enable-background:new 0 0 512 512;" xml:space="preserve">
    <g>
        <path d="M264.7,468.3c3.7,3.7,8.7,6.2,15,6.2c5,0,11.2-2.5,15-6.2l57.5-60c7.5-8.7,7.5-21.2,0-28.7l-57.5-60
            c-7.5-8.7-21.2-8.7-30-1.2c-8.7,7.5-8.7,21.2-1.2,30l22.5,23.7H191c-30,0-53.7-23.7-53.7-53.7s23.7-53.7,53.7-53.7h18.7
            c11.2,0,21.2-10,21.2-21.2c0-11.2-10-21.2-21.2-21.2H191c-52.5,0-96.2,42.5-96.2,96.2c0,52.5,42.5,96.2,96.2,96.2h94.9l-22.5,23.7
            C256,447.1,257.2,460.8,264.7,468.3L264.7,468.3z"/>
        <path d="M517.1,222.2c-11.2,0-21.2,10-21.2,21.2c0,11.2,10,21.2,21.2,21.2c30,0,53.7,23.7,53.7,53.7s-23.7,53.7-53.7,53.7H403.4
            c-11.2,0-21.2,10-21.2,21.2c0,11.2,10,21.2,21.2,21.2h113.7c52.5,0,96.2-42.5,96.2-96.2C613.3,265.9,570.8,222.2,517.1,222.2z"/>
        <path d="M279.7,270.9c11.2,0,21.2-10,21.2-21.2V54.8l127.4,43.7v221.1c0,11.2,10,21.2,21.2,21.2c11.2,0,21.2-10,21.2-21.2V82.3
            c0-8.7-6.2-17.5-13.7-20L287.2,4.8c-6.2-2.5-13.7-1.2-18.7,2.5c-5,3.7-8.7,10-8.7,17.5v223.6C258.5,260.9,268.5,270.9,279.7,270.9
            L279.7,270.9z"/>
        <path d="M449.6,448.4c-11.2,0-21.2,10-21.2,21.2v32.5l-151.2,17.5c-11.2,1.2-20,11.2-18.7,23.7c1.2,11.2,10,18.7,21.2,18.7h2.5
            l169.9-20c11.2-1.2,18.7-10,18.7-21.2v-51.2C470.9,458.4,460.9,448.4,449.6,448.4L449.6,448.4z"/>
    </g>
</svg>
