<?xml version='1.0' encoding='utf-8'?>
<!DOCTYPE svg PUBLIC '-//W3C//DTD SVG 1.1//EN' 'http://www.w3.org/Graphics/SVG/1.1/DTD/svg11.dtd'>
<svg version="1.1" xmlns="http://www.w3.org/2000/svg" viewBox="0 0 430 430" xmlns:xlink="http://www.w3.org/1999/xlink" enable-background="new 0 0 512 512">
  <g>
    <path fill="#231F20" d="m312.5,213.4v-181.5h21.6c5.8-7.10543e-15 10.5-4.7 10.5-10.5 0-5.8-4.7-10.5-10.5-10.5h-156.2c-5.8,0-10.5,4.7-10.5,10.5 0,5.8 4.7,10.5 10.5,10.5h21.6v181.5c-63.5,23.5-105.6,83.7-105.6,152 0,54.8 27.4,105.4 73.3,135.6h177.7c45.9-30.1 73.3-80.8 73.3-135.6 0-68.3-42.1-128.5-105.7-152zm23.4,268.4h-159.8c-26.9-18.5-46.1-45.2-55.3-75.5h270.5c-9.2,30.3-28.5,57-55.4,75.5zm-219.7-96.4c-0.9-6.6-1.4-13.2-1.4-20 0-61.8 39.5-115.8 98.4-134.6 4.3-1.4 7.3-5.4 7.3-10v-188.9h71.2v188.9c0,4.6 2.9,8.6 7.3,10 58.8,18.7 98.4,72.8 98.4,134.6 0,6.7-0.5,13.4-1.4,20h-279.8z"/>
  </g>
</svg>
