<?xml version='1.0' encoding='utf-8'?>
<!DOCTYPE svg PUBLIC '-//W3C//DTD SVG 1.1//EN' 'http://www.w3.org/Graphics/SVG/1.1/DTD/svg11.dtd'>
<svg version="1.1" xmlns="http://www.w3.org/2000/svg" viewBox="0 0 512 512" xmlns:xlink="http://www.w3.org/1999/xlink" enable-background="new 0 0 512 512">
  <g>
      <path d="m473.6,428.8c-0.2-0.4-0.5-0.8-0.7-1.2l-132-198.9c-2.3-3.4-3.5-7.4-3.5-11.6v-185.7c0-11.3-9.1-20.4-20.4-20.4h-125.5c-11.3,0-20.4,9.1-20.4,20.4v194.5c0,4.2-1.2,8.2-3.6,11.7l-128.3,189.8c-0.3,0.4-0.5,0.8-0.8,1.3-9,15.6-9.2,33.9-0.5,49 8.5,14.6 23.9,23.4 41.3,23.4h353.5c17.4,0 32.8-8.7 41.3-23.3 8.7-15.1 8.5-33.4-0.4-49zm-40.9,31.4h-353.4c-4,0.3-8.7-5.1-5.7-10.7l127.8-189c6.9-10.3 10.6-22.2 10.6-34.6v-174.1h84.7v165.3c0,12.2 3.6,24 10.3,34.1l131.5,198.2c3.6,6-0.3,10.7-5.8,10.8z"/>
      <path d="m314.9,379.7h-21.8c-11.3,0-20.4,9.1-20.4,20.4 0,11.3 9.1,20.4 20.4,20.4h21.8c11.3,0 20.4-9.1 20.4-20.4 5.68434e-14-11.2-9.1-20.4-20.4-20.4z"/>
      <path d="m228.2,326.8h-21.8c-11.3,0-20.4,9.1-20.4,20.4 0,11.3 9.1,20.4 20.4,20.4h21.8c11.3,0 20.4-9.1 20.4-20.4 0-11.3-9.1-20.4-20.4-20.4z"/>
  </g>
</svg>
