<?xml version="1.0" encoding="utf-8"?>
<!DOCTYPE svg PUBLIC "-//W3C//DTD SVG 1.1//EN" "http://www.w3.org/Graphics/SVG/1.1/DTD/svg11.dtd">
<svg version="1.1" id="Layer_1" xmlns="http://www.w3.org/2000/svg" xmlns:xlink="http://www.w3.org/1999/xlink" x="0px" y="0px"
	 width="512px" height="512px" viewBox="0 0 512 512" enable-background="new 0 0 512 512" xml:space="preserve">
<path fill="#444444" d="M329.601,476.8h49.065v-49.065h-49.065V476.8z M427.734,182.4H476.8v-49.066h-49.065V182.4L427.734,182.4z
	 M35.2,84.267v343.466c0,27.11,21.958,49.065,49.066,49.065H182.4v-49.065H84.267V84.267H182.4V35.2H84.267
	C57.157,35.2,35.2,57.157,35.2,84.267z M427.734,35.2v49.066H476.8C476.8,57.157,454.843,35.2,427.734,35.2L427.734,35.2z
	 M231.467,525.866h49.067V-13.868h-49.065v539.734H231.467z M427.734,378.666H476.8v-49.065h-49.065V378.666L427.734,378.666z
	 M329.601,84.267h49.065V35.2h-49.065V84.267z M427.734,280.534H476.8v-49.065h-49.065V280.534L427.734,280.534z M427.734,476.8
	c27.11,0,49.065-21.957,49.065-49.065h-49.065V476.8L427.734,476.8z"/>
</svg>
