<?xml version="1.0" encoding="utf-8"?>
<!DOCTYPE svg PUBLIC "-//W3C//DTD SVG 1.1//EN" "http://www.w3.org/Graphics/SVG/1.1/DTD/svg11.dtd">
<svg version="1.1" id="Layer_1" xmlns="http://www.w3.org/2000/svg" xmlns:xlink="http://www.w3.org/1999/xlink" x="0px" y="0px"
	 width="512px" height="512px" viewBox="0 0 512 512" enable-background="new 0 0 512 512" xml:space="preserve">
<path fill="#444444" d="M35.199,329.599v49.066h49.065v-49.066H35.199L35.199,329.599z M329.599,427.733v49.065h49.066v-49.065
	H329.599L329.599,427.733z M427.733,35.199H84.268c-27.11,0-49.066,21.958-49.066,49.065v98.135h49.066V84.265h343.466v98.135
	h49.065V84.265C476.799,57.156,454.843,35.199,427.733,35.199z M476.799,427.733h-49.065v49.065
	C454.843,476.799,476.799,454.841,476.799,427.733L476.799,427.733z M-13.867,231.466v49.067h539.734v-49.066L-13.867,231.466
	L-13.867,231.466z M133.333,427.733v49.065h49.066v-49.065H133.333L133.333,427.733z M427.733,329.599v49.066h49.065v-49.066
	H427.733L427.733,329.599z M231.465,427.733v49.065h49.066v-49.065H231.465L231.465,427.733z M35.199,427.733
	c0,27.11,21.958,49.065,49.065,49.065v-49.065H35.199L35.199,427.733z"/>
</svg>
