<?xml version="1.0" encoding="utf-8"?>
<!DOCTYPE svg PUBLIC "-//W3C//DTD SVG 1.1//EN" "http://www.w3.org/Graphics/SVG/1.1/DTD/svg11.dtd">
<svg version="1.1" id="Layer_1" xmlns="http://www.w3.org/2000/svg" xmlns:xlink="http://www.w3.org/1999/xlink" x="0px" y="0px"
	 width="512px" height="512px" viewBox="0 0 512 512" enable-background="new 0 0 512 512" xml:space="preserve">
<path d="M491.058,106.076c-9.777-11.471-21.312-17.213-34.605-17.213H255.861L205.409,31.87H55.284
	c-13.295,0-24.83,5.743-34.605,17.213C10.904,60.567,6.016,73.817,6.016,88.835V428.06c0,15.021,4.888,28.272,14.663,39.754
	c9.775,11.458,21.31,17.2,34.605,17.2h401.168c13.294,0,24.828-5.742,34.605-17.2c9.775-11.481,14.663-24.733,14.663-39.754V145.828
	C505.721,130.797,500.833,117.561,491.058,106.076z M360.764,316.7h-79.105v78.696H215.29V316.7h-78.696v-66.367h78.696v-79.106
	h66.368v79.106h79.105V316.7z"/>
</svg>
