<?xml version="1.0" encoding="utf-8"?>
<!DOCTYPE svg PUBLIC "-//W3C//DTD SVG 1.1//EN" "http://www.w3.org/Graphics/SVG/1.1/DTD/svg11.dtd">
<svg version="1.1" id="Layer_1" xmlns="http://www.w3.org/2000/svg" xmlns:xlink="http://www.w3.org/1999/xlink" x="0px" y="0px"
	 width="549px" height="512px" viewBox="0 0 549 512" enable-background="new 0 0 549 512" xml:space="preserve">
<path fill="#444444" d="M505.176,255.235c0-7.373-5.048-11.061-15.144-11.061H179.175c-7.619,0-15.761,2.265-24.428,6.794
	c-8.667,4.53-15.476,10.06-20.428,16.59l-73,146.708c-3.429,5.055-5.143,9.27-5.143,12.64c0,7.372,5.048,11.06,15.143,11.06h310.857
	c7.618,0,15.809-2.318,24.571-6.953c8.763-4.634,15.525-10.217,20.286-16.748l73-146.706c3.429-4.635,5.144-8.744,5.144-12.324
	L505.176,255.235z M179.175,203.728h230.429v-18.561c0-8.426-2.667-15.588-8-21.486c-5.333-5.899-11.81-8.849-19.428-8.849H217.605
	c-7.62,0-14.096-2.95-19.429-8.848c-5.333-5.899-8-13.062-8-21.488v-20.222c0-8.427-2.667-15.589-8-21.488
	c-5.333-5.898-11.809-8.848-19.428-8.848H71.32c-7.619,0-14.095,2.949-19.428,8.848c-5.333,5.899-8,13.061-8,21.488V373.82
	l62.143-131.54c8.381-11.165,19.429-20.382,33.143-27.65c13.714-7.267,27.047-10.901,40-10.901L179.175,203.728z M541.746,255.235
	c0,13.061-4.381,25.701-13.143,37.92l-73.286,146.707c-8.19,11.166-15.094,25.359-28.999,32.627
	c-13.904,7.268-31.382,5.926-44.145,5.926H71.317c-17.523,0-37.427,0.235-49.999-13.668S7.317,427.012,7.317,407.631V104.271
	c0-19.38-1.57-39.261,11.001-53.167C30.89,37.201,53.793,33.487,71.317,33.488h91.428c17.524,0,39.002,2.608,51.573,16.511
	c12.571,13.905,12.427,34.891,12.427,54.272v10.112h155.429c17.524,0,39.573,2.45,52.145,16.354
	c12.571,13.904,11.855,35.049,11.855,54.43v18.561h43.857c10.285,0,19.714,2.581,28.285,7.742s14.952,12.588,19.143,22.278
	c2.857,6.741,4.285,13.903,4.285,21.488L541.746,255.235z"/>
</svg>
