<?xml version="1.0" encoding="utf-8"?>
<!DOCTYPE svg PUBLIC "-//W3C//DTD SVG 1.1//EN" "http://www.w3.org/Graphics/SVG/1.1/DTD/svg11.dtd">
<svg version="1.1" id="Layer_1" xmlns="http://www.w3.org/2000/svg" xmlns:xlink="http://www.w3.org/1999/xlink" x="0px" y="0px"
	 width="512px" height="512px" viewBox="0 0 512 512" enable-background="new 0 0 512 512" xml:space="preserve">
<path fill="#444444" d="M371.038,57.683c-36.21,0-59.448-6.483-96.739-6.483c-120.513,0-176.716,68.634-176.716,138.349
	c0,41.071,19.456,54.583,57.825,54.583c-2.703-5.946-7.565-12.432-7.565-41.614c0-81.604,30.803-105.383,70.254-107.004
	c0,0-32.367,317.349-126.311,355.417v9.868h126.637l43.21-204.8h79.139l17.629-51.2h-85.964l20.777-98.476
	c23.778,4.862,47.017,9.726,67.013,9.726c24.859,0,47.559-7.565,59.987-64.851C405.084,56.064,388.869,57.683,371.038,57.683z"/>
</svg>
