<?xml version="1.0" encoding="utf-8"?>
<!DOCTYPE svg PUBLIC "-//W3C//DTD SVG 1.1//EN" "http://www.w3.org/Graphics/SVG/1.1/DTD/svg11.dtd">
<svg version="1.1" xmlns="http://www.w3.org/2000/svg" xmlns:xlink="http://www.w3.org/1999/xlink" width="512" height="512" viewBox="0 0 512 512">
<g>
</g>
	<path d="M 517.5 157.5 L 517.5 22.5 L 382.5 22.5 L 382.5 67.5 L 157.5 67.5 L 157.5 22.5 L 22.5 22.5 L 22.5 157.5 L 67.5 157.5 L 67.5 382.5 L 22.5 382.5 L 22.5 517.5 L 157.5 517.5 L 157.5 472.5 L 382.5 472.5 L 382.5 517.5 L 517.5 517.5 L 517.5 382.5 L 472.5 382.5 L 472.5 157.5 ZM 67.5 67.5 L 112.5 67.5 L 112.5 112.5 L 67.5 112.5 ZM 112.5 472.5 L 67.5 472.5 L 67.5 427.5 L 112.5 427.5 ZM 382.5 427.5 L 157.5 427.5 L 157.5 382.5 L 112.5 382.5 L 112.5 157.5 L 157.5 157.5 L 157.5 112.5 L 382.5 112.5 L 382.5 157.5 L 427.5 157.5 L 427.5 382.5 L 382.5 382.5 ZM 472.5 472.5 L 427.5 472.5 L 427.5 427.5 L 472.5 427.5 ZM 427.5 112.5 L 427.5 67.5 L 472.5 67.5 L 472.5 112.5 ZM 309.038 315 L 230.625 315 L 214.2 360 L 177.638 360 L 254.138 157.5 L 285.75 157.5 L 362.363 360 L 325.688 360 ZM 240.413 286.65000000000003 L 299.138 286.65000000000003 L 269.775 200.475 Z" fill="#000000"></path>
</svg>
