<?xml version="1.0" encoding="UTF-8"?>
<svg width="467px" height="464px" viewBox="0 0 467 464" version="1.1" xmlns="http://www.w3.org/2000/svg" xmlns:xlink="http://www.w3.org/1999/xlink">
    <g stroke="none" stroke-width="1" fill="none" fill-rule="evenodd">
        <rect id="Rectangle-Copy-45" fill="none" x="0" y="0" width="463" height="463"></rect>
        <g id="line-curve2-copy-23" transform="translate(0.000000, 225.000000)" fill="#444444" fill-rule="nonzero">
            <rect id="Rectangle" x="0" y="0" width="463" height="10"></rect>
        </g>
        <g id="line-curve2-copy-24" transform="translate(231.000000, 232.000000) rotate(90.000000) translate(-231.000000, -232.000000) translate(-1.000000, 227.000000)" fill="#444444" fill-rule="nonzero">
            <rect id="Rectangle" x="0.5" y="0.3125" width="463" height="9.375"></rect>
        </g>
        <path d="M94.9413272,72.7761727 C106.213356,72.7761727 116.792688,78.7506891 128.029571,89.5471647 C128.661475,90.1543029 129.297061,90.7783908 129.93675,91.4197901 L130.899413,92.3949176 C131.060387,92.5596179 131.221631,92.7254114 131.383151,92.8923038 L132.355639,93.9068904 L133.335072,94.9481221 C133.498907,95.1238962 133.663045,95.3007919 133.827492,95.4788147 L134.817936,96.5605226 C135.315066,97.1081848 135.815097,97.6660931 136.318207,98.2344002 L137.328585,99.3849247 L138.34749,100.56345 C138.688582,100.960989 139.031147,101.36324 139.375239,101.770249 L140.412147,103.005591 L141.458532,104.269748 C141.633737,104.482857 141.809349,104.697178 141.985377,104.912717 L143.046568,106.220605 L144.118027,107.557986 L145.20007,108.925132 C145.381309,109.155485 145.563004,109.387089 145.745158,109.619951 L146.843669,111.032251 C147.027693,111.270164 147.212191,111.509345 147.39717,111.749801 L148.51286,113.207867 L149.640399,114.696782 L150.780103,116.216818 L151.932289,117.768245 C152.125378,118.029448 152.319,118.291969 152.513161,118.555816 L153.684662,120.15484 L154.869436,121.785933 L156.067798,123.449368 L157.280065,125.145415 L158.664081,127.096083 L159.770561,128.665744 L161.997105,131.852148 L164.554218,135.556671 L166.309411,138.125684 L168.427213,141.251201 L170.639151,144.542241 L174.001215,149.587724 L178.812878,156.876895 L183.359131,163.814338 L203.993889,195.468176 L209.919897,204.500189 L215.510861,212.934488 L218.398928,217.242182 L220.92286,220.977662 L224.518838,226.261313 L225.152518,227.188853 C233.070318,238.773177 240.733587,249.578805 248.200505,259.639272 L250.434748,262.635091 C279.404842,301.290994 305.476922,328.663997 332.102134,346.743321 C372.260927,374.012356 410.12921,376.865464 449.752113,351.686651 L450.953349,350.915073 L466.743904,375.239101 C416.290522,407.992183 365.530852,404.496248 315.811057,370.735003 C278.273177,345.245647 243.407095,305.072493 202.453491,245.368182 L199.918693,241.661055 L197.458502,238.046272 L195.444874,235.072664 L190.330949,227.445741 L184.231877,218.219366 L172.418904,200.147568 L158.71417,179.114356 L153.902165,171.776599 L150.981612,167.349973 L147.604368,162.26689 L145.086713,158.509857 L141.83615,153.710925 L139.864652,150.833922 L137.675083,147.672085 L136.329016,145.746665 L134.457954,143.09387 L133.111002,141.201137 L132.030111,139.694262 L130.963106,138.218105 L129.909823,136.772508 L128.870098,135.357308 L127.843766,133.972347 L126.830663,132.617464 L125.830625,131.292498 L124.843486,129.99729 L123.869084,128.731679 L122.907254,127.495505 L121.957831,126.288607 L121.020651,125.110826 L120.09555,123.962002 L119.182363,122.841973 C119.031149,122.657692 118.880424,122.474605 118.730186,122.292707 L117.834562,121.215572 C117.537948,120.861268 117.24325,120.511697 116.950443,120.166832 L116.077662,119.146327 L115.216057,118.153898 L114.365462,117.189383 C114.224604,117.030948 114.084199,116.873669 113.944242,116.717543 L113.109855,115.7946 L112.286068,114.899171 C112.149644,114.752217 112.013655,114.606402 111.878098,114.461724 L111.069902,113.607266 L110.271896,112.779921 L109.483914,111.979529 C109.222906,111.717206 108.963542,111.459349 108.705793,111.20593 L107.937368,110.458965 C104.437954,107.096704 101.354165,104.688957 98.7677,103.22829 C96.8875908,102.166527 95.6155474,101.776173 94.9413272,101.776173 C81.2255169,101.776173 68.3604728,114.97151 57.0860209,145.113031 C48.7825047,167.311946 42.0592254,197.306826 36.9855655,234.999767 L36.52887,238.447602 C36.4535122,239.025774 36.3785335,239.605714 36.3039342,240.187419 L35.8608937,243.698844 C34.2531205,256.651761 32.8292225,270.459195 31.5917692,285.117518 L31.2589064,289.136336 C31.2042004,289.809654 31.14988,290.48473 31.0959456,291.161563 L30.7769724,295.24364 C30.7245827,295.927499 30.6725795,296.613114 30.6209629,297.300486 L30.4672733,299.367869 L1.54548322,297.239475 C1.80892796,293.659642 2.08264812,290.123845 2.36667387,286.632042 L2.71245338,282.462993 C3.76464354,270.019183 4.95055049,258.145316 6.2715817,246.839408 L6.71693196,243.091805 C12.1962965,197.751832 19.9006935,161.749743 29.9240055,134.953064 C44.9612033,94.752085 66.3870351,72.7761727 94.9413272,72.7761727 Z" id="Path-4" fill="#979797" fill-rule="nonzero"></path>
    </g>
</svg>