<?xml version="1.0" encoding="utf-8"?>
<!DOCTYPE svg PUBLIC "-//W3C//DTD SVG 1.1//EN" "http://www.w3.org/Graphics/SVG/1.1/DTD/svg11.dtd">
<svg version="1.1" id="Layer_1" xmlns="http://www.w3.org/2000/svg" xmlns:xlink="http://www.w3.org/1999/xlink" x="0px" y="0px"
	 width="512px" height="512px" viewBox="0 0 512 512" enable-background="new 0 0 512 512" xml:space="preserve">
<path fill="#444444" d="M255.998,158.771H256c79.5,0.729,128.5,31.974,163.456,87.654c11.213-14.029,13.105-36.44,25.315-51.16
	C410.5,141.5,336.5,107.571,255.999,107.571c-143.539,0-256,121.037-256,275.558c0,9.523,0.435,19.021,1.254,28.288
	c1.254,14.08,13.824,24.448,27.776,23.219c14.08-1.279,24.474-13.695,23.219-27.775c-0.691-7.757-1.05-15.744-1.05-23.731
	C51.198,257.331,141.182,158.771,255.998,158.771z"/>
<path fill="#444444" d="M440.808,190.745L440.808,190.745c-7.143,19.2-14.695,38.758-21.352,55.68
	c26.035,37.632,41.344,84.813,41.344,136.704c0,8.115-0.357,16.281-1.075,24.192c-1.279,14.08,9.088,26.521,23.168,27.827
	c0.793,0.076,1.562,0.103,2.355,0.103c13.082,0,24.243-10.01,25.447-23.271c0.87-9.472,1.306-19.175,1.306-28.851
	C512.001,307.583,485.07,240.051,440.808,190.745z"/>
<g>
	<path d="M132.403,421.972v-19.958l20.491-18.895c40.715-37.788,59.875-58.545,60.142-81.431c0-15.435-8.25-29.007-30.869-29.007
		c-15.435,0-28.208,7.718-36.99,14.371l-9.58-23.152c12.507-10.112,31.401-17.83,53.223-17.83c38.32,0,56.948,24.216,56.948,52.424
		c0,30.337-21.821,54.819-52.158,82.761l-14.902,13.04v0.532h70.786v27.144H132.403z"/>
	<path d="M326.397,278.536h-0.532l-31.668,15.968l-5.588-24.749l42.312-20.757h27.143v172.974h-31.667V278.536z"/>
</g>
</svg>
