<?xml version="1.0" encoding="UTF-8"?>
<svg width="410px" height="410px" viewBox="0 0 410 410" version="1.1" xmlns="http://www.w3.org/2000/svg" xmlns:xlink="http://www.w3.org/1999/xlink">
    <title>Page 1</title>
    <g id="Page-1" stroke="none" stroke-width="1" fill="none" fill-rule="evenodd">
        <rect id="Rectangle-Copy-30" fill="none" transform="translate(205.000000, 205.000000) rotate(180.000000) translate(-205.000000, -205.000000) " x="0" y="0" width="410" height="410"></rect>
        <g id="slider" transform="translate(3.000000, 49.000000)" fill="#000000" fill-rule="nonzero">
            <g transform="translate(1.000000, 266.000000)" id="Path">
                <path d="M19.2316923,82.866418 L19.2351946,58.0529465 C19.2148814,51.0149205 14.7753977,45.2763621 9.62495208,45.2727273 C4.28748502,45.2972627 0.00770500494,51.2048427 0,58.0711209 L0.00490318496,83 L19.2316923,82.866418 Z"></path>
                <path d="M348.977885,82.866418 L348.981387,58.0529465 C348.961074,51.0149205 344.521591,45.2763621 339.371145,45.2727273 C334.033678,45.2972627 329.753898,51.2048427 329.746193,58.0711209 L329.751096,83 L348.977885,82.866418 Z"></path>
                <path d="M405.996498,82.866418 L406,58.0529465 C405.979687,51.0149205 401.540203,45.2763621 396.389757,45.2727273 C391.05229,45.2972627 386.77251,51.2048427 386.764805,58.0711209 L386.769708,83 L405.996498,82.866418 Z"></path>
                <path d="M74.1893912,82.866418 L74.1928934,58.0529465 C74.1725803,51.0149205 69.7330968,45.2763621 64.5826509,45.2727273 C59.2451838,45.2972627 54.9654038,51.2048427 54.9576988,58.0711209 L54.962602,83 L74.1893912,82.866418 Z"></path>
                <path d="M184.79176,82.866418 L184.795262,58.0529465 C184.775649,51.0149205 180.336166,45.2763621 175.18502,45.2727273 C169.847553,45.2972627 165.568473,51.2048427 165.560068,58.0711209 L165.565671,83 L184.79176,82.866418 Z"></path>
                <path d="M295.394129,82.8666821 L295.397631,12.755906 C295.378018,5.73176861 290.938535,0.00453462707 285.787389,0 C280.449922,0.026300837 276.170842,5.92131603 276.162437,12.7740445 L276.16804,83 L295.394129,82.8666821 Z"></path>
                <path d="M239.749459,82.866418 L239.752961,58.0529465 C239.733348,51.0149205 235.293864,45.2763621 230.142719,45.2727273 C224.805252,45.2972627 220.526172,51.2048427 220.517766,58.0711209 L220.52337,83 L239.749459,82.866418 Z"></path>
                <path d="M129.14709,82.8666821 L129.150592,12.755906 C129.130279,5.73176861 124.690796,0.00453462707 119.54035,0 C114.202883,0.026300837 109.923803,5.92131603 109.915398,12.7740445 L109.921001,83 L129.14709,82.8666821 Z"></path>
            </g>
            <path d="M300,0 L276,48 L401.5,48.0007354 C404.537566,48.0007354 407,50.4579062 407,53.4889799 L407,101.511119 C407,104.542193 404.537566,106.999363 401.5,106.999363 L246.5,107 L202,196 L157.5,107 L5.5,106.999363 C2.46243388,106.999363 0,104.542193 0,101.511119 L0,53.4889799 C0,50.4579062 2.46243388,48.0007354 5.5,48.0007354 L127.999,48 L104,2.84217094e-14 L300,0 Z M245,39 L161,39 L202.5,126 L245,39 Z" id="Combined-Shape"></path>
        </g>
    </g>
</svg>