<?xml version="1.0" encoding="utf-8"?>
<!DOCTYPE svg PUBLIC "-//W3C//DTD SVG 1.1//EN" "http://www.w3.org/Graphics/SVG/1.1/DTD/svg11.dtd">
<svg version="1.1" id="Layer_1" xmlns="http://www.w3.org/2000/svg" xmlns:xlink="http://www.w3.org/1999/xlink" x="0px" y="0px"
	 width="512px" height="512px" viewBox="0 0 512 512" enable-background="new 0 0 512 512" xml:space="preserve">
<path fill="#444444" d="M208.077,353.331c-17.664,30.618-5.786,55.808,18.714,69.938c24.5,14.132,52.275,11.879,69.939-18.738
	c17.663-30.592,129.202-303.77,119.501-309.376C406.554,89.549,225.742,322.714,208.077,353.331L208.077,353.331z M256,158.771
	c11.213,0,22.145,0.973,32.793,2.765c11.213-14.029,23.783-29.491,35.993-44.211c-21.812-6.323-44.825-9.754-68.787-9.754
	c-143.539,0-256,121.037-256,275.558c0,9.523,0.435,19.021,1.254,28.288c1.254,14.08,13.824,24.448,27.776,23.219
	c14.08-1.279,24.474-13.695,23.219-27.775c-0.691-7.757-1.05-15.744-1.05-23.731c0-125.798,89.984-224.358,204.8-224.358H256z
	 M440.807,190.745c-7.142,19.2-14.694,38.758-21.351,55.68c26.035,37.632,41.344,84.813,41.344,136.704
	c0,8.115-0.357,16.281-1.075,24.192c-1.279,14.08,9.088,26.521,23.168,27.827c0.793,0.076,1.562,0.103,2.355,0.103
	c13.082,0,24.243-10.01,25.447-23.271c0.87-9.472,1.306-19.175,1.306-28.851C512.001,307.583,485.07,240.051,440.807,190.745
	L440.807,190.745z"/>
</svg>
