<?xml version="1.0" encoding="utf-8"?>
<!DOCTYPE svg PUBLIC "-//W3C//DTD SVG 1.1//EN" "http://www.w3.org/Graphics/SVG/1.1/DTD/svg11.dtd">
<svg version="1.1" id="Layer_1" xmlns="http://www.w3.org/2000/svg" xmlns:xlink="http://www.w3.org/1999/xlink" x="0px" y="0px"
	 width="512px" height="512px" viewBox="0 0 512 512" enable-background="new 0 0 512 512" xml:space="preserve">
<path d="M388.714,418.877c0-6.729,1.354-14.067,3.79-19.912H133.939l111.852-269.654l11.742-0.477
	c-0.51,0.019-1.016,0.039-1.529,0.039c-16.88,0-42.492-10.054-49.024-24.494L68.199,440.812h325.658
	C390.57,434.202,388.714,426.759,388.714,418.877z"/>
<polygon points="387.857,358.221 387.857,445.932 388.971,478.812 486.758,415.033 "/>
<polygon points="166.354,100.732 248.093,132.543 279.139,143.43 255.167,29.17 "/>
<path d="M253.695,371.5c0,14.439-2.609,28.259-7.368,41h26.644c3.995-12.961,6.152-26.728,6.152-41
	c0-71.568-54.093-130.496-123.623-138.149v23.708C210.951,264.691,253.695,313.016,253.695,371.5z"/>
</svg>
