<?xml version="1.0" encoding="utf-8"?>
<!DOCTYPE svg PUBLIC "-//W3C//DTD SVG 1.1//EN" "http://www.w3.org/Graphics/SVG/1.1/DTD/svg11.dtd">
<svg version="1.1" id="Layer_1" xmlns="http://www.w3.org/2000/svg" xmlns:xlink="http://www.w3.org/1999/xlink" x="0px" y="0px"
	 width="476px" height="512px" viewBox="0 0 476 512" enable-background="new 0 0 476 512" xml:space="preserve">
<path d="M437.139,326.429c-17.318-7.482-41.838-13.263-72.808-17.209c-54.862-7.029-118.353-7.029-156.307-7.029
	c-23.453,0-45.623,1.379-66.25,4.053V161.473l169.852-69.917c4.053-1.649,6.749-5.585,6.813-9.931
	c0.066-4.357-2.414-8.421-6.359-10.299L146.454-5.965C144.999-6.644,143.415-7,141.753-7h-33.125
	c-6.07,0-11.041,4.971-11.041,11.042V314.61c-18.223,4.701-34.722,10.611-49.137,17.856c-39.553,19.798-61.281,48.22-61.281,80.117
	c0,31.896,21.728,60.319,61.28,80.117c39.551,19.797,94.673,30.3,159.553,30.3c61.634,0,105.801-7.656,135.13-23.398
	c27.604-14.751,41.536-36.62,41.536-64.935c0-12.142,11.45-16.369,35.821-22.449c11.601-2.891,23.592-5.933,33.252-11.518
	C466.509,393.262,473,382.415,473,368.418c0-17.663-12.076-31.811-35.885-42.032L437.139,326.429z M279.924,80.742l-138.15,56.857
	V16.282L279.924,80.742z M415.12,390.867c-11.582,2.891-23.614,5.952-33.255,11.539c-12.768,7.461-19.258,18.287-19.258,32.305
	c0,19.818-9.79,34.721-29.891,45.482c-25.664,13.802-67.63,20.768-124.693,20.768c-61.419,0-113.177-9.684-149.613-27.971
	c-31.669-15.873-49.137-37.332-49.137-60.361c0-23.035,17.469-44.535,49.137-60.364c11.592-5.821,24.704-10.782,39.197-14.794
	v32.306c-13.737,1.638-26.43,4.831-36.922,9.317c-25.534,10.91-29.328,25.662-29.328,33.535c0,7.871,3.795,22.621,29.328,33.533
	c15.938,6.838,36.922,10.632,59.004,10.632c22.083,0,43.067-3.794,59.004-10.632c25.534-10.912,29.33-25.749,29.33-33.533
	c0-7.787-3.796-22.625-29.33-33.535c-10.491-4.486-23.183-7.68-36.92-9.317v-41.233c20.423-2.805,42.646-4.206,66.25-4.206
	c37.396,0,100.065,0,153.548,6.836c56.803,7.158,89.367,20.768,89.367,37.266C450.939,380.579,439.468,384.808,415.12,390.867z
	 M141.774,391.99c27.798,3.859,44.167,14.34,44.167,20.615c0,7.809-25.113,22.084-66.25,22.084c-41.137,0-66.25-14.275-66.25-22.084
	c0-6.275,16.369-16.756,44.167-20.615v20.615h44.166V391.99z"/>
<path d="M285.314,368.44c-18.286,0-33.125,14.836-33.125,33.125c0,18.286,14.839,33.124,33.125,33.124
	c18.289,0,33.125-14.838,33.125-33.124C318.439,383.274,303.604,368.44,285.314,368.44z M285.314,412.605
	c-6.079,0-11.04-4.96-11.04-11.04c0-6.082,4.961-11.043,11.04-11.043c6.083,0,11.043,4.961,11.043,11.043
	C296.357,407.646,291.397,412.605,285.314,412.605z"/>
</svg>
