<?xml version="1.0" encoding="utf-8"?>
<!DOCTYPE svg PUBLIC "-//W3C//DTD SVG 1.1//EN" "http://www.w3.org/Graphics/SVG/1.1/DTD/svg11.dtd">
<svg xmlns="http://www.w3.org/2000/svg" version="1.1" xmlns:xlink="http://www.w3.org/1999/xlink" width="512" height="512" x="0" y="0" viewBox="0 0 32 32" style="enable-background:new 0 0 512 512" xml:space="preserve" class="">
    <g>
        <path d="M29 30H3a1 1 0 0 1-1-1V3a1 1 0 0 1 2 0v25h25a1 1 0 0 1 0 2z" fill="#000000" opacity="1" data-original="#000000" class=""></path>
        <path d="M11 26a1 1 0 0 1-1-1v-9H8v9a1 1 0 0 1-2 0V15a1 1 0 0 1 1-1h4a1 1 0 0 1 1 1v10a1 1 0 0 1-1 1z" fill="#000000" opacity="1" data-original="#000000" class=""></path>
        <path d="M15 26a1 1 0 0 1-1-1V12h-2v13a1 1 0 0 1-2 0V11a1 1 0 0 1 1-1h4a1 1 0 0 1 1 1v14a1 1 0 0 1-1 1zM29 26a1 1 0 0 1-1-1V12h-2v13a1 1 0 0 1-2 0V11a1 1 0 0 1 1-1h4a1 1 0 0 1 1 1v14a1 1 0 0 1-1 1z" fill="#000000" opacity="1" data-original="#000000" class=""></path>
        <path d="M25 26a1 1 0 0 1-1-1V6h-2v19a1 1 0 0 1-2 0V5a1 1 0 0 1 1-1h4a1 1 0 0 1 1 1v20a1 1 0 0 1-1 1z" fill="#000000" opacity="1" data-original="#000000" class=""></path>
    </g>
</svg>
