<?xml version="1.0" encoding="utf-8"?>
<!DOCTYPE svg PUBLIC "-//W3C//DTD SVG 1.1//EN" "http://www.w3.org/Graphics/SVG/1.1/DTD/svg11.dtd">
<svg version="1.1" xmlns="http://www.w3.org/2000/svg" xmlns:xlink="http://www.w3.org/1999/xlink" width="512" height="512" viewBox="0 0 512 512">
<path d="M160 64h-64c-17.6 0-32 14.4-32 32v64c0 17.6 14.4 32 32 32h64c17.6 0 32-14.4 32-32v-64c0-17.6-14.4-32-32-32z" fill="#444444"></path>
<path d="M352 192h64c17.6 0 32-14.4 32-32v-64c0-17.6-14.4-32-32-32h-64c-17.6 0-32 14.4-32 32v64c0 17.6 14.4 32 32 32zM352 96h64v64h-64v-64z" fill="#444444"></path>
<path d="M160 320h-64c-17.6 0-32 14.4-32 32v64c0 17.6 14.4 32 32 32h64c17.6 0 32-14.4 32-32v-64c0-17.6-14.4-32-32-32zM160 416h-64v-64h64v64z" fill="#444444"></path>
<path d="M416 320h-64c-17.6 0-32 14.4-32 32v64c0 17.6 14.4 32 32 32h64c17.6 0 32-14.4 32-32v-64c0-17.6-14.4-32-32-32z" fill="#444444"></path>
<path d="M448 256h-32c-42.738 0-82.917-16.643-113.137-46.862-30.22-30.221-46.863-70.401-46.863-113.138v-32c0-35.2-28.8-64-64-64h-128c-35.2 0-64 28.8-64 64v128c0 35.2 28.8 64 64 64h32c42.738 0 82.917 16.643 113.137 46.862 30.22 30.221 46.863 70.401 46.863 113.138v32c0 35.2 28.8 64 64 64h128c35.2 0 64-28.8 64-64v-128c0-35.2-28.8-64-64-64zM480 448c0 8.477-3.348 16.493-9.428 22.572s-14.095 9.428-22.572 9.428h-128c-8.477 0-16.493-3.348-22.572-9.428s-9.428-14.095-9.428-22.572v-32c0-106.039-85.961-192-192-192h-32c-8.477 0-16.493-3.348-22.573-9.427-6.079-6.080-9.427-14.096-9.427-22.573v-128c0-8.477 3.348-16.493 9.427-22.573 6.080-6.079 14.096-9.427 22.573-9.427h128c8.477 0 16.493 3.348 22.573 9.427 6.079 6.080 9.427 14.096 9.427 22.573v32c0 106.039 85.961 192 192 192h32c8.477 0 16.493 3.348 22.572 9.428s9.428 14.095 9.428 22.572v128z" fill="#444444"></path>
</svg>
