<?xml version="1.0" encoding="utf-8"?>
<!DOCTYPE svg PUBLIC "-//W3C//DTD SVG 1.1//EN" "http://www.w3.org/Graphics/SVG/1.1/DTD/svg11.dtd">
<svg version="1.1" xmlns="http://www.w3.org/2000/svg" xmlns:xlink="http://www.w3.org/1999/xlink" width="512" height="512" viewBox="0 0 512 512">
<g>
</g>
	<path d="M256 0c-141.385 0-256 114.615-256 256s114.615 256 256 256 256-114.615 256-256-114.615-256-256-256zM160 256c0-53.020 42.98-96 96-96s96 42.98 96 96-42.98 96-96 96-96-42.98-96-96zM462.99 341.738v0l-88.71-36.745c6.259-15.092 9.72-31.638 9.72-48.993s-3.461-33.901-9.72-48.993l88.71-36.745c10.954 26.411 17.010 55.365 17.010 85.738s-6.057 59.327-17.010 85.738v0zM341.739 49.010v0 0l-36.745 88.71c-15.092-6.259-31.638-9.72-48.994-9.72s-33.901 3.461-48.993 9.72l-36.745-88.711c26.411-10.952 55.366-17.009 85.738-17.009 30.373 0 59.327 6.057 85.739 17.010zM49.010 170.262l88.711 36.745c-6.259 15.092-9.721 31.638-9.721 48.993s3.461 33.901 9.72 48.993l-88.71 36.745c-10.953-26.411-17.010-55.365-17.010-85.738s6.057-59.327 17.010-85.738zM170.262 462.99l36.745-88.71c15.092 6.259 31.638 9.72 48.993 9.72s33.901-3.461 48.993-9.72l36.745 88.71c-26.411 10.952-55.365 17.010-85.738 17.010-30.372 0-59.327-6.057-85.738-17.010z" fill="#000000"></path>
</svg>
