<?xml version="1.0" encoding="utf-8"?>
<!DOCTYPE svg PUBLIC "-//W3C//DTD SVG 1.1//EN" "http://www.w3.org/Graphics/SVG/1.1/DTD/svg11.dtd">
<svg version="1.1" id="Layer_1" xmlns="http://www.w3.org/2000/svg" xmlns:xlink="http://www.w3.org/1999/xlink" x="0px" y="0px"
	 width="512px" height="512px" viewBox="0 0 512 512" enable-background="new 0 0 512 512" xml:space="preserve">
<path d="M226.396,346.717h60.113v60.113h-60.113V346.717z M346.622,136.321c16.583,0,30.056,13.472,30.056,30.057v90.17
	l-90.169,60.112h-60.113v-30.057l90.17-60.112v-30.057H166.282v-60.113H346.622z M256.452,61.18
	c-52.173,0-101.265,20.312-138.146,57.223c-36.88,36.91-57.222,85.972-57.222,138.146c0,52.188,20.311,101.265,57.222,138.131
	c36.91,36.896,85.972,57.236,138.146,57.236c52.188,0,101.265-20.312,138.131-57.236c36.896-36.896,57.236-85.943,57.236-138.131
	c0-52.174-20.312-101.265-57.236-138.146C357.688,81.521,308.641,61.18,256.452,61.18z M256.452,16.096L256.452,16.096
	c132.788,0,240.452,107.663,240.452,240.452C496.904,389.336,389.24,497,256.452,497C123.664,497,16,389.336,16,256.548
	C16,123.758,123.664,16.096,256.452,16.096z"/>
</svg>
