<?xml version="1.0" encoding="UTF-8"?>
<svg width="326px" height="290px" viewBox="0 0 326 290" version="1.1" xmlns="http://www.w3.org/2000/svg" xmlns:xlink="http://www.w3.org/1999/xlink">
    <g stroke="none" stroke-width="1" fill="none" fill-rule="evenodd">
        <g fill="#000000" fill-rule="nonzero">
            <path d="M321.929762,133.663678 L175.327964,4.51628126 C168.496567,-1.50542709 157.429702,-1.50542709 150.689389,4.51628126 L4.13313452,133.663678 C-2.69826332,139.685386 -0.876557227,144.566619 8.23197322,144.566619 L53.4558269,144.566619 L53.4558269,276.816108 C53.4558269,284.023911 59.3763717,290 66.6176534,290 L121.951976,290 L121.951976,203.004562 C121.951976,195.796759 127.872521,189.82067 135.113802,189.82067 L190.994637,189.82067 C198.281461,189.82067 204.156463,195.659902 204.156463,203.004562 L204.156463,290 L259.490786,290 C266.77761,290 272.652612,284.06953 272.652612,276.816108 L272.652612,144.521 L317.876466,144.521 C326.848368,144.521 328.670074,139.685386 321.929762,133.663678 Z" id="Path"></path>
        </g>
    </g>
</svg>