<?xml version="1.0" encoding="UTF-8"?>
<svg width="463px" height="463px" viewBox="0 0 463 463" version="1.1" xmlns="http://www.w3.org/2000/svg" xmlns:xlink="http://www.w3.org/1999/xlink">
    <g id="Page-1" stroke="none" stroke-width="1" fill="none" fill-rule="evenodd">
        <rect id="Rectangle-Copy-75" fill="none" x="0" y="0" width="463" height="463"></rect>
        <g id="contour" transform="translate(26.000000, 19.000000)" fill="#000000" fill-rule="nonzero">
            <path d="M21.1222806,230.357968 C9.45734042,230.357968 0,220.786113 0,208.979659 L0,208.787209 C0,183.678737 4.58337736,159.110213 13.162042,135.765771 C17.2302418,124.698955 29.5082859,119.070227 40.4393109,123.180465 C51.3740614,127.297943 56.7653309,139.602718 52.6987277,150.66893 C45.8795435,169.228651 42.2445613,188.783806 42.2445613,208.787209 L42.2445613,208.979659 C42.2445613,220.786113 32.7872208,230.357968 21.1222806,230.357968 Z M75.877461,97.3003811 C81.2916154,97.3003811 86.703641,95.2069527 90.8309159,91.0231123 C104.79127,76.859591 120.937404,65.4651868 138.820665,57.1566288 C149.421721,52.2307374 154.071092,39.5398555 149.203516,28.8084709 C144.336471,18.0794994 131.802967,13.3750167 121.193928,18.3009081 C98.7267573,28.7415053 78.4490912,43.0480072 60.9245383,60.8246533 C52.6854225,69.1832846 52.7008565,82.7181741 60.9580674,91.0587066 C65.0826812,95.2196219 70.4803372,97.3003811 75.877461,97.3003811 Z M207.182814,42.7554098 L207.468609,42.7554098 C227.205552,42.7554098 246.500229,45.8871064 264.816176,52.7712884 C267.23932,53.6816583 269.722072,53.7558634 272.165972,53.7558634 C280.743572,53.7558634 288.808656,48.6067534 291.96944,39.9917224 C296.029657,28.9236999 290.456372,16.7987073 279.518961,12.6878654 C256.482859,4.033017 232.241306,0 207.468609,0 L207.182814,0 C195.517873,0 186.060533,9.57185456 186.060533,21.3777049 C186.060533,33.1835553 195.517873,42.7554098 207.182814,42.7554098 Z M357.253829,139.230485 C360.812705,147.065458 368.461602,151.68367 376.46016,151.68367 C379.411786,151.68367 382.411844,151.053831 385.26927,149.724172 C395.867133,144.793455 400.510118,132.098953 395.637219,121.369982 C385.309718,98.6354696 371.164155,78.1204744 353.591172,60.3957116 C345.328106,52.0600054 331.953713,52.0829305 323.71992,60.4451816 C315.483465,68.8086393 315.506882,82.3435288 323.769415,90.6774252 C337.768621,104.801129 349.033872,121.136507 357.253829,139.230485 Z M323.988685,326.67317 C310.012364,340.822816 293.857183,352.198518 275.966471,360.487771 C265.360093,365.4022 260.697949,378.091272 265.553284,388.825673 C269.10471,396.676934 276.763187,401.309625 284.77026,401.309625 C287.711775,401.309625 290.702253,400.68401 293.549567,399.364003 C316.02685,388.948141 336.318885,374.663358 353.86313,356.903604 C362.109164,348.555832 362.1081,335.019133 353.858872,326.670154 C345.611241,318.323588 332.239509,318.321175 323.988685,326.67317 Z M57.6131386,278.187679 C52.7508841,267.453278 40.2109936,262.748192 29.6094054,267.662621 C19.0056885,272.582479 14.3488664,285.270948 19.2100564,296.005349 C29.5120113,318.749514 43.6389468,339.280195 61.1954323,357.026073 C65.3200461,361.193624 70.7203631,363.2774 76.1222768,363.2774 C81.5327057,363.2774 86.9441991,361.186988 91.0672164,357.006164 C99.3105898,348.653566 99.3020745,335.117469 91.0475247,326.774524 C77.0632209,312.636944 65.8118065,296.290707 57.6131386,278.187679 Z M392.877187,187.023999 C381.212247,187.023999 371.754907,196.595251 371.754907,208.401704 L371.754907,208.787812 C371.754907,228.851544 368.51163,248.459789 361.654126,267.06717 C357.576347,278.131573 363.248622,290.44238 374.178583,294.56951 C376.613436,295.488326 379.164842,295.923904 381.618322,295.923904 C390.182085,295.923904 398.035349,290.609492 401.205182,282.011956 C409.830148,258.607789 414,233.972902 414,208.787812 L414,208.401704 C414,196.594044 404.542127,187.023999 392.877187,187.023999 Z M207.468609,375.576141 C187.671527,375.576141 168.324693,372.11022 149.963509,365.18803 C139.030887,361.071156 126.869397,366.784345 122.795875,377.848144 C118.723418,388.911944 124.285526,401.399516 135.216019,405.523027 C158.310131,414.227948 182.618742,419 207.468609,419 L207.563342,419 C219.228283,419 228.639321,409.095127 228.639321,397.288674 C228.639321,385.483427 219.134082,375.576141 207.468609,375.576141 Z" id="Shape"></path>
        </g>
    </g>
</svg>