<?xml version="1.0" encoding="UTF-8"?>
<svg width="476px" height="463px" viewBox="0 0 476 463" version="1.1" xmlns="http://www.w3.org/2000/svg" xmlns:xlink="http://www.w3.org/1999/xlink">
    <g id="Page-1" stroke="none" stroke-width="1" fill="none" fill-rule="evenodd">
        <rect id="Rectangle-Copy-74" fill="none" x="0" y="0" width="463" height="463"></rect>
        <g id="mouse-over" transform="translate(202.000000, 176.000000)" fill="#000000" fill-rule="nonzero">
            <g id="mouse-click-copy-2">
                <path d="M122.962727,142.576925 L204.313365,217.323394 L225.757108,196.138365 L144.387527,121.391896 L182.520261,83.7379418 L48.7431282,48.0490293 L84.8678794,180.212165 L122.962727,142.576925 Z M67.3074997,245.189566 L0.343159952,0.251713155 L248.272234,66.3894248 L192.617007,121.391896 L273.986588,196.138365 L204.313365,264.952278 L122.962727,190.205809 L67.3074997,245.189566 Z" id="interaction-click"></path>
            </g>
        </g>
        <g id="contour-copy-2" transform="translate(17.000000, 22.000000)" fill="#000000" fill-rule="nonzero">
            <path d="M21.1222806,230.357968 C9.45734042,230.357968 0,220.786113 0,208.979659 L0,208.787209 C0,183.678737 4.58337736,159.110213 13.162042,135.765771 C17.2302418,124.698955 29.5082859,119.070227 40.4393109,123.180465 C51.3740614,127.297943 56.7653309,139.602718 52.6987277,150.66893 C45.8795435,169.228651 42.2445613,188.783806 42.2445613,208.787209 L42.2445613,208.979659 C42.2445613,220.786113 32.7872208,230.357968 21.1222806,230.357968 Z M75.877461,97.3003811 C81.2916154,97.3003811 86.703641,95.2069527 90.8309159,91.0231123 C104.79127,76.859591 120.937404,65.4651868 138.820665,57.1566288 C149.421721,52.2307374 154.071092,39.5398555 149.203516,28.8084709 C144.336471,18.0794994 131.802967,13.3750167 121.193928,18.3009081 C98.7267573,28.7415053 78.4490912,43.0480072 60.9245383,60.8246533 C52.6854225,69.1832846 52.7008565,82.7181741 60.9580674,91.0587066 C65.0826812,95.2196219 70.4803372,97.3003811 75.877461,97.3003811 Z M207.182814,42.7554098 L207.468609,42.7554098 C227.205552,42.7554098 246.500229,45.8871064 264.816176,52.7712884 C267.23932,53.6816583 269.722072,53.7558634 272.165972,53.7558634 C280.743572,53.7558634 288.808656,48.6067534 291.96944,39.9917224 C296.029657,28.9236999 290.456372,16.7987073 279.518961,12.6878654 C256.482859,4.033017 232.241306,0 207.468609,0 L207.182814,0 C195.517873,0 186.060533,9.57185456 186.060533,21.3777049 C186.060533,33.1835553 195.517873,42.7554098 207.182814,42.7554098 Z M357.253829,139.230485 C360.812705,147.065458 368.461602,151.68367 376.46016,151.68367 C379.411786,151.68367 382.411844,151.053831 385.26927,149.724172 C395.867133,144.793455 400.510118,132.098953 395.637219,121.369982 C385.309718,98.6354696 371.164155,78.1204744 353.591172,60.3957116 C345.328106,52.0600054 331.953713,52.0829305 323.71992,60.4451816 C315.483465,68.8086393 315.506882,82.3435288 323.769415,90.6774252 C337.768621,104.801129 349.033872,121.136507 357.253829,139.230485 Z M57.6131386,278.187679 C52.7508841,267.453278 40.2109936,262.748192 29.6094054,267.662621 C19.0056885,272.582479 14.3488664,285.270948 19.2100564,296.005349 C29.5120113,318.749514 43.6389468,339.280195 61.1954323,357.026073 C65.3200461,361.193624 70.7203631,363.2774 76.1222768,363.2774 C81.5327057,363.2774 86.9441991,361.186988 91.0672164,357.006164 C99.3105898,348.653566 99.3020745,335.117469 91.0475247,326.774524 C77.0632209,312.636944 65.8118065,296.290707 57.6131386,278.187679 Z" id="Shape-Copy"></path>
            <path d="M21.1222806,230.357968 C9.45734042,230.357968 0,220.786113 0,208.979659 L0,208.787209 C0,183.678737 4.58337736,159.110213 13.162042,135.765771 C17.2302418,124.698955 29.5082859,119.070227 40.4393109,123.180465 C51.3740614,127.297943 56.7653309,139.602718 52.6987277,150.66893 C45.8795435,169.228651 42.2445613,188.783806 42.2445613,208.787209 L42.2445613,208.979659 C42.2445613,220.786113 32.7872208,230.357968 21.1222806,230.357968 Z M75.877461,97.3003811 C81.2916154,97.3003811 86.703641,95.2069527 90.8309159,91.0231123 C104.79127,76.859591 120.937404,65.4651868 138.820665,57.1566288 C149.421721,52.2307374 154.071092,39.5398555 149.203516,28.8084709 C144.336471,18.0794994 131.802967,13.3750167 121.193928,18.3009081 C98.7267573,28.7415053 78.4490912,43.0480072 60.9245383,60.8246533 C52.6854225,69.1832846 52.7008565,82.7181741 60.9580674,91.0587066 C65.0826812,95.2196219 70.4803372,97.3003811 75.877461,97.3003811 Z M207.182814,42.7554098 L207.468609,42.7554098 C227.205552,42.7554098 246.500229,45.8871064 264.816176,52.7712884 C267.23932,53.6816583 269.722072,53.7558634 272.165972,53.7558634 C280.743572,53.7558634 288.808656,48.6067534 291.96944,39.9917224 C296.029657,28.9236999 290.456372,16.7987073 279.518961,12.6878654 C256.482859,4.033017 232.241306,0 207.468609,0 L207.182814,0 C195.517873,0 186.060533,9.57185456 186.060533,21.3777049 C186.060533,33.1835553 195.517873,42.7554098 207.182814,42.7554098 Z M57.6131386,278.187679 C52.7508841,267.453278 40.2109936,262.748192 29.6094054,267.662621 C19.0056885,272.582479 14.3488664,285.270948 19.2100564,296.005349 C29.5120113,318.749514 43.6389468,339.280195 61.1954323,357.026073 C65.3200461,361.193624 70.7203631,363.2774 76.1222768,363.2774 C81.5327057,363.2774 86.9441991,361.186988 91.0672164,357.006164 C99.3105898,348.653566 99.3020745,335.117469 91.0475247,326.774524 C77.0632209,312.636944 65.8118065,296.290707 57.6131386,278.187679 Z" id="Shape-Copy-2"></path>
        </g>
    </g>
</svg>