<svg height="512" viewBox="0 0 488.471 488.471" width="512" xmlns="http://www.w3.org/2000/svg">
    <path d="m244.235 0c-134.669 0-244.235 109.566-244.235 244.235s109.566 244.235 244.235 244.235 244.235-109.566 244.235-244.235-109.566-244.235-244.235-244.235zm-213.706 244.235c0-117.839 95.867-213.706 213.706-213.706s213.706 95.867 213.706 213.706c0 25.435-4.699 49.733-12.889 72.379l-128.965-128.965c-5.963-5.963-15.622-5.963-21.585 0l-204.318 204.318c-36.854-38.415-59.654-90.418-59.655-147.732zm213.706 213.706c-49.541 0-95.078-17.096-131.362-45.494l192.421-192.421 126.504 126.504c-36.317 66.323-106.763 111.411-187.563 111.411z"/><path d="m152.647 244.235c33.675 0 61.059-27.384 61.059-61.059s-27.384-61.059-61.059-61.059-61.059 27.384-61.059 61.059 27.384 61.059 61.059 61.059zm0-91.588c16.83 0 30.529 13.699 30.529 30.529s-13.699 30.529-30.529 30.529-30.529-13.699-30.529-30.529 13.699-30.529 30.529-30.529z"/>
</svg>