<?xml version="1.0" encoding="utf-8"?>
<!-- Generator: Adobe Illustrator 16.0.0, SVG Export Plug-In . SVG Version: 6.00 Build 0)  -->
<!DOCTYPE svg PUBLIC "-//W3C//DTD SVG 1.1//EN" "http://www.w3.org/Graphics/SVG/1.1/DTD/svg11.dtd">
<svg version="1.1" id="Layer_1" xmlns="http://www.w3.org/2000/svg" xmlns:xlink="http://www.w3.org/1999/xlink" x="0px" y="0px" width="128px" height="128px"
	 viewBox="0 0 128 128" enable-background="new 0 0 128 128" xml:space="preserve">
<g>
	<path d="M60.526,64.943c1.008,1.008,2.337,1.485,3.657,1.453c1.319,0.031,2.648-0.445,3.655-1.453l25.636-25.635
		c1.952-1.953,1.953-5.118,0-7.071l-3.243-3.243c-1.952-1.953-5.118-1.952-7.07,0L71.834,40.321V5c0-2.761-2.238-5-5-5h-5.835
		c-2.761,0-5,2.239-5,5v34.789L45.205,28.995c-1.953-1.953-5.118-1.953-7.071,0l-3.242,3.243c-1.953,1.952-1.953,5.118,0,7.07
		L60.526,64.943z"/>
	<path d="M123,64H76.782l-8.943,8.943c-1.007,1.008-2.336,1.484-3.655,1.453c-1.32,0.032-2.649-0.445-3.657-1.453L51.583,64H5
		c-2.761,0-5,2.239-5,5v54c0,2.762,2.239,5,5,5h118c2.762,0,5-2.238,5-5V69C128,66.239,125.762,64,123,64z M20.514,117.675
		c-4.895,0-9.727-1.272-12.145-2.605l1.972-8.011c2.607,1.335,6.61,2.669,10.744,2.669c4.45,0,6.803-1.844,6.803-4.642
		c0-2.669-2.035-4.195-7.183-6.038c-7.12-2.48-11.761-6.422-11.761-12.652c0-7.312,6.103-12.904,16.21-12.904
		c4.833,0,8.392,1.017,10.936,2.16l-2.161,7.82c-1.719-0.826-4.771-2.035-8.966-2.035s-6.23,1.908-6.23,4.134
		c0,2.733,2.417,3.939,7.946,6.038c7.565,2.799,11.127,6.74,11.127,12.779C37.807,111.572,32.275,117.675,20.514,117.675z
		 M65.799,117.039H54.483L40.75,74.189h10.617l5.213,18.118c1.461,5.086,2.798,9.983,3.815,15.322h0.191
		c1.079-5.15,2.416-10.236,3.877-15.131l5.468-18.31h10.298L65.799,117.039z M120.111,115.069
		c-2.989,1.018-8.646,2.414-14.306,2.414c-7.818,0-13.477-1.972-17.418-5.784c-3.942-3.688-6.104-9.282-6.039-15.576
		c0.062-14.241,10.425-22.378,24.474-22.378c5.532,0,9.793,1.078,11.89,2.099l-2.035,7.755c-2.351-1.018-5.275-1.844-9.98-1.844
		c-8.072,0-14.176,4.576-14.176,13.857c0,8.84,5.53,14.053,13.478,14.053c2.226,0,4.004-0.256,4.767-0.637v-8.963h-6.61v-7.566
		h15.957V115.069z"/>
</g>
</svg>
