<?xml version="1.0" encoding="utf-8"?>
<!DOCTYPE svg PUBLIC "-//W3C//DTD SVG 1.1//EN" "http://www.w3.org/Graphics/SVG/1.1/DTD/svg11.dtd">
<svg version="1.1" id="Layer_1" xmlns="http://www.w3.org/2000/svg" xmlns:xlink="http://www.w3.org/1999/xlink" x="0px" y="0px"
	 width="293px" height="512px" viewBox="0 0 293 512" enable-background="new 0 0 293 512" xml:space="preserve">
<path d="M13.616,434.638l4.404-19.822c0.691-0.156,7.342-1.711,19.952-4.664c13.13-2.953,23.148-5.986,30.059-9.095
	c5.009-5.754,8.551-13.604,10.625-23.555l6.996-32.416l14.512-62.501l3.108-14.925c1.381-6.841,2.851-13.41,4.405-19.706
	c1.555-6.297,2.937-11.505,4.146-15.626c1.209-4.119,2.29-7.734,3.24-10.844s1.728-5.48,2.332-7.113
	c0.605-1.633,0.907-2.527,0.907-2.683l7.514-36.614l4.147-14.692l5.7-31.483l2.073-11.658v-8.861
	c-7.083-3.421-19.521-5.597-37.313-6.53c-4.837-0.312-8.119-0.623-9.847-0.933L95.5,76.896l82.142,3.266
	c6.737,0.311,13.043,0.467,18.915,0.467c11.4,0,29.887-0.7,55.453-2.1c5.699-0.312,11.573-0.661,17.619-1.049
	c6.047-0.388,9.156-0.583,9.33-0.584c-0.346,2.953-0.865,5.908-1.556,8.862c-1.208,4.508-2.332,8.473-3.367,11.894
	c-9.503,2.954-18.916,5.363-28.247,7.229c-11.055,2.487-19.779,4.897-26.169,7.229c-2.074,4.819-4.146,11.661-6.219,20.523
	c-1.556,6.841-2.677,13.215-3.368,19.123c-7.603,30.939-13.302,54.727-17.103,71.361l-15.806,72.526l-9.846,36.85l-11.144,54.804
	l-3.109,10.494c-0.345,1.089-0.258,3.188,0.259,6.297c11.057,2.331,21.335,3.963,30.836,4.896c6.22,0.776,11.919,1.554,17.102,2.331
	c-0.173,4.511-0.776,9.017-1.814,13.527c-1.209,4.818-1.985,8.007-2.331,9.562c-3.108,0-5.096,0.076-5.96,0.232
	c-4.146,0.311-7.774,0.467-10.883,0.467c-1.555,0-3.973-0.232-7.255-0.699c-3.282-0.621-15.807-1.943-37.573-3.965L84.1,429.974
	c-7.083-0.155-22.112,0.698-45.088,2.565c-12.782,1.088-21.248,1.788-25.394,2.099H13.616z"/>
</svg>
