<?xml version="1.0" encoding="UTF-8"?>
<svg width="400px" height="400px" viewBox="0 0 400 400" version="1.1" xmlns="http://www.w3.org/2000/svg" xmlns:xlink="http://www.w3.org/1999/xlink">
	<g id="none" fill="#000000" fill-rule="nonzero">
		<polygon id="Path" points="0 0 400 0 392.307692 7.3878628 7.69230769 7.3878628"></polygon>
		<polygon id="Path" points="400 0 400 400 392.575406 392.307692 392.575406 7.69230769"></polygon>
		<polygon id="Path" points="400 400 0 400 7.69230769 392.612137 392.307692 392.612137"></polygon>
		<polygon id="Path" points="0 400 0 0 7.42459397 7.69230769 7.42459397 392.307692"></polygon>
	</g>
	<path d="M102.933333,306 C129.051852,306 147.116402,297.541722 157.126984,280.625166 C163.042328,270.620751 166,257.069316 166,239.970861 L166,239.970861 L166,100 L123.955556,100 L123.955556,240.65298 C123.955556,250.384547 123,257.296689 121.088889,261.389404 C117.903704,268.301545 111.351323,271.757616 101.431746,271.757616 C91.421164,271.757616 84.8915344,268.59713 81.8428571,262.276159 C78.7941799,255.955188 77.0878307,245.018543 76.7238095,229.466225 L76.7238095,229.466225 L76.7238095,224.827815 L37,224.827815 L37,229.466225 C37,253.113024 41.4592593,271.780353 50.3777778,285.468212 C59.2962963,299.156071 76.8148148,306 102.933333,306 Z M282.342432,306 C308,306 327.85732,299.933119 341.914392,287.799357 C355.971464,275.665595 363,260.418864 363,242.059164 C363,224.153912 356.995037,210.475027 344.985112,201.022508 C337.251447,194.932905 325.787428,190.070311 310.593052,186.434727 L310.593052,186.434727 L275.92804,178.118328 C262.55335,174.937192 253.818859,172.165059 249.724566,169.801929 C243.355666,166.257235 240.171216,160.894748 240.171216,153.714469 C240.171216,145.897964 243.401158,139.80836 249.861042,135.445659 C256.320926,131.082958 264.964433,128.901608 275.791563,128.901608 C285.526882,128.901608 293.669975,130.583065 300.220844,133.945981 C310.047146,139.035798 315.324235,147.624866 316.052109,159.713183 L316.052109,159.713183 L356.449132,159.713183 C355.721257,138.354126 347.873863,122.062165 332.906948,110.837299 C317.940033,99.612433 299.856907,94 278.657568,94 C253.272953,94 234.029777,99.953269 220.92804,111.859807 C207.826303,123.766345 201.275434,138.717685 201.275434,156.713826 C201.275434,176.43687 208.053763,190.933762 221.610422,200.204502 C229.617039,205.748767 244.08354,210.88403 265.009926,215.610289 L265.009926,215.610289 L286.300248,220.381994 C298.765095,223.108682 307.909016,226.244373 313.73201,229.789068 C319.555004,233.424652 322.466501,238.559914 322.466501,245.194855 C322.466501,256.556056 316.598015,264.327117 304.861042,268.508039 C298.674111,270.689389 290.622002,271.780064 280.704715,271.780064 C264.145575,271.780064 252.454094,267.644587 245.630273,259.373633 C241.899917,254.829153 239.397849,247.966988 238.124069,238.787138 L238.124069,238.787138 L198,238.787138 C198,259.691747 205.506203,276.120043 220.51861,288.072026 C235.531017,300.024009 256.138958,306 282.342432,306 Z" id="JS" fill="#000000" fill-rule="nonzero"></path>
</svg>