<?xml version="1.0" encoding="utf-8"?>
<!DOCTYPE svg PUBLIC "-//W3C//DTD SVG 1.1//EN" "http://www.w3.org/Graphics/SVG/1.1/DTD/svg11.dtd">
<svg version="1.1" xmlns="http://www.w3.org/2000/svg" xmlns:xlink="http://www.w3.org/1999/xlink" width="576" height="512" viewBox="0 0 576 512">
<g id="icomoon-ignore">
</g>
<path d="M544 64h-512c-17.6 0-32 14.4-32 32v320c0 17.6 14.4 32 32 32h512c17.6 0 32-14.4 32-32v-320c0-17.6-14.4-32-32-32zM320 128h64v64h-64v-64zM416 224v64h-64v-64h64zM224 128h64v64h-64v-64zM320 224v64h-64v-64h64zM128 128h64v64h-64v-64zM224 224v64h-64v-64h64zM64 128h32v64h-32v-64zM64 224h64v64h-64v-64zM96 384h-32v-64h32v64zM384 384h-256v-64h256v64zM512 384h-96v-64h96v64zM512 288h-64v-64h64v64zM512 192h-96v-64h96v64z" fill="#000000"></path>
</svg>
