<?xml version="1.0" encoding="UTF-8"?>
<svg xmlns="http://www.w3.org/2000/svg" version="1.1" xmlns:xlink="http://www.w3.org/1999/xlink" width="512" height="512" x="0" y="0" viewBox="0 0 60 60" style="enable-background:new 0 0 512 512" xml:space="preserve" class="">
    <g>
        <path d="M23.59 54h12.82c.71 0 1.29-.58 1.29-1.29V7.29c0-.71-.58-1.29-1.29-1.29H23.59c-.71 0-1.29.58-1.29 1.29v45.42c0 .71.58 1.29 1.29 1.29zM54 22.51c0-.71-.58-1.29-1.29-1.29H40.99c-.71 0-1.29.58-1.29 1.29v30.2c0 .71.58 1.29 1.29 1.29h11.72c.71 0 1.29-.58 1.29-1.29zM7.29 54h11.72c.71 0 1.29-.58 1.29-1.29V31.2c0-.71-.58-1.29-1.29-1.29H7.29c-.71 0-1.29.58-1.29 1.29v21.51c0 .71.58 1.29 1.29 1.29z" fill="#000000" opacity="1" data-original="#000000" class=""></path>
    </g>
</svg>