<?xml version="1.0" encoding="utf-8"?>
<!DOCTYPE svg PUBLIC "-//W3C//DTD SVG 1.1//EN" "http://www.w3.org/Graphics/SVG/1.1/DTD/svg11.dtd">
<svg version="1.1" id="Layer_1" xmlns="http://www.w3.org/2000/svg" xmlns:xlink="http://www.w3.org/1999/xlink" x="0px" y="0px"
	 width="512px" height="512px" viewBox="0 0 512 512" enable-background="new 0 0 512 512" xml:space="preserve">
<path d="M164.522,296.826l191.428-33.754c13.069,19.869,37.103,31.15,61.985,26.762c33.431-5.895,55.729-37.771,49.838-71.175
	c-5.89-33.404-37.746-55.732-71.176-49.838c-24.883,4.388-43.604,23.234-49.094,46.35l-191.428,33.754
	c-13.071-19.869-37.104-31.15-62.011-26.759c-33.406,5.891-55.728,37.772-49.838,71.176s37.77,55.729,71.176,49.838
	C140.31,338.787,159.036,319.967,164.522,296.826z M401.11,194.411c19.286-3.401,37.674,9.474,41.074,28.76
	c3.401,19.286-9.474,37.673-28.761,41.074c-19.286,3.4-37.673-9.473-41.074-28.759C368.949,216.198,381.824,197.811,401.11,194.411z
	 M69.817,288.83c-3.401-19.287,9.474-37.674,28.761-41.076c19.286-3.4,37.672,9.474,41.073,28.761
	c3.401,19.285-9.473,37.674-28.759,41.074C91.604,320.99,73.218,308.115,69.817,288.83z"/>
</svg>
