<?xml version="1.0" encoding="UTF-8"?>
<svg width="355px" height="355px" viewBox="0 0 355 355" version="1.1" xmlns="http://www.w3.org/2000/svg" xmlns:xlink="http://www.w3.org/1999/xlink">
    <title>Page 1</title>
    <g id="Page-1" stroke="none" stroke-width="1" fill="none" fill-rule="evenodd">
        <rect id="Rectangle" fill="none" x="0" y="0" width="355" height="355"></rect>
        <path d="M274.5,30.5 L274.5,68.5 L194,68.5 C190.605714,68.5 187.527419,69.8528991 185.274915,72.0488522 C183.015118,74.2519151 181.58657,77.3035332 181.5038,80.6888474 L181.5038,80.6888474 L181.5,272 C181.5,275.394286 182.852899,278.472581 185.048852,280.725085 C187.251914,282.98488 190.303529,284.413428 193.688841,284.4962 L193.688841,284.4962 L274.5,284.499977 L274.5,323.5 L175,323.5 C166.8538,323.5 159.4788,320.1981 154.14035,314.85965 C148.8019,309.5212 145.5,302.1462 145.5,294 L145.5,294 L145.5,60 C145.5,51.8537999 148.8019,44.4787999 154.14035,39.14035 C159.4788,33.8019 166.8538,30.5 175,30.5 L175,30.5 L274.5,30.5 Z" id="Combined-Shape" stroke="none" fill="#000000"></path>
        <rect id="Rectangle" fill="#000000" x="57" y="159" width="89" height="36"></rect>
    </g>
</svg>