<?xml version="1.0" encoding="UTF-8"?>
<svg width="355px" height="355px" viewBox="0 0 355 355" version="1.1" xmlns="http://www.w3.org/2000/svg" xmlns:xlink="http://www.w3.org/1999/xlink">
    <title>Page 1</title>
    <g id="Page-1" stroke="none" stroke-width="1" fill="none" fill-rule="evenodd">
        <rect id="Rectangle" stroke-opacity="0" fill="none" stroke="none" x="0.5" y="0.5" width="354" height="354"></rect>
        <path d="M241.5,30.5 L241.5,68.5 L161,68.5 C157.605714,68.5 154.527419,69.8528991 152.274915,72.0488522 C150.015118,74.2519151 148.58657,77.3035332 148.5038,80.6888474 L148.5038,80.6888474 L148.5,272 C148.5,275.394286 149.852899,278.472581 152.048852,280.725085 C154.251914,282.98488 157.303529,284.413428 160.688841,284.4962 L160.688841,284.4962 L241.5,284.499977 L241.5,323.5 L142,323.5 C133.8538,323.5 126.4788,320.1981 121.14035,314.85965 C115.8019,309.5212 112.5,302.1462 112.5,294 L112.5,294 L112.5,60 C112.5,51.8537999 115.8019,44.4787999 121.14035,39.14035 C126.4788,33.8019 133.8538,30.5 142,30.5 L142,30.5 L241.5,30.5 Z" id="Combined-Shape" stroke="none" fill="#000000"></path>
    </g>
</svg>