<?xml version="1.0" encoding="UTF-8"?>
<svg width="463px" height="463px" viewBox="0 0 463 463" version="1.1" xmlns="http://www.w3.org/2000/svg" xmlns:xlink="http://www.w3.org/1999/xlink">
    <g stroke="none" stroke-width="1" fill="none" fill-rule="evenodd">
        <g transform="translate(231.500000, 231.500000) scale(-1, 1) rotate(90.000000) translate(-231.500000, -231.500000) ">
            <rect fill="none" x="0" y="0" width="463" height="463"></rect>
            <path d="M206,71 C238.5848,71 265,97.4151998 265,130 L264.999911,316.728795 C267.842082,326.032961 276.424615,332.831622 286.619653,332.996919 L287,333 L402,333 L402,388 L270,388 C241.174579,388 217.17728,367.328352 212.023726,340.00068 L212,340 L211.998987,339.868664 C211.34298,336.345853 211,332.71298 211,329 L211,309 L212,309 L212,149 C212,136.424476 201.907469,126.20619 189.380347,126.003081 L189,126 L62,126 L62,71 L206,71 Z" id="Combined-Shape" fill="#000000" fill-rule="nonzero"></path>
        </g>
    </g>
</svg>