<?xml version="1.0" encoding="utf-8"?>
<!DOCTYPE svg PUBLIC "-//W3C//DTD SVG 1.1//EN" "http://www.w3.org/Graphics/SVG/1.1/DTD/svg11.dtd">
<svg version="1.1" id="Layer_1" xmlns="http://www.w3.org/2000/svg" xmlns:xlink="http://www.w3.org/1999/xlink" x="0px" y="0px"
	 width="476px" height="512px" viewBox="0 0 476 512" enable-background="new 0 0 476 512" xml:space="preserve">
<path fill="#444444" d="M59.43,347.43c0,7.428,2.667,13.809,8,19.143l42,41.714c5.333,4.952,11.81,7.428,19.428,7.428
	c7.81,0,14.285-2.571,19.429-7.714l58.856-59.143c5.334-5.334,8-11.81,8-19.428c0-8-3.143-14.953-9.428-20.857
	c-0.57,0.571-2.333,2.381-5.286,5.428s-5.001,5.096-6.144,6.143c-1.142,1.049-2.951,2.477-5.428,4.287
	c-2.477,1.809-4.905,3.047-7.285,3.713c-2.381,0.667-5,1-7.857,1c-7.619,0-14.095-2.666-19.428-8c-5.334-5.333-8-11.809-8-19.428
	c0-2.856,0.333-5.476,1-7.857c0.666-2.381,1.904-4.81,3.714-7.285c1.809-2.477,3.237-4.285,4.286-5.428
	c1.048-1.143,3.096-3.191,6.143-6.144s4.856-4.715,5.428-5.286c-5.715-6.096-12.571-9.143-20.571-9.143
	c-7.619,0-14.095,2.666-19.429,8L67.43,328c-5.333,5.334-8,11.81-8,19.428V347.43z M260.283,146.001c0,8,3.144,14.952,9.43,20.857
	c0.571-0.572,2.333-2.381,5.285-5.429c2.953-3.047,5.001-5.095,6.144-6.143s2.952-2.477,5.429-4.286s4.906-3.047,7.286-3.714
	c2.381-0.667,5-1,7.857-1c7.619,0,14.096,2.667,19.429,8c5.334,5.333,8,11.81,8,19.429c0,2.857-0.333,5.476-1,7.857
	c-0.666,2.381-1.904,4.81-3.714,7.286s-3.238,4.286-4.286,5.428s-3.096,3.19-6.143,6.143c-3.048,2.953-4.857,4.714-5.428,5.286
	c5.714,5.905,12.571,8.857,20.571,8.857c7.81,0,14.286-2.572,19.429-7.714L408,147.43c5.333-5.333,8-11.81,8-19.428
	c0-7.429-2.667-13.81-8-19.143l-42-41.715c-5.523-5.144-12-7.715-19.428-7.715c-7.619,0-14.096,2.667-19.429,8l-58.856,59.143
	c-5.334,5.333-8,11.809-8,19.428L260.283,146.001z M4.572,347.425c0-22.856,8-42.286,24-58.286l59.429-59.428
	c16-16,35.429-24,58.286-24c23.236,0,43.047,8.381,59.428,25.143l25.143-25.143c-16.762-16.381-25.143-36.285-25.143-59.714
	c0-22.857,7.904-42.19,23.715-58l58.857-59.143c15.809-16.19,35.238-24.285,58.285-24.285c22.857,0,42.19,7.905,58,23.715l42,41.715
	c16.19,15.809,24.285,35.143,24.285,58s-8,42.286-24,58.286l-59.428,59.428c-16,16-35.428,24-58.285,24
	c-23.237,0-43.047-8.381-59.428-25.143l-25.143,25.143c16.762,16.381,25.143,36.285,25.143,59.714c0,22.857-7.905,42.19-23.715,58
	l-58.857,59.144c-15.809,16.19-35.238,24.286-58.286,24.286c-22.857,0-42.19-7.905-58-23.715l-42-41.714
	c-16.19-15.809-24.286-35.143-24.286-58V347.425z"/>
</svg>
