<?xml version="1.0" encoding="utf-8"?>
<!DOCTYPE svg PUBLIC "-//W3C//DTD SVG 1.1//EN" "http://www.w3.org/Graphics/SVG/1.1/DTD/svg11.dtd">
<svg version="1.1" id="Layer_1" xmlns="http://www.w3.org/2000/svg" xmlns:xlink="http://www.w3.org/1999/xlink" x="0px" y="0px"
	 width="512px" height="512px" viewBox="0 0 512 512" enable-background="new 0 0 512 512" xml:space="preserve">
<path d="M180.801,63.095H504v64.64H180.801V63.095z M180.801,223.685H504v64.641H180.801V223.685z M180.801,383.266H504v64.639
	H180.801V383.266z M10.304,95.415c0-28.56,23.152-51.712,51.712-51.712c28.56,0,51.712,23.152,51.712,51.712
	c0,28.56-23.152,51.712-51.712,51.712C33.457,147.127,10.304,123.975,10.304,95.415z M10.304,256.005
	c0-28.56,23.152-51.712,51.712-51.712c28.56,0,51.712,23.152,51.712,51.712c0,28.559-23.152,51.711-51.712,51.711
	C33.457,307.717,10.304,284.564,10.304,256.005z M10.304,415.586c0-28.561,23.152-51.713,51.712-51.713
	c28.56,0,51.712,23.152,51.712,51.713c0,28.559-23.152,51.711-51.712,51.711C33.457,467.297,10.304,444.145,10.304,415.586z"/>
</svg>
