<?xml version="1.0" encoding="utf-8"?>
<!DOCTYPE svg PUBLIC "-//W3C//DTD SVG 1.1//EN" "http://www.w3.org/Graphics/SVG/1.1/DTD/svg11.dtd">
<svg version="1.1" id="Layer_1" xmlns="http://www.w3.org/2000/svg" xmlns:xlink="http://www.w3.org/1999/xlink" x="0px" y="0px"
	 width="512px" height="512px" viewBox="0 0 512 512" enable-background="new 0 0 512 512" xml:space="preserve">
<path d="M256,30.72C131.581,30.72,30.72,131.581,30.72,256c0,124.418,100.861,225.279,225.28,225.279
	c124.418,0,225.279-100.861,225.279-225.279C481.279,131.581,380.418,30.72,256,30.72z M256,424.959
	c-93.315,0-168.96-75.645-168.96-168.959c0-93.315,75.646-168.96,168.96-168.96S424.959,162.686,424.959,256
	S349.314,424.959,256,424.959z M171.52,256c0-46.658,37.823-84.48,84.48-84.48c46.655,0,84.479,37.823,84.479,84.48
	S302.655,340.479,256,340.479C209.342,340.479,171.52,302.657,171.52,256z"/>
</svg>
