<?xml version="1.0" encoding="UTF-8"?>
<svg width="408px" height="558px" viewBox="0 0 408 558" version="1.1" xmlns="http://www.w3.org/2000/svg" xmlns:xlink="http://www.w3.org/1999/xlink">
    <title>Page 1</title>
    <g id="Page-1" stroke="none" stroke-width="1" fill="none" fill-rule="evenodd">
        <path d="M202.455473,0 C273.404359,0 331.258624,57.8572479 332.408615,129.420035 L332.426061,131.592754 L332.426061,233.898438 L375.794118,233.898438 C377.057834,233.898438 378.314072,233.932174 379.562033,233.998822 L25.4377921,233.998831 C26.2926317,233.953176 27.1513547,233.922963 28.0137044,233.908458 L29.2058824,233.898438 L72.4848848,233.898438 L72.4848848,131.592754 C72.4848848,59.0319844 130.789931,0 202.455473,0 Z M202.455473,49.765625 C157.78404,49.765625 121.357194,85.7422782 120.633125,130.241706 L120.62214,131.592754 L120.62214,233.898438 L284.288806,233.898438 L284.288806,131.592754 C284.288806,86.47275 247.578132,49.765625 202.455473,49.765625 Z" id="Combined-Shape" fill="#000000" fill-rule="nonzero"></path>
        <path d="M348,234 C380.75316,234 407.461063,260.380372 407.991946,293.009351 L408,294 L408,498 C408,530.75316 381.619628,557.461063 348.990649,557.991946 L348,558 L60,558 C27.24684,558 0.5389368,531.619628 0.008054052,498.990649 L0,498 L0,294 C0,261.24684 26.3803716,234.538937 59.0093511,234.008054 L60,234 L348,234 Z M348,274 L60,274 C49.086875,274 40.1871398,282.786057 40.0029128,293.656052 L40,294 L40,498 C40,508.913125 48.7860569,517.81286 59.6560521,517.997087 L60,518 L348,518 C358.913125,518 367.81286,509.213943 367.997087,498.343948 L368,498 L368,294 C368,282.972 359.028,274 348,274 Z M204,332 C224.435,332 241,348.565 241,369 C241,381.907895 234.384587,393.262487 224.365568,399.882723 L223.963,400.145 L223.963,444 C223.963,455.045 215.008,464 203.963,464 C193.032062,464 184.149769,455.230591 183.965907,444.344468 L183.963,444 L183.963,400.098 C173.76,393.51 167,382.048 167,369 C167,348.565 183.565,332 204,332 Z" id="Combined-Shape" fill="#000000" fill-rule="nonzero"></path>
    </g>
</svg>