<svg height="800px" width="800px" version="1.1" id="_x32_" xmlns="http://www.w3.org/2000/svg" xmlns:xlink="http://www.w3.org/1999/xlink"
	 viewBox="0 0 512 512"  xml:space="preserve">
	<path class="st0" d="M0,64v384h512V64H0z M264.132,266.765c-1.996,1.688-4.95,2.657-8.1,2.657c-3.153,0-6.098-0.964-8.083-2.642
		L48,112h416L264.132,266.765z M95.11,194.306l69.518,58.954L48,368V160L95.11,194.306z M199.288,282.652l16.35,13.866
		c10.836,9.215,25.169,14.288,40.361,14.288c15.236,0,29.588-5.071,40.418-14.282l16.321-13.846L432,400H80L199.288,282.652z
		 M347.394,253.282L464,160v208L347.394,253.282z"/>
</svg>