<?xml version="1.0" encoding="UTF-8"?>
<svg width="204px" height="231px" viewBox="0 0 204 231" version="1.1" xmlns="http://www.w3.org/2000/svg" xmlns:xlink="http://www.w3.org/1999/xlink">
    <title>Manometer</title>
    <g id="Page-1" stroke="none" stroke-width="1" fill="none" fill-rule="evenodd">
        <g id="Manometer" transform="translate(102.000000, 115.500000) rotate(180.000000) translate(-102.000000, -115.500000) translate(0.000000, 0.000000)" fill="#000000">
            <g id="u-tube" transform="translate(102.000000, 115.500000) rotate(180.000000) translate(-102.000000, -115.500000) translate(0.000000, 0.000000)" fill-rule="nonzero">
                <path d="M199.444,0.857829114 C197.28852,0.857829114 195.541973,2.74879747 195.541973,5.08251266 L195.541973,121.213994 C195.541973,177.06938 153.57177,222.510076 101.983851,222.510076 C50.3959324,222.510076 8.42416892,177.06769 8.42416892,121.213994 L8.42416892,5.08251266 C8.42416892,2.74879747 6.67762162,0.857829114 4.52214189,0.857829114 C2.36666216,0.857829114 0.620114865,2.74879747 0.620114865,5.08251266 L0.620114865,121.213994 C0.620114865,181.728361 46.092777,230.959443 101.983851,230.959443 C157.874926,230.959443 203.346027,181.728361 203.346027,121.213994 L203.346027,5.08251266 C203.346027,2.74879747 201.59948,0.857829114 199.444,0.857829114 Z" id="Path"></path>
                <path d="M51.8787027,5.08251266 C51.8787027,2.74879747 50.1321554,0.857829114 47.9766757,0.857829114 C45.8211959,0.857829114 44.0746486,2.74879747 44.0746486,5.08251266 L44.0746486,121.213994 C44.0746486,155.785424 70.0527838,183.911677 101.983851,183.911677 C133.913358,183.911677 159.891493,155.785424 159.891493,121.213994 L159.891493,5.08251266 C159.891493,2.74879747 158.144946,0.857829114 155.989466,0.857829114 C153.833986,0.857829114 152.087439,2.74879747 152.087439,5.08251266 L152.087439,121.213994 C152.087439,151.126443 129.611764,175.46231 101.983851,175.46231 C74.3559392,175.46231 51.8787027,151.126443 51.8787027,121.213994 L51.8787027,5.08251266 Z" id="Path"></path>
            </g>
            <path d="M175.670467,68.4595525 C173.459679,77.8411744 165.103629,90.6353963 154.167737,99.8775123 C140.799008,111.175661 122.106558,118.061795 108.829551,118.061795 C92.8543449,118.061795 72.2162233,110.270146 57.2867608,95.7624375 C49.6584291,88.3496042 42.6937861,78.4097392 40.0019382,68.4595525 C36.7568753,57.1893605 35.0790544,50.0298104 34.9684756,46.9809021 C34.8070953,42.531281 34.8070953,33.2797013 34.9684756,19.2261629 L22.3446552,19.2261629 L23.4046738,46.9809021 C24.439069,52.3385728 25.1140426,60.8138867 27.4512901,68.4595525 C29.7192237,75.8784772 33.6287512,82.4792204 36.0195017,87.0796207 C42.110169,98.7995838 50.520705,108.985684 62.0727142,115.933491 C77.9215767,125.465584 90.328418,129.846728 108.829551,129.164469 C133.657393,128.248903 153.108003,115.954294 166.54228,102.65813 C178.262465,91.0584373 185.333673,79.0627113 188.306132,68.4595525 C188.306132,68.4595525 184.094244,68.4595525 175.670467,68.4595525 Z" id="Path" fill-rule="nonzero" transform="translate(105.325394, 74.229776) rotate(180.000000) translate(-105.325394, -74.229776) "></path>
            <g id="Scale" transform="translate(89.000000, 118.000000)">
                <rect id="Rectangle" x="5.68434189e-14" y="90" width="22" height="7"></rect>
                <rect id="Rectangle-Copy-11" x="-5.68434189e-14" y="60" width="22" height="7"></rect>
                <rect id="Rectangle-Copy-12" x="-5.68434189e-14" y="30" width="22" height="7"></rect>
                <rect id="Rectangle-Copy-13" x="-5.68434189e-14" y="0" width="22" height="7"></rect>
            </g>
        </g>
    </g>
</svg>