<?xml version="1.0" encoding="UTF-8"?>
<svg width="291px" height="290px" viewBox="0 0 291 290" version="1.1" xmlns="http://www.w3.org/2000/svg" xmlns:xlink="http://www.w3.org/1999/xlink">
    <g stroke="none" stroke-width="1" fill="none" fill-rule="evenodd">
        <rect id="Rectangle-Copy-5" fill="none" transform="translate(145.000000, 145.000000) rotate(180.000000) translate(-145.000000, -145.000000) " x="0" y="0" width="290" height="290"></rect>
        <path d="M209.370491,64.370491 C254.105556,64.370491 290.370491,100.635426 290.370491,145.370491 C290.370491,190.105556 254.105556,226.370491 209.370491,226.370491 C170.139677,226.370491 137.422874,198.48069 129.965773,161.446777 L0,161.446933 L0,130.267316 L129.771358,130.292209 C136.836911,92.7624896 169.788048,64.370491 209.370491,64.370491 Z M209.370491,94.370491 C181.203969,94.370491 158.370491,117.203969 158.370491,145.370491 C158.370491,173.537013 181.203969,196.370491 209.370491,196.370491 C237.537013,196.370491 260.370491,173.537013 260.370491,145.370491 C260.370491,117.203969 237.537013,94.370491 209.370491,94.370491 Z" id="Combined-Shape-Copy" fill="#000000" fill-rule="nonzero" transform="translate(145.185245, 145.370491) rotate(180.000000) translate(-145.185245, -145.370491) "></path>
    </g>
</svg>