<?xml version="1.0" encoding="UTF-8"?>
<svg width="291px" height="291px" viewBox="0 0 291 291" version="1.1" xmlns="http://www.w3.org/2000/svg" xmlns:xlink="http://www.w3.org/1999/xlink">
    <g stroke="none" stroke-width="1" fill="none" fill-rule="evenodd">
        <rect id="Rectangle" fill="none" x="0.629509039" y="0.629509039" width="290" height="290"></rect>
        <path d="M210,65 C254.735065,65 291,101.264935 291,146 C291,190.735065 254.735065,227 210,227 C170.769186,227 138.052383,199.110199 130.595282,162.076286 L0.629509039,162.076442 L0.629509039,130.896825 L130.400867,130.921718 C137.46642,93.3919986 170.417557,65 210,65 Z M210,95 C181.833478,95 159,117.833478 159,146 C159,174.166522 181.833478,197 210,197 C238.166522,197 261,174.166522 261,146 C261,117.833478 238.166522,95 210,95 Z" id="Combined-Shape" fill="#000000" fill-rule="nonzero"></path>
    </g>
</svg>