<?xml version="1.0" encoding="UTF-8"?>
<svg width="664px" height="756px" viewBox="0 0 664 756" version="1.1" xmlns="http://www.w3.org/2000/svg" xmlns:xlink="http://www.w3.org/1999/xlink">
    <title>microscope</title>
    <g id="Page-1" stroke="none" stroke-width="1" fill="none" fill-rule="evenodd">
        <g id="microscope">
            <path d="M530.783003,736.765935 L530.398007,736.821672 L528.029257,738.006032 L527.39597,738.129465 L527.39597,738.129465 L526.890507,738.006032 L524.521827,736.821672 C524.194097,736.716775 523.901643,736.805352 523.73807,737.001482 L523.601077,737.365602 L523.031367,751.608225 L523.19649,752.287882 L523.563493,752.695032 L527.015923,755.161005 L527.511637,755.291682 L527.511637,755.291682 L527.90384,755.161005 L531.35634,752.695032 L531.77646,752.160345 L531.77646,752.160345 L531.888423,751.608225 L531.3187,737.365602 C531.252413,737.027945 531.033707,736.814545 530.783003,736.765935 L530.783003,736.765935 Z M539.61302,733.014109 L539.151617,733.081475 L532.99481,736.159892 L532.66274,736.501409 L532.66274,736.501409 L532.573143,736.874949 L533.16981,751.192532 L533.331163,751.618495 L533.331163,751.618495 L533.612867,751.854339 L540.31134,754.945865 C540.714283,755.067899 541.074443,754.937485 541.260953,754.678782 L541.394117,754.210032 L540.255923,733.722339 C540.176273,733.324225 539.913673,733.071289 539.61302,733.014109 L539.61302,733.014109 Z M515.768243,733.081475 C515.440593,732.917652 515.072543,733.013255 514.85455,733.257749 L514.66391,733.722339 L513.525713,754.210032 C513.50441,754.593365 513.76033,754.899909 514.08827,754.990155 L514.608533,754.945865 L521.30702,751.854339 L521.621657,751.585725 L521.621657,751.585725 L521.750143,751.192532 L522.3467,736.874949 L522.2415,736.455155 L522.2415,736.455155 L521.925103,736.159892 L515.768243,733.081475 Z" id="MingCute"></path>
            <g id="microscope-svgrepo-com-(2)" fill="#000000" fill-rule="nonzero">
                <path d="M644.5,700.25 L536.675,700.25 C559.525,687.3 579.075,671.7 595.85,653.5 L596,653.325 C637.8,605.2 663.25,541.95 663.25,472.725 C663.25,471.425 663.25,470.1 663.225,468.8 L663.225,469 C663.325,466.475 663.375,463.5 663.375,460.525 C663.375,320.5 552.475,206.35 413.7,201.15 L413.225,201.125 L413.225,143.975 C413.1,112.8 392.225,86.525 363.7,78.275 L363.225,78.15 L363.225,18.975 C363.225,8.625 354.825,0.225 344.475,0.225 L244.475,0.225 C234.125,0.225 225.725,8.625 225.725,18.975 L225.725,18.975 L225.725,78.15 C196.7,86.525 175.825,112.8 175.725,143.95 L175.725,443.975 C175.775,481.925 206.525,512.675 244.475,512.725 L344.475,512.725 C382.425,512.675 413.175,481.925 413.225,443.975 L413.225,239.525 C531.6,243.95 625.9,340.975 625.9,460.05 C625.9,463.175 625.825,466.3 625.7,469.4 L625.725,468.95 C625.75,470.05 625.75,471.375 625.75,472.675 C625.75,532.325 603.875,586.85 567.7,628.675 L567.95,628.375 C526.875,672.725 468.325,700.375 403.325,700.375 C400.2,700.375 397.1,700.3 394.025,700.175 L394.475,700.2 L19.475,700.2 C9.125,700.2 0.725,708.6 0.725,718.95 C0.725,729.3 9.125,737.7 19.475,737.7 L19.475,737.7 L644.475,737.7 C654.825,737.7 663.225,729.3 663.225,718.95 C663.225,708.6 654.825,700.2 644.475,700.2 L644.475,700.2 L644.5,700.25 Z M263.25,37.75 L325.75,37.75 L325.75,75.25 L263.25,75.25 L263.25,37.75 Z M375.75,444 C375.725,461.25 361.75,475.225 344.5,475.25 L244.5,475.25 C227.25,475.225 213.275,461.25 213.25,444 L213.25,144 C213.275,126.75 227.25,112.775 244.5,112.75 L344.5,112.75 C361.75,112.775 375.725,126.75 375.75,144 L375.75,144 L375.75,444 Z" id="Shape"></path>
            </g>
        </g>
    </g>
</svg>