<?xml version="1.0" encoding="UTF-8"?>
<svg width="372px" height="357px" viewBox="0 0 372 357" version="1.1" xmlns="http://www.w3.org/2000/svg" xmlns:xlink="http://www.w3.org/1999/xlink">
    <path d="M275.999,0 L275.999,30.574 L29.8619893,30.5743172 L29.861,247 L0,247 L1.13686838e-13,30.103467 C1.13686838e-13,21.8250629 2.95687456,14.7379431 8.86930275,8.84276583 C14.6552882,3.07301791 21.5870087,0.126763657 29.6632259,0.00400306285 L30.1915583,0 L275.999,0 Z" id="Combined-Shape" fill="#000000" fill-rule="nonzero"></path>
    <g id="panel-copy" transform="translate(58.000000, 68.000000)" fill="#000000" fill-rule="nonzero">
        <path d="M305.131358,8.84276583 C299.218269,2.94758861 292.11041,0 283.807781,0 L30.1915583,0 C21.8889293,0 14.7810705,2.94758861 8.86930275,8.84276583 C2.95687456,14.7379431 0,21.8250629 0,30.103467 L0,258.895874 C0,267.174937 2.95687456,274.262057 8.86930275,280.157234 C14.7810705,286.052411 21.8889293,289 30.1915583,289 L283.807781,289 C292.111071,289 299.218929,286.05307 305.131358,280.157234 C311.043786,274.261398 314,267.174278 314,258.895874 L314,30.103467 C314,21.8250629 311.044446,14.7379431 305.131358,8.84276583 Z M284.138671,258.426341 L29.8619893,258.426341 L29.8619893,30.5743172 L284.138671,30.5743172 L284.138671,258.426341 Z" id="Shape"></path>
    </g>
</svg>