<?xml version="1.0" encoding="utf-8"?>
<!-- Generator: Adobe Illustrator 15.0.2, SVG Export Plug-In . SVG Version: 6.00 Build 0)  -->
<!DOCTYPE svg PUBLIC "-//W3C//DTD SVG 1.1//EN" "http://www.w3.org/Graphics/SVG/1.1/DTD/svg11.dtd">
<svg version="1.1" id="Layer_1" xmlns="http://www.w3.org/2000/svg" xmlns:xlink="http://www.w3.org/1999/xlink" x="0px" y="0px"
     width="549px" height="512px" viewBox="0 0 549 512" enable-background="new 0 0 549 512" xml:space="preserve">
<g>
    <path d="M92.5,309.5l-35,106h-45l115-337h52l115,337H248l-36-106H92.5z M203.5,275.5l-33.5-97c-7.5-22-12.5-42-17.5-61.5h-1
        c-5,19.5-10,40.5-17,61l-33,97.5H203.5z"/>
    <path d="M514.499,357.5c0,21,1,41.5,3.5,58h-39.5l-3.5-30.5h-1.5c-13.5,19-39.5,36-74,36c-49,0-74-34.5-74-69.5
        c0-58.5,52-90.5,145.5-90v-5c0-19.5-5.5-56-55-55.5c-23,0-46.5,6.5-63.5,18l-10-29.5c20-12.5,49.5-21,80-21c74,0,92,50.5,92,98.5
        V357.5z M471.999,292c-48-1-102.5,7.5-102.5,54.5c0,29,19,42,41,42c32,0,52.5-20,59.5-40.5c1.5-5,2-10,2-14V292z"/>
</g>
</svg>
