<?xml version="1.0" encoding="UTF-8"?>
<svg width="420px" height="395px" viewBox="0 0 420 395" version="1.1" xmlns="http://www.w3.org/2000/svg" xmlns:xlink="http://www.w3.org/1999/xlink">
    <g stroke="none" stroke-width="1" fill="none" fill-rule="evenodd">
        <g id="moon" fill="#000000" fill-rule="nonzero">
            <path d="M238.741864,92.1289458 C241.258903,92.1289458 242.727773,90.615539 243.146682,88.5347054 C249.650525,57.1317147 249.44107,56.3746077 285.734946,49.9424267 C288.251985,49.5646803 289.720855,48.4290198 289.720855,46.1593131 C289.720855,43.699926 288.251985,42.5650727 285.734946,42.1865192 C249.44107,35.565465 249.650525,34.9980383 243.146682,3.59424042 C242.727773,1.51340687 241.258903,0 238.741864,0 C236.22393,0 234.965411,1.51340687 234.545606,3.59424042 C227.832308,34.9980383 228.252113,35.565465 191.748782,42.1865192 C189.440303,42.5650727 187.762874,43.699926 187.762874,46.1593131 C187.762874,48.4290198 189.440303,49.5646803 191.748782,49.9424267 C228.462463,56.3746077 227.832308,57.1317147 234.545606,88.5347054 C234.965411,90.615539 236.22393,92.1289458 238.741864,92.1289458 Z M339.230976,220.01223 C343.007429,220.01223 345.734818,217.552843 346.154623,213.958602 C353.077376,163.259069 355.804765,161.745662 412.657443,153.800881 C417.271716,153.043774 420,151.151814 420,147.3687 C420,143.77446 417.271716,141.503946 413.495262,140.936519 C356.224569,131.098971 353.077376,131.477524 346.154623,80.7787979 C345.734818,77.1845575 343.007429,74.7251704 339.230976,74.7251704 C335.245067,74.7251704 332.517678,77.1845575 332.098769,80.5891176 C324.756211,131.856078 322.867537,133.558358 264.755444,140.936519 C260.978991,141.315073 258.252497,143.77446 258.252497,147.3687 C258.252497,150.962941 260.978991,153.043774 264.755444,153.800881 C322.867537,163.447942 324.965666,163.637622 332.098769,214.337156 C332.517678,217.552843 335.245067,220.01223 339.230976,220.01223 Z M181.259031,395 C257.203432,395 317.832564,360.380515 346.783883,302.113947 C350.349987,295.115147 349.720727,289.061519 345.944273,285.845025 C342.58852,283.007892 336.713937,282.629338 330.210094,284.710172 C313.217396,290.763799 293.286958,293.790613 270.419677,293.790613 C175.174993,293.790613 114.336407,240.064266 114.336407,156.259461 C114.336407,132.423505 119.370485,109.533528 125.874327,97.804827 C129.440431,91.1829657 129.440431,85.5078917 126.294132,81.9136513 C122.517678,78.1297305 115.804381,77.5623038 107.623109,80.4002444 C43.2166285,103.290221 0,164.961349 0,234.200318 C0,326.328457 75.3142463,395 181.259031,395 Z" id="Shape"></path>
        </g>
    </g>
</svg>