<?xml version="1.0" encoding="UTF-8"?>
<svg width="712px" height="702px" viewBox="0 0 712 702" version="1.1" xmlns="http://www.w3.org/2000/svg" xmlns:xlink="http://www.w3.org/1999/xlink">
    <g stroke="none" stroke-width="1" fill="none" fill-rule="evenodd">
        <g id="mouse-click" fill="#000000" fill-rule="nonzero">
            <path d="M266.663023,133.375 L333.31003,133.375 L333.31003,0.0416671875 L266.663023,0.0416671875 L266.663023,133.375 Z M0.075,333.375 L133.369012,333.375 L133.369012,266.708334 L0.075,266.708334 L0.075,333.375 Z M158.614897,205.758334 L64.3760312,111.458334 L111.495464,64.3250005 L205.734331,158.625 L158.614897,205.758334 Z M111.492132,535.738334 L64.3726989,488.605 L158.611566,394.305 L205.730998,441.438334 L111.492132,535.738334 Z M441.374817,205.758334 L394.255383,158.625 L488.49425,64.3250005 L535.613683,111.458334 L441.374817,205.758334 Z M446.306695,483.948334 L589.412562,617.081667 L627.134767,579.348334 L483.995577,446.215 L551.075787,379.148334 L315.745211,315.581667 L379.293131,550.981667 L446.306695,483.948334 Z M348.402244,666.715 L230.603661,230.448334 L666.741667,348.248334 L568.837216,446.215 L711.976406,579.348334 L589.412562,701.915 L446.306695,568.781667 L348.402244,666.715 Z" id="interaction-click"></path>
        </g>
    </g>
</svg>