<?xml version="1.0" encoding="utf-8"?>
<!DOCTYPE svg PUBLIC "-//W3C//DTD SVG 1.1//EN" "http://www.w3.org/Graphics/SVG/1.1/DTD/svg11.dtd">
<svg version="1.1" id="Layer_1" xmlns="http://www.w3.org/2000/svg" xmlns:xlink="http://www.w3.org/1999/xlink" x="0px" y="0px"
	 width="512px" height="512px" viewBox="0 0 512 512" enable-background="new 0 0 512 512" xml:space="preserve">
<path fill="#444444" d="M349.9,201.667v254.333h36.8V201.667h92L368.301,74.5L257.9,201.667H349.9z"/>
<path fill="#444444" d="M217.301,468.4h-55.2v-36.8h55.2V468.4z"/>
<path fill="#444444" d="M143.701,468.4h-55.2v-36.8h55.2V468.4z"/>
<path fill="#444444" d="M70.101,468.4h-36.8v-55.199h36.8V468.4z"/>
<path fill="#444444" d="M217.301,339.601h-36.8v-55.2h36.8V339.601z"/>
<path fill="#444444" d="M162.101,321.201h-55.199V284.4h55.199V321.201z"/>
<path fill="#444444" d="M88.501,321.201h-55.2V284.4h55.2V321.201z"/>
<path fill="#444444" d="M217.301,413.201h-36.8v-55.2h36.8V413.201z"/>
<path fill="#444444" d="M70.101,394.801h-36.8v-55.2h36.8V394.801z"/>
<path fill="#444444" d="M80.101,189.001v-90.4h90.4v90.4H80.101z M33.301,235.801h184v-184h-184V235.801z"/>
</svg>
