<?xml version="1.0" encoding="UTF-8"?>
<svg width="302px" height="302px" viewBox="0 0 302 302" version="1.1" xmlns="http://www.w3.org/2000/svg" xmlns:xlink="http://www.w3.org/1999/xlink">
    <title>Page 1</title>
    <g id="Page-1" stroke="none" stroke-width="1" fill="none" fill-rule="evenodd">
        <rect id="Rectangle-Copy-68" fill="none" transform="translate(150.000000, 151.000000) rotate(180.000000) translate(-150.000000, -151.000000) " x="5" y="6" width="290" height="290"></rect>
        <path d="M149.459532,9.43264706e-17 L197.919063,68.4519244 L164.655688,68.4510995 L164.655,143.344 L233.548075,143.344917 L233.548075,107 L302,155.459532 L233.548075,203.919063 L233.547835,170.654713 L164.655,170.654 L164.655083,233.548075 L201,233.548075 L152.540468,302 L104.080937,233.548075 L137.345287,233.547835 L137.345,170.655 L68.4519244,170.655083 L68.4519244,207 L0,158.540468 L68.4519244,110.080937 L68.4510995,143.344312 L137.344,143.344 L137.344917,68.4519244 L101,68.4519244 L149.459532,9.43264706e-17 Z" id="Combined-Shape" fill="#000000" fill-rule="nonzero"></path>
    </g>
</svg>