<?xml version="1.0" encoding="UTF-8"?>
<svg width="463px" height="463px" viewBox="0 0 463 463" version="1.1" xmlns="http://www.w3.org/2000/svg" xmlns:xlink="http://www.w3.org/1999/xlink">
    <g id="Page-1" stroke="none" stroke-width="1" fill="none" fill-rule="evenodd">
        <rect id="Rectangle-Copy-87" fill="none" x="0" y="0" width="463" height="463"></rect>
        <path d="M412.699267,19 C418.388205,19 423,23.8529719 423,29.8394161 L423,413.160584 C423,419.147028 418.388205,424 412.699267,424 L50.3007335,424 C44.6117955,424 40,419.147028 40,413.160584 L40,29.8394161 C40,23.8529719 44.6117955,19 50.3007335,19 L412.699267,19 Z M412.253165,27 L49.7468354,27 C47.740222,27 46.1020274,28.6585181 46.0045855,30.7429235 L46,30.9395466 L46,414.060453 C46,416.170273 47.5773882,417.892725 49.5598306,417.995179 L49.7468354,418 L412.253165,418 C414.259778,418 415.897973,416.341482 415.995415,414.257077 L416,414.060453 L416,30.9395466 C416,28.829727 414.422612,27.107275 412.440169,27.0048213 L412.253165,27 Z" id="Rectangle-Copy-86" fill="#000000" fill-rule="nonzero"></path>
        <rect id="Rectangle" fill="#000000" x="270" y="296" width="82" height="82"></rect>
    </g>
</svg>