<?xml version="1.0" encoding="UTF-8"?>
<svg width="463px" height="463px" viewBox="0 0 463 463" version="1.1" xmlns="http://www.w3.org/2000/svg" xmlns:xlink="http://www.w3.org/1999/xlink">
    <g id="Page-1" stroke="none" stroke-width="1" fill="none" fill-rule="evenodd">
        <rect id="Rectangle-Copy-91" fill="none" x="0" y="0" width="463" height="463"></rect>
        <rect id="Rectangle" fill="#000000" x="40" y="359" width="383" height="58"></rect>
        <path d="M412.699267,12 C418.388205,12 423,15.3431584 423,19.4671533 L423,283.532847 C423,287.656842 418.388205,291 412.699267,291 L50.3007335,291 C44.6117955,291 40,287.656842 40,283.532847 L40,19.4671533 C40,15.3431584 44.6117955,12 50.3007335,12 L412.699267,12 Z M412.253165,17 L49.7468354,17 C47.740222,17 46.1020274,18.1452682 46.0045855,19.5846275 L46,19.720403 L46,284.279597 C46,285.736506 47.5773882,286.925923 49.5598306,286.996671 L49.7468354,287 L412.253165,287 C414.259778,287 415.897973,285.854732 415.995415,284.415373 L416,284.279597 L416,19.720403 C416,18.2634943 414.422612,17.0740773 412.440169,17.0033293 L412.253165,17 Z" id="Rectangle-Copy-90" fill="#000000" fill-rule="nonzero"></path>
    </g>
</svg>