<?xml version="1.0" encoding="UTF-8"?>
<svg width="317px" height="317px" viewBox="0 0 317 317" version="1.1" xmlns="http://www.w3.org/2000/svg" xmlns:xlink="http://www.w3.org/1999/xlink">
    <title>none2</title>
    <g id="Page-1" stroke="none" stroke-width="1" fill="none" fill-rule="evenodd">
        <g id="none2" fill="#000000" fill-rule="nonzero">
            <g id="none">
                <polygon id="Path" points="0 0 317 0 310.903846 6 6.09615385 6"></polygon>
                <polygon id="Path" points="317 0 317 317 311 310.903846 311 6.09615385"></polygon>
                <polygon id="Path" points="317 317 0 317 6.09615385 311 310.903846 311"></polygon>
                <polygon id="Path" points="0 317 0 0 6 6.09615385 6 310.903846"></polygon>
            </g>
            <path d="M146.147,309.288 L168.434,309.433 L168.288256,331.839813 C168.288223,335.772678 167.746362,339.11568 166.662816,341.869183 C165.579271,344.622687 164.263605,346 162.71582,346 L151.57162,346 C150.023978,346 148.708336,344.622889 147.625125,341.870235 C146.541627,339.116852 146,335.774275 146,331.841411 L146.147,309.288 Z M146.513,253.29 L168.8,253.436 L168.58,287.146 L146.293,287 L146.513,253.29 Z M146.879,197.266 L169.166,197.412 L168.946,231.148 L146.659,231.003 L146.879,197.266 Z M147.245,141.295 L169.532,141.441 L169.312,175.125 L147.025,174.979 L147.245,141.295 Z M147.611,85.2970004 L169.898,85.4430004 L169.678,119.153 L147.391,119.007 L147.611,85.2970004 Z M147.977,29.3000004 L170.264,29.4450004 L170.044,63.1550004 L147.757,63.0100004 L147.977,29.3000004 Z M164.975206,-27.9999996 C166.523136,-27.9999996 167.839065,-26.6236188 168.922419,-23.8706004 C170.005918,-21.1172168 170.547401,-17.773545 170.547401,-13.8399501 L170.41,7.15800035 L148.123,7.01200035 L148.259288,-13.8394481 C148.259321,-17.7723129 148.800752,-21.1156794 149.884441,-23.8695478 C150.967699,-26.622321 152.283508,-27.9999996 153.831294,-27.9999996 L164.975206,-27.9999996 Z" id="Combined-Shape" transform="translate(158.273700, 159.000000) rotate(45.000000) translate(-158.273700, -159.000000) "></path>
        </g>
    </g>
</svg>