<?xml version="1.0" encoding="utf-8"?>
<!DOCTYPE svg PUBLIC "-//W3C//DTD SVG 1.1//EN" "http://www.w3.org/Graphics/SVG/1.1/DTD/svg11.dtd">
<svg version="1.1" id="Layer_1" xmlns="http://www.w3.org/2000/svg" xmlns:xlink="http://www.w3.org/1999/xlink" x="0px" y="0px"
	 width="512px" height="512px" viewBox="0 0 512 512" enable-background="new 0 0 512 512" xml:space="preserve">
<path d="M65.666,120.433h-0.892l-49.027,24.265l-9.806-43.847l66.41-32.779h51.255v276.705H65.666V120.433z"/>
<path d="M168.211,450.74v-37.462l28.525-35.333c37.439-45.55,68.194-83.438,68.194-123.028c0-22.561-12.926-37.887-36.995-37.887
	c-18.273,0-32.981,7.663-43.233,14.047l-10.697-42.995c13.371-8.514,38.331-17.454,64.627-17.454
	c63.289,0,83.792,40.441,83.792,80.032c0,51.936-33.873,93.654-67.3,130.69l-17.383,19.582v0.852h88.695v48.955H168.211z"/>
<path d="M363.313,288.584c11.589,6.386,28.08,10.643,43.233,10.643c28.525,0,44.125-16.603,44.125-40.017
	c0-30.649-24.96-43.42-53.931-43.846h-8.022v-40.867h5.795c21.393-0.425,48.581-8.94,48.581-35.759
	c0-20.008-12.926-31.928-33.428-31.928c-13.371,0-25.852,4.257-36.548,11.068l-8.022-42.144
	c12.033-7.237,35.655-14.474,59.725-14.474c50.81,0,76.661,31.501,76.661,66.835c0,27.671-16.046,50.658-41.896,62.152v0.851
	c28.078,8.939,49.473,33.205,49.473,70.24c0,42.145-33.873,83.438-97.163,83.438c-23.177,0-44.124-5.534-56.604-12.346
	L363.313,288.584z"/>
</svg>
