<?xml version="1.0" encoding="UTF-8"?>
<svg width="389px" height="442px" viewBox="0 0 389 442" version="1.1" xmlns="http://www.w3.org/2000/svg" xmlns:xlink="http://www.w3.org/1999/xlink">
    <title>oval</title>
    <g id="Page-1" stroke="none" stroke-width="1" fill="none" fill-rule="evenodd">
        <g id="oval" transform="translate(194.500000, 221.000000) rotate(90.000000) translate(-194.500000, -221.000000) translate(-26.000000, 27.000000)" fill="#000000" fill-rule="nonzero">
            <path d="M220.5,5.68434189e-14 C98.721123,5.68434189e-14 0,86.857 0,194 C0,301.144 98.721123,388 220.5,388 C342.278877,388 441,301.144 441,194 C441,86.857 342.278877,5.68434189e-14 220.5,5.68434189e-14 Z M220.5,352.383 C129.165627,352.383 40.4824219,274.358 40.4824219,194 C40.4824219,113.642 129.165627,35.617 220.5,35.617 C311.834373,35.617 400.517578,113.642 400.517578,194 C400.517578,274.357 311.834373,352.383 220.5,352.383 Z" id="Shape"></path>
        </g>
    </g>
</svg>