<?xml version="1.0" encoding="utf-8"?>
<!DOCTYPE svg PUBLIC "-//W3C//DTD SVG 1.1//EN" "http://www.w3.org/Graphics/SVG/1.1/DTD/svg11.dtd">
<svg version="1.1" id="Layer_1" xmlns="http://www.w3.org/2000/svg" xmlns:xlink="http://www.w3.org/1999/xlink" x="0px" y="0px"
	 width="476px" height="512px" viewBox="0 0 476 512" enable-background="new 0 0 476 512" xml:space="preserve">
<path d="M468.995,48.586c-9.176-9.176-20.209-13.765-33.096-13.765H42.275c-12.886,0-23.918,4.588-33.094,13.765
	C0.006,57.763-4.583,68.794-4.583,81.681v356.137c0,12.887,4.589,23.918,13.765,33.095s20.208,13.765,33.094,13.765h393.624
	c12.889,0.001,23.92-4.587,33.096-13.765c9.177-9.177,13.765-20.209,13.765-33.095V81.681
	C482.762,68.794,478.174,57.763,468.995,48.586z M436.414,437.086H41.764V82.414h394.65V437.086z"/>
<path fill="#444444" d="M245.752,110.09c-82.232,0-148.892,66.66-148.892,148.891c0,82.231,66.66,148.891,148.892,148.891
	c82.23,0,148.89-66.659,148.89-148.891C394.642,176.75,327.982,110.09,245.752,110.09z M245.752,389.262
	c-18.31,0-35.733-3.784-51.54-10.601l67.8-76.275c1.515-1.703,2.35-3.902,2.35-6.183v-27.916c0-5.14-4.167-9.306-9.305-9.306
	c-32.857,0-67.526-34.158-67.866-34.497c-1.745-1.746-4.112-2.726-6.581-2.726h-37.222c-5.139,0-9.305,4.166-9.305,9.305v55.834
	c0,3.525,1.992,6.747,5.145,8.321l32.079,16.041v54.639c-33.75-23.543-55.835-62.647-55.835-106.917
	c0-19.983,4.504-38.911,12.544-55.834H162c2.468,0,4.834-0.98,6.581-2.726l37.223-37.222c1.745-1.745,2.726-4.112,2.726-6.581
	v-22.511c11.796-3.512,24.286-5.406,37.223-5.406c20.475,0,39.84,4.729,57.078,13.145c-1.203,1.019-2.376,2.083-3.502,3.209
	c-10.547,10.546-16.354,24.566-16.354,39.48c0,14.915,5.807,28.935,16.354,39.48c10.595,10.595,24.781,16.362,39.442,16.361
	c0.921,0,1.845-0.023,2.768-0.069c4.019,15.064,11.27,54.28-2.443,108.276c-0.129,0.507-0.203,1.012-0.245,1.52
	C315.2,374.263,282.23,389.262,245.752,389.262L245.752,389.262z"/>
</svg>
