<?xml version="1.0" encoding="utf-8"?>
<!DOCTYPE svg PUBLIC "-//W3C//DTD SVG 1.1//EN" "http://www.w3.org/Graphics/SVG/1.1/DTD/svg11.dtd">
<svg version="1.1" id="Layer_1" xmlns="http://www.w3.org/2000/svg" xmlns:xlink="http://www.w3.org/1999/xlink" x="0px" y="0px"
	 width="476px" height="512px" viewBox="0 0 476 512" enable-background="new 0 0 476 512" xml:space="preserve">
<path d="M461.286,50.25c-8.953-8.952-19.715-13.428-32.286-13.428H45c-12.571,0-23.333,4.476-32.284,13.428
	C3.764,59.202-0.713,69.964-0.713,82.535v347.428c0,12.572,4.477,23.334,13.429,32.286c8.951,8.952,19.713,13.428,32.284,13.428h384
	c12.572,0.001,23.334-4.475,32.286-13.428s13.428-19.715,13.428-32.286V82.535C474.715,69.964,470.239,59.202,461.286,50.25z
	 M350.725,429.25v-67.784h78.776v67.784H350.725z M350.725,338.154v-69.775h78.776v69.775H350.725z M350.725,245.064v-69.777h78.776
	v69.777H350.725z M429.501,83.25v68.765H350.21V83.25H429.501z M328.65,83.25v68.403h-80.124V83.25H328.65z M248.526,244.702
	v-69.778h80.124v69.778H248.526z M328.65,268.016v69.775h-80.124v-69.775H328.65z M148.751,245.064v-69.777h79.144v69.777H148.751z
	 M227.895,268.379v69.775h-79.144v-69.775H227.895z M148.238,152.015V83.25h79.657v68.765H148.238z M44.501,83.25h82.177v68.403
	H44.501V83.25z M44.501,268.016h82.177v69.775H44.501V268.016z M44.501,244.702v-69.778h82.177v69.778H44.501z M44.501,429.25
	v-68.146h82.177v0.362h0.513v67.784H44.501z M148.751,429.25v-67.784h79.144v67.784H148.751z M248.526,361.104h80.124v0.362h0.515
	v67.784h-80.639V361.104z"/>
</svg>
