<?xml version="1.0" encoding="utf-8"?>
<!DOCTYPE svg PUBLIC "-//W3C//DTD SVG 1.1//EN" "http://www.w3.org/Graphics/SVG/1.1/DTD/svg11.dtd">
<svg version="1.1" id="Layer_1" xmlns="http://www.w3.org/2000/svg" xmlns:xlink="http://www.w3.org/1999/xlink" x="0px" y="0px"
	 width="512px" height="512px" viewBox="0 0 512 512" enable-background="new 0 0 512 512" xml:space="preserve">
<g>
	<path d="M227.182,174.197c0,79.701-44.652,121.896-93.46,121.896c-51.404,0-91.904-43.367-91.904-115.45
		c0-67.98,36.866-119.552,95.02-119.552C194.471,61.09,227.182,109.146,227.182,174.197z M100.49,178.884
		c-0.519,39.851,11.942,68.567,34.789,68.567c22.327,0,33.23-25.786,33.23-69.153c0-38.679-9.346-68.566-34.269-68.566
		C110.875,109.732,100.49,140.206,100.49,178.884z M137.355,454.909L331.548,61.676h42.059L179.933,454.909H137.355z
		 M470.183,332.427c0,79.115-44.654,121.311-93.462,121.311c-50.885,0-91.383-43.365-91.383-114.863
		c0-67.981,36.865-119.553,94.498-119.553C437.472,219.321,470.183,267.375,470.183,332.427z M344.01,336.53
		c-0.521,39.852,11.941,68.567,34.27,68.567c22.326,0,33.231-25.786,33.231-68.567c0-38.681-9.349-68.567-33.751-68.567
		C354.395,267.963,344.01,298.436,344.01,336.53z"/>
</g>
</svg>
