<?xml version="1.0" encoding="UTF-8"?>
<svg width="504px" height="480px" viewBox="0 0 504 480" version="1.1" xmlns="http://www.w3.org/2000/svg" xmlns:xlink="http://www.w3.org/1999/xlink">
    <title>pipe-elbow</title>
    <g id="Page-1" stroke="none" stroke-width="1" fill="none" fill-rule="evenodd">
        <g id="pipe-elbow" transform="translate(252.000000, 240.000000) rotate(180.000000) translate(-252.000000, -240.000000) " fill="#000000" fill-rule="nonzero">
            <path d="M486.82,0.59 L335.738,0.59 C326.505,0.59 318.951,8.144 318.951,17.377 L318.951,50.951 C318.951,60.184 326.505,67.738 335.738,67.738 L344.131,67.738 L344.131,202.033 C344.131,266.663 291.252,319.541 226.623,319.541 L67.148,319.541 L67.148,311.148 C67.148,301.915 59.594,294.361 50.361,294.361 L16.787,294.361 C7.554,294.361 0,301.915 0,311.147 L0,462.229 C0,471.462 7.554,479.016 16.787,479.016 L50.361,479.016 C59.594,479.016 67.148,471.462 67.148,462.229 L67.148,453.836 L226.623,453.836 C365.954,453.836 478.426,340.525 478.426,202.033 L478.426,67.738 L486.819,67.738 C496.052,67.738 503.606,60.184 503.606,50.951 L503.606,17.377 C503.606,8.144 496.052,0.59 486.82,0.59 Z M50.361,462.229 L16.787,462.229 L16.787,311.147 L50.361,311.147 L50.361,327.934 L50.361,445.442 L50.361,462.229 Z M461.639,202.033 C461.639,331.292 355.882,437.049 226.623,437.049 L67.148,437.049 L67.148,420.262 L159.476,420.262 C164.512,420.262 167.869,416.905 167.869,411.869 C167.869,406.833 164.512,403.476 159.476,403.476 L67.148,403.476 L67.148,336.328 L226.623,336.328 C300.485,336.328 360.918,275.895 360.918,202.033 L360.918,67.738 L461.639,67.738 L461.639,202.033 Z M486.82,50.951 L470.033,50.951 L352.525,50.951 L335.738,50.951 L335.738,17.377 L486.82,17.377 L486.82,50.951 Z" id="Shape"></path>
            <path d="M311.397,394.243 C313.076,397.6 315.594,399.279 318.951,399.279 C320.63,399.279 321.469,398.44 323.148,398.44 C341.614,389.207 359.24,376.617 375.187,362.348 C379.384,358.991 379.384,353.955 376.026,350.597 C372.669,346.4 367.633,346.4 364.275,349.758 C349.167,363.188 333.219,374.938 315.593,383.332 C311.397,385.01 309.718,390.046 311.397,394.243 Z" id="Path"></path>
            <path d="M387.777,344.721 C390.295,344.721 392.813,343.882 395.331,342.203 C410.439,323.737 423.029,302.754 431.423,280.931 C433.102,276.734 430.584,271.698 426.387,270.02 C422.19,268.342 417.154,270.859 415.476,275.056 C407.083,295.2 396.171,314.505 381.902,331.292 C378.545,334.649 379.384,339.685 382.741,343.043 C383.58,343.882 386.098,344.721 387.777,344.721 Z" id="Path"></path>
            <path d="M436.459,126.492 C441.495,126.492 444.852,123.135 444.852,118.099 L444.852,92.919 C444.852,87.883 441.495,84.526 436.459,84.526 C431.423,84.526 428.066,87.883 428.066,92.919 L428.066,118.099 C428.066,123.134 431.423,126.492 436.459,126.492 Z" id="Path"></path>
            <path d="M436.459,160.066 C441.495,160.066 444.852,156.709 444.852,151.673 C444.852,146.637 441.495,143.28 436.459,143.28 C431.423,143.28 428.066,146.637 428.066,151.673 C428.066,156.709 431.423,160.066 436.459,160.066 Z" id="Path"></path>
        </g>
    </g>
</svg>