<?xml version="1.0" encoding="utf-8"?>
<!DOCTYPE svg PUBLIC "-//W3C//DTD SVG 1.1//EN" "http://www.w3.org/Graphics/SVG/1.1/DTD/svg11.dtd">
<svg version="1.1" id="Layer_1" xmlns="http://www.w3.org/2000/svg" xmlns:xlink="http://www.w3.org/1999/xlink" x="0px" y="0px"
	 width="403px" height="512px" viewBox="0 0 403 512" enable-background="new 0 0 403 512" xml:space="preserve">
<path d="M396.714,191c-5.333-5.334-11.81-8-19.428-8H258.429V64.143c0-7.618-2.667-14.095-8-19.428s-11.81-8-19.429-8h-54.857
	c-7.618,0-14.095,2.667-19.428,8s-8,11.81-8,19.428V183H29.858c-7.619,0-14.095,2.666-19.429,8c-5.333,5.333-8,11.81-8,19.429
	v54.856c0,7.619,2.667,14.096,8,19.428c5.334,5.334,11.81,8,19.429,8h118.856V411.57c0,7.619,2.667,14.095,8,19.429
	c5.333,5.333,11.81,8,19.429,8h54.857c7.618,0,14.095-2.667,19.428-8c5.333-5.334,8-11.81,8-19.429V292.713h118.857
	c7.618,0,14.095-2.666,19.428-8c5.333-5.332,8-11.809,8-19.428v-54.856v-0.001C404.714,202.81,402.047,196.333,396.714,191z
	 M363.072,258.357h-139v139h-41v-139h-139v-41h139v-139h41v139h139V258.357z"/>
</svg>
