<?xml version="1.0" encoding="UTF-8"?>
<svg width="410px" height="410px" viewBox="0 0 410 410" version="1.1" xmlns="http://www.w3.org/2000/svg" xmlns:xlink="http://www.w3.org/1999/xlink">
    <title>Page 1</title>
    <g id="Page-1" stroke="none" stroke-width="1" fill="none" fill-rule="evenodd">
        <rect id="Rectangle-Copy-66" fill="none" transform="translate(205.000000, 205.000000) rotate(180.000000) translate(-205.000000, -205.000000) " x="-2.27373675e-13" y="0" width="410" height="410"></rect>
        <path d="M388.286975,15.4056407 L396.887806,37.8115709 C401.637914,50.1860245 395.45716,64.0682243 383.082707,68.818332 L353.208133,80.2861063 C340.833679,85.036214 326.95148,78.8554605 322.201372,66.4810069 L321.809,65.46 L250.383078,89.578412 C254.584105,96.5675033 257,104.75162 257,113.5 C257,126.429925 251.722663,138.127261 243.204429,146.55557 L337.22926,273.794734 C339.80452,273.324794 342.417611,273.003397 345.076642,273.003397 C361.595596,273.003397 376.409421,282.194239 383.746074,296.97845 C394.330852,318.277003 385.591722,344.210139 364.278947,354.778392 C358.258297,357.765482 351.813392,359.272532 345.130687,359.272532 C328.603625,359.272532 313.7898,350.095194 306.453148,335.313685 C297.643758,317.569392 302.278145,296.657054 316.373167,284.046992 L223.3789,158.19342 C219.289151,159.369794 214.968172,160 210.5,160 C206.480202,160 202.579538,159.489928 198.8592,158.530977 L106.11518,284.046992 C120.210202,296.657054 124.844589,317.569392 116.0352,335.313685 C108.698547,350.095194 93.884722,359.272532 77.3576604,359.272532 C70.6749557,359.272532 64.2300504,357.765482 58.2094008,354.778392 C36.8966252,344.210139 28.1574951,318.277003 38.7422733,296.97845 C46.0789262,282.194239 60.8927512,273.003397 77.4117058,273.003397 C79.8048329,273.003397 82.16075,273.263728 84.4853665,273.658381 L85.2590875,273.794734 L178.664454,147.39338 C170.813751,140.016464 165.526581,129.942787 164.282128,118.651535 L96.956,141.385 L97.8878062,143.811571 C102.637914,156.186025 96.4571603,170.068224 84.0827067,174.818332 L54.2081331,186.286106 C41.8336795,191.036214 27.9514797,184.85546 23.201372,172.481007 L14.6005413,150.075077 C9.85043357,137.700623 16.0311871,123.818423 28.4056407,119.068316 L58.2802143,107.600541 C70.6546679,102.850434 84.5368677,109.031187 89.2869754,121.405641 L90.141,123.632 L166.727203,97.7719868 C173.1746,79.83071 190.338914,67 210.5,67 C219.817154,67 228.49429,69.740245 235.769445,74.4587729 L314.995,47.708 L313.600541,44.0750767 C308.850434,31.7006231 315.031187,17.8184233 327.405641,13.0683156 L357.280214,1.60054125 C369.654668,-3.14956643 383.536868,3.03118712 388.286975,15.4056407 Z M77.4117058,295.857615 C69.6318812,295.857615 62.66814,300.184306 59.2146439,307.128077 C54.2397715,317.150767 58.3391096,329.342204 68.3672198,334.308985 C78.2710268,339.213649 90.7149636,334.903163 95.5601272,325.155955 C100.529595,315.133265 96.4221504,302.939127 86.4021464,297.983149 C83.5674691,296.581431 80.5436327,295.857615 77.4117058,295.857615 Z M345.076642,295.857615 C341.944715,295.857615 338.920878,296.581431 336.086201,297.983149 C326.066197,302.939127 321.958752,315.133265 326.92822,325.155955 C331.773384,334.903163 344.217321,339.213649 354.121128,334.308985 C364.149238,329.342204 368.248576,317.150767 363.273704,307.128077 C359.820207,300.184306 352.856466,295.857615 345.076642,295.857615 Z M51.8913966,127.237977 L47.2234945,129.029816 C36.9114499,132.98824 31.7608219,144.556739 35.719245,154.868784 C39.6355571,165.071126 51.0008908,170.221285 61.2286888,166.496278 L61.5582125,166.373034 L66.2261146,164.581194 C76.5381593,160.622771 81.6887872,149.054271 77.7303642,138.742226 C73.7719411,128.430182 62.2034413,123.279554 51.8913966,127.237977 Z M211,93 C208.248085,93 205.619802,93.5293299 203.211413,94.4917275 C198.917488,96.3588265 195.343695,99.6944096 193.168693,104.076106 C192.383703,105.656317 191.824845,107.290727 191.479686,108.942401 L193.035231,108.942381 L191.370573,109.504448 C189.819555,118.151072 194.062426,127.154643 202.326675,131.248912 C205.00387,132.572756 207.859432,133.284702 210.804578,133.359721 L211.247,133.365 L211.683769,133.359721 C214.628916,133.284702 217.484477,132.572756 220.161673,131.248912 C230.187082,126.28213 234.294527,114.090693 229.319654,104.076106 C228.586127,102.598363 227.693502,101.239605 226.667836,100.016019 C222.821455,95.7105105 217.227264,93 211,93 Z M350.891397,21.2379767 L346.223494,23.0298165 C335.91145,26.9882395 330.760822,38.5567393 334.719245,48.868784 C338.635557,59.071126 350.000891,64.2212846 360.228689,60.4962782 L360.558212,60.3730335 L365.226115,58.5811938 C375.538159,54.6227707 380.688787,43.0542709 376.730364,32.7422263 C372.771941,22.4301816 361.203441,17.2795536 350.891397,21.2379767 Z" id="Combined-Shape" fill="#000000" fill-rule="nonzero"></path>
    </g>
</svg>