<?xml version="1.0" standalone="no"?>
<!DOCTYPE svg PUBLIC "-//W3C//DTD SVG 20010904//EN"
 "http://www.w3.org/TR/2001/REC-SVG-20010904/DTD/svg10.dtd">
<svg version="1.0" xmlns="http://www.w3.org/2000/svg"
 width="512.000000pt" height="512.000000pt" viewBox="0 0 512.000000 512.000000"
 preserveAspectRatio="xMidYMid meet">

<g transform="translate(0.000000,512.000000) scale(0.100000,-0.100000)"
fill="#000000" stroke="none">
<path d="M1458 4071 c-108 -43 -183 -115 -219 -210 -29 -77 -24 -195 11 -266
78 -159 275 -242 447 -187 162 51 262 193 251 356 -9 128 -78 230 -196 288
-58 29 -78 33 -157 36 -69 1 -101 -2 -137 -17z"/>
<path d="M3639 4067 c-99 -42 -147 -86 -197 -181 -23 -44 -27 -63 -27 -141 0
-77 4 -98 27 -147 34 -73 96 -133 178 -172 59 -28 74 -31 160 -31 83 0 103 4
153 27 79 37 159 120 187 195 29 78 25 206 -9 272 -34 65 -103 134 -168 166
-49 24 -73 29 -153 32 -82 3 -103 0 -151 -20z"/>
<path d="M2185 3740 l0 -120 495 0 495 0 0 120 0 120 -495 0 -495 0 0 -120z"/>
<path d="M4376 3659 c-3 -33 -17 -87 -30 -120 l-24 -60 32 -16 c95 -49 235
-175 316 -283 100 -135 168 -297 195 -464 73 -448 -160 -890 -580 -1101 -172
-86 -341 -125 -546 -125 l-87 0 1 -97 c0 -54 -3 -109 -7 -122 l-8 -24 153 6
c381 14 690 141 937 385 113 112 179 201 246 332 91 178 133 335 143 530 20
409 -180 834 -512 1084 -64 49 -204 136 -217 136 -3 0 -8 -27 -12 -61z"/>
<path d="M985 2609 c-143 -347 -261 -634 -263 -639 -2 -4 19 -13 45 -19 26 -7
76 -26 111 -43 35 -16 65 -28 67 -26 2 2 503 1215 520 1260 5 13 -6 20 -51 33
-32 9 -80 28 -106 41 -26 13 -51 24 -55 24 -4 0 -125 -284 -268 -631z"/>
<path d="M505 1717 c-106 -35 -196 -113 -238 -205 -33 -73 -31 -198 5 -274 34
-73 103 -142 176 -176 51 -24 69 -27 162 -27 125 1 172 18 251 92 186 174 135
463 -99 571 -68 31 -192 40 -257 19z"/>
<path d="M2945 1717 c-106 -35 -196 -113 -238 -205 -33 -73 -31 -198 5 -274
34 -73 103 -142 176 -176 51 -24 69 -27 162 -27 125 1 172 18 251 92 186 174
135 463 -99 571 -68 31 -192 40 -257 19z"/>
</g>
</svg>
