<?xml version="1.0" encoding="UTF-8"?>
<svg width="463px" height="463px" viewBox="0 0 463 463" version="1.1" xmlns="http://www.w3.org/2000/svg" xmlns:xlink="http://www.w3.org/1999/xlink">
    <g id="Page-1" stroke="none" stroke-width="1" fill="none" fill-rule="evenodd">
        <rect id="Rectangle-Copy-51" fill="none" x="0" y="0" width="463" height="463"></rect>
        <path d="M412.699267,39 C418.388205,39 423,43.6133189 423,49.3041363 L423,413.695864 C423,419.386681 418.388205,424 412.699267,424 L50.3007335,424 C44.6117955,424 40,419.386681 40,413.695864 L40,49.3041363 C40,43.6133189 44.6117955,39 50.3007335,39 L412.699267,39 Z M412.253165,46 L49.7468354,46 C47.740222,46 46.1020274,47.5779251 46.0045855,49.5610423 L46,49.7481108 L46,414.251889 C46,416.259186 47.5773882,417.897938 49.5598306,417.995413 L49.7468354,418 L412.253165,418 C414.259778,418 415.897973,416.422075 415.995415,414.438958 L416,414.251889 L416,49.7481108 C416,47.7408144 414.422612,46.1020621 412.440169,46.004587 L412.253165,46 Z" id="Rectangle-Copy-50" fill="#000000" fill-rule="nonzero"></path>
        <path d="M61.5,0 C95.4655121,0 123,27.5344879 123,61.5 C123,73.2680016 119.694736,84.2640176 113.961912,93.6103452 L241.266876,221.260798 L220.733124,241.739202 L93.4172834,114.079843 C84.1127388,119.740042 73.1870715,123 61.5,123 C27.5344879,123 0,95.4655121 0,61.5 C0,27.5344879 27.5344879,0 61.5,0 Z" id="Combined-Shape" fill="#000000"></path>
    </g>
</svg>