<?xml version="1.0" encoding="utf-8"?>
<!DOCTYPE svg PUBLIC "-//W3C//DTD SVG 1.1//EN" "http://www.w3.org/Graphics/SVG/1.1/DTD/svg11.dtd">
<svg version="1.1" id="Capa_1" xmlns="http://www.w3.org/2000/svg" xmlns:xlink="http://www.w3.org/1999/xlink" x="0px" y="0px"
	 width="585.918px" height="585.918px" viewBox="0 0 585.918 585.918" enable-background="new 0 0 585.918 585.918"
	 xml:space="preserve">
<path d="M11.176,538.517l346.221,47.401V535.33c0.775,0.042,1.541,0.109,2.328,0.109h177.391c20.75,0,37.627-16.884,37.627-37.627
	V86.597c0-20.743-16.877-37.628-37.627-37.628H359.725c-0.78,0-1.553,0.077-2.329,0.113V0L11.176,46.206 M359.726,70.476h177.391
	c8.893,0,16.125,7.236,16.125,16.126v411.22c0,8.888-7.232,16.127-16.125,16.127H359.726c-0.792,0-1.562-0.127-2.328-0.243V319.212
	c9.92,37.738,44.168,65.606,85.018,65.606c48.611,0,88.013-39.401,88.013-88.008h-88.013v-88.017
	c-40.854,0-75.104,27.872-85.019,65.612V70.711C358.162,70.599,358.929,70.476,359.726,70.476z M57.022,245.22 M253.466,303.579
	C233.113,321.944,203.23,330,168.759,329.76c-7.597-0.049-14.429-0.465-19.691-1.24v89.006l-56.439-1.363V173.281
	c17.449-3.336,42.089-6.14,77.25-7.02c36.059-0.886,62.063,5.195,79.667,18.336c16.943,12.493,28.44,33.5,28.44,58.465
	C277.986,268.04,269.237,289.268,253.466,303.579z"/>
<path d="M172.942,208.848c-11.78,0.188-19.74,1.433-23.861,2.608v73.491c4.897,1.108,10.942,1.455,19.295,1.455
	c31.015-0.048,50.333-15.418,50.333-41.254C218.709,221.934,202.078,208.361,172.942,208.848z"/>
<path d="M454.362,282.922v0.026h88.018c0-24.753-10.269-47.092-26.725-63.08L454.362,282.922z"/>
<path d="M453.428,267.457l62.229-62.231c-17.501-17.512-39.339-26.047-62.29-25.72l0.042,87.93L453.428,267.457z"/>
</svg>
