<?xml version="1.0" encoding="utf-8"?>
<!DOCTYPE svg PUBLIC "-//W3C//DTD SVG 1.1//EN" "http://www.w3.org/Graphics/SVG/1.1/DTD/svg11.dtd">
<svg version="1.1" id="Capa_1" xmlns="http://www.w3.org/2000/svg" xmlns:xlink="http://www.w3.org/1999/xlink" x="0px" y="0px"
	 width="798.252px" height="798.252px" viewBox="0 0 798.252 798.252" enable-background="new 0 0 798.252 798.252"
	 xml:space="preserve">
<g>
	<g id="Layer_1_9_">
		<g>
			<path d="M749.354,65.676c0-18.421-15.889-33.362-35.474-33.362H93.222c-19.594,0-35.466,14.94-35.466,33.362
				c0,12.31,7.174,22.942,17.728,28.719v384.133c9.599-8.246,21.272-18.293,35.466-30.488V99.015h585.194v366.814H239.096
				c-11.868,12.182-22.705,23.355-32.434,33.371h31.29l-63.748,224.816c-5.051,17.807,6.21,36.066,25.13,40.793
				c18.832,4.727,38.352-5.822,43.401-23.629l63.918-225.352h193.769l63.928,225.352c4.229,14.908,18.562,24.758,34.225,24.758
				c3.064,0,6.112-0.336,9.177-1.129c18.938-4.756,30.173-23.018,25.146-40.793L569.132,499.2h144.764
				c9.794,0,17.722-7.469,17.722-16.678V94.395C742.187,88.604,749.354,77.985,749.354,65.676z"/>
			<path d="M430.156,403.331V278.275c0-18.415-15.89-33.353-35.466-33.353c-19.569,0-35.458,14.938-35.458,33.353v125.054
				c0,18.461,15.889,33.367,35.458,33.367C414.267,436.698,430.156,421.761,430.156,403.331z"/>
			<path d="M545.429,403.331V161.529c0-18.415-15.889-33.338-35.489-33.338c-19.585,0-35.44,14.923-35.44,33.338v241.8
				c0,18.432,15.889,33.367,35.456,33.367C529.539,436.669,545.429,421.761,545.429,403.331z"/>
			<path d="M660.669,403.331V228.23c0-18.43-15.889-33.353-35.457-33.353c-19.603,0-35.489,14.923-35.489,33.353v175.101
				c0,18.459,15.888,33.367,35.489,33.367C644.781,436.698,660.669,421.761,660.669,403.331z"/>
			<path d="M306.436,335.693c-3.373-3.156-8.869-3.172-12.232,0c0,0-237.412,204.054-238.555,205.152
				c-8.999,8.447-8.999,22.195,0,30.67c9.014,8.479,23.621,8.479,32.62,0c1.151-1.049,218.167-224.291,218.167-224.291
				C309.824,344.023,309.809,338.878,306.436,335.693z"/>
		</g>
	</g>
</g>
</svg>
