<?xml version="1.0" encoding="UTF-8"?>
<svg width="281px" height="257px" viewBox="0 0 281 257" version="1.1" xmlns="http://www.w3.org/2000/svg" xmlns:xlink="http://www.w3.org/1999/xlink">
    <title>Page 1</title>
    <g id="Page-1" stroke="none" stroke-width="1" fill="none" fill-rule="evenodd">
        <path d="M64,114.224 L64,57.111 C64,49.547 67.348,42.393 73.427,36.968 C79.507,31.544 87.523,28.555 96,28.555 L96,8.52651283e-14 C60.8,8.52651283e-14 32,25.7 32,57.111 L32,99.944 C32,107.83 24.836,114.223 16,114.223 L0,114.223 L0,142.778 L16,142.778 C24.837,142.778 32,149.173 32,157.057 L32,199.895 C32,231.302 60.8,257.002 96,257.002 L96,228.446 C87.523,228.446 79.506,225.458 73.427,220.033 C67.348,214.608 64,207.456 64,199.894 L64,142.777 C64,134.892 56.836,128.5 48,128.5 C56.837,128.501 64,122.106 64,114.224 L64,114.224 Z" id="Path" fill="#000000"></path>
        <path d="M217,142.778 L217,199.895 C217,207.457 213.652,214.608 207.573,220.034 C201.494,225.46 193.478,228.447 185,228.447 L185,257.003 C220.201,257.003 249,231.303 249,199.896 L249,157.058 C249,149.172 256.164,142.779 265,142.779 L281,142.779 L281,114.224 L265,114.224 C256.164,114.224 249,107.829 249,99.945 L249,57.111 C249,25.699 220.201,0 185,0 L185,28.555 C193.479,28.555 201.494,31.544 207.573,36.97 C213.653,42.394 217,49.548 217,57.112 L217,114.226 C217,122.109 224.164,128.502 233,128.502 C224.164,128.501 217,134.896 217,142.778 Z" id="Path" fill="#000000"></path>
        <path d="M185,75 L185,182 L96,182 L96,75 L185,75 Z M162,103 L119,103 L119,155 L162,155 L162,103 Z" id="Combined-Shape" fill="#000000"></path>
    </g>
</svg>