<?xml version="1.0" encoding="UTF-8"?>
<svg width="256px" height="257px" viewBox="0 0 256 257" version="1.1" xmlns="http://www.w3.org/2000/svg" xmlns:xlink="http://www.w3.org/1999/xlink">
    <title>Page 1</title>
    <g id="Page-1" stroke="none" stroke-width="1" fill="none" fill-rule="evenodd">
        <path d="M64,114.224 L64,57.111 C64,49.547 67.348,42.393 73.427,36.968 C79.507,31.544 87.523,28.555 96,28.555 L96,8.52651283e-14 C60.8,8.52651283e-14 32,25.7 32,57.111 L32,99.944 C32,107.83 24.836,114.223 16,114.223 L0,114.223 L0,142.778 L16,142.778 C24.837,142.778 32,149.173 32,157.057 L32,199.895 C32,231.302 60.8,257.002 96,257.002 L96,228.446 C87.523,228.446 79.506,225.458 73.427,220.033 C67.348,214.608 64,207.456 64,199.894 L64,142.777 C64,134.892 56.836,128.5 48,128.5 C56.837,128.501 64,122.106 64,114.224 L64,114.224 Z" id="Path" fill="#000000"></path>
        <path d="M192,142.778 L192,199.895 C192,207.457 188.652,214.608 182.573,220.034 C176.494,225.46 168.478,228.447 160,228.447 L160,257.003 C195.201,257.003 224,231.303 224,199.896 L224,157.058 C224,149.172 231.164,142.779 240,142.779 L256,142.779 L256,114.224 L240,114.224 C231.164,114.224 224,107.829 224,99.945 L224,57.111 C224,25.699 195.201,-2.84217094e-14 160,-2.84217094e-14 L160,28.555 C168.479,28.555 176.494,31.544 182.573,36.97 C188.653,42.394 192,49.548 192,57.112 L192,114.226 C192,122.109 199.164,128.502 208,128.502 C199.164,128.501 192,134.896 192,142.778 Z" id="Path" fill="#000000"></path>
    </g>
</svg>