<?xml version="1.0" encoding="utf-8"?>
<!DOCTYPE svg PUBLIC "-//W3C//DTD SVG 1.1//EN" "http://www.w3.org/Graphics/SVG/1.1/DTD/svg11.dtd">
<svg version="1.1" xmlns="http://www.w3.org/2000/svg" xmlns:xlink="http://www.w3.org/1999/xlink" width="512" height="512" viewBox="0 0 512 512">
<g>
</g>
	<path d="M460.8 25.6h-409.6c-28.16 0-51.2 23.040-51.2 51.2v307.2c0 28.16 23.040 50.688 51.2 50.688h101.888v-50.176h-102.4v-236.032h410.624v236.032h-102.4v50.202h101.888c28.185 0 51.2-22.553 51.2-50.688v-307.226c0-28.16-23.014-51.2-51.2-51.2zM66.585 110.848c-10.624 0-19.2-8.371-19.2-18.688s8.576-18.688 19.2-18.688c10.599 0 19.2 8.371 19.2 18.688s-8.602 18.688-19.2 18.688zM117.785 110.848c-10.624 0-19.2-8.371-19.2-18.688s8.576-18.688 19.2-18.688c10.598 0 19.2 8.371 19.2 18.688s-8.601 18.688-19.2 18.688zM461.337 108.032h-308.25v-31.744h308.224v31.744zM254.669 209.255l-124.211 123.443h76.8v153.702h94.822v-153.702h76.8l-124.211-123.443z" fill="#000000"></path>
</svg>
