<?xml version="1.0" encoding="UTF-8"?>
<svg version="1.1" id="Layer_1" xmlns="http://www.w3.org/2000/svg" xmlns:xlink="http://www.w3.org/1999/xlink" x="0px" y="0px"
	 viewBox="0 0 512 512" style="enable-background:new 0 0 512 512;" xml:space="preserve">
<g>
	<g>
		<path d="M437.02,74.98C388.667,26.628,324.381,0,256,0S123.333,26.628,74.98,74.98C26.628,123.333,0,187.62,0,256
			s26.628,132.667,74.98,181.02C123.333,485.372,187.619,512,256,512s132.667-26.628,181.02-74.98
			C485.372,388.667,512,324.38,512,256S485.372,123.333,437.02,74.98z M256,478.609c-122.746,0-222.609-99.862-222.609-222.609
			S133.254,33.391,256,33.391S478.609,133.254,478.609,256S378.746,478.609,256,478.609z"/>
	</g>
</g>
<g>
	<g>
		<path d="M256,79.273c-97.448,0-176.727,79.28-176.727,176.727S158.552,432.727,256,432.727S432.727,353.448,432.727,256
			S353.448,79.273,256,79.273z M256,112.664c46.969,0,88.734,22.709,114.892,57.725l-57.367,33.121
			c-14.257-15.612-34.765-25.423-57.524-25.423s-43.267,9.811-57.524,25.423l-57.367-33.121
			C167.266,135.374,209.031,112.664,256,112.664z M239.304,398.358c-71.198-8.298-126.64-68.97-126.64-142.358
			c0-20.136,4.182-39.313,11.71-56.716l57.374,33.125c-2.373,7.446-3.662,15.37-3.662,23.591c0,37.23,26.254,68.427,61.217,76.093
			V398.358z M211.478,256c0-24.549,19.972-44.522,44.522-44.522c24.549,0,44.522,19.972,44.522,44.522
			c0,24.549-19.972,44.522-44.522,44.522C231.451,300.522,211.478,280.549,211.478,256z M272.696,398.358v-66.265
			c34.963-7.666,61.217-38.863,61.217-76.093c0-8.221-1.289-16.145-3.661-23.591l57.374-33.125
			c7.528,17.404,11.71,36.579,11.71,56.716C399.336,329.388,343.894,390.061,272.696,398.358z"/>
	</g>
</g>
</svg>
