<?xml version="1.0" encoding="UTF-8"?>
<svg width="493px" height="467px" viewBox="0 0 493 467" version="1.1" xmlns="http://www.w3.org/2000/svg" xmlns:xlink="http://www.w3.org/1999/xlink">
    <path d="M265,431.077 L265,467.001 L227.538462,467.001 L227.538462,431.077923 L265,431.077 Z M493,431.077923 L493,467.001 L417.153846,467.001 L417.153846,431.077923 L493,431.077923 Z M187,293.001 L187,430.001 L189.616,430.001 L189.615385,467.001 L0,467.001 L0,293.001 L187,293.001 Z M341.308,431.077 L341.307692,467.001 L304,467.001 L304,431.077 L341.308,431.077 Z M151.692308,323.308692 L37.9230769,323.308692 L37.9230769,431.077923 L151.692308,431.077923 L151.692308,323.308692 Z M379.230769,395.154846 L379.230769,431.077923 L341.308,431.077 L341.308,395.154 L379.230769,395.154846 Z M303.384615,395.154846 L303.384,431 L265.461,431 L265.461538,395.154846 L303.384615,395.154846 Z M454,359.231 L454,395.154 L417.153846,395.154846 L417.154,359.231 L454,359.231 Z M113.769231,359.231769 L113.769231,395.154846 L75.8461538,395.154846 L75.8461538,359.231769 L113.769231,359.231769 Z M265.461538,323.308692 L265.461538,359.231769 L230,359.231 L230,323.308 L265.461538,323.308692 Z M417.153846,323.308692 L417.154,359.231 L379.230769,359.231769 L379.231,324 L380,324 L380,323.308 L417.153846,323.308692 Z M341,323 L341,324 L341.307,324 L341.307692,359.231769 L303.384615,359.231769 L303.384,323 L341,323 Z M493,323.308692 L493,359 L455.076,359 L455.076923,323.308692 L493,323.308692 Z M455.077,251.462 L455.077,287.385 L417.153846,287.385615 L417.153846,251.462538 L455.077,251.462 Z M303.384615,251.462538 L303.384,287 L303,287 L303,287.385 L265.461538,287.385615 L265.461538,251.462538 L303.384615,251.462538 Z M341.308,251.462 L379.230769,251.462538 L379.23,287 L341.307,287 L341.308,251.462 Z M341.307692,215.539462 L341.308,251.462 L303.384615,251.462538 L303.384615,215.539462 L341.307692,215.539462 Z M493,215.539462 L493,251.462538 L455.077,251.462 L455.076923,215.539462 L493,215.539462 Z M265.461,215 L265.461538,251.462538 L230,251.462 L230,215 L265.461,215 Z M30,215.539 L30,250 L0,250.001 L5.68434189e-14,215.539462 L30,215.539 Z M187,215.539 L187,250.001 L113.769,250.001 L113.769,216 L115,216 L115,215.539 L187,215.539 Z M75.8461538,215.539462 L75.846,250.001 L47,250 L47,215.539 L75.8461538,215.539462 Z M189.615385,0.001 L189.615385,179.616385 L189,179.616 L189,179.001 L0,179.001 L5.68434189e-14,0.001 L189.615385,0.001 Z M493,0.001 L493,179.616385 L303.384615,179.616385 L303.384615,71.8471538 L303,71.847 L303,35.924 L303.384615,35.9240769 L303.384615,0.001 L493,0.001 Z M264,71.846 L264,143.693 L227.538462,143.693308 L227.538462,71.8471538 L264,71.846 Z M455.076923,35.9240769 L341.307692,35.9240769 L341.307692,143.693308 L455.076923,143.693308 L455.076923,35.9240769 Z M151.692308,35.9240769 L37.9230769,35.9240769 L37.9230769,143.693308 L151.692308,143.693308 L151.692308,35.9240769 Z M417.153846,71.8471538 L417.153846,107.770231 L379.230769,107.770231 L379.230769,71.8471538 L417.153846,71.8471538 Z M113.769231,71.8471538 L113.769231,107.770231 L75.8461538,107.770231 L75.8461538,71.8471538 L113.769231,71.8471538 Z M265,-2.84217094e-14 L265,35.924 L227.538462,35.9240769 L227.538462,0.001 L265,-2.84217094e-14 Z" id="Combined-Shape" fill="#000000" fill-rule="nonzero"></path>
</svg>