<?xml version="1.0" encoding="utf-8"?>
<!DOCTYPE svg  PUBLIC '-//W3C//DTD SVG 1.1//EN'  'http://www.w3.org/Graphics/SVG/1.1/DTD/svg11.dtd'>
<svg xmlns="http://www.w3.org/2000/svg" version="1.1" xmlns:xlink="http://www.w3.org/1999/xlink" width="512" height="512" x="0" y="0" viewBox="0 0 64 64" style="enable-background:new 0 0 512 512" xml:space="preserve" class=""><g><path d="M59.4 25.122a5.005 5.005 0 0 0-7.07 0l-2.126 2.127-.204.204V15.108a1 1 0 0 0-.293-.707L38.598 3.293A1 1 0 0 0 37.891 3H5.851A2.855 2.855 0 0 0 3 5.852v52.297A2.855 2.855 0 0 0 5.852 61h41.297A2.855 2.855 0 0 0 50 58.15V41.594l7.275-7.275 2.126-2.126a5.005 5.005 0 0 0 0-7.07zM38.892 6.414l7.695 7.695h-6.843a.852.852 0 0 1-.852-.852zM48 58.148c0 .47-.382.852-.852.852H5.852A.852.852 0 0 1 5 58.148V5.852c0-.47.382-.852.852-.852h31.04v8.257a2.855 2.855 0 0 0 2.85 2.852H48v13.344L34.817 42.636a1 1 0 0 0-.293.707l-.001 5.658a1 1 0 0 0 1 1l5.658-.002a1 1 0 0 0 .706-.293L48 43.594zm.293-17.676v.001l-7.527 7.526-4.244.001.001-4.243 13.184-13.183 1.204-1.204 4.243 4.242zm9.694-9.693-1.42 1.42-4.242-4.244 1.42-1.419a3.004 3.004 0 0 1 4.242 0 3.004 3.004 0 0 1 0 4.243z" fill="#000000" opacity="1" data-original="#000000" class=""></path><path d="M23.013 15.97H31a1 1 0 0 0 0-2h-7.987a1 1 0 0 0 0 2zM23.013 27.314H38.65a1 1 0 0 0 0-2H23.012a1 1 0 0 0 0 2zM31 36.657h-7.987a1 1 0 0 0 0 2H31a1 1 0 0 0 0-2zM31 48.001h-7.987a1 1 0 0 0 0 2H31a1 1 0 0 0 0-2zM16.294 11.706h-2.589c-1.103 0-2 .897-2 2v2.589c0 1.102.897 2 2 2h2.59c1.102 0 2-.898 2-2v-2.59c0-1.102-.898-2-2-2zm-2.589 4.589v-2.59h2.59v2.59h-2.59zM16.294 23.02h-2.589c-1.103 0-2 .897-2 2v2.588c0 1.103.897 2 2 2h2.59c1.102 0 2-.897 2-2V25.02c0-1.103-.898-2-2-2zm-2.589 4.588V25.02h2.59v2.588h-2.59zM16.294 34.334h-2.589c-1.103 0-2 .897-2 2v2.588c0 1.103.897 2 2 2h2.59c1.102 0 2-.897 2-2v-2.588c0-1.103-.898-2-2-2zm-2.589 4.588v-2.588h2.59v2.588h-2.59zM16.294 45.648h-2.589c-1.103 0-2 .897-2 2v2.589c0 1.103.897 2 2 2h2.59c1.102 0 2-.897 2-2v-2.589c0-1.103-.898-2-2-2zm-2.589 4.589v-2.589h2.59v2.589h-2.59z" fill="#000000" opacity="1" data-original="#000000" class=""></path></g></svg>