<?xml version="1.0" encoding="utf-8"?>
<!DOCTYPE svg PUBLIC "-//W3C//DTD SVG 1.1//EN" "http://www.w3.org/Graphics/SVG/1.1/DTD/svg11.dtd">
<svg version="1.1" id="Capa_1" xmlns="http://www.w3.org/2000/svg" xmlns:xlink="http://www.w3.org/1999/xlink" x="0px" y="0px"
	 width="777.891px" height="777.891px" viewBox="0 0 777.891 777.891" enable-background="new 0 0 777.891 777.891"
	 xml:space="preserve">
<path d="M586.628,205.296l27.216-26.688c0.909-0.892,0.909-2.332,0-3.222c-0.908-0.891-2.375-0.891-3.285,0l-27.216,26.687
	c-48.146-46.415-113.945-75.267-186.495-75.874V88.578c0-1.26-1.039-2.278-2.323-2.278c-1.283,0-2.323,1.019-2.323,2.278v37.621
	c-72.549,0.606-138.343,29.458-186.493,75.874l-27.216-26.687c-0.908-0.891-2.375-0.891-3.287,0c-0.907,0.893-0.907,2.332,0,3.222
	l27.216,26.688c-38.168,38.07-64.686,87.391-73.851,142.37c-1.815-0.277-3.66-0.469-5.553-0.469
	c-20.063,0-36.331,15.961-36.331,35.636c0,1.823,0.183,3.595,0.454,5.345h-0.454c-1.282,0-2.324,1.019-2.324,2.278
	s1.041,2.278,2.324,2.278h1.451c4.38,14.85,18.325,25.718,34.88,25.718c1.181,0,2.342-0.069,3.494-0.174
	c6.536,60.976,34.311,115.843,75.91,157.339l-27.216,26.688c-0.907,0.892-0.907,2.331,0,3.221c0.454,0.446,1.049,0.669,1.644,0.669
	c0.594,0,1.188-0.223,1.643-0.669l27.216-26.687c48.147,46.416,113.943,75.269,186.493,75.874v37.622c0,1.26,1.04,2.278,2.323,2.278
	c1.284,0,2.323-1.019,2.323-2.278v-37.624c72.55-0.607,138.344-29.46,186.495-75.876l27.216,26.688
	c0.452,0.444,1.048,0.668,1.644,0.668c0.593,0,1.187-0.224,1.64-0.668c0.91-0.889,0.91-2.329,0-3.221l-27.215-26.688
	c47.334-47.217,76.756-111.739,77.373-182.881h38.363c1.282,0,2.325-1.019,2.325-2.278s-1.041-2.278-2.325-2.278H664
	C663.384,317.033,633.962,252.509,586.628,205.296z M659.356,388.176H545.04l-11.308-95.596
	c12.236-5.724,20.702-17.941,20.702-32.119c0-6.756-1.951-13.045-5.274-18.427l34.183-33.522
	C629.838,254.906,658.737,318.291,659.356,388.176z M522.625,398.715c-12.236,5.729-20.705,17.945-20.705,32.125
	c0,7.189,2.191,13.871,5.927,19.47l-21.487,26.981l-14.692-14.411c17.895-18.321,29.078-42.97,29.673-70.146h20.575L522.625,398.715
	z M313.959,472.685l6.715-6.585c18.683,17.545,43.818,28.515,71.532,29.098v80.403c-4.102,0.273-8.023,1.176-11.637,2.682
	l-68.944-75.673c2.962-5.155,4.672-11.094,4.672-17.441C316.296,480.769,315.446,476.575,313.959,472.685z M279.967,449.533
	c-8.321,0-15.964,2.781-22.089,7.399l-98.43-64.2h128.265c0.599,27.176,11.779,51.825,29.677,70.147l-5.458,5.349
	C305.789,457.095,293.776,449.533,279.967,449.533z M159.259,381.01l156.789-61.597c-17.116,18.17-27.751,42.271-28.335,68.765
	H158.904c0.281-1.743,0.449-3.52,0.449-5.345C159.353,382.22,159.294,381.616,159.259,381.01z M396.849,311.635
	c12.112-0.69,22.626-7.174,28.689-16.697c14.978,4.688,28.451,12.681,39.557,23.094l-68.246,66.923V311.635z M367.205,299.314
	c6.15,7.003,15.019,11.6,25.001,12.273v73.368l-68.246-66.923c1.12-1.051,2.261-2.073,3.429-3.073L367.205,299.314z
	 M388.918,388.176H292.36c0.594-25.917,11.259-49.427,28.313-66.922L388.918,388.176z M388.918,392.732l-68.245,66.924
	c-17.055-17.497-27.72-41.004-28.313-66.924H388.918z M392.203,395.954v94.689c-26.43-0.585-50.403-11.041-68.246-27.764
	L392.203,395.954z M396.849,395.954l68.246,66.922c-17.84,16.727-41.813,27.183-68.246,27.764V395.954z M400.135,392.732h96.559
	c-0.597,25.92-11.259,49.427-28.315,66.924L400.135,392.732z M400.135,388.176l68.244-66.922
	c17.057,17.495,27.719,41.005,28.315,66.922H400.135z M468.379,314.811c-11.423-10.73-25.255-19.001-40.62-23.946
	c1.128-2.428,2.017-4.987,2.57-7.669l55.226-6.988c2.372,4.702,5.771,8.803,9.901,12.053L468.379,314.811z M396.849,495.198
	c27.71-0.583,52.848-11.55,71.53-29.098l15.103,14.811l-76.881,96.547c-3.087-1.047-6.358-1.691-9.752-1.889V495.198
	L396.849,495.198z M501.34,388.176c-0.595-27.176-11.778-51.821-29.673-70.146l27.654-27.119c3.372,2.009,7.092,3.51,11.072,4.356
	l10.984,92.908H501.34L501.34,388.176z M580.06,205.293l-33.587,32.935c-6.655-8.161-16.881-13.401-28.368-13.401
	c-17.584,0-32.246,12.248-35.604,28.53l-55.224,6.986c-5.636-11.179-17.048-19.038-30.428-19.799V130.753
	C468.118,131.362,532.752,159.701,580.06,205.293z M392.203,130.756v109.84c-18.886,1.274-33.815,16.655-33.815,35.496
	c0,0.611,0.064,1.214,0.092,1.822l-53.856,21.158l-95.632-93.779C256.301,159.701,320.936,131.362,392.203,130.756z M205.71,208.513
	l94.227,92.402l-149.4,58.697c-4.535-5.174-10.568-9.009-17.42-10.961C142.086,294.538,168.161,245.983,205.71,208.513z
	 M131.106,417.531c5.171-1.164,9.93-3.39,14.004-6.463l99.756,65.045c-0.777,2.895-1.234,5.92-1.234,9.056
	c0,13.542,7.708,25.321,19.057,31.353l-56.979,55.875C164.782,531.555,137.477,477.555,131.106,417.531z M208.995,575.617
	l58.236-57.11c3.967,1.46,8.247,2.296,12.731,2.296c5.021,0,9.807-1.006,14.154-2.802l68.943,75.657
	c-2.962,5.153-4.672,11.109-4.672,17.444c0,18.852,14.93,34.236,33.815,35.509v3.546
	C320.936,649.549,256.301,621.208,208.995,575.617z M396.849,650.154v-3.524c19.069-1.089,34.202-16.55,34.202-35.529
	c0-7.177-2.189-13.856-5.926-19.458l75.097-94.318l79.839,78.291C532.752,621.208,468.118,649.549,396.849,650.154z
	 M583.343,572.396l-80.241-78.688l23.27-29.227c3.729,1.265,7.714,1.991,11.877,1.991c20.065,0,36.334-15.958,36.334-35.634
	c0-17.073-12.264-31.327-28.615-34.808l-0.39-3.298h113.778C658.737,462.619,629.838,526.003,583.343,572.396z"/>
<g>
	<path d="M390.949,3.647C176.105,3.647,1.328,175.04,1.328,385.721c0,210.681,174.775,382.072,389.621,382.072
		c214.843,0,389.613-171.391,389.613-382.072C780.562,175.041,605.792,3.647,390.949,3.647z M390.949,739.95
		c-199.179,0-361.228-158.91-361.228-354.229c0-195.32,162.049-354.23,361.228-354.23c199.173,0,361.222,158.91,361.222,354.23
		C752.171,581.04,590.122,739.95,390.949,739.95z"/>
</g>
</svg>
