<?xml version="1.0" encoding="UTF-8"?>
<svg width="441px" height="422px" viewBox="0 0 441 422" version="1.1" xmlns="http://www.w3.org/2000/svg" xmlns:xlink="http://www.w3.org/1999/xlink">
    <g id="Page-1" stroke="none" stroke-width="1" fill="none" fill-rule="evenodd">
        <path d="M363,0 C406.07821,0 441,34.9217895 441,78 L441,344 C441,387.07821 406.07821,422 363,422 L78,422 C34.9217895,422 0,387.07821 0,344 L0,78 C0,34.9217895 34.9217895,0 78,0 L363,0 Z M363,23 L78,23 C47.9280954,23 23.4930619,47.1343144 23.0073684,77.0904744 L23,78 L23,344 C23,374.071905 47.1343144,398.506938 77.0904744,398.992632 L78,399 L363,399 C393.071905,399 417.506938,374.865686 417.992632,344.909526 L418,344 L418,78 C418,47.9280954 393.865686,23.4930619 363.909526,23.0073684 L363,23 Z" id="Rectangle" fill="#000000" fill-rule="nonzero"></path>
        <circle id="Oval" fill="#000000" cx="155.5" cy="153.5" r="44.5"></circle>
        <circle id="Oval-Copy-6" fill="#000000" cx="284.5" cy="269.5" r="44.5"></circle>
    </g>
</svg>