<?xml version="1.0" encoding="UTF-8"?>
<svg width="426px" height="425px" viewBox="0 0 426 425" version="1.1" xmlns="http://www.w3.org/2000/svg" xmlns:xlink="http://www.w3.org/1999/xlink">
    <g id="Page-1" stroke="none" stroke-width="1" fill="none" fill-rule="evenodd">
        <rect fill="none" transform="translate(212.500000, 212.500000) rotate(180.000000) translate(-212.500000, -212.500000) " x="0" y="0" width="425" height="425"></rect>
        <g transform="translate(1.000000, 64.000000)" fill="#000000" fill-rule="nonzero">
            <path d="M413.163318,261.673644 L413.163318,49.9957778 C418.733521,44.7170889 422.214898,37.24668 422.214898,28.9577778 C422.214898,12.9647111 409.278101,0 393.319468,0 C383.898165,0 375.532415,4.52090222 370.257432,11.5133333 L54.0462921,11.5133333 C48.7713094,4.52090222 40.40556,0 30.984257,0 C15.025624,0 2.08882632,12.9647111 2.08882632,28.9577778 C2.08882632,38.5550133 6.75108665,47.0574356 13.9255088,52.3263556 L13.9255088,260.269018 C5.57786254,265.346049 0,274.541364 0,285.042222 C0,301.035289 12.9367976,314 28.8954307,314 C37.9985358,314 46.113626,309.777049 51.4101933,303.184444 L373.589807,303.184444 C378.885678,309.777049 387.001464,314 396.104569,314 C412.063202,314 425,301.035289 425,285.042222 C425,275.444987 420.338436,266.942564 413.163318,261.673644 Z M397.613833,271.125044 C405.582706,271.125044 412.042749,277.599027 412.042749,285.584396 C412.042749,293.57116 405.583402,300.044444 397.613833,300.044444 C389.646354,300.044444 383.185614,293.57116 383.185614,285.584396 C383.185614,277.599724 389.645657,271.125044 397.613833,271.125044 Z M395.525007,14.34352 C403.493879,14.34352 409.953923,20.8175022 409.953923,28.8028711 C409.953923,36.7889378 403.494576,43.2622222 395.525007,43.2622222 C387.557527,43.2622222 381.096787,36.7889378 381.096787,28.8028711 C381.097484,20.8168044 387.557527,14.34352 395.525007,14.34352 Z M30.1334084,14.34352 C38.1022808,14.34352 44.5616281,20.8175022 44.5616281,28.8028711 C44.5616281,36.7889378 38.1022808,43.2622222 30.1334084,43.2622222 C22.1652323,43.2622222 15.7051888,36.7889378 15.7051888,28.8028711 C15.7051888,20.8168044 22.164536,14.34352 30.1334084,14.34352 Z M28.0445821,300.044444 C20.076406,300.044444 13.6163625,293.57116 13.6163625,285.584396 C13.6163625,277.599724 20.076406,271.125044 28.0445821,271.125044 C36.0134545,271.125044 42.4728017,277.599027 42.4728017,285.584396 C42.4728017,293.57116 36.0134545,300.044444 28.0445821,300.044444 Z M370.641037,277.715556 L56.8557635,277.715556 C54.5371663,268.806329 48.0910483,261.573862 39.6877,258.180569 L39.6877,56.57652 C48.8757507,53.6709733 56.0731499,46.2877867 58.7468476,36.9822222 L368.053677,36.9822222 C370.99196,47.2095511 379.396004,55.1139778 389.897927,57.305 L389.897927,257.424178 C380.480801,260.401596 373.147628,268.08064 370.641037,277.715556 Z" id="Shape"></path>
        </g>
    </g>
</svg>