<?xml version="1.0" encoding="utf-8"?>
<!DOCTYPE svg PUBLIC "-//W3C//DTD SVG 1.1//EN" "http://www.w3.org/Graphics/SVG/1.1/DTD/svg11.dtd">
<svg version="1.1" id="Layer_1" xmlns="http://www.w3.org/2000/svg" xmlns:xlink="http://www.w3.org/1999/xlink" x="0px" y="0px"
	 width="512px" height="512px" viewBox="0 0 512 512" enable-background="new 0 0 512 512" xml:space="preserve">
<path d="M61.754,268.618c-0.213-0.084-0.419-0.167-0.633-0.251c-6.353-2.449-12.937-4.181-19.621-5.521
	c-8.677-1.738-17.485-3.036-26.101-5.046c2.617-17.465,7.467-34.897,14.725-51.939C72.986,105.205,184.575,52.938,289.508,79.398
	L320.765,6l74.239,147.436l-159.323,52.369l35.364-83.047c-34.191-7.26-69.787-4.25-102.829,9.064
	c-42.954,17.306-76.442,49.931-94.301,91.864C67.707,238.265,63.662,253.362,61.754,268.618z"/>
<path d="M144.945,227.605v274.093h351.656V227.605H144.945z M454.312,461.639h-267.08V267.666h267.08V461.639z"/>
</svg>
