<?xml version="1.0" encoding="utf-8"?>
<!DOCTYPE svg PUBLIC "-//W3C//DTD SVG 1.1//EN" "http://www.w3.org/Graphics/SVG/1.1/DTD/svg11.dtd">
<svg version="1.1" id="Layer_1" xmlns="http://www.w3.org/2000/svg" xmlns:xlink="http://www.w3.org/1999/xlink" x="0px" y="0px"
	 width="512px" height="512px" viewBox="0 0 512 512" enable-background="new 0 0 512 512" xml:space="preserve">
<path d="M512,240.5h-87.626C417.425,158.734,352.266,93.575,270.5,86.626V-1h-33.001v88.012
	c-79.882,8.7-143.037,73.06-149.873,153.488H0v33h88.013c8.554,78.554,70.933,140.933,149.486,149.487V511H270.5v-87.626
	c80.428-6.836,144.789-69.991,153.488-149.874H512V240.5z M389.72,240.5H270.5V121.28C333.198,128.001,382.998,177.802,389.72,240.5
	z M237.499,121.772V240.5H122.28C128.858,179.142,176.693,130.139,237.499,121.772z M122.772,273.5h114.726v114.728
	C178.021,380.043,130.956,332.978,122.772,273.5z M270.5,388.72V273.5h118.728C380.861,334.306,331.858,382.142,270.5,388.72z"/>
</svg>
