<?xml version="1.0" encoding="UTF-8"?>
<svg width="482px" height="496px" viewBox="0 0 482 496" version="1.1" xmlns="http://www.w3.org/2000/svg" xmlns:xlink="http://www.w3.org/1999/xlink">
	<g id="rotate-right" transform="translate(241.000000, 248.000000) scale(-1, 1) translate(-241.000000, -248.000000) " fill="#000000" fill-rule="nonzero">
		<path d="M46.754,262.618 C46.541,262.534 46.335,262.451 46.121,262.367 C39.768,259.918 33.184,258.186 26.5,256.846 C17.823,255.108 9.015,253.81 0.399,251.8 C3.016,234.335 7.866,216.903 15.124,199.861 C57.986,99.205 169.575,46.938 274.508,73.398 L305.765,0 L380.004,147.436 L220.681,199.805 L256.045,116.758 C221.854,109.498 186.258,112.508 153.216,125.822 C110.262,143.128 76.774,175.753 58.915,217.686 C52.707,232.265 48.662,247.362 46.754,262.618 Z" id="Path"></path>
		<path d="M129.945,221.605 L129.945,495.698 L481.601,495.698 L481.601,221.605 L129.945,221.605 Z M439.312,455.639 L172.232,455.639 L172.232,261.666 L439.312,261.666 L439.312,455.639 Z" id="Shape"></path>
	</g>
</svg>