<?xml version="1.0" encoding="utf-8"?>
<!DOCTYPE svg PUBLIC "-//W3C//DTD SVG 1.1//EN" "http://www.w3.org/Graphics/SVG/1.1/DTD/svg11.dtd">
<svg version="1.1" id="Layer_1" xmlns="http://www.w3.org/2000/svg" xmlns:xlink="http://www.w3.org/1999/xlink" x="0px" y="0px"
	 width="512px" height="512px" viewBox="0 0 512 512" enable-background="new 0 0 512 512" xml:space="preserve">
<rect y="137.5" width="60.5" height="245"/>
<rect x="451.5" y="137.5" width="60.5" height="245"/>
<polygon points="277.057,249.004 277.057,244.26 277.057,144.252 338.172,144.252 256.5,79.5 174.828,144.252 235.942,144.252
	235.942,244.26 235.942,249.004 235.942,369.012 174.828,369.012 256.5,433.763 338.172,369.012 277.057,369.012 "/>
<rect x="141.5" width="235" height="60.5"/>
<rect x="141.5" y="451.5" width="235" height="60.5"/>
<polygon points="248.873,236.074 244.129,236.074 144.121,236.074 144.121,174.959 79.369,256.631 144.121,338.303 144.121,277.188
	244.129,277.188 248.873,277.188 368.881,277.188 368.881,339.303 433.631,256.631 368.881,175.959 368.881,236.074 "/>
</svg>
