<?xml version="1.0" encoding="UTF-8"?>
<svg width="520px" height="518px" viewBox="0 0 520 518" version="1.1" xmlns="http://www.w3.org/2000/svg" xmlns:xlink="http://www.w3.org/1999/xlink">
    <g stroke="none" stroke-width="1" fill="none" fill-rule="evenodd">
        <rect fill="none" x="0" y="0" width="463" height="463"></rect>
        <g id="line-curve2-copy-21" transform="translate(261.405592, 259.784271) rotate(-45.000000) translate(-261.405592, -259.784271) translate(-11.094408, 167.784271)" fill="#444444" fill-rule="nonzero">
            <path d="M23.8227788,25.085595 C61.5028168,62.6335761 96.2622142,89.5839067 128.100971,105.936587 C175.859106,130.465607 206.355607,144.906383 251.34671,148.255146 C301.88207,152.016576 394.709556,109.921812 516.491258,2.8931917 C517.044207,2.40722895 517.947873,1.68541037 519.202257,0.727735953 L544.551804,26.077283 C542.408178,27.8262231 540.833264,29.1378494 539.827061,30.0121617 C408.803213,143.861679 312.788198,188.662487 247.244148,183.463772 C194.826931,179.306229 163.594944,161.459791 114.495244,136.224937 C92.3772897,124.857386 54.3727654,95.5913079 0.481671215,48.4267026 L23.8227788,25.085595 Z" id="Rectangle"></path>
        </g>
    </g>
</svg>