<?xml version="1.0" encoding="utf-8"?>
<!DOCTYPE svg PUBLIC "-//W3C//DTD SVG 1.1//EN" "http://www.w3.org/Graphics/SVG/1.1/DTD/svg11.dtd">
<svg version="1.1" xmlns="http://www.w3.org/2000/svg" xmlns:xlink="http://www.w3.org/1999/xlink" width="512" height="512" viewBox="0 0 512 512">
<g>
</g>
	<path d="M445.387 354.577c-22.827-22.778-51.864-34.536-78.973-34.536h-14.556l-31.952-32.004 127.81-128.019c31.952-32.005 31.952-96.014 0-128.019l-191.715 192.028-191.716-192.027c-31.952 32.004-31.952 96.014 0 128.019l127.811 128.017-31.953 32.004h-14.557c-27.11 0-56.146 11.759-78.974 34.538-40.811 40.721-46.325 101.242-12.315 135.175 14.985 14.951 35.144 22.247 56.498 22.247 27.108 0 56.145-11.757 78.973-34.536 26.792-26.732 38.371-62 33.542-92.674l32.692-32.744 32.688 32.744c-4.828 30.674 6.753 65.941 33.542 92.674 22.831 22.779 51.866 34.536 78.974 34.536 21.354 0 41.512-7.296 56.497-22.248 34.010-33.933 28.494-94.454-12.316-135.175zM176.512 422.769c-3.849 8.941-9.505 17.173-16.813 24.463-7.318 7.302-15.586 12.959-24.574 16.812-8.066 3.458-16.48 5.284-24.331 5.284-7.573 0-18.306-1.701-26.431-9.806-8.068-8.052-9.76-18.659-9.76-26.144 0-7.771 1.821-16.105 5.263-24.106 3.85-8.942 9.507-17.173 16.813-24.463 7.317-7.303 15.586-12.957 24.575-16.812 8.067-3.457 16.48-5.284 24.332-5.284 7.573 0 18.306 1.7 26.429 9.807 8.067 8.049 9.761 18.658 9.761 26.142 0.001 7.771-1.819 16.108-5.264 24.107zM256.002 333.298c-24.957 0-45.188-20.266-45.188-45.263 0-24.996 20.231-45.26 45.188-45.26s45.186 20.264 45.186 45.26c0 24.999-20.23 45.263-45.186 45.263zM427.636 459.521c-8.124 8.104-18.856 9.806-26.43 9.806-7.852 0-16.265-1.826-24.333-5.284-8.986-3.853-17.254-9.51-24.571-16.812-7.307-7.29-12.963-15.521-16.813-24.463-3.443-7.999-5.263-16.336-5.263-24.106 0-7.483 1.692-18.094 9.76-26.143 8.123-8.104 18.856-9.807 26.43-9.807 7.85 0 16.265 1.827 24.33 5.284 8.989 3.854 17.258 9.509 24.575 16.812 7.305 7.29 12.962 15.521 16.813 24.463 3.442 7.999 5.263 16.335 5.263 24.106-0.001 7.485-1.695 18.093-9.761 26.144z" fill="#000000"></path>
</svg>
