<?xml version="1.0" encoding="utf-8"?>
<!DOCTYPE svg PUBLIC "-//W3C//DTD SVG 1.1//EN" "http://www.w3.org/Graphics/SVG/1.1/DTD/svg11.dtd">
<svg version="1.1" id="Layer_1" xmlns="http://www.w3.org/2000/svg" xmlns:xlink="http://www.w3.org/1999/xlink" x="0px" y="0px"
	 width="512px" height="512px" viewBox="0 0 512 512" enable-background="new 0 0 512 512" xml:space="preserve">
<path fill="#444444" d="M496.131,435.698L374.855,332.551c-12.537-11.283-25.945-16.463-36.776-15.963
	C366.707,283.055,384,239.549,384,192C384,85.961,298.039,0,192,0S0,85.961,0,192s85.961,192,192,192
	c47.549,0,91.055-17.293,124.588-45.922c-0.5,10.831,4.68,24.238,15.963,36.775L435.698,496.13
	c17.661,19.623,46.511,21.277,64.109,3.678C517.407,482.209,515.754,453.359,496.131,435.698L496.131,435.698z M192,320
	c-70.692,0-128-57.309-128-128c0-70.692,57.308-128,128-128c70.691,0,128,57.308,128,128C320,262.691,262.693,320,192,320z"/>
</svg>
