<?xml version="1.0" encoding="utf-8"?>
<!DOCTYPE svg PUBLIC "-//W3C//DTD SVG 1.1//EN" "http://www.w3.org/Graphics/SVG/1.1/DTD/svg11.dtd">
<svg version="1.1" id="Layer_1" xmlns="http://www.w3.org/2000/svg" xmlns:xlink="http://www.w3.org/1999/xlink" x="0px" y="0px"
	 width="512px" height="512px" viewBox="0 0 512 512" enable-background="new 0 0 512 512" xml:space="preserve">
<polygon fill="#444444" points="115.532,168.212 58.719,168.212 58.719,225.026 115.532,225.026 115.532,168.212 "/>
<polygon fill="#444444" points="115.532,281.84 58.719,281.84 58.719,338.654 115.532,338.654 115.532,281.841 "/>
<path fill="#444444" d="M115.532,54.585c-31.389,0-56.813,25.425-56.813,56.813h56.813V54.585z"/>
<rect x="172.348" y="395.468" fill="#444444" width="56.812" height="56.813"/>
<path fill="#444444" d="M399.603,54.585v56.813h56.812C456.415,80.009,430.99,54.585,399.603,54.585L399.603,54.585z"/>
<rect x="172.348" y="54.585" fill="#444444" width="56.812" height="56.813"/>
<path fill="#444444" d="M115.532,452.281v-56.813H58.719C58.719,426.859,84.145,452.281,115.532,452.281L115.532,452.281z"/>
<polygon fill="#444444" points="399.603,338.654 456.415,338.654 456.415,281.841 399.604,281.841 399.604,338.654 "/>
<polygon fill="#444444" points="399.603,225.026 456.415,225.026 456.415,168.213 399.604,168.213 399.604,225.026 "/>
<path fill="#444444" d="M399.603,452.281c31.39,0,56.812-25.426,56.812-56.813h-56.812V452.281L399.603,452.281z"/>
<rect x="285.975" y="54.585" fill="#444444" width="56.812" height="56.813"/>
<polygon fill="#444444" points="285.975,452.281 342.787,452.281 342.787,395.468 285.975,395.468 285.975,452.281 "/>
</svg>
