<?xml version="1.0" encoding="utf-8"?>
<!DOCTYPE svg PUBLIC "-//W3C//DTD SVG 1.1//EN" "http://www.w3.org/Graphics/SVG/1.1/DTD/svg11.dtd">
<svg version="1.1" id="Layer_1" xmlns="http://www.w3.org/2000/svg" xmlns:xlink="http://www.w3.org/1999/xlink" x="0px" y="0px"
	 width="512px" height="512px" viewBox="0 0 512 512" enable-background="new 0 0 512 512" xml:space="preserve">
<path fill="#444444" d="M35.2,280.534h49.066v-49.065H35.2V280.534z M35.2,378.666h49.066v-49.065H35.2V378.666L35.2,378.666z
	 M84.266,476.8v-49.065H35.2C35.2,454.845,57.158,476.8,84.266,476.8z M35.2,182.4h49.066v-49.066H35.2V182.4z M329.6,476.8h49.066
	v-49.065H329.6V476.8z M427.734,35.2H182.401c-27.108,0-49.067,21.958-49.067,49.066v245.334c0,27.11,21.959,49.065,49.066,49.065
	h245.333c27.111,0,49.066-21.958,49.066-49.065V84.268c0-27.109-21.959-49.066-49.066-49.066L427.734,35.2z M427.734,329.601
	H182.401V84.268h245.333V329.601z M231.466,476.8h49.067v-49.065h-49.065V476.8H231.466z M133.333,476.8H182.4v-49.065h-49.066
	L133.333,476.8L133.333,476.8z"/>
</svg>
