<?xml version="1.0" encoding="utf-8"?>
<!DOCTYPE svg PUBLIC "-//W3C//DTD SVG 1.1//EN" "http://www.w3.org/Graphics/SVG/1.1/DTD/svg11.dtd">
<svg version="1.1" id="Layer_1" xmlns="http://www.w3.org/2000/svg" xmlns:xlink="http://www.w3.org/1999/xlink" x="0px" y="0px"
	 width="512px" height="512px" viewBox="0 0 512 512" enable-background="new 0 0 512 512" xml:space="preserve">
<path fill="#444444" d="M182.4,133.333h-49.066V182.4H182.4V133.333L182.4,133.333z M182.4,231.466h-49.066v49.067H182.4v-49.065
	V231.466z M182.4,35.2c-27.109,0-49.066,21.958-49.066,49.066H182.4V35.2z M280.534,329.6h-49.065v49.066h49.065V329.6z
	 M427.734,35.2v49.066H476.8C476.8,57.157,454.843,35.2,427.734,35.2L427.734,35.2z M280.534,35.2h-49.065v49.066h49.065V35.2z
	 M182.4,378.666V329.6h-49.066C133.334,356.711,155.293,378.666,182.4,378.666L182.4,378.666z M427.734,280.533H476.8v-49.065
	h-49.065V280.533L427.734,280.533z M427.734,182.4H476.8v-49.066h-49.065V182.4L427.734,182.4z M427.734,378.666
	c27.11,0,49.065-21.959,49.065-49.066h-49.065V378.666L427.734,378.666z M84.267,133.333H35.2v294.4
	c0,27.111,21.958,49.066,49.066,49.066h294.399v-49.066H84.267V133.333L84.267,133.333z M329.601,84.266h49.065V35.2h-49.065V84.266
	z M329.601,378.666h49.065V329.6h-49.065V378.666L329.601,378.666z"/>
</svg>
