<?xml version="1.0" encoding="utf-8"?>
<!DOCTYPE svg PUBLIC "-//W3C//DTD SVG 1.1//EN" "http://www.w3.org/Graphics/SVG/1.1/DTD/svg11.dtd">
<svg version="1.1" id="Layer_1" xmlns="http://www.w3.org/2000/svg" xmlns:xlink="http://www.w3.org/1999/xlink" x="0px" y="0px"
	 width="512px" height="512px" viewBox="0 0 512 512" enable-background="new 0 0 512 512" xml:space="preserve">
<g>
	<path fill="#444444" d="M505.149,459.066h-41.96v43.865C486.373,502.932,505.149,483.301,505.149,459.066z"/>
	<rect x="387.217" y="459.066" fill="#444444" width="41.959" height="43.865"/>
	<rect x="463.189" y="234.332" fill="#444444" width="41.96" height="43.867"/>
	<rect x="463.189" y="393.801" fill="#444444" width="41.961" height="36.865"/>
	<rect x="463.189" y="312.532" fill="#444444" width="41.962" height="43.865"/>
</g>
<g>
	<path fill="#444444" d="M191.199,501.026v-41.96h-43.865C147.334,482.25,166.965,501.026,191.199,501.026z"/>
	<rect x="147.334" y="395.046" fill="#444444" width="43.865" height="33.959"/>
	<rect x="227.066" y="459.066" fill="#444444" width="43.867" height="41.96"/>
	<rect x="306.022" y="459.066" fill="#444444" width="43.865" height="41.962"/>
</g>
<path fill="#444444" d="M463.189,155.491v41.96h43.865C507.055,174.267,487.424,155.491,463.189,155.491z"/>
<rect x="395.217" y="155.491" fill="#444444" width="36.96" height="43.867"/>
<path fill="#444444" d="M357.933,154.326h-0.334v-0.11H219.534h-40.246c-21.849,4.96-38.154,24.479-38.154,47.834l-0.6,166.398h0.6
	h0.334v0.11h138.064h40.246c21.849-4.96,38.154-24.479,38.154-47.834l0.6-166.398H357.933z M308.866,218.559v102.164H190.2v-1.337
	v-15.17V202.052h118.666v1.337V218.559z"/>
<g>
	<path fill="#444444" d="M3.407,58.642h41.96V14.776C22.184,14.776,3.407,34.407,3.407,58.642z"/>
	<rect x="83.334" y="14.776" fill="#444444" width="37.959" height="43.865"/>
	<rect x="3.407" y="248.509" fill="#444444" width="41.96" height="35.867"/>
	<rect x="3.407" y="96.042" fill="#444444" width="41.961" height="35.865"/>
	<rect x="3.406" y="172.311" fill="#444444" width="41.962" height="35.865"/>
</g>
<g>
	<path fill="#444444" d="M318.311,14.776v41.96h43.865C362.176,33.553,342.545,14.776,318.311,14.776z"/>
	<rect x="318.311" y="87.703" fill="#444444" width="43.865" height="38.959"/>
	<rect x="241.576" y="14.776" fill="#444444" width="37.867" height="41.96"/>
	<rect x="162.622" y="14.776" fill="#444444" width="37.865" height="41.962"/>
</g>
<path fill="#444444" d="M46.32,362.217v-41.959H2.455C2.455,343.441,22.086,362.217,46.32,362.217z"/>
<rect x="76.333" y="319.35" fill="#444444" width="35.96" height="43.867"/>
</svg>
