<?xml version="1.0" encoding="utf-8"?>
<!DOCTYPE svg PUBLIC "-//W3C//DTD SVG 1.1//EN" "http://www.w3.org/Graphics/SVG/1.1/DTD/svg11.dtd">
<svg version="1.1" id="Layer_1" xmlns="http://www.w3.org/2000/svg" xmlns:xlink="http://www.w3.org/1999/xlink" x="0px" y="0px"
	 width="512px" height="512px" viewBox="0 0 512 512" enable-background="new 0 0 512 512" xml:space="preserve">
<path d="M43.74,430.5h56.371L235.39,192.643c6.506,2.047,13.428,3.155,20.61,3.155c7.351,0,14.426-1.168,21.064-3.309L412.431,430.5
	h56.37L315.608,161.146c5.718-10.015,9.001-21.599,9.001-33.957c0-37.892-30.717-68.609-68.609-68.609
	c-37.892,0-68.609,30.717-68.609,68.609c0,12.553,3.387,24.308,9.273,34.429L43.74,430.5z M256,90.096
	c20.485,0,37.094,16.607,37.094,37.093S276.485,164.282,256,164.282s-37.092-16.607-37.092-37.093S235.515,90.096,256,90.096z"/>
</svg>
