<?xml version="1.0" encoding="utf-8"?>
<!DOCTYPE svg PUBLIC "-//W3C//DTD SVG 1.1//EN" "http://www.w3.org/Graphics/SVG/1.1/DTD/svg11.dtd">
<svg version="1.1" id="Layer_1" xmlns="http://www.w3.org/2000/svg" xmlns:xlink="http://www.w3.org/1999/xlink" x="0px" y="0px"
	 width="512px" height="512px" viewBox="0 0 512 512" enable-background="new 0 0 512 512" xml:space="preserve">
<path d="M272.889,140.741c0,37.893,30.717,68.609,68.609,68.609c12.099,0,23.459-3.144,33.329-8.641
	c52.025,45.875,86.978,136.391,95.956,247.66H512c-9.447-133.327-44.938-231.309-106.564-282.75
	c3.004-7.716,4.671-16.1,4.671-24.879c0-37.892-30.718-68.609-68.608-68.609C303.605,72.132,272.889,102.85,272.889,140.741z
	 M304.404,140.741c0-20.485,16.607-37.092,37.094-37.092c20.484,0,37.092,16.606,37.092,37.092
	c0,20.486-16.607,37.094-37.092,37.094C321.012,177.835,304.404,161.228,304.404,140.741z"/>
<path d="M172.502,77.132c-37.891,0-68.608,30.718-68.608,68.609c0,8.779,1.667,17.163,4.671,24.879
	C46.938,222.061,11.447,320.043,2,453.37h41.217c8.978-111.27,43.93-201.785,95.956-247.66c9.87,5.497,21.23,8.641,33.329,8.641
	c37.893,0,68.609-30.717,68.609-68.609C241.111,107.85,210.395,77.132,172.502,77.132z M172.502,182.835
	c-20.484,0-37.092-16.607-37.092-37.094c0-20.485,16.607-37.092,37.092-37.092c20.486,0,37.094,16.606,37.094,37.092
	C209.596,166.228,192.988,182.835,172.502,182.835z"/>
</svg>
