<?xml version="1.0" encoding="UTF-8"?>
<svg width="314px" height="290px" viewBox="0 0 314 290" version="1.1" xmlns="http://www.w3.org/2000/svg" xmlns:xlink="http://www.w3.org/1999/xlink">
    <title>Page 1</title>
    <g id="Page-1" stroke="none" stroke-width="1" fill="none" fill-rule="evenodd">
        <rect id="Rectangle-Copy-70" fill="none" transform="translate(157.000000, 145.000000) rotate(180.000000) translate(-157.000000, -145.000000) " x="12" y="0" width="290" height="290"></rect>
        <path d="M218,272.013003 L211.87138,260 C196.449252,265.246967 179.97963,268.308305 163,269.00235 L163.797066,282 C182.922125,281.218215 201.17634,277.736851 218,272.013003 Z M64,256.206911 C78.7553339,265.800605 95.4324703,273.241007 113.430592,278 L118,264.651043 C101.943552,260.40557 86.8831664,253.745822 73.4317258,245 L64,256.206911 Z M295,210.285359 L281.529836,204 C273.937654,216.42872 263.93371,227.640468 252,237.126202 L262.272932,247 C275.440364,236.53379 286.547521,224.122409 295,210.285359 Z M3,180.214488 C7.51979815,195.330306 15.0836605,209.422927 25.1086301,222 L38,214.670263 C28.8505924,203.191628 22.0941154,190.467954 18.0671628,177 L3,180.214488 Z M313.97792,143.598561 C313.814462,135.535664 312.745791,127.648754 310.849643,120 L295,122.513259 C296.884301,130.114248 297.841828,137.893379 297.841828,145.778308 C297.841828,151.6299 297.314481,157.42429 296.271602,163.132594 L312.260177,165 C313.278649,159.425007 313.86077,153.73673 313.97792,147.958056 L314,145.778308 L313.97792,143.598561 Z M13.6054321,88 C6.38124591,101.502779 1.6695466,116.249819 0,131.775495 L14.7369803,133 C16.2198598,119.210417 20.3842897,105.905024 27,93.5392662 L13.6054321,88 Z M291,76.1407216 C281.87456,62.7526194 270.205859,50.8658072 256.583261,41 L247,51.2895861 C259.325292,60.2158447 269.845854,70.9514532 278.058263,83 L291,76.1407216 Z M89.2865823,22 C72.7417263,28.706821 57.7782653,37.7714012 45,48.681329 L56.0461838,58 C67.6444228,48.097463 81.1630154,39.9415749 96,33.9270862 L89.2865823,22 Z M141,9 L156.723624,9 L154.1574,9.01958785 C149.750514,9.08690724 145.388283,9.32730289 141.078031,9.73387468 L142.594293,23.9967406 C146.681548,23.6112223 150.801152,23.3931277 154.945823,23.3446278 L156.723624,23.3342317 C173.005293,23.3342317 188.885585,25.9481739 203.875195,31 L209,17.5034792 C193.132559,12.1557296 176.07105,9.17338579 158.294029,9.00733165 L156.723624,9 L141,9 Z" id="Oval-Copy-6" fill="#000000" fill-rule="nonzero"></path>
        <polygon id="Rectangle-Copy-71" fill="#000000" points="112 111.96 121.6 103 202 178.04 192.4 187"></polygon>
        <polygon id="Rectangle-Copy-72" fill="#000000" points="192.4 103 202 111.96 121.6 187 112 178.04"></polygon>
    </g>
</svg>