<?xml version="1.0" encoding="utf-8"?>
<!DOCTYPE svg PUBLIC "-//W3C//DTD SVG 1.1//EN" "http://www.w3.org/Graphics/SVG/1.1/DTD/svg11.dtd">
<svg version="1.1" id="Layer_1" xmlns="http://www.w3.org/2000/svg" xmlns:xlink="http://www.w3.org/1999/xlink" x="0px" y="0px"
	 width="512px" height="512px" viewBox="0 0 512 512" enable-background="new 0 0 512 512" xml:space="preserve">
<polygon points="346.516,49.5 290.146,49.5 248.007,93.332 205.867,49.5 149.497,49.5 219.821,122.649 149.497,195.798
	205.868,195.798 248.007,151.967 290.145,195.798 346.516,195.798 276.191,122.649 "/>
<path d="M507,370.202l-0.06-48.999l-189.447-0.618c-10.203-25.09-34.812-42.787-63.566-42.787c-29.3,0-54.296,18.374-64.132,44.223
	L6.503,322.393l0.928,47.967l182.445,0.64c9.89,25.739,34.829,44.017,64.051,44.017c29.768,0,55.098-18.961,64.596-45.46
	L507,370.202z M253.927,383.5c-20.485,0-37.092-16.607-37.092-37.093s16.607-37.093,37.092-37.093s37.094,16.607,37.094,37.093
	S274.412,383.5,253.927,383.5z"/>
</svg>
