<?xml version="1.0" encoding="utf-8"?>
<!DOCTYPE svg PUBLIC "-//W3C//DTD SVG 1.1//EN" "http://www.w3.org/Graphics/SVG/1.1/DTD/svg11.dtd">
<svg version="1.1" id="Layer_1" xmlns="http://www.w3.org/2000/svg" xmlns:xlink="http://www.w3.org/1999/xlink" x="0px" y="0px"
	 width="512px" height="512px" viewBox="0 0 512 512" enable-background="new 0 0 512 512" xml:space="preserve">
<path fill="#444444" d="M186.166,308.67V293.5V191.336H234.5h70h49.064v-49.068V112.5V63.336c0-27.109-21.959-49.066-49.065-49.066
	l0.001-0.002H59.166c-27.107,0-49.066,21.958-49.066,49.066v245.334c0,27.109,21.959,49.064,49.066,49.064H72.5h64.6h49.066V308.67z
	 M137.1,191.334V308.67H59.166V63.336H304.5v78.932H186.166C159.059,142.268,137.1,164.226,137.1,191.334z"/>
<g>
	<path fill="#444444" d="M499.103,453.066h-41.96v43.865C480.326,496.932,499.103,477.301,499.103,453.066z"/>
	<rect x="380.217" y="453.066" fill="#444444" width="38.959" height="43.865"/>
	<rect x="457.143" y="233.332" fill="#444444" width="41.96" height="38.867"/>
	<rect x="457.142" y="385.801" fill="#444444" width="41.961" height="38.865"/>
	<rect x="457.142" y="307.532" fill="#444444" width="41.962" height="38.865"/>
</g>
<g>
	<path fill="#444444" d="M184.199,496.932v-41.96h-43.865C140.334,478.155,159.965,496.932,184.199,496.932z"/>
	<rect x="140.334" y="389.046" fill="#444444" width="43.865" height="34.959"/>
	<rect x="220.066" y="454.972" fill="#444444" width="39.867" height="41.96"/>
	<rect x="299.022" y="454.97" fill="#444444" width="39.865" height="41.962"/>
</g>
<path fill="#444444" d="M456.189,149.491v41.96h43.865C500.055,168.267,480.424,149.491,456.189,149.491z"/>
<rect x="386.217" y="147.491" fill="#444444" width="36.96" height="43.867"/>
</svg>
