<?xml version="1.0" encoding="utf-8"?>
<!DOCTYPE svg PUBLIC "-//W3C//DTD SVG 1.1//EN" "http://www.w3.org/Graphics/SVG/1.1/DTD/svg11.dtd">
<svg version="1.1" id="Layer_1" xmlns="http://www.w3.org/2000/svg" xmlns:xlink="http://www.w3.org/1999/xlink" x="0px" y="0px"
	 width="512px" height="512px" viewBox="0 0 512 512" enable-background="new 0 0 512 512" xml:space="preserve">
<path fill="#444444" d="M451.733,139.202l0.001-0.002h-96.936V75.268c0-27.109-21.959-49.066-49.065-49.066l0.001-0.002H60.401
	c-27.108,0-49.067,21.958-49.067,49.066V320.6c0,27.11,21.959,49.065,49.066,49.065h96.934V433.6
	c0,27.11,21.959,49.065,49.066,49.065h245.333c27.11,0,49.065-21.958,49.065-49.065V188.268
	C500.799,161.159,478.84,139.202,451.733,139.202z M451.734,433.602H206.401v-63.937h0.099v-49.063h-0.099h-49.067H125.5h-12H60.401
	V75.268h245.333V103.5v12v23.7v49.068v0.232h49.064v-0.232h96.936V433.602z"/>
<g>
	<path fill="#444444" d="M354.915,320.266h-41.96v43.865C336.139,364.131,354.915,344.5,354.915,320.266z"/>
	<rect x="244.029" y="320.266" fill="#444444" width="33.959" height="43.865"/>
	<rect x="312.955" y="238.531" fill="#444444" width="41.96" height="37.868"/>
	<path fill="#444444" d="M159.103,188.664h41.961v-43.866C177.879,144.798,159.103,164.429,159.103,188.664z"/>
	<rect x="238.029" y="144.798" fill="#444444" width="36.959" height="43.866"/>
	<rect x="159.103" y="320.266" fill="#444444" width="41.961" height="43.865"/>
	<rect x="326.952" y="144.798" fill="#444444" width="41.962" height="43.866"/>
	<rect x="159.103" y="239.531" fill="#444444" width="41.961" height="38.868"/>
</g>
</svg>
