<?xml version="1.0" encoding="UTF-8"?>
<svg width="495px" height="491px" viewBox="0 0 495 491" version="1.1" xmlns="http://www.w3.org/2000/svg" xmlns:xlink="http://www.w3.org/1999/xlink">
    <g id="Page-1" stroke="none" stroke-width="1" fill="none" fill-rule="evenodd">
        <g id="shape-fragment-2" fill="#444444" fill-rule="nonzero">
            <path d="M294.733,0.2 C321.56893,0.2 343.358325,21.7220159 343.791429,48.4562918 L343.798,49.268 L343.798,81 L294.734,81 L294.734,49.268 L49.401,49.268 L49.401,294.602 L85,294.602 L85,343.665 L49.4,343.665 C22.56407,343.665 0.7736948,322.146905 0.340570889,295.411737 L0.334,294.6 L0.334,49.266 C0.334,22.42908 21.8560159,0.639675 48.5893215,0.206570592 L49.401,0.2 L294.733,0.2 Z M153,294.602 L153,343.665 L152,343.665 L152,294.602 L153,294.602 Z M343.798,148 L343.798,149 L294.734,149 L294.734,148 L343.798,148 Z" id="Combined-Shape"></path>
            <path d="M445.935,147.2 C472.76994,147.2 494.559325,168.722016 494.992429,195.456292 L494.999,196.268 L494.999,441.6 C494.999,468.43593 473.480904,490.225325 446.745737,490.658429 L445.934,490.665 L200.601,490.665 C173.76507,490.665 151.973715,469.146904 151.540571,442.411737 L151.534,441.6 L151.534,411 L200.602,411 L200.602,441.602 L445.936,441.602 L445.936,196.268 L411,196.267 L411,147.199 L445.935,147.2 Z M200.601,343 L200.601,344 L151.534,344 L151.534,343 L200.601,343 Z M344,196.267 L343,196.268 L343,147.2 L344,147.199 L344,196.267 Z" id="Combined-Shape"></path>
            <path d="M344,148.440217 L344,343.440217 L150,343.440217 L150,148.440217 L344,148.440217 Z M289,206 L206,206 L206,285 L289,285 L289,206 Z" id="Combined-Shape"></path>
        </g>
    </g>
</svg>