<?xml version="1.0" encoding="utf-8"?>
<!DOCTYPE svg PUBLIC "-//W3C//DTD SVG 1.1//EN" "http://www.w3.org/Graphics/SVG/1.1/DTD/svg11.dtd">
<svg version="1.1" id="Layer_1" xmlns="http://www.w3.org/2000/svg" xmlns:xlink="http://www.w3.org/1999/xlink" x="0px" y="0px"
	 width="512px" height="512px" viewBox="0 0 512 512" enable-background="new 0 0 512 512" xml:space="preserve">
<path d="M178.327,113.132c-37.892,0-68.609,30.718-68.609,68.609c0,37.893,30.717,68.609,68.609,68.609
	c37.893,0,68.609-30.717,68.609-68.609C246.936,143.85,216.219,113.132,178.327,113.132z M178.327,218.835
	c-20.485,0-37.092-16.607-37.092-37.094c0-20.485,16.607-37.092,37.092-37.092s37.094,16.606,37.094,37.092
	C215.42,202.228,198.812,218.835,178.327,218.835z"/>
<path d="M49.042,489.37c9.587-118.824,48.795-213.983,106.785-256.382l-18-42.935C61.699,234.935,18.41,339.962,7.824,489.37H49.042
	z"/>
<path d="M461.321,492.054C439.827,377.87,442.827,116.87,232.721,214.556l1.424-48.662
	C436.827,53.87,493.827,339.712,508.769,492.054H461.321z"/>
<path d="M234.145,157.894l127.344-71.352c10.793,9.145,26.512,11.24,39.678,4.066c17.102-9.318,23.412-30.736,14.094-47.839
	s-30.736-23.413-47.84-14.095c-13.244,7.217-20.008,21.689-18.062,35.795l-127.263,71.309L234.145,157.894z M367.552,68.765
	c-5.037-9.246-1.625-20.826,7.621-25.864s20.826-1.626,25.863,7.62s1.627,20.826-7.619,25.864S372.591,78.011,367.552,68.765z"/>
<path d="M121.884,160.809l-51.306-0.731c-5.04-13.317-17.905-22.789-32.987-22.789c-19.477,0-35.265,15.789-35.265,35.266
	s15.788,35.265,35.265,35.265c14.994,0,27.794-9.361,32.896-22.555l51.397,0.73V160.809z M37.591,191.62
	c-10.529,0-19.065-8.537-19.065-19.066s8.536-19.065,19.065-19.065s19.065,8.536,19.065,19.065S48.121,191.62,37.591,191.62z"/>
</svg>
