<?xml version="1.0" encoding="UTF-8"?>
<svg width="498px" height="493px" viewBox="0 0 498 493" version="1.1" xmlns="http://www.w3.org/2000/svg" xmlns:xlink="http://www.w3.org/1999/xlink">
    <title>shape-exclude</title>
    <g id="Page-1" stroke="none" stroke-width="1" fill="none" fill-rule="evenodd">
        <g id="shape-exclude" fill="#444444" fill-rule="nonzero">
            <path d="M294.733,0.2 C321.84,0.2 343.798,22.159 343.798,49.268 L343.798,49.268 L343.798,149 L294.734,149 L294.734,49.268 L49.401,49.268 L49.401,294.602 L153,294.602 L153,343.665 L49.4,343.665 C22.56407,343.665 0.7736948,322.146905 0.340570889,295.411737 L0.334,294.6 L0.334,49.266 C0.334,22.158 22.293,0.2 49.401,0.2 L49.401,0.2 Z M249,294.602 L249,343.665 L205,343.665 L205,294.602 L249,294.602 Z M343.798,293 L343.798,294.6 C343.798,321.707 321.843,343.665 294.733,343.665 L294.733,343.665 L294,343.665 L294,294.602 L294.734,294.602 L294.734,293 L343.798,293 Z M343.798,201 L343.798,246 L294.734,246 L294.734,201 L343.798,201 Z" id="Combined-Shape"></path>
            <path d="M448.935,149.2 C476.041,149.2 497.999,171.159 497.999,198.268 L497.999,198.268 L497.999,443.6 C497.999,470.707 476.044,492.665 448.934,492.665 L448.934,492.665 L203.601,492.665 C176.494,492.665 154.535,470.71 154.535,443.6 L154.535,443.6 L154.534,345 L203.601,345 L203.602,443.602 L448.936,443.602 L448.936,198.268 L346,198.268 L346,149.2 Z M203.601,247 L203.601,293 L154.534,293 L154.534,247 L203.601,247 Z M204,149.2 L204,198.268 L203.602,198.268 L203.601,200 L154.534,200 L154.535,198.266 C154.535,171.42908 176.057016,149.639675 202.790322,149.206571 L203.602,149.2 L204,149.2 Z M294,149.2 L294,198.268 L249,198.268 L249,149.2 L294,149.2 Z" id="Combined-Shape"></path>
        </g>
    </g>
</svg>