<?xml version="1.0" encoding="utf-8"?>
<!DOCTYPE svg PUBLIC "-//W3C//DTD SVG 1.1//EN" "http://www.w3.org/Graphics/SVG/1.1/DTD/svg11.dtd">
<svg version="1.1" id="Layer_1" xmlns="http://www.w3.org/2000/svg" xmlns:xlink="http://www.w3.org/1999/xlink" x="0px" y="0px"
	 width="512px" height="512px" viewBox="0 0 512 512" enable-background="new 0 0 512 512" xml:space="preserve">
<g>
	<path fill="#444444" d="M301.733,11.202l0.001-0.002H56.401c-27.108,0-49.067,21.958-49.067,49.066V305.6
		c0,27.11,21.959,49.065,49.066,49.065h245.333c27.11,0,49.065-21.958,49.065-49.065V60.268
		C350.799,33.159,328.84,11.202,301.733,11.202z M301.734,305.602H56.401V60.268h245.333V305.602z"/>
</g>
<g>
	<path fill="#444444" d="M455.935,160.202l0.001-0.002H210.602c-27.108,0-49.067,21.958-49.067,49.066V454.6
		c0,27.11,21.959,49.065,49.066,49.065h245.333c27.11,0,49.065-21.958,49.065-49.065V209.268
		C505,182.159,483.041,160.202,455.935,160.202z M455.936,454.602H210.602V209.268h245.333V454.602z"/>
</g>
</svg>
