<?xml version="1.0" encoding="utf-8"?>
<!DOCTYPE svg PUBLIC "-//W3C//DTD SVG 1.1//EN" "http://www.w3.org/Graphics/SVG/1.1/DTD/svg11.dtd">
<svg version="1.1" id="Layer_1" xmlns="http://www.w3.org/2000/svg" xmlns:xlink="http://www.w3.org/1999/xlink" x="0px" y="0px"
	 width="512px" height="512px" viewBox="0 0 512 512" enable-background="new 0 0 512 512" xml:space="preserve">
<path d="M179,71.579c-37.892,0-68.609,30.717-68.609,68.609s30.717,68.609,68.609,68.609c37.893,0,68.609-30.717,68.609-68.609
	S216.893,71.579,179,71.579z M179,177.282c-20.485,0-37.092-16.607-37.092-37.093s16.607-37.093,37.092-37.093
	s37.094,16.607,37.094,37.093S199.485,177.282,179,177.282z"/>
<path d="M49.715,447.816C59.302,328.993,98.51,233.833,156.5,191.435l-18-42.935C62.373,193.382,19.083,298.408,8.498,447.816
	H49.715z"/>
<path d="M461.994,450.5c-6.494-120-38.494-269-235.938-264.243l10.419-43.447C451.5,136,502.162,299.5,509.442,450.5H461.994z"/>
<path d="M238.286,140.176l181.716-0.466c5.102,13.193,17.901,22.555,32.896,22.555c19.477,0,35.265-15.788,35.265-35.265
	s-15.788-35.266-35.265-35.266c-15.082,0-27.947,9.472-32.987,22.789l-181.624,0.467V140.176z M433.832,127
	c0-10.529,8.536-19.065,19.065-19.065s19.065,8.536,19.065,19.065s-8.536,19.066-19.065,19.066S433.832,137.53,433.832,127z"/>
<path d="M122.558,119.255l-51.306-0.731c-5.04-13.317-17.905-22.789-32.987-22.789C18.788,95.735,3,111.524,3,131
	s15.788,35.265,35.265,35.265c14.994,0,27.794-9.361,32.896-22.555l51.397,0.73V119.255z M38.265,150.067
	c-10.529,0-19.065-8.537-19.065-19.066s8.536-19.065,19.065-19.065S57.33,120.471,57.33,131S48.794,150.067,38.265,150.067z"/>
</svg>
