<?xml version="1.0" encoding="utf-8"?>
<!DOCTYPE svg PUBLIC "-//W3C//DTD SVG 1.1//EN" "http://www.w3.org/Graphics/SVG/1.1/DTD/svg11.dtd">
<svg version="1.1" id="Layer_1" xmlns="http://www.w3.org/2000/svg" xmlns:xlink="http://www.w3.org/1999/xlink" x="0px" y="0px"
	 width="512px" height="512px" viewBox="0 0 512 512" enable-background="new 0 0 512 512" xml:space="preserve">
<path d="M255,74.579c-37.892,0-68.609,30.717-68.609,68.609s30.717,68.609,68.609,68.609c37.893,0,68.609-30.717,68.609-68.609
	S292.893,74.579,255,74.579z M255,180.282c-20.485,0-37.092-16.607-37.092-37.093s16.607-37.093,37.092-37.093
	s37.094,16.607,37.094,37.093S275.485,180.282,255,180.282z"/>
<path d="M59.634,453.5c12.45-118.823,54.365-266,147.866-264.381l-4-44.435c-131,0-173.255,159.408-187.002,308.816H59.634z"/>
<path d="M191.876,120.991l-121.624,0.533c-5.04-13.317-17.905-22.789-32.987-22.789C17.788,98.735,2,114.524,2,134
	s15.788,35.265,35.265,35.265c14.994,0,27.794-9.361,32.896-22.555l121.716-0.534V120.991z M37.265,153.067
	c-10.529,0-19.065-8.537-19.065-19.066s8.536-19.065,19.065-19.065S56.33,123.471,56.33,134S47.794,153.067,37.265,153.067z"/>
<path d="M320.124,145.176l121.716,0.534c5.102,13.193,17.901,22.555,32.896,22.555C494.212,168.265,510,152.477,510,133
	s-15.788-35.266-35.265-35.266c-15.082,0-27.947,9.472-32.987,22.789l-121.624-0.533V145.176z M455.67,133
	c0-10.529,8.536-19.065,19.065-19.065s19.065,8.536,19.065,19.065s-8.536,19.066-19.065,19.066S455.67,143.53,455.67,133z"/>
<path d="M454.364,453.5c-12.45-118.823-54.365-266-147.866-264.381l4-44.435c131,0,173.256,159.408,187.002,308.816H454.364z"/>
</svg>
