<?xml version="1.0" encoding="utf-8"?>
<!DOCTYPE svg PUBLIC "-//W3C//DTD SVG 1.1//EN" "http://www.w3.org/Graphics/SVG/1.1/DTD/svg11.dtd">
<svg version="1.1" xmlns="http://www.w3.org/2000/svg" xmlns:xlink="http://www.w3.org/1999/xlink" width="476" height="512" viewBox="0 0 476 512">
<g>
</g>
	<path d="M250.286 418.572q0-6-1.286-11.572t-2.714-10.286-5-9.857-6-8.714-7.572-8.428-7.857-7.286-9.143-7.286-8.857-6.572-9.429-6.572-8.714-6q-4.857-0.572-14.286-0.572-15.428 0-30.286 2t-30.857 7.143-28 13.143-19.715 21.428-7.715 30.572q0 19.428 10.143 34.714t26.572 24 34.428 13 36.285 4.286q16.857 0 32.143-3.572t28.715-11.143 21.286-21 7.857-31.428zM216 172.286q0-17.143-4.714-36.428t-13.428-37.285-24-29.715-34.143-11.715q-26.572 0-41.143 19.715t-14.572 47.143q0 13.429 3.285 28.285t10.143 29.714 16 26.714 22.285 19.286 27.714 7.428q27.714 0 40.143-17.286t12.429-45.857zM178.571 36.572h124.857l-38.572 22.572h-38.572q20.286 12.857 31.428 36t11.143 48.285q0 21.143-6.572 37.572t-16 26.428-18.857 18.428-16 17.428-6.571 19.286q0 7.428 4.714 14.572t12.286 13.714 16.714 13.714 18.286 15.857 16.714 18.857 12.286 24.286 4.714 30.428q0 45.714-40 80.572-43.428 37.428-120 37.428-16.857 0-34.143-2.857t-34.857-9.572-31-16.572-22-25.428-8.572-34.714q0-17.428 10.572-38.572 9.143-18.286 27.428-31.572t41.428-20.286 44.285-10.286 42.857-3.857q-18.286-23.714-18.286-42.572 0-3.428 0.571-6.714t1.429-5.572 2.286-6.143 2-6.143q-11.428 1.429-20 1.429-42.572 0-73-28t-30.428-70.286q0-40 27.143-71.572t66.857-40.428q26.857-5.715 53.428-5.715zM475.428 109.715v36.572h-73.143v73.143h-36.572v-73.143h-73.143v-36.572h73.143v-73.143h36.572v73.143h73.143z" fill="#000000"></path>
</svg>
