<?xml version="1.0" encoding="utf-8"?>
<!DOCTYPE svg PUBLIC "-//W3C//DTD SVG 1.1//EN" "http://www.w3.org/Graphics/SVG/1.1/DTD/svg11.dtd">
<svg version="1.1" xmlns="http://www.w3.org/2000/svg" xmlns:xlink="http://www.w3.org/1999/xlink" width="476" height="512" viewBox="0 0 476 512">
<g>
</g>
	<path d="M462.857 116.572q-19.143 28-46.286 47.715 0.286 4 0.286 12 0 37.143-10.857 74.143t-33 71-52.714 60.143-73.714 41.714-92.286 15.572q-77.428 0-141.714-41.428 10 1.143 22.285 1.143 64.285 0 114.572-39.428-30-0.572-53.715-18.428t-32.572-45.572q9.428 1.428 17.428 1.428 12.285 0 24.285-3.143-32-6.572-53-31.857t-21-58.714v-1.143q19.428 10.857 41.715 11.714-18.857-12.571-30-32.857t-11.143-44q0-25.143 12.572-46.572 34.572 42.572 84.143 68.143t106.143 28.428q-2.286-10.857-2.286-21.143 0-38.285 27-65.285t65.286-27q40 0 67.428 29.143 31.143-6 58.572-22.285-10.572 32.857-40.572 50.857 26.572-2.857 53.143-14.285z" fill="#000000"></path>
</svg>
