<?xml version="1.0" encoding="UTF-8"?>
<!-- Generator: Adobe Illustrator 16.0.0, SVG Export Plug-In . SVG Version: 6.00 Build 0)  -->
<!DOCTYPE svg PUBLIC "-//W3C//DTD SVG 1.1//EN" "http://www.w3.org/Graphics/SVG/1.1/DTD/svg11.dtd">
<svg version="1.1" id="Capa_1" xmlns="http://www.w3.org/2000/svg" xmlns:xlink="http://www.w3.org/1999/xlink" x="0px" y="0px"
	 width="475.636px" height="475.636px" viewBox="0 0 475.636 475.636" style="enable-background:new 0 0 475.636 475.636;"
	 xml:space="preserve">
<g>
	<path d="M200.811,400.719V355.39h107.377v22.353l14.315-14.89l7.176-7.463l6.845-7.119l-6.694-7.201h-7.326v-7.88l-14.315-15.398
		v23.278H200.811v-47.011h85.319l-13.308-14.313h-72.012v-49.632h58.695c4.557-7.294,11.845-12.373,20.147-14.315h-78.836v-53.686
		h107.378v52.755h14.312v-52.755h110.148v52.755h14.312V32.873c0-9.208-7.49-16.698-16.692-16.698H16.697
		C7.485,16.175,0,23.671,0,32.873v365.861c0,5.646,2.839,10.637,7.155,13.663v2.633h5.988c1.149,0.253,2.331,0.398,3.554,0.398
		h255.252l14.148-14.709H200.811z M322.503,30.495h107.759c1.316,0,2.395,1.072,2.395,2.389v48.121H322.503V30.495z M322.503,95.316
		h110.153v52.494H322.503V95.316z M200.811,30.495h107.377v50.509H200.811V30.495z M200.811,95.316h107.377v52.494H200.811V95.316z
		 M66.005,400.719H15.458c-0.673-0.415-1.149-1.13-1.149-1.985V355.39h51.697V400.719z M66.005,341.069H14.309v-47.004h51.697
		V341.069z M66.005,279.755H14.309v-49.628h51.697V279.755z M66.005,215.81H14.309v-53.686h51.697V215.81z M66.005,147.81H14.309
		V95.316h51.697V147.81z M186.493,400.719H80.318V355.39h106.175V400.719z M186.493,341.069H80.318v-47.004h106.175V341.069z
		 M186.493,279.755H80.318v-49.628h106.175V279.755z M186.493,215.81H80.318v-53.686h106.175V215.81z M186.493,147.81H80.318V95.316
		h106.175V147.81z M186.493,80.999H80.318v-50.51h106.175V80.999z M449.929,279.574v-19.376H324.007l74.103,79.69
		c4.637,4.988,4.562,12.748-0.141,17.664l-73.271,76.201h125.231v-11.697c0-7.094,5.757-12.862,12.849-12.862
		s12.858,5.769,12.858,12.862v24.556c0,7.087-5.767,12.849-12.858,12.849h-168.28c-5.155,0-9.806-3.062-11.823-7.814
		c-2.021-4.755-1.031-10.231,2.56-13.953l85.753-89.193l-85.907-92.399c-3.479-3.743-4.408-9.198-2.363-13.895
		c2.046-4.688,6.659-7.721,11.781-7.721h168.28c7.092,0,12.858,5.768,12.858,12.854v32.23c0,7.097-5.767,12.858-12.858,12.858
		S449.929,286.666,449.929,279.574z"/>
</g>
</svg>
