<?xml version="1.0" encoding="UTF-8"?>
<svg width="291px" height="290px" viewBox="0 0 291 290" version="1.1" xmlns="http://www.w3.org/2000/svg" xmlns:xlink="http://www.w3.org/1999/xlink">
    <g stroke="none" stroke-width="1" fill="none" fill-rule="evenodd">
        <rect fill="none" transform="translate(145.000000, 145.000000) rotate(180.000000) translate(-145.000000, -145.000000) " x="0" y="0" width="290" height="290"></rect>
        <path d="M110.053944,145.407165 C110.053944,156.627531 115.514286,166.611819 124,173 L3.94812354,172.999547 C1.76763512,172.999547 0,171.250374 0,169.092661 L0,134.907409 C0,132.749696 1.76763512,131.000524 3.94812354,131.000524 L113.253806,131 C111.198453,135.39232 110.053944,140.270199 110.053944,145.407165 Z M287.051876,131.000524 C289.232365,131.000524 291,132.749696 291,134.907409 L291,169.092661 C291,171.250374 289.232365,172.999547 287.051876,172.999547 L167,173 C175.485714,166.611819 180.946056,156.627531 180.946056,145.407165 C180.946056,140.270199 179.801547,135.39232 177.746194,131 L287.051876,131.000524 Z" id="Combined-Shape" fill="#000000" fill-rule="nonzero"></path>
        <path d="M147.5,79 C184.226936,79 214,108.773064 214,145.5 C214,182.226936 184.226936,212 147.5,212 C110.773064,212 81,182.226936 81,145.5 C81,108.773064 110.773064,79 147.5,79 Z M148,116 C131.431457,116 118,129.431457 118,146 C118,162.568543 131.431457,176 148,176 C164.568543,176 178,162.568543 178,146 C178,129.431457 164.568543,116 148,116 Z" id="Combined-Shape" fill="#000000" fill-rule="nonzero"></path>
    </g>
</svg>