<?xml version="1.0" encoding="UTF-8"?>
<svg width="340px" height="290px" viewBox="0 0 340 290" version="1.1" xmlns="http://www.w3.org/2000/svg" xmlns:xlink="http://www.w3.org/1999/xlink">
    <g stroke="none" stroke-width="1" fill="none" fill-rule="evenodd">
        <rect fill="none" transform="translate(169.000000, 145.000000) rotate(180.000000) translate(-169.000000, -145.000000) " x="24" y="0" width="290" height="290"></rect>
        <path d="M185.384679,33.4636678 C186.143214,30.2316073 187.957952,28.535958 189.803081,29.1106341 C191.645296,29.6900401 193.047877,32.5547493 193.213572,36.0792718 L193.213572,36.0792718 L218.221126,227.677393 L259.358868,50.8655543 C259.768943,47.3189591 261.422565,44.7735145 263.340133,44.7530185 C265.271024,44.7435588 266.926728,47.2117493 267.357619,50.7504614 L267.357619,50.7504614 L289.381441,181.872789 L304.904663,112.199814 C305.527477,109.253121 307.034555,107.168836 308.710658,107.168836 L308.710658,107.168836 L335.9005,107.168836 C338.16403,107.168836 340,110.644483 340,114.929722 C340,119.21575 338.164863,122.691397 335.900916,122.691397 L335.900916,122.691397 L311.486261,122.691397 L293.383939,203.46453 C292.718244,206.614606 291.058793,208.735942 289.263206,208.472647 C287.476778,208.212506 285.986354,205.784519 285.583773,202.479146 L285.583773,202.479146 L263.470858,71.3717954 L220.512134,252.901654 C220.098312,256.483723 218.423041,259 216.510052,259 C216.423041,259 216.336031,258.98581 216.247771,258.975562 C214.227787,258.731975 212.603308,255.715123 212.42429,251.896562 L212.42429,251.896562 L187.698168,56.9796667 L169.973,127.538 L170,127.691397 L151.927479,208.46453 C151.26288,211.614606 149.606161,213.735942 147.81353,213.472647 C146.030043,213.212506 144.542072,210.784519 144.140154,207.479146 L144.140154,207.479146 L122.063643,76.3717954 L79.1756416,257.901654 C78.7625011,261.483723 77.0899884,264 75.1801486,264 C75.093281,264 75.0064134,263.98581 74.9182989,263.975562 C72.901641,263.731975 71.2798358,260.715123 71.101113,256.896562 L71.101113,256.896562 L46.415697,61.9796667 L27.1593575,138.758445 C26.5022395,141.561667 25.0367128,143.215536 23.4194796,143.215536 L23.4194796,143.215536 L4.09233584,143.215536 C1.83253186,143.215536 0,139.740676 0,135.453861 C0,131.167833 1.83253186,127.692186 4.09233584,127.692186 L4.09233584,127.692186 L20.7598353,127.692186 L44.1060169,38.4636678 C44.8633027,35.2316073 46.6750529,33.535958 48.5171443,34.1106341 C50.3563263,34.6900401 51.7565985,37.5547493 51.922021,41.0792718 L51.922021,41.0792718 L76.8884058,232.677393 L117.958423,55.8655543 C118.367822,52.3189591 120.018722,49.7735145 121.933134,49.7530185 C123.860846,49.7435588 125.513824,52.2117493 125.944005,55.7504614 L125.944005,55.7504614 L147.931571,186.872789 L162.09,123.218 L162,122.692186 L163.37,117.465 L163.429237,117.199814 C163.527898,116.732252 163.648786,116.286403 163.789048,115.867148 Z" id="Combined-Shape" fill="#000000" fill-rule="nonzero"></path>
    </g>
</svg>