<?xml version="1.0" encoding="utf-8"?>
<!DOCTYPE svg PUBLIC "-//W3C//DTD SVG 1.1//EN" "http://www.w3.org/Graphics/SVG/1.1/DTD/svg11.dtd">
<svg version="1.1" id="Layer_1" xmlns="http://www.w3.org/2000/svg" xmlns:xlink="http://www.w3.org/1999/xlink" x="0px" y="0px"
	 width="512px" height="512px" viewBox="0 0 512 512" enable-background="new 0 0 512 512" xml:space="preserve">
<path d="M407.634,35.271L332.268,195.96h150.718L407.634,35.271L407.634,35.271z M407.649,475.519L483,314.828l-150.731-0.021
	L407.649,475.519L407.649,475.519z"/>
<g>
	<path d="M74.548,419.352v0.56l20.519,34.629l-39.646,6.979L27.598,413.21v-34.907H253.65v41.049H74.548z"/>
	<path d="M225.479,336.451c-19.127,0-32.342-10.334-32.342-25.133c0-14.522,12.867-24.574,32.342-24.854
		c18.434,0,31.996,10.056,31.996,25.413C257.475,326.117,243.912,336.451,225.479,336.451z"/>
	<path d="M225.479,263.844c-19.127,0-32.342-10.333-32.342-25.132c0-14.522,12.867-24.573,32.342-24.856
		c18.434,0,31.996,10.057,31.996,25.414C257.475,253.511,243.912,263.844,225.479,263.844z"/>
	<path d="M71.07,56.615v70.371l34.777,3.907c-0.696-3.907-0.696-7.259-0.696-11.728c0-17.312,4.869-35.185,16.347-47.749
		c11.474-13.684,30.255-22.062,56.685-22.062c42.079,0,79.292,29.042,79.292,77.91c0,22.06-6.262,40.49-12.867,50.543l-39.646-7.822
		c4.867-7.812,11.127-24.29,11.127-40.766c0-17.593-10.434-36.303-34.428-36.303c-23.3,0-37.559,14.8-37.559,51.104
		c0,10.05,0.697,17.032,2.085,24.293l-118.59-11.728V56.616L71.07,56.615L71.07,56.615z"/>
</g>
</svg>
