<?xml version="1.0" encoding="UTF-8"?>
<svg width="463px" height="463px" viewBox="0 0 463 463" version="1.1" xmlns="http://www.w3.org/2000/svg" xmlns:xlink="http://www.w3.org/1999/xlink">
    <g id="Page-1" stroke="none" stroke-width="1" fill="none" fill-rule="evenodd">
        <rect id="Rectangle-Copy-41" fill="none" x="0" y="0" width="463" height="463"></rect>
        <g id="line-curve2-copy-19" transform="translate(169.000000, 216.000000)" fill="#444444" fill-rule="nonzero">
            <rect id="Rectangle" x="0" y="0" width="120" height="34"></rect>
        </g>
        <g id="direction-alt-copy" transform="translate(225.000000, 232.000000) rotate(90.000000) translate(-225.000000, -232.000000) translate(-5.000000, 74.000000)" fill="#000000" fill-rule="nonzero">
            <g id="Group-2-Copy" transform="translate(82.000000, 158.000000) rotate(180.000000) translate(-82.000000, -158.000000) ">
                <g id="arrow-normal" transform="translate(82.000000, 158.000000) rotate(90.000000) translate(-82.000000, -158.000000) translate(-76.000000, 76.000000)">
                    <polygon id="Path" points="157.966839 61.1984859 257.826325 164 316 164 157.964944 0 0 164 57.1920964 164"></polygon>
                </g>
            </g>
            <polygon id="Path" transform="translate(378.000000, 158.000000) rotate(90.000000) translate(-378.000000, -158.000000) " points="377.966839 137.198486 477.826325 240 536 240 377.964944 76 220 240 277.192096 240"></polygon>
        </g>
    </g>
</svg>