<?xml version="1.0" encoding="UTF-8"?>
<svg width="425px" height="425px" viewBox="0 0 425 425" version="1.1" xmlns="http://www.w3.org/2000/svg" xmlns:xlink="http://www.w3.org/1999/xlink">
    <g stroke="none" stroke-width="1" fill="none" fill-rule="evenodd">
        <rect fill="none" transform="translate(212.500000, 212.500000) rotate(180.000000) translate(-212.500000, -212.500000) " x="0" y="0" width="425" height="425"></rect>
        <g transform="translate(24.000000, 33.000000)" fill="#000000" fill-rule="nonzero">
            <path d="M366.849673,314.152157 L366.849673,60.3607843 C373.542484,54.0318954 377.72549,45.0752418 377.72549,35.1372549 C377.72549,15.9623529 362.181438,0.418300654 343.006536,0.418300654 C331.686484,0.418300654 321.634719,5.83864052 315.296627,14.2222222 L65.3569673,14.2222222 C59.0188758,5.83864052 48.9671111,0.418300654 37.6470588,0.418300654 C18.4721569,0.418300654 2.92810458,15.9623529 2.92810458,35.1372549 C2.92810458,46.6438693 8.52998693,56.8378562 17.1503268,63.1550327 L17.1503268,312.468078 C7.12031373,318.55519 0.418300654,329.579922 0.418300654,342.169935 C0.418300654,361.344837 15.9623529,376.888889 35.1372549,376.888889 C46.0749804,376.888889 55.8255686,371.825778 62.1895948,363.921569 L319.300601,363.921569 C325.663791,371.825778 335.415216,376.888889 346.352941,376.888889 C365.527843,376.888889 381.071895,361.344837 381.071895,342.169935 C381.071895,330.66332 375.47085,320.469333 366.849673,314.152157 Z M343.656575,17.6154771 C353.231477,17.6154771 360.993464,25.3774641 360.993464,34.9515294 C360.993464,44.5264314 353.232314,52.2875817 343.656575,52.2875817 C334.083346,52.2875817 326.320523,44.5264314 326.320523,34.9515294 C326.321359,25.3766275 334.083346,17.6154771 343.656575,17.6154771 Z M36.624732,17.6154771 C46.199634,17.6154771 53.9607843,25.3774641 53.9607843,34.9515294 C53.9607843,44.5264314 46.199634,52.2875817 36.624732,52.2875817 C27.0506667,52.2875817 19.2886797,44.5264314 19.2886797,34.9515294 C19.2886797,25.3766275 27.0498301,17.6154771 36.624732,17.6154771 Z M34.1149281,360.156863 C24.5408627,360.156863 16.7788758,352.395712 16.7788758,342.819974 C16.7788758,333.246745 24.5408627,325.483922 34.1149281,325.483922 C43.6898301,325.483922 51.4509804,333.245908 51.4509804,342.819974 C51.4509804,352.395712 43.6898301,360.156863 34.1149281,360.156863 Z M312.757542,333.385621 L68.7326536,333.385621 C65.9467712,322.703895 58.2015163,314.032523 48.1045752,309.964131 L48.1045752,68.2507712 C59.144366,64.7671634 67.7923137,55.915085 71.0048627,44.7581699 L309.648732,44.7581699 C313.17919,57.0202353 323.276967,66.4972549 335.895425,69.124183 L335.895425,309.057255 C324.580392,312.627033 315.769307,321.83383 312.757542,333.385621 Z M346.166379,360.156863 C336.59315,360.156863 328.830327,352.395712 328.830327,342.819974 C328.830327,333.246745 336.592314,325.483922 346.166379,325.483922 C355.741281,325.483922 363.503268,333.245908 363.503268,342.819974 C363.503268,352.395712 355.742118,360.156863 346.166379,360.156863 Z" id="Shape"></path>
        </g>
    </g>
</svg>