<?xml version="1.0" encoding="utf-8"?>
<!DOCTYPE svg PUBLIC "-//W3C//DTD SVG 1.1//EN" "http://www.w3.org/Graphics/SVG/1.1/DTD/svg11.dtd">
<svg version="1.1" id="Layer_1" xmlns="http://www.w3.org/2000/svg" xmlns:xlink="http://www.w3.org/1999/xlink" x="0px" y="0px"
	 width="512px" height="512px" viewBox="0 0 512 512" enable-background="new 0 0 512 512" xml:space="preserve">
<path d="M146.674,366c-24.121,0-43.673-18.773-43.673-41.931s19.553-41.931,43.673-41.931c1.286,0,2.558,0.064,3.815,0.17
	l46.945-75.119c-4.477-6.583-7.088-14.441-7.088-22.889c0-23.157,19.553-41.93,43.673-41.93s43.672,18.773,43.672,41.93
	c0,8.448-2.611,16.306-7.088,22.889l46.944,75.119c1.26-0.104,2.53-0.17,3.818-0.17c0.97,0,1.931,0.042,2.888,0.102l77.499-130.214
	c-4.792-6.73-7.6-14.866-7.6-23.634c0-23.158,19.554-41.931,43.673-41.931c24.12,0,43.673,18.773,43.673,41.931
	c0,23.157-19.554,41.931-43.673,41.931c-0.973,0-1.932-0.041-2.89-0.102l-77.498,130.215c4.791,6.729,7.6,14.865,7.6,23.633
	c0,23.157-19.554,41.931-43.672,41.931c-24.121,0-43.674-18.773-43.674-41.931c0-8.447,2.611-16.305,7.086-22.888l-46.943-75.118
	c-1.258,0.104-2.53,0.168-3.816,0.168c-1.286,0-2.558-0.064-3.815-0.168l-46.945,75.119c4.476,6.582,7.087,14.439,7.087,22.887
	C190.347,347.227,170.794,366,146.674,366L146.674,366z"/>
<path d="M481.5,449.463 59.292,449.463 59.292,34.496 30.5,34.496 30.5,476.504 481.5,476.504Z"/>
</svg>
