<?xml version="1.0" encoding="UTF-8"?>
<svg width="340px" height="340px" viewBox="0 0 340 340" version="1.1" xmlns="http://www.w3.org/2000/svg" xmlns:xlink="http://www.w3.org/1999/xlink">
    <path d="M204,179 C231.614237,179 254,201.385763 254,229 C254,256.614237 231.614237,279 204,279 C176.385763,279 154,256.614237 154,229 C154,201.385763 176.385763,179 204,179 Z M3.6112247,159.7206 C56.6919125,38.1734797 178.967379,-28.0162997 282.080424,11.5650899 C339.840377,33.7370587 379.97324,84.5310511 396.717449,147.07373 L396.717449,147.07373 L413.780085,102.624043 C418.622295,89.5574179 431.264544,82.1746822 442.001986,86.0854407 C447.295058,88.0117878 451.37306,92.4251301 453.350786,98.3528182 C455.328507,104.280491 455.024326,111.178134 452.515703,117.493254 L452.515703,117.493254 L407.344714,235.167702 L377.800761,223.826841 C375.392587,223.429834 373.160864,222.573156 371.143425,221.271329 L371.143425,221.271329 L310.508713,197.995844 C303.458012,195.447556 298.701359,188.505888 298.006752,179.80088 C297.256667,171.127313 300.750363,162.025924 307.111529,156.082124 C313.45251,150.077826 321.632279,148.101972 328.577109,150.926065 L328.577109,150.926065 L353.844723,160.625393 C339.551078,113.632327 308.419487,75.6812956 264.012028,58.6348692 C181.135763,26.8216516 83.8776886,79.6201418 41.2810417,177.134119 C37.7695941,185.490329 30.7931854,191.567155 23.107586,193.047076 C15.4219866,194.526996 8.16439784,191.160927 4.12136958,184.282235 C0.0959799447,177.357563 -0.0893493475,168.004212 3.6112247,159.7206 Z" id="Path-3" fill="#444444" fill-rule="nonzero"></path>
</svg>