<?xml version="1.0" encoding="UTF-8"?>
<svg width="533px" height="533px" viewBox="0 0 533 533" version="1.1" xmlns="http://www.w3.org/2000/svg" xmlns:xlink="http://www.w3.org/1999/xlink">
    <title>sun</title>
    <g id="Page-1" stroke="none" stroke-width="1" fill="none" fill-rule="evenodd">
        <g id="sun" fill="#000000" fill-rule="nonzero">
            <path d="M78.05785,115.74095 C67.6377,105.3208 67.6377,88.45135 78.05785,78.05785 C88.478,67.6377 105.34745,67.6377 115.74095,78.05785 C126.1611,88.45135 126.1611,105.3208 115.74095,115.74095 C105.34745,126.1611 88.478,126.1611 78.05785,115.74095 M454.94215,417.25905 C465.3623,427.65255 465.3623,444.522 454.94215,454.94215 C444.54865,465.33565 427.65255,465.33565 417.25905,454.94215 C406.8389,444.522 406.8389,427.65255 417.25905,417.25905 C427.65255,406.8389 444.54865,406.8389 454.94215,417.25905 M115.74095,417.25905 C126.1611,427.65255 126.1611,444.522 115.74095,454.94215 C105.34745,465.33565 88.478,465.33565 78.05785,454.94215 C67.6377,444.522 67.6377,427.65255 78.05785,417.25905 C88.478,406.8389 105.34745,406.8389 115.74095,417.25905 M454.94215,78.05785 C465.3623,88.45135 465.3623,105.3208 454.94215,115.74095 C444.54865,126.1611 427.65255,126.1611 417.25905,115.74095 C406.8389,105.3208 406.8389,88.45135 417.25905,78.05785 C427.65255,67.6377 444.54865,67.6377 454.94215,78.05785 M53.3,266.5 C53.3,281.2108 41.3608,293.15 26.65,293.15 C11.9392,293.15 0,281.2108 0,266.5 C0,251.7892 11.9392,239.85 26.65,239.85 C41.3608,239.85 53.3,251.7892 53.3,266.5 M533,266.5 C533,281.2108 521.0608,293.15 506.35,293.15 C491.6392,293.15 479.7,281.2108 479.7,266.5 C479.7,251.7892 491.6392,239.85 506.35,239.85 C521.0608,239.85 533,251.7892 533,266.5 M293.15,506.35 C293.15,521.0608 281.2108,533 266.5,533 C251.7892,533 239.85,521.0608 239.85,506.35 C239.85,491.6392 251.7892,479.7 266.5,479.7 C281.2108,479.7 293.15,491.6392 293.15,506.35 M239.85,26.65 C239.85,11.9392 251.7892,0 266.5,0 C281.2108,0 293.15,11.9392 293.15,26.65 C293.15,41.3608 281.2108,53.3 266.5,53.3 C251.7892,53.3 239.85,41.3608 239.85,26.65 M266.5,399.75 C193.02595,399.75 133.25,339.97405 133.25,266.5 C133.25,193.02595 193.02595,133.25 266.5,133.25 C339.97405,133.25 399.75,193.02595 399.75,266.5 C399.75,339.97405 339.97405,399.75 266.5,399.75 M266.5,79.95 C163.4711,79.95 79.95,163.4711 79.95,266.5 C79.95,369.5289 163.4711,453.05 266.5,453.05 C369.5289,453.05 453.05,369.5289 453.05,266.5 C453.05,163.4711 369.5289,79.95 266.5,79.95" id="sun_star-[#1268]"></path>
        </g>
    </g>
</svg>