<?xml version="1.0" encoding="UTF-8"?>
<svg version="1.1" id="Layer_1" xmlns="http://www.w3.org/2000/svg" xmlns:xlink="http://www.w3.org/1999/xlink" x="0px" y="0px"
	 viewBox="0 0 512 512" style="enable-background:new 0 0 512 512;" xml:space="preserve">
<g>
	<g>
		<path d="M485.751,285.955c-11.424-11.423-24.693-21.44-39.655-29.955c14.962-8.515,28.231-18.532,39.654-29.956
			c16.927-16.926,26.249-39.432,26.249-63.37c0-23.938-9.322-46.443-26.249-63.369c-13.228-13.229-29.964-21.837-48.117-24.939
			c-3.102-18.153-11.71-34.887-24.939-48.117C395.768,9.322,373.263,0,349.325,0c-23.938,0-46.443,9.322-63.369,26.249
			C274.532,37.673,264.515,50.941,256,65.904c-8.515-14.962-18.532-28.231-29.956-39.654C209.118,9.322,186.612,0,162.674,0
			c-23.938,0-46.443,9.322-63.37,26.249C86.075,39.478,77.467,56.213,74.366,74.366c-18.153,3.102-34.887,11.71-48.117,24.939
			C9.322,116.231,0,138.736,0,162.674c0,23.938,9.322,46.443,26.249,63.369C37.673,237.468,50.941,247.485,65.904,256
			c-14.962,8.515-28.231,18.532-39.654,29.956C9.322,302.882,0,325.387,0,349.325s9.322,46.443,26.249,63.37
			c13.228,13.229,29.964,21.837,48.117,24.939c3.102,18.153,11.71,34.888,24.939,48.117C116.231,502.678,138.737,512,162.674,512
			c23.937,0,46.444-9.322,63.37-26.249c11.424-11.424,21.441-24.693,29.956-39.655c8.515,14.962,18.532,28.231,29.956,39.654
			c16.926,16.927,39.432,26.249,63.369,26.249s46.443-9.322,63.37-26.249c13.229-13.228,21.837-29.964,24.939-48.117
			c18.153-3.102,34.888-11.71,48.117-24.939C502.678,395.767,512,373.262,512,349.324C512,325.386,502.678,302.881,485.751,285.955z
			 M47.757,204.535c-11.181-11.18-17.34-26.047-17.34-41.861c0-15.814,6.158-30.68,17.34-41.862
			c10.89-10.89,25.383-17.038,40.808-17.31l14.678-0.26l0.26-14.678c0.273-15.425,6.421-29.916,17.31-40.808
			c11.181-11.18,26.048-17.339,41.861-17.339s30.68,6.158,41.862,17.341c14.987,14.986,27.169,34.016,36.255,56.574v114.952
			l-81.849-81.85l-21.508,21.508l81.85,81.85H104.331C81.773,231.705,62.744,219.523,47.757,204.535z M240.791,407.667
			c-9.087,22.559-21.269,41.589-36.256,56.575c-11.181,11.181-26.048,17.34-41.862,17.34c-15.813,0-30.68-6.158-41.862-17.34
			c-10.89-10.89-17.038-25.383-17.31-40.808l-0.26-14.678l-14.678-0.26c-15.424-0.273-29.916-6.421-40.808-17.31
			c-11.179-11.181-17.338-26.047-17.338-41.861c0-15.813,6.158-30.68,17.341-41.862c14.986-14.987,34.016-27.169,56.574-36.255
			h114.952l-81.85,81.85l21.508,21.508l81.85-81.85V407.667z M271.209,104.331c9.087-22.557,21.269-41.587,36.255-56.574
			c11.181-11.181,26.048-17.34,41.861-17.34c15.814,0,30.68,6.158,41.862,17.34c10.89,10.89,17.038,25.383,17.31,40.808l0.26,14.678
			l14.678,0.26c15.425,0.273,29.916,6.421,40.808,17.311c11.181,11.181,17.34,26.048,17.34,41.861
			c0,15.814-6.159,30.681-17.341,41.862c-14.986,14.987-34.016,27.169-56.574,36.255H292.717l81.85-81.85l-21.508-21.508
			l-81.85,81.85V104.331z M464.242,391.187c-10.89,10.89-25.383,17.038-40.808,17.31l-14.678,0.26l-0.26,14.678
			c-0.273,15.425-6.421,29.916-17.31,40.808c-11.182,11.181-26.048,17.34-41.862,17.34c-15.813,0-30.68-6.159-41.862-17.341
			c-14.987-14.986-27.169-34.016-36.255-56.574V292.717l81.85,81.85l21.508-21.508l-81.85-81.85h114.952
			c22.558,9.087,41.588,21.269,56.574,36.255c11.181,11.181,17.34,26.048,17.34,41.861
			C481.583,365.139,475.424,380.005,464.242,391.187z"/>
	</g>
</g>
</svg>
