<?xml version="1.0" encoding="UTF-8"?>
<svg width="340px" height="323px" viewBox="0 0 340 323" version="1.1" xmlns="http://www.w3.org/2000/svg" xmlns:xlink="http://www.w3.org/1999/xlink">
    <title>Page 1</title>
    <g id="Page-1" stroke="none" stroke-width="1" fill="none" fill-rule="evenodd">
        <path d="M99,0 L99,91 L2,91 L2,0 L99,0 Z M83,12 L18,12 L18,79 L83,79 L83,12 Z" id="Rectangle" fill="#000000" fill-rule="nonzero"></path>
        <path d="M220,0 L220,91 L122,91 L122,0 L220,0 Z M204,12 L138,12 L138,79 L204,79 L204,12 Z" id="Rectangle-Copy-26" fill="#000000" fill-rule="nonzero"></path>
        <polygon id="Rectangle-Copy-27" fill="#000000" fill-rule="nonzero" points="98 115 98 206 0 206 0 115"></polygon>
        <path d="M98,232 L98,323 L0,323 L0,232 L98,232 Z M82,244 L16,244 L16,311 L82,311 L82,244 Z" id="Rectangle-Copy-31" fill="#000000" fill-rule="nonzero"></path>
        <path d="M218,232 L218,323 L120,323 L120,232 L218,232 Z M202,244 L136,244 L136,311 L202,311 L202,244 Z" id="Rectangle-Copy-32" fill="#000000" fill-rule="nonzero"></path>
        <path d="M338,232 L338,323 L241,323 L241,232 L338,232 Z M322,244 L257,244 L257,311 L322,311 L322,244 Z" id="Rectangle-Copy-33" fill="#000000" fill-rule="nonzero"></path>
        <path d="M220,115 L220,206 L122,206 L122,115 L220,115 Z M204,127 L138,127 L138,194 L204,194 L204,127 Z" id="Rectangle-Copy-28" fill="#000000" fill-rule="nonzero"></path>
        <path d="M340,115 L340,206 L242,206 L242,115 L340,115 Z M324,127 L258,127 L258,194 L324,194 L324,127 Z" id="Rectangle-Copy-30" fill="#000000" fill-rule="nonzero"></path>
        <path d="M340,0 L340,91 L242,91 L242,0 L340,0 Z M324,12 L258,12 L258,79 L324,79 L324,12 Z" id="Rectangle-Copy-29" fill="#000000" fill-rule="nonzero"></path>
    </g>
</svg>