<?xml version="1.0" encoding="utf-8"?>
<!DOCTYPE svg PUBLIC "-//W3C//DTD SVG 1.1//EN" "http://www.w3.org/Graphics/SVG/1.1/DTD/svg11.dtd">
<svg version="1.1" id="Layer_1" xmlns="http://www.w3.org/2000/svg" xmlns:xlink="http://www.w3.org/1999/xlink" x="0px" y="0px"
	 width="512px" height="512px" viewBox="0 0 512 512" enable-background="new 0 0 512 512" xml:space="preserve">
<path d="M38,64v384h438.857V64H38z M202.571,310.857v-82.286h109.715v82.286H202.571z M312.286,338.286v82.285H202.571v-82.285
	H312.286z M312.286,118.857v82.286H202.571v-82.286H312.286z M175.143,118.857v82.286H65.429v-82.286H175.143z M65.429,228.571
	h109.714v82.286H65.429V228.571z M339.714,228.571h109.715v82.286H339.714V228.571z M339.714,201.143v-82.286h109.715v82.286
	H339.714z M65.429,338.286h109.714v82.285H65.429V338.286z M339.714,420.571v-82.285h109.715v82.285H339.714z"/>
</svg>
