<?xml version="1.0" encoding="utf-8"?>
<!DOCTYPE svg PUBLIC "-//W3C//DTD SVG 1.1//EN" "http://www.w3.org/Graphics/SVG/1.1/DTD/svg11.dtd">
<svg version="1.1" id="Layer_1" xmlns="http://www.w3.org/2000/svg" xmlns:xlink="http://www.w3.org/1999/xlink" x="0px" y="0px"
	 width="512px" height="512px" viewBox="0 0 512 512" enable-background="new 0 0 512 512" xml:space="preserve">
<path d="M457,484.713c8.951-8.953,13.428-19.715,13.428-32.285v-384c0-12.571-4.477-23.333-13.428-32.284
	c-8.952-8.952-19.715-13.429-32.285-13.429H77.288c-12.572,0-23.334,4.477-32.287,13.429c-8.951,8.951-13.429,19.713-13.429,32.284
	v384c0,12.572,4.476,23.334,13.429,32.285c8.953,8.953,19.715,13.428,32.287,13.428h347.427
	C437.285,498.143,448.048,493.666,457,484.713z M424,289.924v73.301h-68.545v-73.301H424z M262.764,452.928v-70.141h69.239v70.141
	H262.764L262.764,452.928z M239.629,452.928h-69.237v-70.141h69.237V452.928z M424,452.928h-68.904v-70.596H424V452.928z
	 M239.99,363.225h-69.238v-72.846h69.238V363.225z M263.123,290.379h69.24v72.846h-69.24V290.379z M147.619,363.225h-0.359v0.455
	H78.382v-73.301h69.237V363.225z M78.02,382.787h69.24v70.141H78.02V382.787z M78,67.928h346v172.999H78V67.928z"/>
</svg>
