<?xml version="1.0" encoding="utf-8"?>
<!DOCTYPE svg PUBLIC "-//W3C//DTD SVG 1.1//EN" "http://www.w3.org/Graphics/SVG/1.1/DTD/svg11.dtd">
<svg version="1.1" id="Layer_1" xmlns="http://www.w3.org/2000/svg" xmlns:xlink="http://www.w3.org/1999/xlink" x="0px" y="0px"
	 width="512px" height="512px" viewBox="0 0 512 512" enable-background="new 0 0 512 512" xml:space="preserve">
<path d="M475.286,54.428C466.333,45.476,455.571,41,443,41H59c-12.571,0-23.333,4.476-32.284,13.428
	c-8.952,8.952-13.429,19.714-13.429,32.285v347.427c0,12.572,4.477,23.334,13.429,32.287c8.951,8.951,19.713,13.428,32.284,13.428
	h384c12.572,0,23.334-4.475,32.286-13.428s13.428-19.715,13.428-32.287V86.713C488.715,74.142,484.239,63.38,475.286,54.428z
	 M280.496,87.428h73.302v68.544h-73.302V87.428z M443.501,248.664H373.36v-69.239h70.141V248.664z M443.501,271.799v69.237H373.36
	v-69.237H443.501z M443.501,87.428v68.904h-70.596V87.428H443.501z M353.798,271.438v69.238h-72.847v-69.238H353.798z
	 M280.951,248.304v-69.239h72.847v69.239H280.951z M353.798,363.809v0.359h0.455v68.878h-73.302v-69.237H353.798z M373.36,433.408
	v-69.24h70.141v69.24H373.36z M58.501,433.428v-346H231.5v346H58.501z"/>
</svg>
