<?xml version="1.0" encoding="UTF-8"?>
<svg width="338px" height="323px" viewBox="0 0 338 323" version="1.1" xmlns="http://www.w3.org/2000/svg" xmlns:xlink="http://www.w3.org/1999/xlink">
    <title>table-cell copy 2</title>
    <g id="Page-1" stroke="none" stroke-width="1" fill="none" fill-rule="evenodd">
        <g id="table-cell-copy-2" fill="#000000" fill-rule="nonzero">
            <path d="M97,0 L97,91 L0,91 L0,0 L97,0 Z M81,12 L16,12 L16,79 L81,79 L81,12 Z" id="Rectangle"></path>
            <path d="M338,0 L338,91 L241,91 L241,0 L338,0 Z M322,12 L257,12 L257,79 L322,79 L322,12 Z" id="Rectangle-Copy"></path>
            <path d="M338,115 L338,206 L241,206 L241,115 L338,115 Z M322,127 L257,127 L257,194 L322,194 L322,127 Z" id="Rectangle-Copy-2"></path>
            <path d="M338,232 L338,323 L241,323 L241,232 L338,232 Z M322,244 L257,244 L257,311 L322,311 L322,244 Z" id="Rectangle-Copy-3"></path>
            <path d="M97,232 L97,323 L0,323 L0,232 L97,232 Z M81,244 L16,244 L16,311 L81,311 L81,244 Z" id="Rectangle-Copy-4"></path>
            <path d="M97,115 L97,206 L0,206 L0,115 L97,115 Z M81,127 L16,127 L16,194 L81,194 L81,127 Z" id="Rectangle-Copy-5"></path>
            <polygon id="Rectangle-Copy-27" points="218 115 218 206 120 206 120 115"></polygon>
            <polygon id="Rectangle-Copy-27-Copy-3" points="218 0 218 91 120 91 120 0"></polygon>
            <polygon id="Rectangle-Copy-27-Copy-4" points="218 232 218 323 120 323 120 232"></polygon>
        </g>
    </g>
</svg>