<?xml version="1.0" encoding="UTF-8"?>
<svg width="347px" height="459px" viewBox="0 0 347 459" version="1.1" xmlns="http://www.w3.org/2000/svg" xmlns:xlink="http://www.w3.org/1999/xlink">
    <title>Group 5</title>
    <g id="Page-1" stroke="none" stroke-width="1" fill="none" fill-rule="evenodd">
        <g id="Group-5" fill="#000000" fill-rule="nonzero">
            <path d="M173.5,0 C77.7240571,0.111035429 0.118295959,72.9536671 0,162.851268 C0,248.511035 154.25333,444.657985 160.881818,453.022618 C163.858921,456.779301 168.563136,459 173.547318,459 C178.539387,459 183.235716,456.779301 186.216761,453.022618 C192.74667,444.657985 347,248.511035 347,162.851268 C346.881704,72.9536671 269.275943,0.111035429 173.5,0 Z M174,419 C125.088889,354.568441 32,220.148194 32,162.460076 C32,88.7530423 95.5765561,29 174,29 C252.423444,29 316,88.7530423 316,162.460076 C316,220.103707 222.911111,354.538783 174,419 Z" id="Shape"></path>
            <path d="M174,242 C135.89475,242 105,211.10525 105,173 C105,134.89475 135.89475,104 174,104 C212.10525,104 243,134.89475 243,173 C243,211.10525 212.10525,242 174,242 Z" id="Shape"></path>
        </g>
        <g id="Group-5" fill="#000000" fill-rule="nonzero">
            <path d="M173.5,0 C77.7240571,0.111035429 0.118295959,72.9536671 0,162.851268 C0,248.511035 154.25333,444.657985 160.881818,453.022618 C163.858921,456.779301 168.563136,459 173.547318,459 C178.539387,459 183.235716,456.779301 186.216761,453.022618 C192.74667,444.657985 347,248.511035 347,162.851268 C346.881704,72.9536671 269.275943,0.111035429 173.5,0 Z M174,419 C125.088889,354.568441 32,220.148194 32,162.460076 C32,88.7530423 95.5765561,29 174,29 C252.423444,29 316,88.7530423 316,162.460076 C316,220.103707 222.911111,354.538783 174,419 Z" id="Shape"></path>
            <path d="M174,242 C135.89475,242 105,211.10525 105,173 C105,134.89475 135.89475,104 174,104 C212.10525,104 243,134.89475 243,173 C243,211.10525 212.10525,242 174,242 Z" id="Shape"></path>
        </g>
    </g>
</svg>