<?xml version="1.0" encoding="UTF-8"?>
<svg width="300px" height="290px" viewBox="0 0 300 290" version="1.1" xmlns="http://www.w3.org/2000/svg" xmlns:xlink="http://www.w3.org/1999/xlink">
    <title>Page 1</title>
    <g id="Page-1" stroke="none" stroke-width="1" fill="none" fill-rule="evenodd">
        <rect id="Rectangle-Copy-69" fill="none" transform="translate(151.000000, 145.000000) rotate(180.000000) translate(-151.000000, -145.000000) " x="6" y="0" width="290" height="290"></rect>
        <path d="M12.0077604,152.807016 C16.0467318,147.402305 20.1072847,142.335307 24.1886374,137.605903 L12.832572,127.805914 C8.51746693,132.806187 4.2376167,138.146837 -0.00776039221,143.827747 L12.0077604,152.807016 Z M37.4250591,123.521033 C42.2162606,118.871146 47.0317665,114.679108 51.8702043,110.943488 L42.7033681,99.0704467 C37.4081433,103.158738 32.1669407,107.721358 26.9783877,112.756877 L37.4250591,123.521033 Z M67.6060632,100.446091 C73.2390165,97.2727095 78.9003062,94.7035849 84.592044,92.7334974 L79.6856736,78.5586066 C73.1296365,80.8278549 66.6482438,83.7691468 60.2436076,87.3772632 L67.6060632,100.446091 Z M102.498801,88.5175723 C108.564664,87.7507523 114.685587,87.6383543 120.870617,88.1813744 L122.182508,73.2388532 C114.937578,72.6027782 107.746239,72.7348322 100.617539,73.6360115 L102.498801,88.5175723 Z M139.164511,91.643868 C143.423294,92.8731087 147.717624,94.4019219 152.047907,96.2319585 C153.633081,96.9023647 155.180927,97.5986305 156.721937,98.3342866 L163.184125,84.7976648 C161.438599,83.9643761 159.684232,83.1752109 157.888888,82.4159193 C153.016412,80.3567446 148.162001,78.6285385 143.324249,77.2321862 L139.164511,91.643868 Z M172.998322,107.772373 C178.06825,111.258811 183.01706,115.199479 187.844811,119.596878 L197.945631,108.507539 C192.620333,103.656946 187.137665,99.2911739 181.497684,95.4127266 L172.998322,107.772373 Z M201.213397,133.296603 C205.302997,137.977324 209.295714,143.020133 213.190703,148.425713 L225.360544,139.656736 C221.19594,133.876977 216.912459,128.466931 212.509256,123.427279 L201.213397,133.296603 Z M223.899098,164.6059 C225.809,167.738917 227.692545,170.967796 229.549629,174.29255 C230.764746,176.468107 232.028534,178.872229 233.343099,181.510243 L246.768537,174.820129 C245.352789,171.979065 243.980158,169.36789 242.645321,166.977987 C240.696169,163.488401 238.716759,160.095186 236.706902,156.798202 L223.899098,164.6059 Z M255.270949,193.413697 L241.471194,199.293047 L242.362346,201.39833 L243.264258,203.556092 C243.415473,203.920092 243.567136,204.286277 243.719246,204.654648 L244.637278,206.891099 L245.566043,209.179987 L246.505531,211.521297 C246.663005,211.915883 246.820925,212.312652 246.979292,212.711605 L247.934843,215.131515 L248.901089,217.603806 L262.881232,212.1673 L262.386306,210.897767 L261.404184,208.397701 L260.432361,205.949621 L259.470826,203.553511 L258.519569,201.209354 L257.578578,198.917134 L256.647844,196.676834 L255.727355,194.488437 C255.574793,194.128029 255.422658,193.769782 255.270949,193.413697 Z M269.982286,231.035247 L255.893349,236.183244 L256.978993,239.166788 C257.160871,239.668673 257.343217,240.172871 257.526032,240.679383 L258.62854,243.746211 L259.742286,246.868553 L260.867266,250.046403 L262.003477,253.279753 C262.193781,253.823269 262.384553,254.369098 262.575793,254.917239 L276.738572,249.976014 L276.160351,248.321637 L275.012203,245.054334 L273.87511,241.842293 L272.749068,238.685509 L271.634073,235.583973 L270.530121,232.53768 C270.347049,232.034567 270.164438,231.533756 269.982286,231.035247 Z M283.244054,268.974812 L269.027301,273.758528 L270.780689,278.992425 C270.9768,279.580355 271.173339,280.170414 271.370309,280.762601 L285.603629,276.028408 L283.830118,270.719112 C283.634338,270.135557 283.438983,269.554124 283.244054,268.974812 Z" id="Path-7" fill="#000000" fill-rule="nonzero"></path>
        <polygon id="Line-2" fill="#000000" fill-rule="nonzero" points="48.478559 17.9742942 55.0257058 4.47855899 299.646441 123.150706 293.099294 136.646441"></polygon>
    </g>
</svg>