<?xml version="1.0" encoding="utf-8"?>
<!DOCTYPE svg PUBLIC "-//W3C//DTD SVG 1.1//EN" "http://www.w3.org/Graphics/SVG/1.1/DTD/svg11.dtd">
<svg version="1.1" id="Layer_1" xmlns="http://www.w3.org/2000/svg" xmlns:xlink="http://www.w3.org/1999/xlink" x="0px" y="0px"
	 width="512px" height="512px" viewBox="0 0 512 512" enable-background="new 0 0 512 512" xml:space="preserve">
<path stroke="#000000" stroke-miterlimit="10" d="M256,62.204C145.532,62.204,55.981,148.969,55.981,256
	c0,107.03,89.551,193.796,200.019,193.796c110.467,0,200.018-86.766,200.018-193.796C456.018,148.969,366.467,62.204,256,62.204z
	 M256,392.95c-77.291,0-139.947-61.315-139.947-136.95c0-75.636,62.656-136.949,139.947-136.949
	c77.29,0,139.946,61.313,139.946,136.949C395.946,331.635,333.29,392.95,256,392.95z"/>
<g>
	<path stroke="#000000" stroke-miterlimit="10" d="M256,173.5c11.348,0,22.159,2.294,32,6.439V0h-64v179.939
		C233.84,175.793,244.651,173.5,256,173.5z"/>
	<path stroke="#000000" stroke-miterlimit="10" d="M173.5,255.999c0-11.348,2.294-22.161,6.439-32.001L0.001,223.994L0,287.995
		l179.938,0.004C175.793,278.159,173.5,267.348,173.5,255.999z"/>
	<path stroke="#000000" stroke-miterlimit="10" d="M256,338.5c-11.349,0-22.16-2.294-32-6.438V512h64V332.062
		C278.159,336.206,267.348,338.5,256,338.5z"/>
	<path stroke="#000000" stroke-miterlimit="10" d="M332.062,224c4.145,9.84,6.438,20.651,6.438,31.999
		c0,11.35-2.294,22.162-6.439,32.003L512,288.006v-64.001L332.062,224z"/>
</g>
</svg>
