<?xml version="1.0" encoding="utf-8"?>
<!DOCTYPE svg PUBLIC "-//W3C//DTD SVG 1.1//EN" "http://www.w3.org/Graphics/SVG/1.1/DTD/svg11.dtd">
<svg version="1.1" id="Layer_1" xmlns="http://www.w3.org/2000/svg" xmlns:xlink="http://www.w3.org/1999/xlink" x="0px" y="0px"
	 width="549px" height="512px" viewBox="0 0 549 512" enable-background="new 0 0 549 512" xml:space="preserve">
<g>
	<path d="M95.55,94.202v116.549h112.949V94.202h68.399V397.5h-68.399V270.602H95.55V397.5h-68.4V94.202H95.55z"/>
	<path d="M338.098,330.451c12.15,6.749,40.05,17.999,67.949,17.999c35.55,0,53.55-17.1,53.55-38.7
		c0-29.249-28.8-42.299-58.949-42.299h-27.9v-49.05h27c22.95,0,51.75-9,51.75-33.75c0-17.55-13.95-30.6-43.2-30.6
		c-23.85,0-49.05,10.35-60.749,17.55l-13.95-49.5c17.55-11.25,52.199-22.05,90.449-22.05c62.1,0,96.75,32.85,96.75,72.9
		c0,31.05-17.551,55.799-53.55,67.949v0.9c35.1,6.3,63.449,32.849,63.449,71.549c0,51.3-45.449,89.1-119.699,89.1
		c-37.8,0-69.749-9.9-86.85-20.25L338.098,330.451z"/>
</g>
</svg>
