<?xml version="1.0" encoding="utf-8"?>
<!DOCTYPE svg PUBLIC "-//W3C//DTD SVG 1.1//EN" "http://www.w3.org/Graphics/SVG/1.1/DTD/svg11.dtd">
<svg version="1.1" xmlns="http://www.w3.org/2000/svg" xmlns:xlink="http://www.w3.org/1999/xlink" width="512" height="512" viewBox="0 0 512 512">
<g>
</g>
    <path d="M23.143 36.857l15.428 7.715q5.715 1.428 60.285 1.428h37.143l5.428-0.857 32.857-0.285 61.429 0.285h83.714l9.714 0.572q4 0.285 8-2t6-4.572l2-2.285 12-0.285q4.286 0 8 0.285v29.857t0.286 37.572l0.286 28.572-0.286 16.572q0 9.143-1.143 14.572-11.143 4.286-19.428 5.143-7.143-12.286-15.428-36.571-2.286-6.857-4.428-17.857t-3.286-18.715-1.714-8.285q-3.714-4.285-7.714-5.428-2-0.572-12.143-0.572t-29.572 0.285-31.714 0.285q-9.714 0-19.143 1.428-2.857 27.715-2.286 38.857l0.286 43.428v94.857l0.857 102.572-0.286 42q-0.286 13.143 3.143 24.286 14 7.143 25.429 9.143 0.571 0 5.143 1.428t12.571 3.714 12.286 3.428q8.572 2.286 14.286 5.143 1.428 12.857 1.428 14.286 0 2.857-0.857 8.286-4 0.286-9.714 0.286-31.428 0-53.428-2.857-20.572-2.286-68-2.286-25.143 0-66.572 4-13.715 1.143-20 1.143-0.572-6.286-0.572-7.428l-0.285-7.428v-2.572q6-9.428 22.572-14 39.715-10.857 45.429-14.286 2.571-6 3.429-16 2.286-54.857 1.714-123.714l-1.429-122.286q-0.286-17.714-0.143-33.857t0.143-29.285-0.571-16.285-1.714-4.285q-1.714-1.428-4-1.715-10.857-1.715-42.285-1.715-12.285 0-28.572 3.857t-20.857 7q-3.715 2.572-6.285 9.428t-6.285 21.428-6.857 24q-1.715 5.428-5.572 9.143t-5.857 3.714q-12.572-7.714-16-12.571v-109.428zM498.286 402.286q9.428 0 12 5.286t-3.143 12.714l-36 46.286q-5.714 7.428-14 7.428t-14-7.428l-36-46.286q-5.714-7.428-3.143-12.714t12-5.286h22.857v-292.572h-22.857q-9.428 0-12-5.285t3.143-12.715l36-46.285q5.714-7.428 14-7.428t14 7.428l36 46.285q5.714 7.428 3.143 12.715t-12 5.285h-22.857v292.572h22.857z" fill="#000000" />
</svg>
