<?xml version="1.0" encoding="utf-8"?>
<!DOCTYPE svg PUBLIC "-//W3C//DTD SVG 1.1//EN" "http://www.w3.org/Graphics/SVG/1.1/DTD/svg11.dtd">
<svg version="1.1" id="Layer_1" xmlns="http://www.w3.org/2000/svg" xmlns:xlink="http://www.w3.org/1999/xlink" x="0px" y="0px"
	 width="549px" height="512px" viewBox="0 0 549 512" enable-background="new 0 0 549 512" xml:space="preserve">
<g>
	<path d="M66.2,107.904c14.8-3.2,34.799-5.2,54.799-5.2c31.199,0,55.999,4.4,73.198,20.8c16,14,23.2,36.399,23.2,59.199
		c0,29.199-8.8,49.999-22.8,64.799c-16.8,18-43.599,26-65.599,26c-3.6,0-6.8,0-10.4-0.4V373.5H66.2V107.904z M118.599,230.702
		c2.8,0.4,5.6,0.4,8.8,0.4c26.399,0,37.999-18.8,37.999-43.999c0-23.6-9.6-42-34-42c-4.8,0-9.6,0.8-12.8,2V230.702z"/>
	<path d="M244.193,236.702c0-19.2-0.8-40.399-1.6-58.799h45.199l2.8,28.4h1.601c8.399-20.8,24.399-32,38.399-32
		c5.6,0,8.399,0.4,11.199,1.2v51.599c-3.2-0.4-6.8-0.4-11.199-0.4c-11.2,0-26,7.6-31.6,27.6c-1.601,4.399-2.4,11.601-2.4,19.6V373.5
		h-52.399V236.702z"/>
	<path d="M404.19,294.301c0.399,30.4,18.399,41.6,41.199,41.6c14.8,0,27.6-3.199,37.199-6.4l6.8,37.6
		c-13.199,5.2-33.6,8.801-53.199,8.801c-53.599,0-82.799-35.199-82.799-96.398c0-66,34.399-105.199,78.399-105.199
		c41.999,0,66.398,33.199,66.398,92.798c0,14-0.8,21.6-1.6,27.199H404.19z M450.59,257.502c0-25.2-6.4-44.799-22-44.799
		c-16.8,0-24,25.199-24.399,44.799H450.59z"/>
</g>
</svg>
