<?xml version="1.0" encoding="utf-8"?>
<!DOCTYPE svg PUBLIC "-//W3C//DTD SVG 1.1//EN" "http://www.w3.org/Graphics/SVG/1.1/DTD/svg11.dtd">
<svg version="1.1" id="Layer_1" xmlns="http://www.w3.org/2000/svg" xmlns:xlink="http://www.w3.org/1999/xlink" x="0px" y="0px"
	 width="549px" height="512px" viewBox="0 0 549 512" enable-background="new 0 0 549 512" xml:space="preserve">
<g>
	<path d="M100.999,325.901l-12,61.599H38.2l58.398-269.596h62.8L211.797,387.5h-50.799l-11.6-61.599H100.999z M144.599,285.102
		l-8.8-56.399c-2.801-16.4-6.4-43.6-8.8-61.199h-1.2c-2.8,18-6.8,45.599-9.6,61.199l-10,56.399H144.599z"/>
	<path d="M376.196,110.704v218.797c0,18.399,0.8,39.999,1.6,57.999h-45.199l-2.8-22h-1.2c-7.199,13.601-22.799,25.2-40.399,25.2
		c-41.599,0-60.799-46-60.799-100.799c0-67.999,30-101.598,62.799-101.598c17.2,0,27.6,8.8,32.8,20h0.8v-97.599H376.196z
		 M323.797,267.102c0-3.6,0-8-0.8-11.6c-1.6-12-8-22.8-18.399-22.8c-18.4,0-25.2,26.8-25.2,58.399c0,37.199,10,56.799,24.4,56.799
		c6.8,0,14.399-3.6,18.399-17.199c1.2-2.8,1.6-7.2,1.6-12.4V267.102z"/>
	<path d="M412.994,250.702c0-19.2-0.8-40.399-1.6-58.799h45.199l2.8,28.4h1.601c8.399-20.8,24.399-32,38.399-32
		c5.6,0,8.399,0.4,11.199,1.2v51.599c-3.2-0.4-6.8-0.4-11.199-0.4c-11.2,0-26,7.6-31.6,27.6c-1.601,4.399-2.4,11.601-2.4,19.6V387.5
		h-52.399V250.702z"/>
</g>
</svg>
