<?xml version="1.0" encoding="utf-8"?>
<!DOCTYPE svg PUBLIC "-//W3C//DTD SVG 1.1//EN" "http://www.w3.org/Graphics/SVG/1.1/DTD/svg11.dtd">
<svg version="1.1" id="Layer_1" xmlns="http://www.w3.org/2000/svg" xmlns:xlink="http://www.w3.org/1999/xlink" x="0px" y="0px"
	 width="549px" height="512px" viewBox="0 0 549 512" enable-background="new 0 0 549 512" xml:space="preserve">
<g>
	<path d="M91.552,83.776v116.549h112.949V83.776H272.9v303.298h-68.399V260.175H91.552v126.899h-68.4V83.776H91.552z"/>
	<path d="M322.399,387.074v-41.4l37.35-33.75c64.35-57.599,95.399-90.449,95.85-124.649c0-23.85-13.95-42.75-47.699-42.75
		c-25.2,0-47.25,12.6-62.55,23.85l-19.35-48.6c21.6-16.65,56.249-30.15,95.399-30.15c66.6,0,102.599,38.7,102.599,91.35
		c0,49.5-35.1,88.65-77.85,126.449l-26.999,22.5v0.9h110.699v56.25H322.399z"/>
</g>
</svg>
