<?xml version="1.0" encoding="utf-8"?>
<!DOCTYPE svg PUBLIC "-//W3C//DTD SVG 1.1//EN" "http://www.w3.org/Graphics/SVG/1.1/DTD/svg11.dtd">
<svg version="1.1" id="Layer_1" xmlns="http://www.w3.org/2000/svg" xmlns:xlink="http://www.w3.org/1999/xlink" x="0px" y="0px"
	 width="549px" height="512px" viewBox="0 0 549 512" enable-background="new 0 0 549 512" xml:space="preserve">
<g>
	<path d="M53,187.298c12.399-39.2,30-77.999,47.999-108.398l36.799-3.2c-12,34-22.399,72.799-28,107.999L53,187.298z
		 M131.398,187.298c12.4-39.2,29.6-77.999,48-108.398l36.799-3.2c-12.4,34-22.399,72.799-28,107.999L131.398,187.298z"/>
	<path d="M399.795,75.7c-12.399,38.799-29.6,77.999-47.999,107.999l-36.8,3.6c12.4-34.4,22.4-72.799,28-107.999L399.795,75.7z
		 M478.193,75.7c-12.399,38.799-29.999,77.999-47.999,107.999l-36.799,3.6c11.999-34.4,22.399-72.799,27.999-107.999L478.193,75.7z"
		/>
</g>
</svg>
