<?xml version="1.0" encoding="UTF-8"?>
<svg width="274px" height="356px" viewBox="0 0 274 356" version="1.1" xmlns="http://www.w3.org/2000/svg" xmlns:xlink="http://www.w3.org/1999/xlink">
    <title>thermometer</title>
    <g id="Page-1" stroke="none" stroke-width="1" fill="none" fill-rule="evenodd">
        <g id="thermometer" fill="#000000">
            <path d="M155.004369,278.675042 C155.004369,321.376099 120.301112,356 77.5021847,356 C34.703258,356 0,321.376099 0,278.675042 C0,249.392063 15.4925259,223.937181 39.5422001,210.808514 L39.5422001,38.6493238 C39.5422001,17.2987954 57.711307,0 79.1107704,0 C100.510234,0 117.861863,17.2987954 117.861863,38.6493238 L117.861863,212.75545 C140.11836,226.357697 155.004369,250.747025 155.004369,278.675042 Z M104.953622,220.556352 L104.953622,38.6493238 C104.953622,24.4156382 93.3902645,12.8787229 79.1239555,12.8787229 C64.8576466,12.8787229 53.294289,24.4156382 53.294289,38.6493238 L53.294289,219.01722 C29.6401686,228.594043 12.9214258,251.641564 12.9214258,278.675042 C12.9214258,314.259257 41.8364124,343.108122 77.5021847,343.108122 C113.167957,343.108122 142.069767,314.259257 142.069767,278.675042 C142.082944,252.917597 126.840935,230.883009 104.953622,220.556352 Z M46,278.957316 C46,263.199016 57.0392957,250.071316 71.7836183,246.766204 L71.7836183,217 L88.2878285,217 L88.2878285,247.406991 C101.954325,251.445635 112,263.966274 112,278.957316 C112,297.202881 97.2304159,312 79,312 C60.7695841,312 46,297.202881 46,278.957316 Z" id="Shape" fill-rule="nonzero"></path>
            <rect id="Rectangle" x="184" y="56" width="90" height="10"></rect>
            <rect id="Rectangle-Copy-17" x="184" y="21" width="90" height="10"></rect>
            <rect id="Rectangle-Copy-14" x="184" y="91" width="90" height="10"></rect>
            <rect id="Rectangle-Copy-15" x="184" y="126" width="90" height="10"></rect>
            <rect id="Rectangle-Copy-16" x="184" y="161" width="90" height="10"></rect>
        </g>
    </g>
</svg>