<?xml version="1.0" encoding="UTF-8"?>
<svg width="734px" height="710px" viewBox="0 0 734 710" version="1.1" xmlns="http://www.w3.org/2000/svg" xmlns:xlink="http://www.w3.org/1999/xlink">
    <g stroke="none" stroke-width="1" fill="none" fill-rule="evenodd">
        <g id="Group-4" transform="translate(0.000000, 534.000000)" fill="#000000">
            <path d="M187,0 C235.601058,0 275,39.398942 275,88 C275,136.601058 235.601058,176 187,176 C138.398942,176 99,136.601058 99,88 C99,39.398942 138.398942,0 187,0 Z M188.5,47 C165.027898,47 146,66.0278981 146,89.5 C146,112.972102 165.027898,132 188.5,132 C211.972102,132 231,112.972102 231,89.5 C231,66.0278981 211.972102,47 188.5,47 Z" id="Combined-Shape"></path>
            <path d="M142,90 C142,96.7756021 143.496766,103.209054 146.184342,109.00091 L8,109 C3.581722,109 -3.47095419e-16,105.418278 0,101 L0,74 C-1.42926142e-15,69.581722 3.581722,66 8,66 L148.896888,65.9988995 C144.522027,72.9861117 142,81.2047969 142,90 Z M697,66 C701.418278,66 705,69.581722 705,74 L705,101 C705,105.418278 701.418278,109 697,109 L231.815658,109.00091 C234.503234,103.209054 236,96.7756021 236,90 C236,81.2047969 233.477973,72.9861117 229.103112,65.9988995 L697,66 Z" id="Combined-Shape"></path>
        </g>
        <g id="Group-5" transform="translate(10.000000, 0.000000)" fill="#000000" fill-rule="nonzero">
            <path d="M173.5,0 C77.7240571,0.111035429 0.118295959,72.9536671 0,162.851268 C0,248.511035 154.25333,444.657985 160.881818,453.022618 C163.858921,456.779301 168.563136,459 173.547318,459 C178.539387,459 183.235716,456.779301 186.216761,453.022618 C192.74667,444.657985 347,248.511035 347,162.851268 C346.881704,72.9536671 269.275943,0.111035429 173.5,0 Z M174,419 C125.088889,354.568441 32,220.148194 32,162.460076 C32,88.7530423 95.5765561,29 174,29 C252.423444,29 316,88.7530423 316,162.460076 C316,220.103707 222.911111,354.538783 174,419 Z" id="Shape"></path>
            <path d="M174,242 C135.89475,242 105,211.10525 105,173 C105,134.89475 135.89475,104 174,104 C212.10525,104 243,134.89475 243,173 C243,211.10525 212.10525,242 174,242 Z" id="Shape"></path>
        </g>
        <path d="M729.943974,208.494182 L587.627257,51.2214545 C584.591167,47.8872727 580.353291,46 575.862408,46 L516.830751,46 C510.600441,46 504.939399,49.6487273 502.377698,55.3105455 C499.847623,61.0038182 500.891279,67.6407273 505.065902,72.2330909 L637.863212,219 L505.065902,365.735455 C500.891279,370.359273 499.815997,376.996182 502.377698,382.658 C504.939399,388.351273 510.600441,392 516.830751,392 L575.862408,392 C580.353291,392 584.591167,390.081273 587.627257,386.81 L729.943974,229.537273 C735.352009,223.560909 735.352009,214.439091 729.943974,208.494182 Z" id="Path" fill="#000000" fill-rule="nonzero"></path>
        <path d="M561.962073,208.494182 L420.280428,51.2214545 C417.257886,47.8872727 413.038922,46 408.568079,46 L415.760108,46 C409.5576,46 403.921819,49.6487273 401.37155,55.3105455 C398.852765,61.0038182 399.891764,67.6407273 404.047759,72.2330909 L536.252476,219 L404.047759,365.735455 C399.891764,370.359273 398.82128,376.996182 401.37155,382.658 C403.921819,388.351273 409.5576,392 415.760108,392 L408.568079,392 C413.038922,392 417.257886,390.081273 420.280428,386.81 L561.962073,229.537273 C567.345976,223.560909 567.345976,214.439091 561.962073,208.494182 Z" id="Path" fill="#000000" fill-rule="nonzero"></path>
    </g>
</svg>