<?xml version="1.0" encoding="utf-8"?>
<!DOCTYPE svg PUBLIC "-//W3C//DTD SVG 1.1//EN" "http://www.w3.org/Graphics/SVG/1.1/DTD/svg11.dtd">
<svg version="1.1" xmlns="http://www.w3.org/2000/svg" xmlns:xlink="http://www.w3.org/1999/xlink" width="293" height="512" viewBox="0 0 293 512">
<g>
</g>
    <path d="M146.286 329.143q0-10.286-5.714-19.714-0.286-0.286-4.428-6.428t-7.286-10.857-7.143-12.572-6-14.428q-1.143-4.572-6-4.572t-6 4.572q-2 6.572-6 14.428t-7.143 12.572-7.285 10.857-4.428 6.428q-5.715 9.428-5.715 19.714 0 15.143 10.715 25.857t25.857 10.714 25.857-10.714 10.714-25.857zM292.572 292.572q0 60.572-42.857 103.428t-103.429 42.857-103.428-42.857-42.857-103.428q0-41.428 23.143-78.572 1.715-2.571 17.857-25.857t28.857-43.143 28.428-50.857 23.715-57.572q2.572-8.572 9.715-13.428t14.571-4.857 14.714 4.857 9.572 13.428q8 26.572 23.714 57.572t28.428 50.857 28.857 43.143 17.857 25.857q23.143 36.286 23.143 78.572z" fill="#000000" />
</svg>
