<?xml version="1.0" encoding="utf-8"?>
<!DOCTYPE svg PUBLIC "-//W3C//DTD SVG 1.1//EN" "http://www.w3.org/Graphics/SVG/1.1/DTD/svg11.dtd">
<svg version="1.1" id="Layer_1" xmlns="http://www.w3.org/2000/svg" xmlns:xlink="http://www.w3.org/1999/xlink" x="0px" y="0px"
	 width="476px" height="512px" viewBox="0 0 476 512" enable-background="new 0 0 476 512" xml:space="preserve">
<path d="M268.18,262.678c0-15.961-3.107-31.189-9.322-45.7c-6.217-14.509-14.625-27.054-25.213-37.643
	c-10.581-10.582-23.134-18.983-37.636-25.206c-14.509-6.215-29.738-9.322-45.699-9.322c-15.963,0-31.192,3.107-45.701,9.322
	c-14.509,6.223-27.054,14.625-37.643,25.206c-10.582,10.589-18.984,23.134-25.206,37.643c-6.215,14.51-9.322,29.739-9.322,45.7
	c0,15.971,3.107,31.191,9.322,45.693c6.222,14.518,14.625,27.062,25.206,37.65c10.589,10.574,23.134,18.977,37.643,25.205
	c14.509,6.215,29.737,9.322,45.701,9.322c15.961,0,31.19-3.107,45.699-9.322c14.502-6.229,27.055-14.631,37.636-25.205
	c10.588-10.59,18.999-23.135,25.213-37.65C265.07,293.869,268.18,278.648,268.18,262.678z M444.965,262.678
	c0-15.961-3.106-31.189-9.322-45.7c-6.215-14.509-14.616-27.054-25.205-37.643c-10.59-10.582-23.135-18.983-37.637-25.206
	c-14.517-6.215-29.753-9.322-45.708-9.322h-88.854c18.258,13.812,32.731,30.996,43.391,51.562
	c10.662,20.566,15.999,42.665,15.999,66.294c0,23.64-5.337,45.737-15.999,66.295c-10.659,20.56-25.133,37.752-43.391,51.562h88.854
	c15.955,0,31.191-3.106,45.708-9.321c14.502-6.229,27.047-14.632,37.637-25.205c10.589-10.591,18.99-23.149,25.205-37.651
	c6.216-14.502,9.322-29.723,9.322-45.693V262.678z M474.43,262.678c0,19.941-3.914,39.018-11.739,57.203
	c-7.826,18.186-18.301,33.838-31.421,46.959c-13.12,13.105-28.773,23.579-46.959,31.42c-18.186,7.827-37.248,11.74-57.202,11.74
	H150.322c-19.948,0-39.018-3.913-57.203-11.74c-18.192-7.826-33.845-18.299-46.951-31.42
	c-13.114-13.121-23.587-28.773-31.429-46.959C6.906,301.695,2.993,282.633,3,262.678c0.007-19.954,3.92-39.024,11.739-57.202
	c7.82-18.185,18.293-33.831,31.429-46.952c13.127-13.128,28.779-23.602,46.951-31.428c18.163-7.826,37.233-11.74,57.203-11.74
	h176.786c19.94,0,39.018,3.914,57.202,11.74c18.186,7.827,33.839,18.3,46.959,31.428c13.105,13.121,23.579,28.767,31.421,46.952
	C470.516,223.654,474.43,242.724,474.43,262.678z"/>
<circle fill="#020202" stroke="#000000" stroke-miterlimit="10" cx="147.618" cy="260.617" r="67.882"/>
</svg>
