<?xml version="1.0" encoding="utf-8"?>
<!DOCTYPE svg PUBLIC "-//W3C//DTD SVG 1.1//EN" "http://www.w3.org/Graphics/SVG/1.1/DTD/svg11.dtd">
<svg version="1.1" id="Layer_1" xmlns="http://www.w3.org/2000/svg" xmlns:xlink="http://www.w3.org/1999/xlink" x="0px" y="0px"
	 width="476px" height="512px" viewBox="0 0 476 512" enable-background="new 0 0 476 512" xml:space="preserve">
<path d="M3,250.991c0-19.905,3.905-38.935,11.715-57.081c7.81-18.153,18.269-33.773,31.361-46.852
	c13.093-13.086,28.706-23.538,46.853-31.362c18.139-7.817,37.168-11.722,57.081-11.715h176.41c19.898,0,38.936,3.905,57.081,11.715
	c18.146,7.81,33.767,18.261,46.859,31.362c13.078,13.093,23.529,28.706,31.354,46.852c7.811,18.14,11.715,37.169,11.715,57.081
	c0,19.911-3.904,38.934-11.715,57.081c-7.811,18.146-18.262,33.767-31.354,46.859c-13.107,13.094-28.728,23.545-46.859,31.354
	C365.384,394.096,346.348,398,326.42,398H150.01c-19.906,0-38.935-3.904-57.081-11.715c-18.154-7.811-33.774-18.262-46.853-31.354
	c-13.086-13.094-23.537-28.714-31.361-46.859C6.897,289.925,2.993,270.902,3,250.991z M326.42,368.598
	c15.937,0,31.125-3.101,45.597-9.302c14.472-6.203,27.005-14.587,37.57-25.153c10.552-10.565,18.937-23.084,25.152-37.556
	c6.202-14.485,9.303-29.688,9.303-45.61c0-15.928-3.101-31.125-9.303-45.604c-6.217-14.478-14.602-26.997-25.152-37.563
	c-10.565-10.559-23.1-18.95-37.57-25.152c-14.472-6.201-29.66-9.303-45.597-9.303c-15.935,0-31.124,3.102-45.596,9.303
	c-14.471,6.202-27.004,14.593-37.57,25.152c-10.56,10.566-18.943,23.086-25.152,37.563c-6.202,14.479-9.303,29.675-9.303,45.604
	c0,15.921,3.101,31.125,9.303,45.61c6.209,14.472,14.593,26.989,25.152,37.556c10.566,10.566,23.1,18.95,37.57,25.153
	C295.296,365.497,310.485,368.598,326.42,368.598z"/>
<circle fill="#020202" stroke="#000000" stroke-miterlimit="10" cx="329.618" cy="250.617" r="50.882"/>
</svg>
