<?xml version="1.0" encoding="utf-8"?>
<!DOCTYPE svg PUBLIC "-//W3C//DTD SVG 1.1//EN" "http://www.w3.org/Graphics/SVG/1.1/DTD/svg11.dtd">
<svg version="1.1" id="Layer_1" xmlns="http://www.w3.org/2000/svg" xmlns:xlink="http://www.w3.org/1999/xlink" x="0px" y="0px"
	 width="512px" height="512px" viewBox="0 0 512 512" enable-background="new 0 0 512 512" xml:space="preserve">
<rect x="17.287" y="167.5" width="45.214" height="40.333"/>
<rect x="447.501" y="167.5" width="45.213" height="41.333"/>
<g>
	<rect x="17.287" y="245.834" width="45.214" height="43.333"/>
	<rect x="17.287" y="327.167" width="45.214" height="40.333"/>
</g>
<g>
	<rect x="447.501" y="246.833" width="45.213" height="41.333"/>
	<rect x="447.501" y="326.167" width="45.213" height="41.333"/>
</g>
<path d="M89.5,428.25H62.501V405.5H17.287v23.463c0,12.572,4.477,23.334,13.429,32.286c8.951,8.952,19.713,13.428,32.284,13.428
	h26.5V428.25z"/>
<rect x="134.5" y="428.25" width="49.5" height="46.427"/>
<rect x="229" y="428.25" width="49.5" height="46.427"/>
<g>
	<rect x="323.5" y="428.25" width="49.5" height="46.427"/>
	<path d="M447.501,405.5v22.75H418v46.427h29c12.572,0.001,23.334-4.475,32.286-13.428s13.428-19.715,13.428-32.286V405.5H447.501z"
		/>
</g>
<path d="M479.286,48.25c-8.953-8.952-19.715-13.428-32.286-13.428H63c-12.571,0-23.333,4.476-32.284,13.428
	c-8.952,8.952-13.429,19.714-13.429,32.285V168.5h475.427V80.535C492.715,67.964,488.239,57.202,479.286,48.25z M447.501,70.161
	V82.5v14.661H418V82.5H92.002v12H62.501v-12v-17v-12h385V70.161z"/>
</svg>
