<?xml version="1.0" encoding="utf-8"?>
<!DOCTYPE svg PUBLIC "-//W3C//DTD SVG 1.1//EN" "http://www.w3.org/Graphics/SVG/1.1/DTD/svg11.dtd">
<svg version="1.1" id="Layer_1" xmlns="http://www.w3.org/2000/svg" xmlns:xlink="http://www.w3.org/1999/xlink" x="0px" y="0px"
    width="512px" height="512px" viewBox="0 0 512 512" enable-background="new 0 0 512 512" xml:space="preserve">
<path d="M 225 281 L 225 187.5 C 225 153 253 125 287.5 125 C 322 125 350 153 350 187.5 L 350 281 C 380.125 260.875 400 226.5 400 187.5 C 400 125.37499999999999 349.625 75 287.5 75 C 225.375 75 175 125.37499999999999 175 187.5 C 175 226.5 194.875 260.875 225 281 ZM 470.875 396.75 L 357.375 340.25 C 353.125 338.5 348.625 337.5 343.75 337.5 L 325 337.5 L 325 187.5 C 325 166.75 308.25 150 287.5 150 C 266.75 150 250 166.75 250 187.5 L 250 455.875 L 164.375 438 C 162.5 437.625 160.5 437.375 158.5 437.375 C 150.75 437.375 143.75 440.625 138.625 445.625 L 118.875 465.625 L 242.375 589.125 C 249.25 595.875 258.625 600.125 268.875 600.125 L 438.75 600.125 C 457.625 600.125 472 586.25 474.625 568.125 L 493.5 436.37499999999994 C 493.75 434.62500000000006 493.875 433 493.875 431.25 C 493.75 415.75 484.25 402.375 470.875 396.75 Z"/>
</svg>