<?xml version="1.0" encoding="utf-8"?>
<!DOCTYPE svg PUBLIC "-//W3C//DTD SVG 1.1//EN" "http://www.w3.org/Graphics/SVG/1.1/DTD/svg11.dtd">
<svg version="1.1" id="Layer_1" xmlns="http://www.w3.org/2000/svg" xmlns:xlink="http://www.w3.org/1999/xlink" x="0px" y="0px"
	 width="512px" height="512px" viewBox="0 0 512 512" enable-background="new 0 0 512 512" xml:space="preserve">
<path d="M458.5,412.5c-2.668,0-5.273,0.266-7.798,0.758L285.668,90.557C292.386,83.328,296.5,73.646,296.5,63
	c0-22.368-18.133-40.5-40.5-40.5c-22.368,0-40.5,18.132-40.5,40.5c0,11.323,4.652,21.555,12.142,28.905L60.684,418.368
	c-3.846-1.212-7.938-1.868-12.184-1.868C26.132,416.5,8,434.633,8,457s18.132,40.5,40.5,40.5c18.734,0,34.491-12.725,39.117-30
	h333.067c5.833,15.203,20.56,26,37.815,26c22.367,0,40.5-18.133,40.5-40.5S480.867,412.5,458.5,412.5z M46.833,478.5
	c-11.414,0-20.666-9.252-20.666-20.666s9.252-20.667,20.666-20.667c11.414,0,20.667,9.253,20.667,20.667S58.247,478.5,46.833,478.5z
	 M256.833,43.167c11.414,0,20.667,9.252,20.667,20.667S268.247,84.5,256.833,84.5c-11.414,0-20.666-9.252-20.666-20.667
	S245.419,43.167,256.833,43.167z M109.319,430.5l147.062-296l147.062,296H109.319z M458.833,473.5
	c-11.413,0-20.666-9.252-20.666-20.666s9.253-20.667,20.666-20.667c11.414,0,20.667,9.253,20.667,20.667
	S470.247,473.5,458.833,473.5z"/>
</svg>
