<?xml version="1.0" encoding="UTF-8"?>
<svg width="148px" height="158px" viewBox="0 0 148 158" version="1.1" xmlns="http://www.w3.org/2000/svg" xmlns:xlink="http://www.w3.org/1999/xlink">
    <title>u-tube</title>
    <g id="Page-1" stroke="none" stroke-width="1" fill="none" fill-rule="evenodd">
        <g id="u-tube" transform="translate(74.000000, 79.000000) rotate(180.000000) translate(-74.000000, -79.000000) " fill="#000000" fill-rule="nonzero">
            <g transform="translate(74.000000, 79.000000) rotate(180.000000) translate(-74.000000, -79.000000) ">
                <path d="M108.911,57 L108.911,93.033 C108.911,112.112 93.389,127.634 74.31,127.634 C55.231,127.634 39.708,112.112 39.708,93.033 L39.708,57 L11.866,57 L11.866,93.033 C11.866,127.464 39.878,155.476 74.309,155.476 C108.74,155.476 136.752,127.464 136.752,93.033 L136.752,57 L108.911,57 Z" id="Path"></path>
                <path d="M136.752,21.811 C135.371,21.811 134.252,22.93 134.252,24.311 L134.252,93.033 C134.252,126.086 107.362,152.976 74.31,152.976 C41.258,152.976 14.367,126.085 14.367,93.033 L14.367,24.311 C14.367,22.93 13.248,21.811 11.867,21.811 C10.486,21.811 9.367,22.93 9.367,24.311 L9.367,93.033 C9.367,128.843 38.501,157.976 74.31,157.976 C110.119,157.976 139.252,128.843 139.252,93.033 L139.252,24.311 C139.252,22.93 138.133,21.811 136.752,21.811 Z" id="Path"></path>
                <path d="M42.208,24.311 C42.208,22.93 41.089,21.811 39.708,21.811 C38.327,21.811 37.208,22.93 37.208,24.311 L37.208,93.033 C37.208,113.491 53.852,130.135 74.31,130.135 C94.767,130.135 111.411,113.491 111.411,93.033 L111.411,24.311 C111.411,22.93 110.292,21.811 108.911,21.811 C107.53,21.811 106.411,22.93 106.411,24.311 L106.411,93.033 C106.411,110.734 92.011,125.135 74.31,125.135 C56.609,125.135 42.208,110.734 42.208,93.033 L42.208,24.311 Z" id="Path"></path>
                <path d="M41.684,18.922 C46.894,18.922 51.133,14.683 51.133,9.473 C51.133,4.263 46.894,0.023 41.684,0.023 L9.644,0.023 C4.434,0.023 0.195,4.262 0.195,9.473 C0.195,14.684 4.434,18.922 9.644,18.922 L41.684,18.922 Z M5.194,9.473 C5.194,7.019 7.19,5.023 9.643,5.023 L41.683,5.023 C44.136,5.023 46.132,7.019 46.132,9.473 C46.132,11.926 44.136,13.922 41.683,13.922 L9.643,13.922 C7.19,13.922 5.194,11.926 5.194,9.473 Z" id="Shape"></path>
                <path d="M138.356,0.023 L106.316,0.023 C101.106,0.023 96.867,4.262 96.867,9.473 C96.867,14.684 101.106,18.922 106.316,18.922 L138.356,18.922 C143.566,18.922 147.805,14.683 147.805,9.473 C147.805,4.263 143.566,0.023 138.356,0.023 L138.356,0.023 Z M138.356,13.922 L106.316,13.922 C103.863,13.922 101.867,11.926 101.867,9.473 C101.867,7.019 103.863,5.023 106.316,5.023 L138.356,5.023 C140.809,5.023 142.805,7.019 142.805,9.473 C142.806,11.926 140.81,13.922 138.356,13.922 Z" id="Shape"></path>
                <path d="M74.31,139.825 C48.123,139.825 26.819,118.52 26.819,92.334 L26.819,28 C26.819,26.619 27.938,25.5 29.319,25.5 C30.7,25.5 31.819,26.619 31.819,28 L31.819,92.333 C31.819,115.763 50.881,134.824 74.31,134.824 C97.739,134.824 116.8,115.762 116.8,92.333 L116.8,28 C116.8,26.619 117.919,25.5 119.3,25.5 C120.681,25.5 121.8,26.619 121.8,28 L121.8,92.333 C121.8,118.52 100.496,139.825 74.31,139.825 L74.31,139.825 Z" id="Path"></path>
            </g>
        </g>
    </g>
</svg>