<?xml version="1.0" encoding="utf-8"?>
<!DOCTYPE svg PUBLIC "-//W3C//DTD SVG 1.1//EN" "http://www.w3.org/Graphics/SVG/1.1/DTD/svg11.dtd">
<svg version="1.1" id="Layer_1" xmlns="http://www.w3.org/2000/svg" xmlns:xlink="http://www.w3.org/1999/xlink" x="0px" y="0px"
	 width="439px" height="512px" viewBox="0 0 439 512" enable-background="new 0 0 439 512" xml:space="preserve">
<path d="M33.161,107.463c-6.382-0.345-10.263-0.69-11.642-1.034l-0.776-22.766c2.243-0.172,5.692-0.258,10.348-0.258
	c10.348,0,20.006,0.346,28.975,1.035c22.766,1.207,37.081,1.811,42.944,1.811c14.833,0,29.32-0.259,43.462-0.776
	c20.006-0.69,32.597-1.121,37.771-1.293c9.659,0,17.074-0.172,22.25-0.518l-0.259,3.622l0.517,16.556v2.329
	c-10.349,1.552-21.042,2.329-32.08,2.329c-10.349,0-17.162,2.156-20.438,6.468c-2.242,2.415-3.363,13.797-3.363,34.149
	c0,2.243,0.043,5.045,0.129,8.407c0.086,3.362,0.13,5.561,0.13,6.596l0.259,59.243l3.622,72.438
	c1.035,21.385,5.433,38.805,13.194,52.258c6.037,10.176,14.315,18.109,24.835,23.801c15.177,8.105,30.439,12.158,45.791,12.158
	c17.938,0,34.407-2.414,49.412-7.244c9.658-3.104,18.197-7.5,25.611-13.193c8.279-6.208,13.885-11.729,16.817-16.557
	c6.208-9.659,10.78-19.488,13.711-29.492c3.622-12.59,5.433-32.338,5.433-59.243c0-13.625-0.301-24.664-0.905-33.115
	c-0.603-8.451-1.552-19.015-2.846-31.691c-1.294-12.676-2.458-26.43-3.493-41.264l-1.034-15.264
	c-0.862-11.555-2.931-19.144-6.209-22.766c-5.863-6.037-12.503-8.968-19.921-8.796l-25.869,0.518l-3.621-0.776l0.518-22.249h21.729
	l53.035,2.586c13.106,0.517,30.009-0.345,50.706-2.586l4.656,0.518c1.037,6.554,1.554,10.952,1.554,13.195
	c0,1.207-0.347,3.881-1.036,8.02c-7.762,2.07-15.005,3.191-21.731,3.364c-12.59,1.897-19.403,3.363-20.438,4.397
	c-2.586,2.586-3.879,6.123-3.879,10.608c0,1.207,0.129,3.536,0.387,6.985c0.259,3.45,0.388,6.123,0.388,8.02
	c1.38,3.277,3.277,37.425,5.692,102.447c1.034,33.632-0.26,59.847-3.881,78.646c-2.587,13.107-6.123,23.629-10.607,31.562
	c-6.554,11.212-16.211,21.817-28.975,31.821c-12.935,9.83-28.63,17.504-47.084,23.023c-18.8,5.691-40.789,8.538-65.969,8.538
	c-28.803,0-53.293-3.968-73.473-11.901c-20.524-8.106-35.959-18.627-46.308-31.561c-10.521-13.109-17.678-29.924-21.473-50.448
	c-2.76-13.797-4.14-34.235-4.14-61.312v-86.15c0-32.424-1.465-50.793-4.397-55.104c-4.312-6.208-16.988-9.572-38.03-10.09H33.161z
	 M418.113,471.977V455.42c0-2.415-0.776-4.398-2.329-5.951s-3.536-2.328-5.95-2.328H29.021c-2.415,0-4.398,0.775-5.951,2.328
	c-1.552,1.553-2.328,3.536-2.328,5.951v16.557c0,2.416,0.776,4.398,2.328,5.951s3.536,2.328,5.951,2.328h380.813
	c2.414,0,4.397-0.775,5.95-2.328S418.113,474.393,418.113,471.977z"/>
</svg>
