<?xml version="1.0" encoding="UTF-8"?>
<svg width="535px" height="558px" viewBox="0 0 535 558" version="1.1" xmlns="http://www.w3.org/2000/svg" xmlns:xlink="http://www.w3.org/1999/xlink">
    <title>Page 1</title>
    <g id="Page-1" stroke="none" stroke-width="1" fill="none" fill-rule="evenodd">
        <path d="M483.088235,234 C511.426141,234 534.533714,260.380372 534.993032,293.009351 L535,294 L535,498 C535,530.75316 512.175806,557.461063 483.945341,557.991946 L483.088235,558 L233.911765,558 C205.573859,558 182.466286,531.619628 182.006968,498.990649 L182,498 L182,294 C182,261.24684 204.824194,234.538937 233.054659,234.008054 L233.911765,234 L483.088235,234 Z M483.088235,274 L233.911765,274 C224.474093,274 216.776804,282.778017 216.610587,293.641129 L216.607843,294 L216.607843,498 C216.607843,508.90813 224.202549,517.804714 233.601271,517.996829 L233.911765,518 L483.088235,518 C492.525907,518 500.223196,509.221983 500.389413,498.358871 L500.392157,498 L500.392157,294 C500.392157,282.972 492.629618,274 483.088235,274 Z M358.5,332 C376.180282,332 390.512255,348.565 390.512255,369 C390.512255,381.893143 384.801701,393.236532 376.149919,399.860007 L375.771909,400.145 L375.771909,444 C375.771909,455.045 368.024078,464 358.467988,464 C349.014912,464 341.332692,455.238616 341.166804,444.359413 L341.164066,444 L341.164066,400.098 C332.336471,393.51 326.487745,382.048 326.487745,369 C326.487745,348.565 340.819718,332 358.5,332 Z" id="Combined-Shape" fill="#000000" fill-rule="nonzero"></path>
        <path d="M177.017507,0 C247.966393,0 305.820658,57.8572479 306.970648,129.420035 L306.988095,131.592754 L306.988095,233.898438 L350.356151,233.898438 C351.619867,233.898438 352.876105,233.932174 354.124067,233.998822 L-0.000174399123,233.998831 C0.854665181,233.953176 1.71338816,233.922963 2.57573793,233.908458 L3.76791583,233.898438 L47.0469183,233.898438 L47.0469183,131.592754 C47.0469183,59.0319844 105.351965,0 177.017507,0 Z M177.017507,49.765625 C132.346074,49.765625 95.9192279,85.7422782 95.1951581,130.241706 L95.1841732,131.592754 L95.1841732,233.898438 L258.85084,233.898438 L258.85084,131.592754 C258.85084,86.47275 222.140166,49.765625 177.017507,49.765625 Z" id="Combined-Shape" fill="#000000" fill-rule="nonzero"></path>
    </g>
</svg>