<?xml version="1.0" encoding="UTF-8"?>
<svg width="611px" height="463px" viewBox="0 0 611 463" version="1.1" xmlns="http://www.w3.org/2000/svg" xmlns:xlink="http://www.w3.org/1999/xlink">
    <g id="Page-1" stroke="none" stroke-width="1" fill="none" fill-rule="evenodd">
        <rect fill="none" x="98" y="0" width="463" height="463"></rect>
        <g id="Group-5" transform="translate(0.000000, 9.000000)" fill="#000000">
            <path d="M482.999407,249.549532 L482.989783,255.261905 L482.987794,256.583181 C482.856472,300.0886 476.224715,334.02119 463.092522,358.380952 C438.379943,403.460317 391.22616,426 321.631174,426 C252.036189,426 204.791551,403.460317 179.897261,358.380952 C174.325356,348.045261 169.923692,335.986222 166.692269,322.203833 C196.873754,323.151178 226.539343,322.103051 255.690176,319.063198 C266.105455,341.517255 288.086458,352.746032 321.631174,352.746032 C355.610971,352.746032 377.688754,341.100529 387.864522,317.809524 C391.603984,310.293433 394.274621,300.260793 395.876433,287.711605 C400.439044,286.117144 404.986476,284.464021 409.519693,282.7559 C435.910202,272.811924 460.36621,261.615732 482.999407,249.549532 Z M245.312913,0 L245.315534,201.267704 C217.554995,207.519972 189.118279,213.238242 160.005388,218.422516 L160,0 L245.312913,0 Z M482.989783,0 L482.995719,128.131211 C455.477566,139.270345 427.039091,149.682671 397.680291,159.368189 L397.67687,0 L482.989783,0 Z" id="Combined-Shape" fill-rule="nonzero"></path>
            <path d="M0,249.713578 C263.870417,238.8818 467.537084,191.310607 611,107 C611,107 556.594342,216.268772 384.129444,266.484816 C269.152845,299.962179 141.109697,294.371766 0,249.713578 Z" id="Path-10" opacity="0.659999967"></path>
        </g>
    </g>
</svg>