<?xml version="1.0" encoding="utf-8"?>
<!DOCTYPE svg PUBLIC "-//W3C//DTD SVG 1.1//EN" "http://www.w3.org/Graphics/SVG/1.1/DTD/svg11.dtd">
<svg version="1.1" id="Layer_1" xmlns="http://www.w3.org/2000/svg" xmlns:xlink="http://www.w3.org/1999/xlink" x="0px" y="0px"
	 width="512px" height="512px" viewBox="0 0 512 512" enable-background="new 0 0 512 512" xml:space="preserve">
<g>
    <path d="M481.5,449.463 59.292,449.463 59.292,34.496 30.5,34.496 30.5,476.504 481.5,476.504Z"/>
    <path d="M275.283,100.645L206.906,76.41l7.375,30.138l-88.998,28.979l6.328,25.86l88.997-28.979l7.375,30.137L275.283,100.645z"/>
    <path d="M278.635,217.413l-67.329-26.613l6.542,30.382l-89.214,25.854l5.614,26.07l89.214-25.854l6.542,30.38L278.635,217.413z"/>
    <path d="M287.518,340.947l-63.522-35.196l3.521,31.039l-90,14.096l3.022,26.636l90-14.096l3.521,31.039L287.518,340.947z"/>
    <path d="M450.184,102.118l-60.246-42.324l0.921,31.296l-90.675,3.691l0.791,26.855l90.675-3.692l0.922,31.295L450.184,102.118z"/>
    <path d="M465.931,343.213l-56.248-49.274l-1.774,31.244l-90.455-7.115l-1.522,26.812l90.454,7.115l-1.775,31.245L465.931,343.213z"/>
    <path d="M458.066,215.422l-60.734-41.284l1.31,31.277l-90.575,5.25l1.124,26.837l90.575-5.25l1.311,31.277L458.066,215.422z"/>
</g>
</svg>
