<?xml version="1.0" encoding="utf-8"?>
<!DOCTYPE svg PUBLIC "-//W3C//DTD SVG 1.1//EN" "http://www.w3.org/Graphics/SVG/1.1/DTD/svg11.dtd">
<svg version="1.1" id="Layer_1" xmlns="http://www.w3.org/2000/svg" xmlns:xlink="http://www.w3.org/1999/xlink" width="18" height="18" viewBox="0 0 18 18">
    <path xmlns="http://www.w3.org/2000/svg" fill="#5f6368" fill-rule="evenodd" d="M1,0 L17,0 C17.5522847,-1.01453063e-16 18,0.44771525 18,1 L18,15 C18,15.5522847 17.5522847,16 17,16 L1,16 C0.44771525,16 6.76353751e-17,15.5522847 0,15 L0,1 L0,1 C-6.76353751e-17,0.44771525 0.44771525,1.01453063e-16 1,0 L1,0 Z M2,2 L2,14 L16,14 L16,2 L2,2 Z M13,5.5 L16,8 L13,10.5 L13,5.5 Z M5,5.5 L5,10.5 L2,8 L5,5.5 Z M11.5,5 L6.5,5 L9,2 L11.5,5 Z M6.5,11 L11.5,11 L9,14 L6.5,11 Z" transform="translate(0 1)"/>
</svg>