<?xml version="1.0" encoding="utf-8"?>
<!DOCTYPE svg PUBLIC "-//W3C//DTD SVG 1.1//EN" "http://www.w3.org/Graphics/SVG/1.1/DTD/svg11.dtd">
<svg version="1.1" id="Layer_1" xmlns="http://www.w3.org/2000/svg" xmlns:xlink="http://www.w3.org/1999/xlink" x="0px" y="0px"
	 width="512px" height="512px" viewBox="0 0 512 512" enable-background="new 0 0 512 512" xml:space="preserve">
<g id="icomoon-ignore">
</g>
<path fill="#444444" d="M480.097,265.133c-14.104-17.653-32.153-29.111-54.134-34.341c6.94-10.475,10.412-22.138,10.412-34.989
	c0-17.915-6.34-33.215-19.017-45.894c-12.678-12.677-27.97-19.016-45.894-19.016c-16.053,0-30.092,5.246-42.089,15.72
	c-9.969-24.341-25.909-43.856-47.794-58.562C259.697,73.354,235.57,66,209.192,66c-35.83,0.008-66.422,12.693-91.778,38.033
	c-25.363,25.355-38.04,55.947-38.04,91.785c0,2.195,0.167,5.832,0.507,10.902c-19.952,9.294-35.846,23.239-47.675,41.836
	c-11.838,18.604-17.757,38.889-17.757,60.853c0.008,31.267,11.125,58.016,33.349,80.249C70.017,411.876,96.766,423,128.04,423
	h275.864c26.877,0,49.822-9.509,68.839-28.524c19.017-19.017,28.524-41.963,28.524-68.839l0.017-0.017
	C501.284,302.975,494.232,282.818,480.097,265.133z M241.25,393L97.5,259.75h93.594V160.5h100.312v99.25H385L241.25,393z"/>
</svg>
