<?xml version="1.0" encoding="utf-8"?>
<!DOCTYPE svg PUBLIC "-//W3C//DTD SVG 1.1//EN" "http://www.w3.org/Graphics/SVG/1.1/DTD/svg11.dtd">
<svg version="1.1" id="Layer_1" xmlns="http://www.w3.org/2000/svg" xmlns:xlink="http://www.w3.org/1999/xlink" x="0px" y="0px"
	 width="512px" height="512px" viewBox="0 0 512 512" enable-background="new 0 0 512 512" xml:space="preserve">
<path fill="#444444" d="M256,14C123.452,14,16,121.452,16,254s107.452,240,240,240c132.549,0,240-107.451,240-240S388.549,14,256,14
	z M256,446c-106.039,0-192-85.961-192-192S149.961,62,256,62s192,85.961,192,192S362.039,446,256,446z"/>
<g>
	<path d="M237.012,206.946c0,45.701-25.264,69.896-52.879,69.896c-29.084,0-51.999-24.867-51.999-66.2
		c0-38.98,20.858-68.552,53.761-68.552C218.504,142.09,237.012,169.646,237.012,206.946z M165.331,209.634
		c-0.294,22.851,6.757,39.317,19.683,39.317c12.632,0,18.801-14.786,18.801-39.653c0-22.179-5.288-39.316-19.389-39.316
		C171.206,169.982,165.331,187.456,165.331,209.634z M186.188,367.909l109.872-225.483h23.797L210.278,367.909H186.188z
		 M374.499,297.677c0,45.365-25.265,69.561-52.88,69.561c-28.79,0-51.704-24.866-51.704-65.863
		c0-38.981,20.858-68.553,53.467-68.553C355.991,232.821,374.499,260.376,374.499,297.677z M303.111,300.029
		c-0.294,22.852,6.757,39.317,19.39,39.317c12.632,0,18.802-14.786,18.802-39.317c0-22.18-5.289-39.316-19.096-39.316
		C308.987,260.713,303.111,278.187,303.111,300.029z"/>
</g>
</svg>
