<?xml version="1.0" encoding="utf-8"?>
<!DOCTYPE svg PUBLIC "-//W3C//DTD SVG 1.1//EN" "http://www.w3.org/Graphics/SVG/1.1/DTD/svg11.dtd">
<svg version="1.1" id="Layer_1" xmlns="http://www.w3.org/2000/svg" xmlns:xlink="http://www.w3.org/1999/xlink" x="0px" y="0px"
	 width="512px" height="512px" viewBox="0 0 512 512" enable-background="new 0 0 512 512" xml:space="preserve">
<path fill="#444444" d="M325.453,86.413L325.453,86.413C245.681,20.618,172.281,7.305,157.014,32.668
	c-4.345,7.254-16.152,27.035-30.985,51.943C74.135,67.896,40.443,82.359,25.25,104.322C7.272,130.292,7.204,173.916,50.413,217.12
	c24.688,24.636,69.295,36.208,111.377,27.764c0.852-5.104,3.002-10.03,6.555-14.337c10.595-12.846,29.363-14.878,41.929-4.515
	c12.562,10.36,14.157,29.188,3.562,42.035c-10.447,12.667-28.844,14.774-41.399,4.899c-51.913,12.283-106.081,0.847-140.027-31.038
	c-3.628,6.087-4.988,8.397-6.841,11.477c-6.445,10.826,5.792,70.686,64.1,118.86l0.017,0.014
	c58.386,48.075,119.501,48.709,128.886,40.311c9.329-8.363,169.338-150.949,191.667-171.073
	C432.234,221.736,405.191,152.178,325.453,86.413L325.453,86.413z M49.594,120.99c7.909-11.407,27.919-18.781,60.578-9.775
	c-14.954,25.12-31.178,52.404-45.411,76.354c-21.75-26.738-24.82-52.616-15.165-66.574L49.594,120.99z M255.194,171.562
	c-58.32-48.157-81.443-104.455-74.631-112.715c6.755-8.255,66.484,3.725,124.806,51.882c58.373,48.09,81.52,104.461,74.699,112.662
	C373.256,231.652,313.584,219.664,255.194,171.562z"/>
<path fill="#444444" d="M465.562,387.286c-8.943-24.952-27.9-47.357-47.967-64.361c-20.068,17.004-39.021,39.409-47.971,64.361
	c-5.531,15.431-6.076,32.179,1.713,46.984c8.957,17.022,27.021,27.944,46.258,27.944c19.234,0,37.297-10.922,46.254-27.944
	C471.643,419.465,471.094,402.717,465.562,387.286L465.562,387.286z M448.443,426.162c-5.959,11.325-18.064,18.642-30.846,18.642
	c-7.498,0-14.764-2.52-20.691-6.89c1.801,0.234,3.621,0.358,5.455,0.358c15.973,0,31.105-9.142,38.551-23.293
	c6.104-11.603,5.574-23.646,3.248-33.237c1.98,3.83,3.66,7.646,5.014,11.42C452.246,401.739,454.617,414.428,448.443,426.162
	L448.443,426.162z"/>
</svg>
