<?xml version="1.0" encoding="utf-8"?>
<!DOCTYPE svg PUBLIC "-//W3C//DTD SVG 1.1//EN" "http://www.w3.org/Graphics/SVG/1.1/DTD/svg11.dtd">
<svg version="1.1" id="Layer_1" xmlns="http://www.w3.org/2000/svg" xmlns:xlink="http://www.w3.org/1999/xlink" x="0px" y="0px"
	 width="512px" height="512px" viewBox="0 0 512 512" enable-background="new 0 0 512 512" xml:space="preserve">
<g id="icomoon-ignore">
</g>
<path fill="#444444" d="M384.579,429.924c0-4.983-1.825-9.293-5.473-12.942c-3.635-3.648-7.959-5.474-12.944-5.474
	c-4.985,0.017-9.295,1.84-12.944,5.474c-3.647,3.618-5.474,7.942-5.474,12.942c0,5.002,1.825,9.328,5.474,12.943
	c3.649,3.635,7.959,5.442,12.944,5.475c4.985,0,9.311-1.824,12.944-5.475C382.754,439.219,384.579,434.91,384.579,429.924z
	 M458.215,429.924c0-4.983-1.825-9.293-5.474-12.942c-3.648-3.648-7.957-5.474-12.944-5.474c-4.984,0.017-9.31,1.84-12.941,5.474
	c-3.65,3.618-5.475,7.942-5.475,12.942c0,5.002,1.823,9.328,5.475,12.943c3.633,3.635,7.957,5.442,12.941,5.475
	c4.987,0,9.296-1.824,12.944-5.475C456.39,439.219,458.215,434.91,458.215,429.924z M495,365.506v92.021
	c0,7.676-2.688,14.186-8.052,19.549c-5.362,5.365-11.874,8.053-19.55,8.053H44.065c-7.667,0-14.178-2.688-19.549-8.053
	c-5.371-5.363-8.052-11.873-8.052-19.549v-92.021c0-7.66,2.681-14.188,8.052-19.549c5.371-5.381,11.882-8.053,19.549-8.053h122.8
	c4.026,10.727,10.79,19.549,20.28,26.453c9.49,6.903,20.084,10.348,31.769,10.348h73.626c11.687,0,22.271-3.443,31.771-10.348
	c9.481-6.904,16.246-15.728,20.271-26.453h122.8c7.659,0,14.187,2.672,19.548,8.053c5.38,5.361,8.055,11.889,8.055,19.549H495z
	 M401.55,179.136c-3.256,7.667-8.919,11.497-16.971,11.497h-73.62v128.838c0,4.986-1.825,9.312-5.457,12.961
	c-3.648,3.648-7.959,5.473-12.961,5.439h-73.61c-4.979,0-9.296-1.809-12.944-5.439c-3.648-3.649-5.473-7.959-5.457-12.961V190.633
	h-73.62c-8.052,0-13.706-3.83-16.97-11.497c-3.264-7.47-1.925-14.083,4.026-19.84L242.805,30.458
	c3.444-3.641,7.762-5.458,12.943-5.458c5.189,0,9.507,1.817,12.952,5.458l128.838,128.838c5.945,5.757,7.299,12.37,4.026,19.84
	H401.55z"/>
</svg>
