<?xml version="1.0" encoding="utf-8"?>
<!DOCTYPE svg PUBLIC "-//W3C//DTD SVG 1.1//EN" "http://www.w3.org/Graphics/SVG/1.1/DTD/svg11.dtd">
<svg version="1.1" id="Layer_1" xmlns="http://www.w3.org/2000/svg" xmlns:xlink="http://www.w3.org/1999/xlink" x="0px" y="0px"
	 width="512px" height="512px" viewBox="0 0 512 512" enable-background="new 0 0 512 512" xml:space="preserve">
<path d="M491.058,106.076c-9.776-11.471-21.312-17.213-34.604-17.213H255.861L205.409,31.87H55.284
	c-13.295,0-24.83,5.743-34.605,17.213C10.904,60.567,6.016,73.817,6.016,88.835V428.06c0,15.021,4.888,28.272,14.663,39.755
	c9.775,11.458,21.31,17.199,34.605,17.199h401.168c13.294,0,24.828-5.741,34.604-17.199c9.775-11.481,14.663-24.733,14.663-39.755
	V145.828C505.721,130.797,500.833,117.561,491.058,106.076z M453.861,433.509c-7.894,8.997-24.211,10.505-34.944,10.505H94.937
	c-10.738,0-25.053,1.492-32.948-7.505c-7.894-9.016-6.841-25.42-6.841-37.215v-266.36c0-11.792-1.053-26.196,6.841-35.213
	c7.895-9.007,13.21-13.515,23.948-13.515h99.239l43.745,48.75h195.996c10.733,0,20.051,1.51,27.945,10.516
	c7.896,9.019,5.843,14.412,5.842,26.214v229.609C458.704,411.089,461.758,424.493,453.861,433.509z"/>
<path d="M340.442,254.235h-60.678v-60.678c0-6.383-5.175-11.558-11.558-11.558h-41.415c-6.383,0-11.558,5.174-11.558,11.558v60.678
	h-60.677c-6.383,0-11.558,5.175-11.558,11.558v41.414c0,6.383,5.175,11.558,11.558,11.558h60.677v60.678
	c0,6.383,5.175,11.558,11.558,11.558h41.415c6.383,0,11.558-5.175,11.558-11.558v-60.678h60.678c6.383,0,11.558-5.175,11.558-11.558
	v-41.414C352,259.41,346.825,254.235,340.442,254.235z"/>
</svg>
