<?xml version="1.0" encoding="iso-8859-1"?>
<!-- Generator: Adobe Illustrator 18.0.0, SVG Export Plug-In . SVG Version: 6.00 Build 0)  -->
<!DOCTYPE svg PUBLIC "-//W3C//DTD SVG 1.1//EN" "http://www.w3.org/Graphics/SVG/1.1/DTD/svg11.dtd">
<svg version="1.1" id="Capa_1" xmlns="http://www.w3.org/2000/svg" xmlns:xlink="http://www.w3.org/1999/xlink" x="0px" y="0px"
	 viewBox="0 0 493.035 493.035" style="enable-background:new 0 0 493.035 493.035;" xml:space="preserve">
<g>
	<path d="M165.345,281.692c2.659,0,5.304,0.3,7.889,0.859c4.734-14.9,18.703-25.729,35.15-25.729h28.651
		c7.765,0,14.938,2.472,20.897,6.597c0.655-5.042,2.215-10.052,4.915-14.729l18.037-31.211c5.324-9.252,13.943-15.873,24.228-18.638
		c3.385-0.918,6.884-1.37,10.389-1.37c5.074,0,10.084,0.965,14.743,2.813c2.814-19.293,19.473-34.153,39.535-34.153h36.07
		c1.854,0,3.64,0.26,5.424,0.502v-36.95c0-14.908-12.083-26.986-26.991-26.986H171.773c-2.13,0-3.859-1.728-3.859-3.859V65.414
		c0-14.91-12.078-26.989-26.986-26.989H26.987C12.079,38.425,0,50.504,0,65.414v265.632c0,14.9,12.079,26.989,26.987,26.989h90.229
		c-4.444-10.329-4.2-22.555,1.814-33.101l14.349-24.814c4.859-8.414,13.038-14.673,22.427-17.171
		C158.915,282.122,162.135,281.692,165.345,281.692z"/>
	<path d="M387.812,262.059c-20.917,0-37.941,17.023-37.941,37.955c0,20.923,17.023,37.956,37.941,37.956
		c20.923,0,37.945-17.033,37.945-37.956C425.757,279.083,408.734,262.059,387.812,262.059z"/>
	<path d="M485.604,318.483l-13.639-7.882c0.466-3.51,1.085-6.946,1.085-10.587c0-3.624-0.619-7.094-1.085-10.604l13.639-7.871
		c3.42-1.98,5.89-5.215,6.904-9.017c1.04-3.81,0.484-7.861-1.465-11.283l-18.058-31.236c-2.729-4.757-7.729-7.435-12.874-7.435
		c-2.509,0-5.063,0.643-7.408,1.995l-13.563,7.816c-5.675-4.337-11.754-8.188-18.433-10.986v-15.298
		c0-8.212-6.664-14.865-14.858-14.865h-36.07c-8.209,0-14.863,6.653-14.863,14.865v15.298c-6.704,2.798-12.764,6.649-18.453,10.986
		l-13.538-7.824c-2.279-1.322-4.85-1.994-7.424-1.994c-1.3,0-2.595,0.162-3.859,0.51c-3.805,1.022-7.039,3.504-9.009,6.924
		l-18.063,31.244c-4.094,7.116-1.675,16.19,5.449,20.3l13.619,7.871c-0.04,0.34-0.056,0.688-0.105,1.037
		c3.314,2.748,6.334,5.862,8.514,9.688l14.398,24.889c4.895,8.544,6.185,18.468,3.6,28.089c-1.575,5.707-4.435,10.864-8.334,15.136
		c1.545,1.702,2.795,3.646,3.994,5.619l10.759-6.219c5.69,4.337,11.739,8.179,18.453,10.993v15.306
		c0,8.204,6.654,14.844,14.863,14.844h36.07c8.194,0,14.858-6.64,14.858-14.844v-15.306c6.714-2.815,12.758-6.656,18.433-10.993
		l13.563,7.824c2.279,1.313,4.859,1.992,7.443,1.992c1.28,0,2.56-0.17,3.825-0.51c3.804-1.023,7.064-3.51,9.014-6.932l18.058-31.244
		C495.139,331.671,492.719,322.585,485.604,318.483z M387.812,354.703c-30.151,0-54.673-24.532-54.673-54.688
		c0-30.158,24.521-54.688,54.673-54.688c30.156,0,54.679,24.529,54.679,54.688C442.49,330.171,417.968,354.703,387.812,354.703z"/>
	<path d="M300.353,382.93l-10.828-6.249c0.335-2.79,0.835-5.529,0.835-8.414c0-2.872-0.5-5.627-0.835-8.424l10.828-6.234
		c2.694-1.572,4.665-4.143,5.499-7.166c0.82-3.04,0.365-6.242-1.185-8.949l-14.348-24.8c-2.175-3.787-6.135-5.901-10.209-5.901
		c-2,0-4.024,0.51-5.874,1.58l-10.774,6.219c-4.514-3.444-9.333-6.51-14.618-8.738v-12.129c0-6.527-5.294-11.804-11.809-11.804
		h-28.651c-6.519,0-11.778,5.276-11.778,11.804v12.129c-5.294,2.229-10.124,5.294-14.633,8.738l-10.764-6.234
		c-1.8-1.037-3.83-1.564-5.864-1.564c-1.03,0-2.064,0.137-3.09,0.404c-3.005,0.803-5.595,2.772-7.154,5.482l-14.333,24.814
		c-3.229,5.648-1.325,12.863,4.329,16.115l10.814,6.234c-0.341,2.797-0.83,5.552-0.83,8.424c0,2.885,0.489,5.624,0.83,8.406
		l-10.814,6.242c-5.654,3.25-7.559,10.474-4.329,16.115l14.333,24.814c1.56,2.699,4.149,4.68,7.154,5.489
		c1.015,0.274,2.045,0.413,3.064,0.413c2.055,0,4.08-0.551,5.89-1.605l10.738-6.201c4.534,3.461,9.364,6.519,14.658,8.73v12.151
		c0,6.512,5.26,11.788,11.778,11.788h28.651c6.515,0,11.809-5.276,11.809-11.788v-12.151c5.305-2.212,10.105-5.27,14.618-8.73
		l10.774,6.201c1.8,1.055,3.839,1.605,5.884,1.605c1.02,0,2.045-0.139,3.04-0.413c3.015-0.81,5.619-2.79,7.159-5.489l14.348-24.814
		C307.927,393.403,305.982,386.182,300.353,382.93z M222.702,400.79c-17.947,0-32.501-14.568-32.501-32.523
		c0-17.958,14.554-32.525,32.501-32.525c17.988,0,32.541,14.567,32.541,32.525C255.243,386.222,240.691,400.79,222.702,400.79z"/>
</g>
</svg>
