<?xml version="1.0" encoding="utf-8"?>
<!DOCTYPE svg PUBLIC "-//W3C//DTD SVG 1.1//EN" "http://www.w3.org/Graphics/SVG/1.1/DTD/svg11.dtd">
<svg version="1.1" id="Layer_1" xmlns="http://www.w3.org/2000/svg" xmlns:xlink="http://www.w3.org/1999/xlink" x="0px" y="0px"
	 width="512px" height="512px" viewBox="0 0 512 512" enable-background="new 0 0 512 512" xml:space="preserve">
<path d="M228.586,159.982c0-12.191,9.996-22.188,22.187-22.188h14.793c12.193,0,22.189,9.997,22.189,22.188v14.794
	c0,12.191-9.996,22.188-22.189,22.188h-14.793c-12.19,0-22.187-9.997-22.187-22.188V159.982z"/>
<path d="M317.34,374.478H199v-29.587h29.586v-88.756H199v-29.586h88.755v118.342h29.585V374.478z"/>
<path d="M258.172,19.452c-130.709,0-236.685,105.977-236.685,236.683c0,130.709,105.975,236.682,236.685,236.682
	c130.707,0,236.681-105.973,236.681-236.682C494.853,125.429,388.879,19.452,258.172,19.452z M258.172,448.438
	c-106.21,0-192.306-86.098-192.306-192.304c0-106.207,86.095-192.305,192.306-192.305c106.202,0,192.303,86.098,192.303,192.305
	C450.475,362.341,364.374,448.438,258.172,448.438z"/>
</svg>
