<?xml version="1.0" encoding="utf-8"?>
<!DOCTYPE svg PUBLIC "-//W3C//DTD SVG 1.1//EN" "http://www.w3.org/Graphics/SVG/1.1/DTD/svg11.dtd">
<svg version="1.1" id="Layer_1" xmlns="http://www.w3.org/2000/svg" xmlns:xlink="http://www.w3.org/1999/xlink" x="0px" y="0px"
	 width="512px" height="512px" viewBox="0 0 512 512" enable-background="new 0 0 512 512" xml:space="preserve">
<g>
	<path d="M69.275,356.214c0-29.067,19.557-49.154,47.57-49.154c27.482,0,46.511,19.559,47.037,49.154
		c0,28.015-19.026,48.628-48.096,48.628C88.832,404.842,69.275,384.229,69.275,356.214z"/>
	<path d="M206.694,356.214c0-29.067,19.557-49.154,47.57-49.154c27.483,0,46.511,19.559,47.039,49.154
		c0,28.015-19.027,48.628-48.099,48.628C226.252,404.842,206.694,384.229,206.694,356.214z"/>
	<path d="M344.117,356.214c0-29.067,19.555-49.154,47.569-49.154c27.483,0,46.512,19.559,47.037,49.154
		c0,28.015-19.024,48.628-48.095,48.628C363.672,404.842,344.117,384.229,344.117,356.214z"/>
</g>
</svg>
