<?xml version="1.0" encoding="utf-8"?>
<!DOCTYPE svg PUBLIC "-//W3C//DTD SVG 1.1//EN" "http://www.w3.org/Graphics/SVG/1.1/DTD/svg11.dtd">
<svg version="1.1" id="Layer_1" xmlns="http://www.w3.org/2000/svg" xmlns:xlink="http://www.w3.org/1999/xlink" x="0px" y="0px"
	 width="476px" height="512px" viewBox="0 0 476 512" enable-background="new 0 0 476 512" xml:space="preserve">
<path d="M468.66,50.019c-9.18-9.192-20.212-13.788-33.101-13.788H41.867c-12.888,0-23.922,4.596-33.099,13.788
	C-0.41,59.211-5,70.262-5,83.17v356.745c0,12.909,4.59,23.96,13.768,33.152c9.176,9.192,20.21,13.788,33.099,13.788H435.56
	c12.89,0,23.922-4.596,33.101-13.788c9.179-9.194,13.767-20.243,13.767-33.152V83.17C482.428,70.262,477.84,59.211,468.66,50.019z
	 M436.073,439.183H41.355V83.904h394.718V439.183z"/>
<g>
	<ellipse cx="373.532" cy="168.361" rx="45.623" ry="45.694"/>
	<polygon points="327.908,259.746 267.079,305.441 145.417,153.129 54.171,396.828 419.155,396.828 	"/>
</g>
</svg>
