<?xml version="1.0" encoding="utf-8"?>
<!DOCTYPE svg PUBLIC "-//W3C//DTD SVG 1.1//EN" "http://www.w3.org/Graphics/SVG/1.1/DTD/svg11.dtd">
<svg version="1.1" id="Layer_1" xmlns="http://www.w3.org/2000/svg" xmlns:xlink="http://www.w3.org/1999/xlink" x="0px" y="0px"
	 width="512px" height="512px" viewBox="0 0 512 512" enable-background="new 0 0 512 512" xml:space="preserve">
<path d="M501.988,402.722L371.547,272.28l105.227-105.207c36.669-36.657,36.669-96.303,0-132.951
	c-17.727-17.676-41.321-27.46-66.435-27.46c-25.112,0-48.688,9.784-66.436,27.521L238.687,139.411L108.266,8.979
	c-4.028-4.017-10.634-4.017-14.631,0L10.04,92.574c-4.017,4.017-4.017,10.634,0,14.631l130.422,130.421l-85.933,85.933
	c-2.468,2.469-4.27,5.586-5.241,8.944L7.844,477.556c-2.074,7.244-0.061,15.014,5.242,20.315c3.956,3.968,9.268,6.092,14.63,6.092
	c1.882,0,3.815-0.264,5.697-0.788l145.052-41.444c3.359-0.972,6.466-2.772,8.934-5.24l85.922-85.943l130.442,130.441
	c2.003,2.004,4.654,3.035,7.305,3.035c2.651,0,5.303-1.031,7.306-3.035l83.615-83.615c4.066-4.068,4.066-10.685,0-14.691V402.722z
	 M339.736,96.864l16.472-16.452l74.266,74.266l-16.472,16.452L339.736,96.864z M354.973,141.354L137.517,358.749
	c-15.35-1.234-29.271-9.39-38.085-21.632l225.612-225.603l29.909,29.859L354.973,141.354z M98.087,365.083
	c10.027,7.589,21.632,12.304,33.865,13.923c1.609,12.304,6.334,23.838,13.923,33.875c3.288,4.33,7.062,8.337,11.271,11.838
	L119,435.605l-43.649-43.648l10.887-38.064c3.501,4.148,7.437,7.912,11.848,11.211V365.083z M152.208,373.44l217.397-217.457
	l29.867,29.859L173.78,411.443C161.537,402.682,153.453,388.719,152.208,373.44z M410.339,48.105
	c14.064,0,27.218,5.433,37.174,15.42c20.459,20.448,20.459,53.807,0,74.266l-2.347,2.337l-74.348-74.347l2.348-2.316
	C383.121,53.559,396.295,48.105,410.339,48.105z M31.965,99.909l68.964-68.964l16.452,16.452l-31.79,31.792l14.63,14.63
	l31.791-31.79l26.813,26.812l-31.791,31.791l14.631,14.631l31.791-31.791l26.813,26.813l-31.791,31.791l14.63,14.63l31.792-31.792
	l9.137,9.137l-68.965,68.965L31.965,99.909z M68.805,414.742l27.4,27.399l-38.398,10.947L68.805,414.742z M411.047,478.992
	L287.931,355.896l68.965-68.964l9.146,9.126l-31.79,31.791l14.63,14.631l31.791-31.791l26.812,26.812l-31.79,31.791l14.631,14.632
	l31.79-31.792l26.813,26.813l-31.792,31.79l14.632,14.631l31.791-31.791l16.452,16.452L411.047,478.992z"/>
</svg>
