<?xml version="1.0" encoding="utf-8"?>
<!DOCTYPE svg PUBLIC "-//W3C//DTD SVG 1.1//EN" "http://www.w3.org/Graphics/SVG/1.1/DTD/svg11.dtd">
<svg version="1.1" id="Layer_1" xmlns="http://www.w3.org/2000/svg" xmlns:xlink="http://www.w3.org/1999/xlink" x="0px" y="0px"
	 width="512px" height="512px" viewBox="0 0 512 512" enable-background="new 0 0 512 512" xml:space="preserve">
<path stroke="#000000" stroke-miterlimit="10" d="M256,27C132.84,27,33,126.841,33,250s99.841,223,223,223
	c123.16,0,223-99.841,223-223S379.159,27,256,27z M256,425.5c-96.374,0-174.5-78.127-174.5-174.5c0-96.374,78.126-174.5,174.5-174.5
	S430.5,154.626,430.5,251C430.5,347.373,352.373,425.5,256,425.5z"/>
<g>
	<path d="M173.985,363.5v-237h51.686l40.653,86.853c11.615,24.967,22.94,54.503,31.941,81.228h0.58
		c-2.612-31.296-3.483-63.293-3.483-99.161V126.5h40.652v237h-46.46l-41.814-91.425c-11.615-25.317-24.682-55.91-33.974-83.688
		h-1.161c1.452,31.647,2.032,65.052,2.032,103.731V363.5H173.985z"/>
</g>
</svg>
