<?xml version="1.0" encoding="utf-8"?>
<!DOCTYPE svg PUBLIC "-//W3C//DTD SVG 1.1//EN" "http://www.w3.org/Graphics/SVG/1.1/DTD/svg11.dtd">
<svg version="1.1" xmlns="http://www.w3.org/2000/svg" xmlns:xlink="http://www.w3.org/1999/xlink" width="403" height="512" viewBox="0 0 403 512">
<g>
</g>
    <path d="M370.857 377.714q0 11.428-8 19.428l-38.857 38.857q-8 8-19.428 8t-19.428-8l-84-84-84 84q-8 8-19.428 8t-19.428-8l-38.857-38.857q-8-8-8-19.428t8-19.428l84-84-84-84q-8-8-8-19.428t8-19.428l38.857-38.857q8-8 19.428-8t19.428 8l84 84 84-84q8-8 19.428-8t19.428 8l38.857 38.857q8 8 8 19.428t-8 19.428l-84 84 84 84q8 8 8 19.428z" fill="#000000" />
</svg>
