<?xml version="1.0" encoding="utf-8"?>
<!DOCTYPE svg PUBLIC "-//W3C//DTD SVG 1.1//EN" "http://www.w3.org/Graphics/SVG/1.1/DTD/svg11.dtd">
<svg version="1.1" xmlns="http://www.w3.org/2000/svg" xmlns:xlink="http://www.w3.org/1999/xlink" width="512" height="512" viewBox="0 0 512 512">
<path d="M512 256v32h-117.253c13.752 19.255 21.253 41.346 21.253 64 0 35.439-18.33 69.513-50.29 93.482-29.679 22.259-68.642 34.518-109.71 34.518-41.069 0-80.031-12.259-109.71-34.518-31.96-23.969-50.29-58.043-50.29-93.482h64c0 34.691 43.963 64 96 64s96-29.309 96-64c0-34.691-43.963-64-96-64h-256v-32h149.759c-1.169-0.827-2.328-1.662-3.469-2.518-31.96-23.97-50.29-58.043-50.29-93.482s18.33-69.512 50.29-93.482c29.679-22.259 68.641-34.518 109.71-34.518 41.068 0 80.031 12.259 109.71 34.518 31.96 23.97 50.29 58.043 50.29 93.482h-64c0-34.691-43.963-64-96-64s-96 29.309-96 64c0 34.691 43.963 64 96 64 39.489 0 77.027 11.339 106.241 32h149.759z" fill="#444444"></path>
</svg>
