<?xml version="1.0" encoding="utf-8"?>
<!DOCTYPE svg PUBLIC "-//W3C//DTD SVG 1.1//EN" "http://www.w3.org/Graphics/SVG/1.1/DTD/svg11.dtd">
<svg version="1.1" id="Layer_1" xmlns="http://www.w3.org/2000/svg" xmlns:xlink="http://www.w3.org/1999/xlink" x="0px" y="0px"
	 width="549px" height="512px" viewBox="0 0 549 512" enable-background="new 0 0 549 512" xml:space="preserve">
<g>
	<path d="M119.382,154.745H30.337V92.12h253.436v62.625H193.75V421.88h-74.367V154.745z"/>
	<path d="M346.882,185.079l33.759,50.883c9.296,13.21,16.635,24.952,24.463,38.162h0.979c7.828-13.699,15.656-25.931,23.974-38.651
		l32.78-50.394h46.969l-80.728,114.486l82.685,122.314h-48.437l-35.227-53.329c-9.296-13.699-17.124-26.909-25.441-41.098h-0.979
		c-7.828,14.188-15.656,26.909-24.952,41.098l-34.248,53.329h-47.458l84.152-120.847l-80.238-115.954H346.882z"/>
</g>
</svg>
