<?xml version="1.0" encoding="utf-8"?>
<!DOCTYPE svg PUBLIC "-//W3C//DTD SVG 1.1//EN" "http://www.w3.org/Graphics/SVG/1.1/DTD/svg11.dtd">
<svg version="1.1" xmlns="http://www.w3.org/2000/svg" xmlns:xlink="http://www.w3.org/1999/xlink" width="439" height="512" viewBox="0 0 439 512">
<g>
</g>
    <path d="M23.143 36.857l15.428 7.715q5.715 1.428 60.285 1.428h37.143l5.428-0.857 32.857-0.285 218.286 0.285 9.714 0.572q4 0.285 8-2t6-4.572l2-2.285 12-0.285q4.286 0 8 0.285v29.857t0.286 37.572l0.286 28.572-0.286 16.572q0 9.143-1.143 14.572-11.143 4.286-19.428 5.143-7.143-12.286-15.428-36.571-2.286-6.857-4.428-17.857t-3.286-18.715-1.714-8.285q-3.714-4.285-7.714-5.428-2-0.572-16.714-0.572t-39.572 0.285-36.572 0.285q-26.857 0-36.286 1.428-2.857 27.715-2.286 38.857l0.286 43.428v-14.857l0.857 102.571-0.286 42q-0.286 13.143 3.143 24.286 14 7.143 25.428 9.143 0.572 0 5.143 1.428t12.572 3.714 12.286 3.428q8.572 2.286 14.286 5.143 1.428 12.857 1.428 14.286 0 2.857-0.857 8.286-4 0.286-9.714 0.286-31.428 0-53.428-2.857-20.572-2.286-68-2.286-23.428 0-66.572 3.714-12.857 1.428-20 1.428-0.572-6.286-0.572-7.428l-0.285-7.428v-2.572q6-9.428 22.571-14 39.714-10.857 45.428-14.286 2.571-6 3.429-16 1.714-39.143 1.714-123.714l-1.429-12.572q0-75.715-0.571-79.428-0.571-3.143-1.714-4.285-1.714-1.428-4-1.715-10.857-1.715-42.285-1.715-14.285 0-48.143 4t-37.857 6.857q-3.715 2.572-6.285 9.428t-6.285 21.428-6.857 24q-1.715 5.429-5.572 9.143t-5.857 3.714q-12.572-7.714-16-12.572v-109.428zM430 406.572q7.428 5.714 7.428 14t-7.428 14l-46.286 36q-7.428 5.714-12.714 3.143t-5.286-12v-22.857h-292.572v22.857q0 9.428-5.285 12t-12.715-3.143l-46.285-36q-7.428-5.714-7.428-14t7.428-14l46.285-36q7.428-5.714 12.715-3.143t5.285 12v22.857h292.572v-22.857q0-9.428 5.286-12t12.714 3.143z" fill="#000000" />
</svg>
