<?xml version="1.0" encoding="utf-8"?>
<!DOCTYPE svg PUBLIC "-//W3C//DTD SVG 1.1//EN" "http://www.w3.org/Graphics/SVG/1.1/DTD/svg11.dtd">
<svg version="1.1" id="Layer_1" xmlns="http://www.w3.org/2000/svg" xmlns:xlink="http://www.w3.org/1999/xlink" x="0px" y="0px"
	 width="512px" height="512px" viewBox="0 0 512 512" enable-background="new 0 0 512 512" xml:space="preserve">
<path d="M269.782,78.273v-9.948h67.938V34.913c0-18.46-15.191-33.413-33.969-33.413H201.844c-18.776,0-33.969,14.953-33.969,33.413
	v33.413h67.938v9.948C121.815,86.806,32,180.501,32,294.818C32,414.766,130.854,512,252.798,512
	c121.944,0,220.798-97.234,220.798-217.182C473.596,180.501,383.78,86.806,269.782,78.273z M258.204,127.854
	c43.356,1.321,83.913,18.551,114.729,48.839c32.078,31.552,49.742,73.506,49.742,118.126s-17.664,86.566-49.742,118.117h-0.051
	c-32.076,31.57-74.722,48.946-120.084,48.946c-45.363,0-88.008-17.376-120.085-48.946c-32.095-31.551-49.76-73.497-49.76-118.117
	s17.665-86.574,49.76-118.126c30.799-30.305,71.338-47.518,114.712-48.839"/>
<path d="M360.828,190.155c-4.949-4.707-13.028-4.543-17.828,0.045l-78.216,74.986c-4.897-2.276-10.386-3.521-16.213-3.521
	c-20.766,0-37.614,16.148-37.614,36.054c0,5.589,1.297,10.849,3.672,15.54l-28.063,26.898c-4.922,4.741-4.825,12.515-0.049,17.09
	c4.898,4.693,13.005,4.532,17.779-0.045l28.063-26.902c4.922,2.253,10.433,3.497,16.238,3.497c20.764,0,37.615-16.147,37.615-36.054
	c0-5.562-1.3-10.846-3.65-15.563l78.216-74.96C365.676,202.49,365.58,194.72,360.828,190.155z M248.571,309.738
	c-6.905,0-12.538-5.398-12.538-12.019c0-6.619,5.633-12.018,12.538-12.018c6.904,0,12.538,5.398,12.538,12.018
	C261.109,304.34,255.476,309.738,248.571,309.738z"/>
<path d="M265.634,498.187l0.005-77.305c-0.029-7.745-6.367-14.06-13.72-14.066c-7.62,0.029-13.73,6.53-13.741,14.084l0.007,77.433
	L265.634,498.187z"/>
<path d="M58.026,309.802l78.592,0.002c7.876-0.024,14.293-6.259,14.302-13.493c-0.029-7.493-6.64-13.505-14.321-13.515
	l-78.721,0.008L58.026,309.802z"/>
<path d="M238.183,96.449l-0.005,77.304c0.027,7.747,6.367,14.062,13.72,14.068c7.617-0.029,13.729-6.53,13.741-14.086l-0.009-77.433
	L238.183,96.449z"/>
<path d="M449.335,282.799l-78.593-0.003c-7.875,0.026-14.293,6.261-14.301,13.495c0.028,7.492,6.64,13.505,14.318,13.513
	l78.723-0.005L449.335,282.799z"/>
</svg>