<?xml version="1.0" encoding="utf-8"?>
<!DOCTYPE svg PUBLIC "-//W3C//DTD SVG 1.1//EN" "http://www.w3.org/Graphics/SVG/1.1/DTD/svg11.dtd">
<svg version="1.1" xmlns="http://www.w3.org/2000/svg" xmlns:xlink="http://www.w3.org/1999/xlink" width="512" height="512" viewBox="0 0 512 512">
<path d="M479.68 109.104c-1.536-25.12-22.192-45.056-47.68-45.056h-48v-16.032c0-26.512-21.504-48-48-48h-160c-26.512 0-48 21.488-48 48v16.016h-48c-25.52 0-46.16 19.936-47.696 45.056h-0.304v34.928c0 17.664 14.336 32 32 32v0 272c0 35.344 28.656 64 64 64h256c35.344 0 64-28.656 64-64v-272c17.664 0 32-14.336 32-32v-34.912h-0.32zM160 48.032c0-8.848 7.152-16 16-16h160c8.848 0 16 7.152 16 16v16h-192v-16zM416 448.032c0 17.632-14.368 32-32 32h-256c-17.648 0-32-14.368-32-32v-272h320v272zM448 128.016v16h-384v-31.984c0-8.848 7.152-16 16-16h352c8.848 0 16 7.152 16 16v15.984zM144 448.096h32c8.848 0 16-7.152 16-16v-208c0-8.848-7.152-16-16-16h-32c-8.848 0-16 7.152-16 16v208c0 8.848 7.152 16 16 16zM144 224.080h32v208h-32v-208zM240 448.096h32c8.848 0 16-7.152 16-16v-208c0-8.848-7.152-16-16-16h-32c-8.848 0-16 7.152-16 16v208c0 8.848 7.152 16 16 16zM240 224.080h32v208h-32v-208zM336 448.096h32c8.848 0 16-7.152 16-16v-208c0-8.848-7.152-16-16-16h-32c-8.848 0-16 7.152-16 16v208c0 8.848 7.152 16 16 16zM336 224.080h32v208h-32v-208z" fill="#444444"></path>
</svg>
