<?xml version="1.0" encoding="utf-8"?>
<!DOCTYPE svg PUBLIC "-//W3C//DTD SVG 1.1//EN" "http://www.w3.org/Graphics/SVG/1.1/DTD/svg11.dtd">
<svg version="1.1" id="Layer_1" xmlns="http://www.w3.org/2000/svg" xmlns:xlink="http://www.w3.org/1999/xlink" x="0px" y="0px"
	 width="512px" height="512px" viewBox="0 0 512 512" enable-background="new 0 0 512 512" xml:space="preserve">
<path d="M426.666,64V21.334h-128V64h42.666v384h-42.666v42.666h128V448H384V64H426.666z M298.666,113.963
	c0-2.219-4.16-4.886-6.827-6.784c-11.755-8.768-24.747-14.486-39.168-17.13c-14.422-2.666-31.254-3.99-50.624-3.99
	c-14.037,0-28.458,2.219-43.2,6.742c-14.762,4.502-27.306,9.963-37.674,16.448c-12.011,7.594-21.739,16.256-29.227,25.92
	c-7.488,9.685-11.242,19.84-11.242,30.442c0,10.155,2.71,19.306,8.128,27.499c5.418,8.193,13.888,12.267,25.408,12.267
	c12.906,0,22.998-3.328,30.272-10.048c7.274-6.656,10.901-14.037,10.901-22.123c0-7.595-1.109-15.893-3.286-24.896
	c-2.219-8.982-3.286-15.786-3.286-20.394c3.691-3.925,10.09-7.659,19.2-11.243c9.088-3.584,18.965-5.355,29.568-5.355
	c15.446,0,27.37,3.157,35.798,9.493c8.427,6.358,14.934,13.782,19.541,22.314c4.139,7.616,3.05,24.875,3.05,24.875v50.88
	c0,5.994-28.95,14.293-60.672,24.896c-31.722,10.603-51.008,17.856-61.398,21.781c-8.278,3.243-16.256,7.574-25.728,12.971
	c-9.451,5.44-16.64,11.584-22.422,18.518c-7.382,8.298-12.694,17.622-16.384,27.99c-3.69,10.367-5.398,22.123-5.398,35.285
	c0,25.365,8.298,45.889,24.789,61.568c16.469,15.659,37.546,23.531,63.126,23.531c24.214,0,44.906-9.493,62.08-18.24
	c17.216-8.81,33.302-21.846,48.278-43.178h2.09c3.009,21.334,9.686,33.514,20.395,41.942l13.909,0.726V113.966L298.666,113.963z
	 M261.589,367.51c-8.534,10.858-19.029,20.245-31.466,28.245c-12.459,7.957-26.88,11.968-43.243,11.968
	c-15.466,0-28.181-4.502-38.208-13.546c-10.048-9.002-15.04-23.081-15.04-42.239c0-14.785,3.328-27.584,10.048-38.315
	c6.656-10.774,15.786-20.054,27.286-27.904c12.714-8.341,26.411-15.253,41.173-20.821c14.742-5.547,29.824-10.625,49.45-16.363
	V367.51L261.589,367.51z"/>
</svg>
