<?xml version="1.0" encoding="utf-8"?>
<!DOCTYPE svg PUBLIC "-//W3C//DTD SVG 1.1//EN" "http://www.w3.org/Graphics/SVG/1.1/DTD/svg11.dtd">
<svg version="1.1" id="Layer_1" xmlns="http://www.w3.org/2000/svg" xmlns:xlink="http://www.w3.org/1999/xlink" x="0px" y="0px"
	 width="476px" height="512px" viewBox="0 0 476 512" enable-background="new 0 0 476 512" xml:space="preserve">
<path fill="#444444" d="M347.428,356.57c0-2.477,0.857-4.666,2.572-6.571c1.904-1.715,4.096-2.571,6.572-2.571
	s4.667,0.856,6.571,2.571l73.144,73.143c1.715,1.905,2.572,4.096,2.572,6.572s-0.857,4.667-2.572,6.572
	c-2.096,1.715-4.287,2.572-6.572,2.572c-2.477,0-4.668-0.857-6.572-2.572L350,363.143
	C348.285,361.238,347.428,359.048,347.428,356.57z M301.713,374.857c0-2.667,0.857-4.857,2.57-6.572
	c1.715-1.715,3.905-2.572,6.572-2.572c2.668,0,4.858,0.857,6.572,2.572s2.57,3.905,2.57,6.572v91.428
	c0.002,2.666-0.855,4.857-2.57,6.572c-1.715,1.714-3.905,2.571-6.572,2.571c-2.666,0-4.857-0.857-6.57-2.571
	c-1.715-1.715-2.571-3.906-2.571-6.572L301.713,374.857L301.713,374.857z M368.285,304.285c1.715-1.715,3.904-2.572,6.572-2.572
	h91.428c2.668,0,4.858,0.857,6.572,2.572c1.713,1.715,2.57,3.905,2.57,6.572c0,2.666-0.856,4.857-2.57,6.572
	c-1.715,1.714-3.906,2.571-6.572,2.571h-91.428c-2.668,0-4.857-0.857-6.572-2.571c-1.715-1.715-2.572-3.906-2.572-6.572
	C365.713,308.19,366.57,306,368.285,304.285z M4.571,347.427c0-22.476,8-41.904,24-58.286l96-96c4-4,9.334-8,16-12l5.144,68.286
	l-78.286,78.572c-5.333,5.333-8,11.81-8,19.428c0,7.429,2.667,13.81,8,19.144l42,41.714c5.143,5.144,11.619,7.667,19.428,7.572
	c7.81-0.096,14.286-2.715,19.429-7.857l78-78.286l68.285,5.143c-4,6.667-8,12-12,16l-95.428,95.715
	c-15.809,16.19-35.238,24.286-58.286,24.286c-22.857,0-42.19-7.905-58-23.715l-42-41.714C12.666,389.619,4.57,370.285,4.571,347.427
	L4.571,347.427z M180.857,140.572c4-6.667,8-12,12-16l95.428-95.715c15.809-16.19,35.238-24.285,58.285-24.285
	c22.857,0,42.19,7.905,58,23.715l42,41.715c16.19,15.81,24.285,35.144,24.285,58c0,22.476-8,41.905-24,58.286l-96,96
	c-4,4-9.333,8-16,12l-5.143-68.572l78.285-78.286c5.333-5.333,8-11.81,8-19.428c0-7.429-2.667-13.81-8-19.143l-42-41.715
	c-5.523-5.144-12-7.715-19.428-7.715c-7.619,0-14.096,2.667-19.429,8l-78,78.285l-68.286-5.143L180.857,140.572z M0,164.57
	c0-2.667,0.857-4.858,2.571-6.572c1.715-1.714,3.905-2.571,6.572-2.571h91.428c2.667,0,4.857,0.857,6.572,2.571
	s2.572,3.905,2.572,6.572c0,2.667-0.857,4.858-2.572,6.572c-1.715,1.714-3.905,2.571-6.572,2.571H9.144
	c-2.667,0-4.857-0.857-6.572-2.571C0.857,169.428,0,167.238,0,164.57L0,164.57z M158,2.571C159.715,0.857,161.905,0,164.571,0
	c2.667,0,4.858,0.856,6.572,2.571c1.715,1.715,2.572,3.906,2.572,6.572v91.428c0,2.667-0.857,4.857-2.572,6.572
	c-1.714,1.714-3.905,2.572-6.572,2.572c-2.666,0-4.856-0.857-6.571-2.572c-1.715-1.715-2.572-3.905-2.572-6.572V9.143
	C155.428,6.475,156.285,4.284,158,2.571z M36.569,45.713c0-2.477,0.857-4.667,2.572-6.572c1.905-1.715,4.096-2.572,6.572-2.572
	s4.667,0.857,6.572,2.572l73.143,73.143c1.715,1.904,2.572,4.095,2.572,6.572s-0.857,4.667-2.572,6.572
	c-2.096,1.715-4.286,2.572-6.572,2.572s-4.477-0.857-6.571-2.572L39.142,52.285C37.427,50.38,36.569,48.189,36.569,45.713z"/>
</svg>
